<?plantuml 1.2026.2?><svg xmlns="http://www.w3.org/2000/svg" xmlns:xlink="http://www.w3.org/1999/xlink" contentStyleType="text/css" data-diagram-type="SEQUENCE" height="1759px" preserveAspectRatio="none" style="width:1067px;height:1759px;background:#FFFFFF;" version="1.1" viewBox="0 0 1067 1759" width="1067px" zoomAndPan="magnify"><title>create_upd_emp_tanggungan_mail_notif() &#8212; Notifikasi Perubahan Tanggungan
mailmodel.php:444-570</title><defs/><g><text fill="#000000" font-family="Verdana" font-size="22" font-weight="bold" lengthAdjust="spacing" textLength="976.6689" x="43.7104" y="35.4209">create_upd_emp_tanggungan_mail_notif() &#8212; Notifikasi Perubahan Tanggungan</text><text fill="#000000" font-family="Verdana" font-size="22" font-weight="bold" lengthAdjust="spacing" textLength="294.3896" x="384.8501" y="61.0303">mailmodel.php:444-570</text><rect fill="#FFFFFF" height="337.2031" style="stroke:#000000;stroke-width:1;" width="334.0488" x="327.8252" y="243.9141"/><rect fill="#FFFFFF" height="263.9375" style="stroke:#000000;stroke-width:1;" width="314.0488" x="337.8252" y="268.0469"/><rect fill="#FFFFFF" height="87.2031" style="stroke:none;stroke-width:1;" width="314.0488" x="337.8252" y="357.5781"/><rect fill="#FFFFFF" height="87.2031" style="stroke:none;stroke-width:1;" width="314.0488" x="337.8252" y="444.7813"/><rect fill="#FFFFFF" height="134.9297" style="stroke:#000000;stroke-width:1;" width="392.8042" x="337.8252" y="927.5781"/><rect fill="#FFFFFF" height="105.6641" style="stroke:#000000;stroke-width:1;" width="434.2046" x="337.8252" y="1559.0313"/><g class="participant-lifeline" data-entity-uid="part1" data-qualified-name="Caller" id="part1-lifeline"><g><title>Caller</title><rect fill="#000000" fill-opacity="0.00000" height="1542.1797" width="8" x="103.2061" y="139.5156"/><line style="stroke:#000000;stroke-width:1;stroke-dasharray:5,5;" x1="107" x2="107" y1="139.5156" y2="1681.6953"/></g></g><g class="participant-lifeline" data-entity-uid="part2" data-qualified-name="Model" id="part2-lifeline"><g><title>MailModel</title><rect fill="#000000" fill-opacity="0.00000" height="1542.1797" width="8" x="396.061" y="139.5156"/><line style="stroke:#000000;stroke-width:1;stroke-dasharray:5,5;" x1="399.8252" x2="399.8252" y1="139.5156" y2="1681.6953"/></g></g><g class="participant-lifeline" data-entity-uid="part3" data-qualified-name="DB" id="part3-lifeline"><g><title>Database</title><rect fill="#000000" fill-opacity="0.00000" height="1542.1797" width="8" x="721.6294" y="139.5156"/><line style="stroke:#000000;stroke-width:1;stroke-dasharray:5,5;" x1="725.229" x2="725.229" y1="139.5156" y2="1681.6953"/></g></g><g class="participant participant-head" data-entity-uid="part1" data-qualified-name="Caller" id="part1-head"><rect fill="#FFFFFF" height="46.5938" rx="2.5" ry="2.5" style="stroke:#000000;stroke-width:1;" width="174.4121" x="20" y="91.9219"/><text fill="#000000" font-family="Verdana" font-size="14" lengthAdjust="spacing" textLength="40.5029" x="86.9546" y="111.917">Caller</text><text fill="#000000" font-family="Verdana" font-size="14" lengthAdjust="spacing" textLength="160.4121" x="27" y="128.2139">(Kepegawaian Module)</text></g><g class="participant participant-tail" data-entity-uid="part1" data-qualified-name="Caller" id="part1-tail"><rect fill="#FFFFFF" height="46.5938" rx="2.5" ry="2.5" style="stroke:#000000;stroke-width:1;" width="174.4121" x="20" y="1680.6953"/><text fill="#000000" font-family="Verdana" font-size="14" lengthAdjust="spacing" textLength="40.5029" x="86.9546" y="1700.6904">Caller</text><text fill="#000000" font-family="Verdana" font-size="14" lengthAdjust="spacing" textLength="160.4121" x="27" y="1716.9873">(Kepegawaian Module)</text></g><g class="participant participant-head" data-entity-uid="part2" data-qualified-name="Model" id="part2-head"><rect fill="#FFFFFF" height="30.2969" rx="2.5" ry="2.5" style="stroke:#000000;stroke-width:1;" width="84.4717" x="357.8252" y="108.2188"/><text fill="#000000" font-family="Verdana" font-size="14" lengthAdjust="spacing" textLength="70.4717" x="364.8252" y="128.2139">MailModel</text></g><g class="participant participant-tail" data-entity-uid="part2" data-qualified-name="Model" id="part2-tail"><rect fill="#FFFFFF" height="30.2969" rx="2.5" ry="2.5" style="stroke:#000000;stroke-width:1;" width="84.4717" x="357.8252" y="1680.6953"/><text fill="#000000" font-family="Verdana" font-size="14" lengthAdjust="spacing" textLength="70.4717" x="364.8252" y="1700.6904">MailModel</text></g><g class="participant participant-head" data-entity-uid="part3" data-qualified-name="DB" id="part3-head"><text fill="#000000" font-family="Verdana" font-size="14" lengthAdjust="spacing" textLength="66.8008" x="689.229" y="136.2139">Database</text><path d="M707.6294,87.2188 C707.6294,77.2188 725.6294,77.2188 725.6294,77.2188 C725.6294,77.2188 743.6294,77.2188 743.6294,87.2188 L743.6294,113.2188 C743.6294,123.2188 725.6294,123.2188 725.6294,123.2188 C725.6294,123.2188 707.6294,123.2188 707.6294,113.2188 L707.6294,87.2188" fill="#FFFFFF" style="stroke:#000000;stroke-width:1;"/><path d="M707.6294,87.2188 C707.6294,97.2188 725.6294,97.2188 725.6294,97.2188 C725.6294,97.2188 743.6294,97.2188 743.6294,87.2188" fill="none" style="stroke:#000000;stroke-width:1;"/></g><g class="participant participant-tail" data-entity-uid="part3" data-qualified-name="DB" id="part3-tail"><text fill="#000000" font-family="Verdana" font-size="14" lengthAdjust="spacing" textLength="66.8008" x="689.229" y="1693.6904">Database</text><path d="M707.6294,1706.9922 C707.6294,1696.9922 725.6294,1696.9922 725.6294,1696.9922 C725.6294,1696.9922 743.6294,1696.9922 743.6294,1706.9922 L743.6294,1732.9922 C743.6294,1742.9922 725.6294,1742.9922 725.6294,1742.9922 C725.6294,1742.9922 707.6294,1742.9922 707.6294,1732.9922 L707.6294,1706.9922" fill="#FFFFFF" style="stroke:#000000;stroke-width:1;"/><path d="M707.6294,1706.9922 C707.6294,1716.9922 725.6294,1716.9922 725.6294,1716.9922 C725.6294,1716.9922 743.6294,1716.9922 743.6294,1706.9922" fill="none" style="stroke:#000000;stroke-width:1;"/></g><g class="message" data-entity-1="part1" data-entity-2="part2" id="msg1"><polygon fill="#000000" points="388.061,181.7813,398.061,185.7813,388.061,189.7813,392.061,185.7813" style="stroke:#000000;stroke-width:1;"/><line style="stroke:#000000;stroke-width:1;" x1="107.2061" x2="394.061" y1="185.7813" y2="185.7813"/><text fill="#000000" font-family="Verdana" font-size="13" lengthAdjust="spacing" textLength="268.855" x="114.2061" y="165.5825">create_upd_emp_tanggungan_mail_notif(</text><text fill="#000000" font-family="Verdana" font-size="13" lengthAdjust="spacing" textLength="172.2373" x="114.2061" y="180.7153">emp, lepas_tanggungan[])</text></g><rect fill="#FFFFFF" height="3" style="stroke:#FFFFFF;stroke-width:1;" width="1055.0898" x="5" y="214.3477"/><line style="stroke:#000000;stroke-width:0.5;" x1="5" x2="1060.0898" y1="214.3477" y2="214.3477"/><line style="stroke:#000000;stroke-width:0.5;" x1="5" x2="1060.0898" y1="217.3477" y2="217.3477"/><rect fill="#FFFFFF" height="23.1328" style="stroke:#000000;stroke-width:1;" width="287.0127" x="389.0386" y="203.7813"/><text fill="#000000" font-family="Verdana" font-size="13" font-weight="bold" lengthAdjust="spacing" textLength="268.4868" x="395.0386" y="219.8481">Step 1: Resolve CLIENT_CODE Config</text><path d="M327.8252,243.9141 L549.728,243.9141 L549.728,251.0469 L539.728,261.0469 L327.8252,261.0469 L327.8252,243.9141" fill="#FFFFFF" style="stroke:#000000;stroke-width:1;"/><rect fill="none" height="337.2031" style="stroke:#000000;stroke-width:1;" width="334.0488" x="327.8252" y="243.9141"/><text fill="#000000" font-family="Verdana" font-size="13" font-weight="bold" lengthAdjust="spacing" textLength="176.9028" x="342.8252" y="256.981">CLIENT_CODE Branching</text><path d="M337.8252,268.0469 L402.2681,268.0469 L402.2681,275.1797 L392.2681,285.1797 L337.8252,285.1797 L337.8252,268.0469" fill="#FFFFFF" style="stroke:#000000;stroke-width:1;"/><rect fill="none" height="263.9375" style="stroke:#000000;stroke-width:1;" width="314.0488" x="337.8252" y="268.0469"/><text fill="#000000" font-family="Verdana" font-size="13" font-weight="bold" lengthAdjust="spacing" textLength="19.4429" x="352.8252" y="281.1138">alt</text><text fill="#000000" font-family="Verdana" font-size="11" font-weight="bold" lengthAdjust="spacing" textLength="37.3076" x="417.2681" y="280.2573">[BMS]</text><g class="message" data-entity-1="part2" data-entity-2="part2" id="msg2"><line style="stroke:#000000;stroke-width:1;" x1="400.061" x2="442.061" y1="336.5781" y2="336.5781"/><line style="stroke:#000000;stroke-width:1;" x1="442.061" x2="442.061" y1="336.5781" y2="349.5781"/><line style="stroke:#000000;stroke-width:1;" x1="401.061" x2="442.061" y1="349.5781" y2="349.5781"/><polygon fill="#000000" points="411.061,345.5781,401.061,349.5781,411.061,353.5781,407.061,349.5781" style="stroke:#000000;stroke-width:1;"/><text fill="#000000" font-family="Verdana" font-size="13" lengthAdjust="spacing" textLength="227.1509" x="407.061" y="301.2466">m_type=1, m_category=1 (UMUM)</text><text fill="#000000" font-family="Verdana" font-size="13" lengthAdjust="spacing" textLength="162.1318" x="407.061" y="316.3794">m_category_code="000"</text><text fill="#000000" font-family="Verdana" font-size="13" lengthAdjust="spacing" textLength="232.813" x="407.061" y="331.5122">ref_code="m_number_format_bms"</text></g><line style="stroke:#000000;stroke-width:1;stroke-dasharray:2,2;" x1="337.8252" x2="651.874" y1="358.5781" y2="358.5781"/><text fill="#000000" font-family="Verdana" font-size="11" font-weight="bold" lengthAdjust="spacing" textLength="38.0542" x="342.8252" y="368.7886">[SMD]</text><g class="message" data-entity-1="part2" data-entity-2="part2" id="msg3"><line style="stroke:#000000;stroke-width:1;" x1="400.061" x2="442.061" y1="423.7813" y2="423.7813"/><line style="stroke:#000000;stroke-width:1;" x1="442.061" x2="442.061" y1="423.7813" y2="436.7813"/><line style="stroke:#000000;stroke-width:1;" x1="401.061" x2="442.061" y1="436.7813" y2="436.7813"/><polygon fill="#000000" points="411.061,432.7813,401.061,436.7813,411.061,440.7813,407.061,436.7813" style="stroke:#000000;stroke-width:1;"/><text fill="#000000" font-family="Verdana" font-size="13" lengthAdjust="spacing" textLength="171.4121" x="407.061" y="388.4497">m_type=1, m_category=1</text><text fill="#000000" font-family="Verdana" font-size="13" lengthAdjust="spacing" textLength="162.1318" x="407.061" y="403.5825">m_category_code="000"</text><text fill="#000000" font-family="Verdana" font-size="13" lengthAdjust="spacing" textLength="232.813" x="407.061" y="418.7153">ref_code="m_number_format_smd"</text></g><line style="stroke:#000000;stroke-width:1;stroke-dasharray:2,2;" x1="337.8252" x2="651.874" y1="445.7813" y2="445.7813"/><text fill="#000000" font-family="Verdana" font-size="11" font-weight="bold" lengthAdjust="spacing" textLength="35.707" x="342.8252" y="455.9917">[BPN]</text><g class="message" data-entity-1="part2" data-entity-2="part2" id="msg4"><line style="stroke:#000000;stroke-width:1;" x1="400.061" x2="442.061" y1="510.9844" y2="510.9844"/><line style="stroke:#000000;stroke-width:1;" x1="442.061" x2="442.061" y1="510.9844" y2="523.9844"/><line style="stroke:#000000;stroke-width:1;" x1="401.061" x2="442.061" y1="523.9844" y2="523.9844"/><polygon fill="#000000" points="411.061,519.9844,401.061,523.9844,411.061,527.9844,407.061,523.9844" style="stroke:#000000;stroke-width:1;"/><text fill="#000000" font-family="Verdana" font-size="13" lengthAdjust="spacing" textLength="171.4121" x="407.061" y="475.6528">m_type=1, m_category=1</text><text fill="#000000" font-family="Verdana" font-size="13" lengthAdjust="spacing" textLength="162.1318" x="407.061" y="490.7856">m_category_code="000"</text><text fill="#000000" font-family="Verdana" font-size="13" lengthAdjust="spacing" textLength="225.2402" x="407.061" y="505.9185">ref_code="m_number_format_blp"</text></g><g class="message" data-entity-1="part2" data-entity-2="part2" id="msg5"><line style="stroke:#000000;stroke-width:1;" x1="400.061" x2="442.061" y1="560.1172" y2="560.1172"/><line style="stroke:#000000;stroke-width:1;" x1="442.061" x2="442.061" y1="560.1172" y2="573.1172"/><line style="stroke:#000000;stroke-width:1;" x1="401.061" x2="442.061" y1="573.1172" y2="573.1172"/><polygon fill="#000000" points="411.061,569.1172,401.061,573.1172,411.061,577.1172,407.061,573.1172" style="stroke:#000000;stroke-width:1;"/><text fill="#000000" font-family="Verdana" font-size="13" lengthAdjust="spacing" textLength="169.0063" x="407.061" y="555.0513">user_id=2 (Administrator)</text></g><rect fill="#FFFFFF" height="3" style="stroke:#FFFFFF;stroke-width:1;" width="1055.0898" x="5" y="608.6836"/><line style="stroke:#000000;stroke-width:0.5;" x1="5" x2="1060.0898" y1="608.6836" y2="608.6836"/><line style="stroke:#000000;stroke-width:0.5;" x1="5" x2="1060.0898" y1="611.6836" y2="611.6836"/><rect fill="#FFFFFF" height="23.1328" style="stroke:#000000;stroke-width:1;" width="241.062" x="412.0139" y="598.1172"/><text fill="#000000" font-family="Verdana" font-size="13" font-weight="bold" lengthAdjust="spacing" textLength="222.5361" x="418.0139" y="614.1841">Step 2: Generate Nomor Surat</text><g class="message" data-entity-1="part2" data-entity-2="part3" id="msg6"><polygon fill="#000000" points="713.6294,663.5156,723.6294,667.5156,713.6294,671.5156,717.6294,667.5156" style="stroke:#000000;stroke-width:1;"/><line style="stroke:#000000;stroke-width:1;" x1="400.061" x2="719.6294" y1="667.5156" y2="667.5156"/><text fill="#000000" font-family="Verdana" font-size="13" lengthAdjust="spacing" textLength="215.5664" x="407.061" y="647.3169">SELECT text FROM sys_reference</text><text fill="#000000" font-family="Verdana" font-size="13" lengthAdjust="spacing" textLength="150.2363" x="407.061" y="662.4497">WHERE code=ref_code</text></g><g class="message" data-entity-1="part3" data-entity-2="part2" id="msg7"><polygon fill="#000000" points="411.061,692.6484,401.061,696.6484,411.061,700.6484,407.061,696.6484" style="stroke:#000000;stroke-width:1;"/><line style="stroke:#000000;stroke-width:1;stroke-dasharray:2,2;" x1="405.061" x2="724.6294" y1="696.6484" y2="696.6484"/><text fill="#000000" font-family="Verdana" font-size="13" lengthAdjust="spacing" textLength="81.377" x="417.061" y="691.5825">no_template</text></g><g class="message" data-entity-1="part2" data-entity-2="part2" id="msg8"><line style="stroke:#000000;stroke-width:1;" x1="400.061" x2="442.061" y1="740.9141" y2="740.9141"/><line style="stroke:#000000;stroke-width:1;" x1="442.061" x2="442.061" y1="740.9141" y2="753.9141"/><line style="stroke:#000000;stroke-width:1;" x1="401.061" x2="442.061" y1="753.9141" y2="753.9141"/><polygon fill="#000000" points="411.061,749.9141,401.061,753.9141,411.061,757.9141,407.061,753.9141" style="stroke:#000000;stroke-width:1;"/><text fill="#000000" font-family="Verdana" font-size="13" lengthAdjust="spacing" textLength="139.2866" x="407.061" y="720.7153">Replace placeholders</text><text fill="#000000" font-family="Verdana" font-size="13" lengthAdjust="spacing" textLength="179.791" x="407.061" y="735.8481">(sama seperti notif lainnya)</text></g><g class="message" data-entity-1="part2" data-entity-2="part3" id="msg9"><polygon fill="#000000" points="713.6294,794.1797,723.6294,798.1797,713.6294,802.1797,717.6294,798.1797" style="stroke:#000000;stroke-width:1;"/><line style="stroke:#000000;stroke-width:1;" x1="400.061" x2="719.6294" y1="798.1797" y2="798.1797"/><text fill="#000000" font-family="Verdana" font-size="13" lengthAdjust="spacing" textLength="135.4844" x="407.061" y="777.981">get_trans_sequence(</text><text fill="#000000" font-family="Verdana" font-size="13" lengthAdjust="spacing" textLength="159.1738" x="407.061" y="793.1138">TASK_MAIL, "00-000", 3)</text></g><g class="message" data-entity-1="part3" data-entity-2="part2" id="msg10"><polygon fill="#000000" points="411.061,823.3125,401.061,827.3125,411.061,831.3125,407.061,827.3125" style="stroke:#000000;stroke-width:1;"/><line style="stroke:#000000;stroke-width:1;stroke-dasharray:2,2;" x1="405.061" x2="724.6294" y1="827.3125" y2="827.3125"/><text fill="#000000" font-family="Verdana" font-size="13" lengthAdjust="spacing" textLength="62.645" x="417.061" y="822.2466">sequence</text></g><rect fill="#FFFFFF" height="3" style="stroke:#FFFFFF;stroke-width:1;" width="1055.0898" x="5" y="855.8789"/><line style="stroke:#000000;stroke-width:0.5;" x1="5" x2="1060.0898" y1="855.8789" y2="855.8789"/><line style="stroke:#000000;stroke-width:0.5;" x1="5" x2="1060.0898" y1="858.8789" y2="858.8789"/><rect fill="#FFFFFF" height="23.1328" style="stroke:#000000;stroke-width:1;" width="335.7754" x="364.6572" y="845.3125"/><text fill="#000000" font-family="Verdana" font-size="13" font-weight="bold" lengthAdjust="spacing" textLength="317.2495" x="370.6572" y="861.3794">Step 3: Build Detail HTML dari Tanggungan</text><g class="message" data-entity-1="part2" data-entity-2="part2" id="msg11"><line style="stroke:#000000;stroke-width:1;" x1="400.061" x2="442.061" y1="899.5781" y2="899.5781"/><line style="stroke:#000000;stroke-width:1;" x1="442.061" x2="442.061" y1="899.5781" y2="912.5781"/><line style="stroke:#000000;stroke-width:1;" x1="401.061" x2="442.061" y1="912.5781" y2="912.5781"/><polygon fill="#000000" points="411.061,908.5781,401.061,912.5781,411.061,916.5781,407.061,912.5781" style="stroke:#000000;stroke-width:1;"/><text fill="#000000" font-family="Verdana" font-size="13" lengthAdjust="spacing" textLength="238.9067" x="407.061" y="894.5122">Load msg_template (template_id=4)</text></g><path d="M337.8252,927.5781 L414.4492,927.5781 L414.4492,934.7109 L404.4492,944.7109 L337.8252,944.7109 L337.8252,927.5781" fill="#FFFFFF" style="stroke:#000000;stroke-width:1;"/><rect fill="none" height="134.9297" style="stroke:#000000;stroke-width:1;" width="392.8042" x="337.8252" y="927.5781"/><text fill="#000000" font-family="Verdana" font-size="13" font-weight="bold" lengthAdjust="spacing" textLength="31.624" x="352.8252" y="940.645">loop</text><text fill="#000000" font-family="Verdana" font-size="11" font-weight="bold" lengthAdjust="spacing" textLength="205.7397" x="429.4492" y="939.7886">[untuk setiap lepas_tanggungan]</text><g class="message" data-entity-1="part2" data-entity-2="part2" id="msg12"><line style="stroke:#000000;stroke-width:1;" x1="400.061" x2="442.061" y1="1041.5078" y2="1041.5078"/><line style="stroke:#000000;stroke-width:1;" x1="442.061" x2="442.061" y1="1041.5078" y2="1054.5078"/><line style="stroke:#000000;stroke-width:1;" x1="401.061" x2="442.061" y1="1054.5078" y2="1054.5078"/><polygon fill="#000000" points="411.061,1050.5078,401.061,1054.5078,411.061,1058.5078,407.061,1054.5078" style="stroke:#000000;stroke-width:1;"/><text fill="#000000" font-family="Verdana" font-size="13" lengthAdjust="spacing" textLength="117.9902" x="407.061" y="960.7778">Build detail HTML:</text><text fill="#000000" font-family="Verdana" font-size="13" lengthAdjust="spacing" textLength="147.8813" x="407.061" y="975.9106">- Nama, Tgl Lahir, Usia</text><text fill="#000000" font-family="Verdana" font-size="13" lengthAdjust="spacing" textLength="311.5684" x="407.061" y="991.0435">- Status Pendidikan (0&#8594;"-", 1&#8594;"Belum Sekolah",</text><text fill="#000000" font-family="Verdana" font-size="13" lengthAdjust="spacing" textLength="229.0234" x="415.3257" y="1006.1763">2&#8594;"Sekolah", 3&#8594;"Selesai Sekolah")</text><text fill="#000000" font-family="Verdana" font-size="13" lengthAdjust="spacing" textLength="280.3506" x="407.061" y="1021.3091">- Status Nikah (0&#8594;"-", 1&#8594;"Belum Menikah",</text><text fill="#000000" font-family="Verdana" font-size="13" lengthAdjust="spacing" textLength="130.8823" x="415.3257" y="1036.4419">2&#8594;"Telah Menikah")</text></g><g class="message" data-entity-1="part2" data-entity-2="part2" id="msg13"><line style="stroke:#000000;stroke-width:1;" x1="400.061" x2="442.061" y1="1090.6406" y2="1090.6406"/><line style="stroke:#000000;stroke-width:1;" x1="442.061" x2="442.061" y1="1090.6406" y2="1103.6406"/><line style="stroke:#000000;stroke-width:1;" x1="401.061" x2="442.061" y1="1103.6406" y2="1103.6406"/><polygon fill="#000000" points="411.061,1099.6406,401.061,1103.6406,411.061,1107.6406,407.061,1103.6406" style="stroke:#000000;stroke-width:1;"/><text fill="#000000" font-family="Verdana" font-size="13" lengthAdjust="spacing" textLength="221.8696" x="407.061" y="1085.5747">Replace #detail# dalam template</text></g><rect fill="#FFFFFF" height="3" style="stroke:#FFFFFF;stroke-width:1;" width="1055.0898" x="5" y="1132.207"/><line style="stroke:#000000;stroke-width:0.5;" x1="5" x2="1060.0898" y1="1132.207" y2="1132.207"/><line style="stroke:#000000;stroke-width:0.5;" x1="5" x2="1060.0898" y1="1135.207" y2="1135.207"/><rect fill="#FFFFFF" height="23.1328" style="stroke:#000000;stroke-width:1;" width="153.9404" x="455.5747" y="1121.6406"/><text fill="#000000" font-family="Verdana" font-size="13" font-weight="bold" lengthAdjust="spacing" textLength="135.4146" x="461.5747" y="1137.7075">Step 4: Insert Mail</text><g class="message" data-entity-1="part2" data-entity-2="part3" id="msg14"><polygon fill="#000000" points="713.6294,1217.3047,723.6294,1221.3047,713.6294,1225.3047,717.6294,1221.3047" style="stroke:#000000;stroke-width:1;"/><line style="stroke:#000000;stroke-width:1;" x1="400.061" x2="719.6294" y1="1221.3047" y2="1221.3047"/><text fill="#000000" font-family="Verdana" font-size="13" lengthAdjust="spacing" textLength="78.9839" x="407.061" y="1170.8403">INSERT mail</text><text fill="#000000" font-family="Verdana" font-size="13" lengthAdjust="spacing" textLength="284.7114" x="407.061" y="1185.9731">(m_subject="Perubahan data tanggungan",</text><text fill="#000000" font-family="Verdana" font-size="13" lengthAdjust="spacing" textLength="176.2808" x="407.061" y="1201.106">m_to_str=emp.emp_name,</text><text fill="#000000" font-family="Verdana" font-size="13" lengthAdjust="spacing" textLength="129.8667" x="407.061" y="1216.2388">m_status=SENT, ...)</text></g><g class="message" data-entity-1="part3" data-entity-2="part2" id="msg15"><polygon fill="#000000" points="411.061,1246.4375,401.061,1250.4375,411.061,1254.4375,407.061,1250.4375" style="stroke:#000000;stroke-width:1;"/><line style="stroke:#000000;stroke-width:1;stroke-dasharray:2,2;" x1="405.061" x2="724.6294" y1="1250.4375" y2="1250.4375"/><text fill="#000000" font-family="Verdana" font-size="13" lengthAdjust="spacing" textLength="46.2173" x="417.061" y="1245.3716">mail_id</text></g><g class="message" data-entity-1="part2" data-entity-2="part3" id="msg16"><polygon fill="#000000" points="713.6294,1290.7031,723.6294,1294.7031,713.6294,1298.7031,717.6294,1294.7031" style="stroke:#000000;stroke-width:1;"/><line style="stroke:#000000;stroke-width:1;" x1="400.061" x2="719.6294" y1="1294.7031" y2="1294.7031"/><text fill="#000000" font-family="Verdana" font-size="13" lengthAdjust="spacing" textLength="112.9375" x="407.061" y="1274.5044">UPDATE mail SET</text><text fill="#000000" font-family="Verdana" font-size="13" lengthAdjust="spacing" textLength="228.8394" x="407.061" y="1289.6372">m_root_id=mail_id, m_parent_id=0</text></g><rect fill="#FFFFFF" height="3" style="stroke:#FFFFFF;stroke-width:1;" width="1055.0898" x="5" y="1323.2695"/><line style="stroke:#000000;stroke-width:0.5;" x1="5" x2="1060.0898" y1="1323.2695" y2="1323.2695"/><line style="stroke:#000000;stroke-width:0.5;" x1="5" x2="1060.0898" y1="1326.2695" y2="1326.2695"/><rect fill="#FFFFFF" height="23.1328" style="stroke:#000000;stroke-width:1;" width="263.2407" x="400.9246" y="1312.7031"/><text fill="#000000" font-family="Verdana" font-size="13" font-weight="bold" lengthAdjust="spacing" textLength="244.7148" x="406.9246" y="1328.77">Step 5: Create Sent Item (Admin)</text><g class="message" data-entity-1="part2" data-entity-2="part3" id="msg17"><polygon fill="#000000" points="713.6294,1378.1016,723.6294,1382.1016,713.6294,1386.1016,717.6294,1382.1016" style="stroke:#000000;stroke-width:1;"/><line style="stroke:#000000;stroke-width:1;" x1="400.061" x2="719.6294" y1="1382.1016" y2="1382.1016"/><text fill="#000000" font-family="Verdana" font-size="13" lengthAdjust="spacing" textLength="141.0894" x="407.061" y="1361.9028">INSERT sys_user_task</text><text fill="#000000" font-family="Verdana" font-size="13" lengthAdjust="spacing" textLength="185.415" x="407.061" y="1377.0356">(user_id=2, folder_id=SENT)</text></g><rect fill="#FFFFFF" height="3" style="stroke:#FFFFFF;stroke-width:1;" width="1055.0898" x="5" y="1410.668"/><line style="stroke:#000000;stroke-width:0.5;" x1="5" x2="1060.0898" y1="1410.668" y2="1410.668"/><line style="stroke:#000000;stroke-width:0.5;" x1="5" x2="1060.0898" y1="1413.668" y2="1413.668"/><rect fill="#FFFFFF" height="23.1328" style="stroke:#000000;stroke-width:1;" width="350.2607" x="357.4146" y="1400.1016"/><text fill="#000000" font-family="Verdana" font-size="13" font-weight="bold" lengthAdjust="spacing" textLength="331.7349" x="363.4146" y="1416.1685">Step 6: Create Inbox untuk Karyawan Terkait</text><g class="message" data-entity-1="part2" data-entity-2="part3" id="msg18"><polygon fill="#000000" points="713.6294,1510.8984,723.6294,1514.8984,713.6294,1518.8984,717.6294,1514.8984" style="stroke:#000000;stroke-width:1;"/><line style="stroke:#000000;stroke-width:1;" x1="400.061" x2="719.6294" y1="1514.8984" y2="1514.8984"/><text fill="#000000" font-family="Verdana" font-size="13" lengthAdjust="spacing" textLength="174.2622" x="407.061" y="1449.3013">SELECT * FROM sys_user u</text><text fill="#000000" font-family="Verdana" font-size="13" lengthAdjust="spacing" textLength="233.0923" x="407.061" y="1464.4341">JOIN employee e JOIN emp_profile p</text><text fill="#000000" font-family="Verdana" font-size="13" lengthAdjust="spacing" textLength="102.4067" x="407.061" y="1479.5669">JOIN position ps</text><text fill="#000000" font-family="Verdana" font-size="13" lengthAdjust="spacing" textLength="146.1865" x="407.061" y="1494.6997">WHERE user_status=1</text><text fill="#000000" font-family="Verdana" font-size="13" lengthAdjust="spacing" textLength="183.3838" x="407.061" y="1509.8325">AND e.emp_id=emp.emp_id</text></g><path d="M730,1457.9336 L730,1497.9336 L1049,1497.9336 L1049,1467.9336 L1039,1457.9336 L730,1457.9336" fill="#FFA500" style="stroke:#000000;stroke-width:1;"/><path d="M1039,1457.9336 L1039,1467.9336 L1049,1467.9336 L1039,1457.9336" fill="#FFA500" style="stroke:#000000;stroke-width:1;"/><text fill="#000000" font-family="Verdana" font-size="13" font-weight="bold" lengthAdjust="spacing" textLength="59.2744" x="736" y="1475.0005">Migrasi:</text><text fill="#000000" font-family="Verdana" font-size="13" lengthAdjust="spacing" textLength="160.0688" x="799.4067" y="1475.0005">Single employee lookup.</text><text fill="#000000" font-family="Verdana" font-size="13" lengthAdjust="spacing" textLength="298.4604" x="736" y="1490.1333">Di Spring Boot: GET /pegawai/{nipam}/nipam</text><g class="message" data-entity-1="part3" data-entity-2="part2" id="msg20"><polygon fill="#000000" points="411.061,1540.0313,401.061,1544.0313,411.061,1548.0313,407.061,1544.0313" style="stroke:#000000;stroke-width:1;"/><line style="stroke:#000000;stroke-width:1;stroke-dasharray:2,2;" x1="405.061" x2="724.6294" y1="1544.0313" y2="1544.0313"/><text fill="#000000" font-family="Verdana" font-size="13" lengthAdjust="spacing" textLength="89.1592" x="417.061" y="1538.9653">target user(s)</text></g><path d="M337.8252,1559.0313 L414.4492,1559.0313 L414.4492,1566.1641 L404.4492,1576.1641 L337.8252,1576.1641 L337.8252,1559.0313" fill="#FFFFFF" style="stroke:#000000;stroke-width:1;"/><rect fill="none" height="105.6641" style="stroke:#000000;stroke-width:1;" width="434.2046" x="337.8252" y="1559.0313"/><text fill="#000000" font-family="Verdana" font-size="13" font-weight="bold" lengthAdjust="spacing" textLength="31.624" x="352.8252" y="1572.0981">loop</text><text fill="#000000" font-family="Verdana" font-size="11" font-weight="bold" lengthAdjust="spacing" textLength="200.2075" x="429.4492" y="1571.2417">[untuk setiap user (biasanya 1)]</text><g class="message" data-entity-1="part2" data-entity-2="part3" id="msg21"><polygon fill="#000000" points="713.6294,1608.4297,723.6294,1612.4297,713.6294,1616.4297,717.6294,1612.4297" style="stroke:#000000;stroke-width:1;"/><line style="stroke:#000000;stroke-width:1;" x1="400.061" x2="719.6294" y1="1612.4297" y2="1612.4297"/><text fill="#000000" font-family="Verdana" font-size="13" lengthAdjust="spacing" textLength="142.7842" x="407.061" y="1592.231">INSERT mail_recipient</text><text fill="#000000" font-family="Verdana" font-size="13" lengthAdjust="spacing" textLength="214.1953" x="407.061" y="1607.3638">(circulation=4, email=0, sms=0)</text></g><g class="message" data-entity-1="part2" data-entity-2="part3" id="msg22"><polygon fill="#000000" points="713.6294,1652.6953,723.6294,1656.6953,713.6294,1660.6953,717.6294,1656.6953" style="stroke:#000000;stroke-width:1;"/><line style="stroke:#000000;stroke-width:1;" x1="400.061" x2="719.6294" y1="1656.6953" y2="1656.6953"/><text fill="#000000" font-family="Verdana" font-size="13" lengthAdjust="spacing" textLength="141.0894" x="407.061" y="1636.4966">INSERT sys_user_task</text><text fill="#000000" font-family="Verdana" font-size="13" lengthAdjust="spacing" textLength="269.3057" x="407.061" y="1651.6294">(folder_id=INBOX, read_status=UNREAD)</text></g><?plantuml-src jLNTZkiq4BxFKmpTctQLThkxFI1L2bB_u9HjkgicAv0eYjnacfecTexjmAaG4bSy0E89pvCmJjkq-uS0YQiu7dlccv_lysTcWpb2aJ4k7CDDXX0hP0QZiaWYp8l8C96cfKYPY7B6iqX8mzVD5dpwxK-OspNVCitX0LMvOXic8AmlB8MzaSi4iqwnAVgzNg_zxekkunHC6HxpWWa3ZH7BCbHBqRp30bFsC-Fan9T9cM6h0Kp3_i3JIpuvzgtZwaIrSX9cs8ffXCRuiAgCuw7Zx5r0-ylzKUZ_iooNWcmkP5WmVNRa-nzQZkDv41WiuBeF2zGo-mbXD9jEvc4qkXzFO2J5cgVWUOwJAbaMJun3nKIyuI9r05XcOEW7j883k3EKUMHs1NhNBgrYmfjAjVEkeVdeF_ejAc-z6SLqmsjqkzt6KYXS7_xpI9Jv2bMqbYfd9bhbka6HCACg1VxutmJz3z5qdjJHXW_p_pdQAYkgQ29nNWbJQZh94-y6ceCavu9hevYHgkNO2tKtR_hmDGea4z9qvr91KD9FrSVQvtX83eF9R38AmU170ryjxdtGEnqHEbGeOboARzzF5XEee1unEtInVOP9oCZGW6KKxCpxqRf0iiGLDsFSo2n1fOabckKCD565s03Lc88bhzYnrdE8APg8iXGwqlYXjB1eeiD1S1VvW-dC1IffsrRLXTlMSsp76wVItFPXMF8iWJ4QeWYy3_qP94pnCyO_hTFHrqoo17ATrjb2yxYoBUaHy4pA0afXoYr5DfmLBqZtMbFtU98JdlvIj65E5N8XJ3EOiGrNBZngpgmXCCoKcgHA93mXsHBGx7xw_Oz6cofmRHT3pCeS0jpAZ6qQxb80tDZzUWTkzxyPQiRhWwqpvtFoktdThu_26i_yXaZNw_t3ABuv21VxH2-ew1dBuJGwnmxr-Z0LDES6h3o-ChFJUJ1PX60LZYOfZtIv-X5ZupLEwcr554vLjs29eJ8YkdWKi6F5Kh0SgtrTvUm596mkT3gT5rDKQIbFdkDuV1WFmabb9Hw5rfMIqjXXEDomQa22ZwBQx9voVDU7KINTL7rw2APKXGEZMsydRAbP2O1XUakPrsBWmheYblsnMPpf-kTreAbOoO-7uRnZQaTF5BrogBQC_uqmN9vKmOQ3SYc-kP_EmNPDxX01uVWV5KgkEJsznU5C8JKtN0eez558AiY7UfCw3kPZmAePXFpO5oeq2GA2ukd6mCKzKJz5uitbfSzJHQzq__8I0dfsA5GDWvYtBOiE7HlJH1UAp32aPf0GJaAuEZp9Lxy8UddpNw-gZnrKgpql5CqmHQ9JWMtgLsbTrQAvuampaYouRftp-lcGafxIWy-fqTIqcAkuf86dkdWzbnAW0rxN1Prhh_kcc-UjF_LxEX_UV-S2zJWv5lPnlfWCndiU_WK0?></g></svg>