<?plantuml 1.2026.2?><svg xmlns="http://www.w3.org/2000/svg" xmlns:xlink="http://www.w3.org/1999/xlink" contentStyleType="text/css" data-diagram-type="ACTIVITY" height="1105px" preserveAspectRatio="none" style="width:2452px;height:1105px;background:#FFFFFF;" version="1.1" viewBox="0 0 2452 1105" width="2452px" zoomAndPan="magnify"><title>generate_code() &#8212; Auto Numbering Arsip Surat
mailarchivemodel.php:435-551</title><defs/><g><g class="title" data-source-line="2"><text fill="#000000" font-family="Verdana" font-size="22" font-weight="bold" lengthAdjust="spacing" textLength="590.3799" x="929.7578" y="35.4209">generate_code() &#8212; Auto Numbering Arsip Surat</text><text fill="#000000" font-family="Verdana" font-size="22" font-weight="bold" lengthAdjust="spacing" textLength="385.5908" x="1032.1523" y="61.0303">mailarchivemodel.php:435-551</text></g><ellipse cx="1219.4478" cy="87.2188" fill="#FFFFFF" rx="10" ry="10" style="stroke:#000000;stroke-width:1;"/><polygon fill="#FFFFFF" points="226.5132,117.2188,308.562,117.2188,320.562,129.2188,308.562,141.2188,226.5132,141.2188,214.5132,129.2188,226.5132,117.2188" style="stroke:#000000;stroke-width:1;"/><text fill="#000000" font-family="Verdana" font-size="11" lengthAdjust="spacing" textLength="24.0195" x="271.5376" y="151.4292">BMS</text><text fill="#000000" font-family="Verdana" font-size="11" lengthAdjust="spacing" textLength="82.0488" x="226.5132" y="133.0269">CLIENT_CODE?</text><rect fill="#ADD8E6" height="809.3125" style="stroke:#000000;stroke-width:1;" width="816.6211" x="6" y="174.0234"/><path d="M143.1963,174.0234 L143.1963,183.3203 L133.1963,193.3203 L6,193.3203" fill="none" style="stroke:#000000;stroke-width:1;"/><text fill="#000000" font-family="Verdana" font-size="14" lengthAdjust="spacing" textLength="127.1963" x="9" y="188.0186">BMS &#8212; Banyumas</text><rect fill="#FFFFFF" height="33.9688" rx="12.5" ry="12.5" style="stroke:#000000;stroke-width:1;" width="249.8867" x="142.5942" y="210.3203"/><text fill="#000000" font-family="Verdana" font-size="12" lengthAdjust="spacing" textLength="229.8867" x="152.5942" y="231.459">ref_code = "ma_number_format_bms"</text><rect fill="#FFFFFF" height="33.9688" rx="12.5" ry="12.5" style="stroke:#000000;stroke-width:1;" width="221.2813" x="156.897" y="277.0938"/><text fill="#000000" font-family="Verdana" font-size="12" lengthAdjust="spacing" textLength="201.2813" x="166.897" y="298.2324">Load template dari sys_reference</text><rect fill="#FFFFFF" height="33.9688" rx="12.5" ry="12.5" style="stroke:#000000;stroke-width:1;" width="219.1543" x="157.9604" y="343.8672"/><text fill="#000000" font-family="Verdana" font-size="12" lengthAdjust="spacing" textLength="199.1543" x="167.9604" y="365.0059">Load mail_code dari organization</text><rect fill="#FFFFFF" height="33.9688" rx="12.5" ry="12.5" style="stroke:#000000;stroke-width:1;" width="225.0957" x="154.9897" y="410.6406"/><text fill="#000000" font-family="Verdana" font-size="12" lengthAdjust="spacing" textLength="205.0957" x="164.9897" y="431.7793">Replace #org_code# &#8594; mail_code</text><rect fill="#FFFFFF" height="75.875" rx="12.5" ry="12.5" style="stroke:#000000;stroke-width:1;" width="198.6758" x="168.1997" y="479.6094"/><text fill="#000000" font-family="Verdana" font-size="12" lengthAdjust="spacing" textLength="90.123" x="178.1997" y="500.748">Type mapping:</text><text fill="#000000" font-family="Verdana" font-size="12" lengthAdjust="spacing" textLength="95.9473" x="178.1997" y="514.7168">1&#8594;"I/" (Internal)</text><text fill="#000000" font-family="Verdana" font-size="12" lengthAdjust="spacing" textLength="93.0703" x="178.1997" y="528.6855">2&#8594;"M/" (Memo)</text><text fill="#000000" font-family="Verdana" font-size="12" lengthAdjust="spacing" textLength="178.6758" x="178.1997" y="542.6543">3&#8594;"" (Eksternal, tanpa prefix)</text><polygon fill="#FFFFFF" points="200.6218,590.4844,334.4534,590.4844,346.4534,603.2891,334.4534,616.0938,200.6218,616.0938,188.6218,603.2891,200.6218,590.4844" style="stroke:#000000;stroke-width:1;"/><text fill="#000000" font-family="Verdana" font-size="11" lengthAdjust="spacing" textLength="133.8315" x="200.6218" y="600.6948">office_code == "PUSAT"</text><text fill="#000000" font-family="Verdana" font-size="11" lengthAdjust="spacing" textLength="64.002" x="200.6218" y="613.4995">atau "ALL"?</text><text fill="#000000" font-family="Verdana" font-size="11" lengthAdjust="spacing" textLength="35.9111" x="152.7107" y="600.6948">PUSAT</text><text fill="#000000" font-family="Verdana" font-size="11" lengthAdjust="spacing" textLength="47.0293" x="346.4534" y="600.6948">CABANG</text><rect fill="#FFFFFF" height="33.9688" rx="12.5" ry="12.5" style="stroke:#000000;stroke-width:1;" width="164.3574" x="40.7783" y="626.0938"/><text fill="#000000" font-family="Verdana" font-size="12" lengthAdjust="spacing" textLength="144.3574" x="50.7783" y="647.2324">m_cat = ma_mcat_code</text><rect fill="#FFFFFF" height="33.9688" rx="12.5" ry="12.5" style="stroke:#000000;stroke-width:1;" width="209.9141" x="18" y="695.0625"/><text fill="#000000" font-family="Verdana" font-size="12" lengthAdjust="spacing" textLength="189.9141" x="28" y="716.2012">prefix_sequence = type + YYYY</text><rect fill="#FFFFFF" height="33.9688" rx="12.5" ry="12.5" style="stroke:#000000;stroke-width:1;" width="283.1387" x="270.5488" y="626.0938"/><text fill="#000000" font-family="Verdana" font-size="12" lengthAdjust="spacing" textLength="263.1387" x="280.5488" y="647.2324">m_cat = ma_mcat_code + "-" + office_code</text><path d="M596.3223,695.0625 L596.3223,718.7617 L576.3223,722.7617 L596.3223,726.7617 L596.3223,750.4609 A0,0 0 0 0 596.3223,750.4609 L810.6211,750.4609 A0,0 0 0 0 810.6211,750.4609 L810.6211,705.0625 L800.6211,695.0625 L596.3223,695.0625 A0,0 0 0 0 596.3223,695.0625" fill="#FFFFFF" style="stroke:#000000;stroke-width:1;"/><path d="M800.6211,695.0625 L800.6211,705.0625 L810.6211,705.0625 L800.6211,695.0625" fill="#FFFFFF" style="stroke:#000000;stroke-width:1;"/><text fill="#000000" font-family="Verdana" font-size="13" lengthAdjust="spacing" textLength="193.2988" x="602.3223" y="712.1294">Cabang punya prefix terpisah</text><text fill="#000000" font-family="Verdana" font-size="13" lengthAdjust="spacing" textLength="171.2788" x="602.3223" y="727.2622">agar sequence numbering</text><text fill="#000000" font-family="Verdana" font-size="13" lengthAdjust="spacing" textLength="154.7622" x="602.3223" y="742.395">independen per cabang</text><rect fill="#FFFFFF" height="33.9688" rx="12.5" ry="12.5" style="stroke:#000000;stroke-width:1;" width="328.4082" x="247.9141" y="705.7773"/><text fill="#000000" font-family="Verdana" font-size="12" lengthAdjust="spacing" textLength="308.4082" x="257.9141" y="726.916">prefix_sequence = office_code + "/" + type + YYYY</text><polygon fill="#FFFFFF" points="267.5376,756.4609,279.5376,768.4609,267.5376,780.4609,255.5376,768.4609,267.5376,756.4609" style="stroke:#000000;stroke-width:1;"/><rect fill="#FFFFFF" height="33.9688" rx="12.5" ry="12.5" style="stroke:#000000;stroke-width:1;" width="286.3086" x="124.3833" y="815.4609"/><text fill="#000000" font-family="Verdana" font-size="12" lengthAdjust="spacing" textLength="266.3086" x="134.3833" y="836.5996">Replace #type#, #MR#, #YYYY#, #m_cat#</text><path d="M423.438,873.2656 L423.438,889.3984 L403.438,893.3984 L423.438,897.3984 L423.438,913.5313 A0,0 0 0 0 423.438,913.5313 L665.2095,913.5313 A0,0 0 0 0 665.2095,913.5313 L665.2095,883.2656 L655.2095,873.2656 L423.438,873.2656 A0,0 0 0 0 423.438,873.2656" fill="#FFFFFF" style="stroke:#000000;stroke-width:1;"/><path d="M655.2095,873.2656 L655.2095,883.2656 L665.2095,883.2656 L655.2095,873.2656" fill="#FFFFFF" style="stroke:#000000;stroke-width:1;"/><text fill="#000000" font-family="Verdana" font-size="13" lengthAdjust="spacing" textLength="198.8784" x="429.438" y="890.3325">Padding 4 digit (0001, 0002...)</text><text fill="#000000" font-family="Verdana" font-size="13" lengthAdjust="spacing" textLength="220.7715" x="429.438" y="905.4653">berbeda dengan mail yang 3 digit</text><rect fill="#FFFFFF" height="47.9375" rx="12.5" ry="12.5" style="stroke:#000000;stroke-width:1;" width="271.8008" x="131.6372" y="869.4297"/><text fill="#000000" font-family="Verdana" font-size="12" lengthAdjust="spacing" textLength="200.5723" x="141.6372" y="890.5684">sequence = get_trans_sequence(</text><text fill="#000000" font-family="Verdana" font-size="12" lengthAdjust="spacing" textLength="234.9551" x="141.6372" y="904.5371">TASK_MAIL_ARCHIVE, prefix_sequence,</text><text fill="#000000" font-family="Verdana" font-size="12" font-weight="bold" lengthAdjust="spacing" textLength="8.3496" x="380.4067" y="904.5371">4</text><text fill="#000000" font-family="Verdana" font-size="12" lengthAdjust="spacing" textLength="4.6816" x="388.7563" y="904.5371">)</text><rect fill="#FFFFFF" height="33.9688" rx="12.5" ry="12.5" style="stroke:#000000;stroke-width:1;" width="188.6914" x="173.1919" y="937.3672"/><text fill="#000000" font-family="Verdana" font-size="12" lengthAdjust="spacing" textLength="168.6914" x="183.1919" y="958.5059">Replace #seq# &#8594; sequence</text><polygon fill="#FFFFFF" points="1081.687,117.2188,1106.6304,117.2188,1118.6304,129.2188,1106.6304,141.2188,1081.687,141.2188,1069.687,129.2188,1081.687,117.2188" style="stroke:#000000;stroke-width:1;"/><text fill="#000000" font-family="Verdana" font-size="11" lengthAdjust="spacing" textLength="24.9434" x="1081.687" y="133.0269">SMD</text><rect fill="#ADD8E6" height="650.7266" style="stroke:#000000;stroke-width:1;" width="636.9053" x="832.6211" y="161.2188"/><path d="M972.9346,161.2188 L972.9346,170.5156 L962.9346,180.5156 L832.6211,180.5156" fill="none" style="stroke:#000000;stroke-width:1;"/><text fill="#000000" font-family="Verdana" font-size="14" lengthAdjust="spacing" textLength="130.3135" x="835.6211" y="175.2139">SMD &#8212; Samarinda</text><path d="M1239.1021,197.5156 L1239.1021,213.6484 L1219.1021,217.6484 L1239.1021,221.6484 L1239.1021,237.7813 A0,0 0 0 0 1239.1021,237.7813 L1459.5264,237.7813 A0,0 0 0 0 1459.5264,237.7813 L1459.5264,207.5156 L1449.5264,197.5156 L1239.1021,197.5156 A0,0 0 0 0 1239.1021,197.5156" fill="#FFFFFF" style="stroke:#000000;stroke-width:1;"/><path d="M1449.5264,197.5156 L1449.5264,207.5156 L1459.5264,207.5156 L1449.5264,197.5156" fill="#FFFFFF" style="stroke:#000000;stroke-width:1;"/><text fill="#000000" font-family="Verdana" font-size="13" lengthAdjust="spacing" textLength="168.2764" x="1245.1021" y="214.5825">Logic identik dengan BMS</text><text fill="#000000" font-family="Verdana" font-size="13" lengthAdjust="spacing" textLength="199.4243" x="1245.1021" y="229.7153">hanya beda ref_code template</text><rect fill="#FFFFFF" height="33.9688" rx="12.5" ry="12.5" style="stroke:#000000;stroke-width:1;" width="249.8867" x="969.2153" y="200.6641"/><text fill="#000000" font-family="Verdana" font-size="12" lengthAdjust="spacing" textLength="229.8867" x="979.2153" y="221.8027">ref_code = "ma_number_format_smd"</text><rect fill="#FFFFFF" height="33.9688" rx="12.5" ry="12.5" style="stroke:#000000;stroke-width:1;" width="185.3164" x="1001.5005" y="270.5859"/><text fill="#000000" font-family="Verdana" font-size="12" lengthAdjust="spacing" textLength="165.3164" x="1011.5005" y="291.7246">Load template + mail_code</text><rect fill="#FFFFFF" height="33.9688" rx="12.5" ry="12.5" style="stroke:#000000;stroke-width:1;" width="237.3594" x="975.479" y="337.3594"/><text fill="#000000" font-family="Verdana" font-size="12" lengthAdjust="spacing" textLength="217.3594" x="985.479" y="358.498">Type mapping: 1&#8594;"I/", 2&#8594;"M/", 3&#8594;""</text><polygon fill="#FFFFFF" points="1007.5203,404.1328,1180.7971,404.1328,1192.7971,416.1328,1180.7971,428.1328,1007.5203,428.1328,995.5203,416.1328,1007.5203,404.1328" style="stroke:#000000;stroke-width:1;"/><text fill="#000000" font-family="Verdana" font-size="11" lengthAdjust="spacing" textLength="173.2769" x="1007.5203" y="419.9409">office_code == "PUSAT"/"ALL"?</text><text fill="#000000" font-family="Verdana" font-size="11" lengthAdjust="spacing" textLength="35.9111" x="959.6091" y="413.5386">PUSAT</text><text fill="#000000" font-family="Verdana" font-size="11" lengthAdjust="spacing" textLength="47.0293" x="1192.7971" y="413.5386">CABANG</text><rect fill="#FFFFFF" height="33.9688" rx="12.5" ry="12.5" style="stroke:#000000;stroke-width:1;" width="164.3574" x="867.3994" y="438.1328"/><text fill="#000000" font-family="Verdana" font-size="12" lengthAdjust="spacing" textLength="144.3574" x="877.3994" y="459.2715">m_cat = ma_mcat_code</text><rect fill="#FFFFFF" height="33.9688" rx="12.5" ry="12.5" style="stroke:#000000;stroke-width:1;" width="209.9141" x="844.6211" y="507.1016"/><text fill="#000000" font-family="Verdana" font-size="12" lengthAdjust="spacing" textLength="189.9141" x="854.6211" y="528.2402">prefix_sequence = type + YYYY</text><rect fill="#FFFFFF" height="33.9688" rx="12.5" ry="12.5" style="stroke:#000000;stroke-width:1;" width="283.1387" x="1097.1699" y="438.1328"/><text fill="#000000" font-family="Verdana" font-size="12" lengthAdjust="spacing" textLength="263.1387" x="1107.1699" y="459.2715">m_cat = ma_mcat_code + "-" + office_code</text><rect fill="#FFFFFF" height="33.9688" rx="12.5" ry="12.5" style="stroke:#000000;stroke-width:1;" width="328.4082" x="1074.5352" y="507.1016"/><text fill="#000000" font-family="Verdana" font-size="12" lengthAdjust="spacing" textLength="308.4082" x="1084.5352" y="528.2402">prefix_sequence = office_code + "/" + type + YYYY</text><polygon fill="#FFFFFF" points="1094.1587,547.0703,1106.1587,559.0703,1094.1587,571.0703,1082.1587,559.0703,1094.1587,547.0703" style="stroke:#000000;stroke-width:1;"/><rect fill="#FFFFFF" height="33.9688" rx="12.5" ry="12.5" style="stroke:#000000;stroke-width:1;" width="148.5723" x="1019.8726" y="606.0703"/><text fill="#000000" font-family="Verdana" font-size="12" lengthAdjust="spacing" textLength="128.5723" x="1029.8726" y="627.209">Replace placeholders</text><rect fill="#FFFFFF" height="47.9375" rx="12.5" ry="12.5" style="stroke:#000000;stroke-width:1;" width="271.8008" x="958.2583" y="675.0391"/><text fill="#000000" font-family="Verdana" font-size="12" lengthAdjust="spacing" textLength="200.5723" x="968.2583" y="696.1777">sequence = get_trans_sequence(</text><text fill="#000000" font-family="Verdana" font-size="12" lengthAdjust="spacing" textLength="234.9551" x="968.2583" y="710.1465">TASK_MAIL_ARCHIVE, prefix_sequence,</text><text fill="#000000" font-family="Verdana" font-size="12" font-weight="bold" lengthAdjust="spacing" textLength="8.3496" x="1207.0278" y="710.1465">4</text><text fill="#000000" font-family="Verdana" font-size="12" lengthAdjust="spacing" textLength="4.6816" x="1215.3774" y="710.1465">)</text><rect fill="#FFFFFF" height="33.9688" rx="12.5" ry="12.5" style="stroke:#000000;stroke-width:1;" width="113.1816" x="1037.5679" y="757.9766"/><text fill="#000000" font-family="Verdana" font-size="12" lengthAdjust="spacing" textLength="93.1816" x="1047.5679" y="779.1152">Replace #seq#</text><polygon fill="#FFFFFF" points="1620.6807,117.2188,1644.6807,117.2188,1656.6807,129.2188,1644.6807,141.2188,1620.6807,141.2188,1608.6807,129.2188,1620.6807,117.2188" style="stroke:#000000;stroke-width:1;"/><text fill="#000000" font-family="Verdana" font-size="11" lengthAdjust="spacing" textLength="22.4082" x="1621.4766" y="133.0269">BPN</text><text fill="#000000" font-family="Verdana" font-size="11" lengthAdjust="spacing" textLength="38.7041" x="1656.6807" y="126.6245">default</text><rect fill="#ADD8E6" height="636.3047" style="stroke:#000000;stroke-width:1;" width="486.4966" x="1479.5264" y="161.2188"/><path d="M1618.8213,161.2188 L1618.8213,170.5156 L1608.8213,180.5156 L1479.5264,180.5156" fill="none" style="stroke:#000000;stroke-width:1;"/><text fill="#000000" font-family="Verdana" font-size="14" lengthAdjust="spacing" textLength="129.2949" x="1482.5264" y="175.2139">BPN &#8212; Balikpapan</text><rect fill="#FFFFFF" height="33.9688" rx="12.5" ry="12.5" style="stroke:#000000;stroke-width:1;" width="242.8965" x="1511.2324" y="197.5156"/><text fill="#000000" font-family="Verdana" font-size="12" lengthAdjust="spacing" textLength="222.8965" x="1521.2324" y="218.6543">ref_code = "ma_number_format_blp"</text><rect fill="#FFFFFF" height="33.9688" rx="12.5" ry="12.5" style="stroke:#000000;stroke-width:1;" width="185.3164" x="1540.0225" y="264.2891"/><text fill="#000000" font-family="Verdana" font-size="12" lengthAdjust="spacing" textLength="165.3164" x="1550.0225" y="285.4277">Load template + mail_code</text><rect fill="#FFFFFF" height="33.9688" rx="12.5" ry="12.5" style="stroke:#000000;stroke-width:1;" width="225.0957" x="1520.1328" y="331.0625"/><text fill="#000000" font-family="Verdana" font-size="12" lengthAdjust="spacing" textLength="205.0957" x="1530.1328" y="352.2012">Replace #org_code# &#8594; mail_code</text><path d="M1748.9541,415.6406 L1748.9541,431.7734 L1728.9541,435.7734 L1748.9541,439.7734 L1748.9541,455.9063 A0,0 0 0 0 1748.9541,455.9063 L1956.0229,455.9063 A0,0 0 0 0 1956.0229,455.9063 L1956.0229,425.6406 L1946.0229,415.6406 L1748.9541,415.6406 A0,0 0 0 0 1748.9541,415.6406" fill="#FFFFFF" style="stroke:#000000;stroke-width:1;"/><path d="M1946.0229,415.6406 L1946.0229,425.6406 L1956.0229,425.6406 L1946.0229,415.6406" fill="#FFFFFF" style="stroke:#000000;stroke-width:1;"/><text fill="#000000" font-family="Verdana" font-size="13" lengthAdjust="spacing" textLength="186.0688" x="1754.9541" y="432.7075">BPN: tanpa office branching.</text><text fill="#000000" font-family="Verdana" font-size="13" lengthAdjust="spacing" textLength="184.8755" x="1754.9541" y="447.8403">Tidak ada PUSAT vs cabang.</text><rect fill="#FFFFFF" height="75.875" rx="12.5" ry="12.5" style="stroke:#000000;stroke-width:1;" width="192.5469" x="1536.4072" y="397.8359"/><text fill="#000000" font-family="Verdana" font-size="12" lengthAdjust="spacing" textLength="172.5469" x="1546.4072" y="418.9746">Type mapping (tanpa slash):</text><text fill="#000000" font-family="Verdana" font-size="12" lengthAdjust="spacing" textLength="91.9043" x="1546.4072" y="432.9434">1&#8594;"I" (Internal)</text><text fill="#000000" font-family="Verdana" font-size="12" lengthAdjust="spacing" textLength="89.0273" x="1546.4072" y="446.9121">2&#8594;"M" (Memo)</text><text fill="#000000" font-family="Verdana" font-size="12" lengthAdjust="spacing" textLength="88.2539" x="1546.4072" y="460.8809">3&#8594;"K" (Keluar)</text><rect fill="#FFFFFF" height="33.9688" rx="12.5" ry="12.5" style="stroke:#000000;stroke-width:1;" width="286.3086" x="1489.5264" y="508.7109"/><text fill="#000000" font-family="Verdana" font-size="12" lengthAdjust="spacing" textLength="266.3086" x="1499.5264" y="529.8496">Replace #type#, #MR#, #YYYY#, #m_cat#</text><rect fill="#FFFFFF" height="47.9375" rx="12.5" ry="12.5" style="stroke:#000000;stroke-width:1;" width="195.9629" x="1534.6992" y="577.6797"/><text fill="#000000" font-family="Verdana" font-size="12" lengthAdjust="spacing" textLength="175.9629" x="1544.6992" y="598.8184">prefix_sequence = type + "-"</text><text fill="#000000" font-family="Verdana" font-size="12" lengthAdjust="spacing" textLength="151.2012" x="1544.6992" y="612.7871">+ ma_mcat_code + YYYY</text><rect fill="#FFFFFF" height="47.9375" rx="12.5" ry="12.5" style="stroke:#000000;stroke-width:1;" width="271.8008" x="1496.7803" y="660.6172"/><text fill="#000000" font-family="Verdana" font-size="12" lengthAdjust="spacing" textLength="200.5723" x="1506.7803" y="681.7559">sequence = get_trans_sequence(</text><text fill="#000000" font-family="Verdana" font-size="12" lengthAdjust="spacing" textLength="234.9551" x="1506.7803" y="695.7246">TASK_MAIL_ARCHIVE, prefix_sequence,</text><text fill="#000000" font-family="Verdana" font-size="12" font-weight="bold" lengthAdjust="spacing" textLength="8.3496" x="1745.5498" y="695.7246">3</text><text fill="#000000" font-family="Verdana" font-size="12" lengthAdjust="spacing" textLength="4.6816" x="1753.8994" y="695.7246">)</text><rect fill="#FFFFFF" height="33.9688" rx="12.5" ry="12.5" style="stroke:#000000;stroke-width:1;" width="113.1816" x="1576.0898" y="743.5547"/><text fill="#000000" font-family="Verdana" font-size="12" lengthAdjust="spacing" textLength="93.1816" x="1586.0898" y="764.6934">Replace #seq#</text><rect fill="#ADD8E6" height="317.4375" style="stroke:#000000;stroke-width:1;" width="470.8726" x="1976.0229" y="432.2656"/><path d="M2037.1763,432.2656 L2037.1763,441.5625 L2027.1763,451.5625 L1976.0229,451.5625" fill="none" style="stroke:#000000;stroke-width:1;"/><text fill="#000000" font-family="Verdana" font-size="14" lengthAdjust="spacing" textLength="51.1533" x="1979.0229" y="446.2607">Default</text><rect fill="#FFFFFF" height="33.9688" rx="12.5" ry="12.5" style="stroke:#000000;stroke-width:1;" width="242.8965" x="1986.0229" y="468.5625"/><text fill="#000000" font-family="Verdana" font-size="12" lengthAdjust="spacing" textLength="222.8965" x="1996.0229" y="489.7012">ref_code = "ma_number_format_blp"</text><path d="M2245.8989,537.5313 L2245.8989,553.6641 L2225.8989,557.6641 L2245.8989,561.6641 L2245.8989,577.7969 A0,0 0 0 0 2245.8989,577.7969 L2436.8955,577.7969 A0,0 0 0 0 2436.8955,577.7969 L2436.8955,547.5313 L2426.8955,537.5313 L2245.8989,537.5313 A0,0 0 0 0 2245.8989,537.5313" fill="#FFFFFF" style="stroke:#000000;stroke-width:1;"/><path d="M2426.8955,537.5313 L2426.8955,547.5313 L2436.8955,547.5313 L2426.8955,537.5313" fill="#FFFFFF" style="stroke:#000000;stroke-width:1;"/><text fill="#000000" font-family="Verdana" font-size="13" lengthAdjust="spacing" textLength="169.9966" x="2251.8989" y="554.5981">Default berbeda dari BPN:</text><text fill="#000000" font-family="Verdana" font-size="13" lengthAdjust="spacing" textLength="159.8911" x="2251.8989" y="569.731">type 3 = "E" (bukan "K")</text><rect fill="#FFFFFF" height="33.9688" rx="12.5" ry="12.5" style="stroke:#000000;stroke-width:1;" width="236.8555" x="1989.0435" y="540.6797"/><text fill="#000000" font-family="Verdana" font-size="12" lengthAdjust="spacing" textLength="216.8555" x="1999.0435" y="561.8184">Type mapping: 1&#8594;"I", 2&#8594;"M", 3&#8594;"E"</text><rect fill="#FFFFFF" height="47.9375" rx="12.5" ry="12.5" style="stroke:#000000;stroke-width:1;" width="165.002" x="2024.9702" y="612.7969"/><text fill="#000000" font-family="Verdana" font-size="12" lengthAdjust="spacing" textLength="141.7207" x="2034.9702" y="633.9355">Logic sama seperti BPN</text><text fill="#000000" font-family="Verdana" font-size="12" lengthAdjust="spacing" textLength="145.002" x="2034.9702" y="647.9043">(tanpa office branching)</text><rect fill="#FFFFFF" height="33.9688" rx="12.5" ry="12.5" style="stroke:#000000;stroke-width:1;" width="186.8574" x="2014.0425" y="695.7344"/><text fill="#000000" font-family="Verdana" font-size="12" lengthAdjust="spacing" textLength="124.2715" x="2024.0425" y="716.873">sequence padding =</text><text fill="#000000" font-family="Verdana" font-size="12" font-weight="bold" lengthAdjust="spacing" textLength="8.3496" x="2152.1284" y="716.873">3</text><text fill="#000000" font-family="Verdana" font-size="12" lengthAdjust="spacing" textLength="26.6074" x="2164.2925" y="716.873">digit</text><rect fill="#FFFFFF" height="33.9688" rx="12.5" ry="12.5" style="stroke:#000000;stroke-width:1;" width="156.6465" x="1141.1245" y="1023.3359"/><text fill="#000000" font-family="Verdana" font-size="12" lengthAdjust="spacing" textLength="136.6465" x="1151.1245" y="1044.4746">Return kode arsip final</text><ellipse cx="1219.4478" cy="1088.3047" fill="none" rx="11" ry="11" style="stroke:#000000;stroke-width:1;"/><ellipse cx="1219.4478" cy="1088.3047" fill="#FFFFFF" rx="6" ry="6" style="stroke:#000000;stroke-width:1;"/><line style="stroke:#000000;stroke-width:1;" x1="267.5376" x2="267.5376" y1="244.2891" y2="277.0938"/><polygon fill="#000000" points="263.5376,267.0938,267.5376,277.0938,271.5376,267.0938,267.5376,271.0938" style="stroke:#000000;stroke-width:1;"/><line style="stroke:#000000;stroke-width:1;" x1="267.5376" x2="267.5376" y1="311.0625" y2="343.8672"/><polygon fill="#000000" points="263.5376,333.8672,267.5376,343.8672,271.5376,333.8672,267.5376,337.8672" style="stroke:#000000;stroke-width:1;"/><line style="stroke:#000000;stroke-width:1;" x1="267.5376" x2="267.5376" y1="377.8359" y2="410.6406"/><polygon fill="#000000" points="263.5376,400.6406,267.5376,410.6406,271.5376,400.6406,267.5376,404.6406" style="stroke:#000000;stroke-width:1;"/><line style="stroke:#000000;stroke-width:1;" x1="267.5376" x2="267.5376" y1="444.6094" y2="479.6094"/><polygon fill="#000000" points="263.5376,469.6094,267.5376,479.6094,271.5376,469.6094,267.5376,473.6094" style="stroke:#000000;stroke-width:1;"/><line style="stroke:#000000;stroke-width:1;" x1="122.957" x2="122.957" y1="660.0625" y2="695.0625"/><polygon fill="#000000" points="118.957,685.0625,122.957,695.0625,126.957,685.0625,122.957,689.0625" style="stroke:#000000;stroke-width:1;"/><line style="stroke:#000000;stroke-width:1;" x1="412.1182" x2="412.1182" y1="660.0625" y2="705.7773"/><polygon fill="#000000" points="408.1182,695.7773,412.1182,705.7773,416.1182,695.7773,412.1182,699.7773" style="stroke:#000000;stroke-width:1;"/><line style="stroke:#000000;stroke-width:1;" x1="188.6218" x2="122.957" y1="603.2891" y2="603.2891"/><line style="stroke:#000000;stroke-width:1;" x1="122.957" x2="122.957" y1="603.2891" y2="626.0938"/><polygon fill="#000000" points="118.957,616.0938,122.957,626.0938,126.957,616.0938,122.957,620.0938" style="stroke:#000000;stroke-width:1;"/><line style="stroke:#000000;stroke-width:1;" x1="346.4534" x2="412.1182" y1="603.2891" y2="603.2891"/><line style="stroke:#000000;stroke-width:1;" x1="412.1182" x2="412.1182" y1="603.2891" y2="626.0938"/><polygon fill="#000000" points="408.1182,616.0938,412.1182,626.0938,416.1182,616.0938,412.1182,620.0938" style="stroke:#000000;stroke-width:1;"/><line style="stroke:#000000;stroke-width:1;" x1="122.957" x2="122.957" y1="729.0313" y2="768.4609"/><line style="stroke:#000000;stroke-width:1;" x1="122.957" x2="255.5376" y1="768.4609" y2="768.4609"/><polygon fill="#000000" points="245.5376,764.4609,255.5376,768.4609,245.5376,772.4609,249.5376,768.4609" style="stroke:#000000;stroke-width:1;"/><line style="stroke:#000000;stroke-width:1;" x1="412.1182" x2="412.1182" y1="739.7461" y2="768.4609"/><line style="stroke:#000000;stroke-width:1;" x1="412.1182" x2="279.5376" y1="768.4609" y2="768.4609"/><polygon fill="#000000" points="289.5376,764.4609,279.5376,768.4609,289.5376,772.4609,285.5376,768.4609" style="stroke:#000000;stroke-width:1;"/><line style="stroke:#000000;stroke-width:1;" x1="267.5376" x2="267.5376" y1="555.4844" y2="590.4844"/><polygon fill="#000000" points="263.5376,580.4844,267.5376,590.4844,271.5376,580.4844,267.5376,584.4844" style="stroke:#000000;stroke-width:1;"/><line style="stroke:#000000;stroke-width:1;" x1="267.5376" x2="267.5376" y1="780.4609" y2="815.4609"/><polygon fill="#000000" points="263.5376,805.4609,267.5376,815.4609,271.5376,805.4609,267.5376,809.4609" style="stroke:#000000;stroke-width:1;"/><line style="stroke:#000000;stroke-width:1;" x1="267.5376" x2="267.5376" y1="849.4297" y2="869.4297"/><polygon fill="#000000" points="263.5376,859.4297,267.5376,869.4297,271.5376,859.4297,267.5376,863.4297" style="stroke:#000000;stroke-width:1;"/><line style="stroke:#000000;stroke-width:1;" x1="267.5376" x2="267.5376" y1="917.3672" y2="937.3672"/><polygon fill="#000000" points="263.5376,927.3672,267.5376,937.3672,271.5376,927.3672,267.5376,931.3672" style="stroke:#000000;stroke-width:1;"/><line style="stroke:#000000;stroke-width:1;" x1="1094.1587" x2="1094.1587" y1="234.6328" y2="270.5859"/><polygon fill="#000000" points="1090.1587,260.5859,1094.1587,270.5859,1098.1587,260.5859,1094.1587,264.5859" style="stroke:#000000;stroke-width:1;"/><line style="stroke:#000000;stroke-width:1;" x1="1094.1587" x2="1094.1587" y1="304.5547" y2="337.3594"/><polygon fill="#000000" points="1090.1587,327.3594,1094.1587,337.3594,1098.1587,327.3594,1094.1587,331.3594" style="stroke:#000000;stroke-width:1;"/><line style="stroke:#000000;stroke-width:1;" x1="949.5781" x2="949.5781" y1="472.1016" y2="507.1016"/><polygon fill="#000000" points="945.5781,497.1016,949.5781,507.1016,953.5781,497.1016,949.5781,501.1016" style="stroke:#000000;stroke-width:1;"/><line style="stroke:#000000;stroke-width:1;" x1="1238.7393" x2="1238.7393" y1="472.1016" y2="507.1016"/><polygon fill="#000000" points="1234.7393,497.1016,1238.7393,507.1016,1242.7393,497.1016,1238.7393,501.1016" style="stroke:#000000;stroke-width:1;"/><line style="stroke:#000000;stroke-width:1;" x1="995.5203" x2="949.5781" y1="416.1328" y2="416.1328"/><line style="stroke:#000000;stroke-width:1;" x1="949.5781" x2="949.5781" y1="416.1328" y2="438.1328"/><polygon fill="#000000" points="945.5781,428.1328,949.5781,438.1328,953.5781,428.1328,949.5781,432.1328" style="stroke:#000000;stroke-width:1;"/><line style="stroke:#000000;stroke-width:1;" x1="1192.7971" x2="1238.7393" y1="416.1328" y2="416.1328"/><line style="stroke:#000000;stroke-width:1;" x1="1238.7393" x2="1238.7393" y1="416.1328" y2="438.1328"/><polygon fill="#000000" points="1234.7393,428.1328,1238.7393,438.1328,1242.7393,428.1328,1238.7393,432.1328" style="stroke:#000000;stroke-width:1;"/><line style="stroke:#000000;stroke-width:1;" x1="949.5781" x2="949.5781" y1="541.0703" y2="559.0703"/><line style="stroke:#000000;stroke-width:1;" x1="949.5781" x2="1082.1587" y1="559.0703" y2="559.0703"/><polygon fill="#000000" points="1072.1587,555.0703,1082.1587,559.0703,1072.1587,563.0703,1076.1587,559.0703" style="stroke:#000000;stroke-width:1;"/><line style="stroke:#000000;stroke-width:1;" x1="1238.7393" x2="1238.7393" y1="541.0703" y2="559.0703"/><line style="stroke:#000000;stroke-width:1;" x1="1238.7393" x2="1106.1587" y1="559.0703" y2="559.0703"/><polygon fill="#000000" points="1116.1587,555.0703,1106.1587,559.0703,1116.1587,563.0703,1112.1587,559.0703" style="stroke:#000000;stroke-width:1;"/><line style="stroke:#000000;stroke-width:1;" x1="1094.1587" x2="1094.1587" y1="371.3281" y2="404.1328"/><polygon fill="#000000" points="1090.1587,394.1328,1094.1587,404.1328,1098.1587,394.1328,1094.1587,398.1328" style="stroke:#000000;stroke-width:1;"/><line style="stroke:#000000;stroke-width:1;" x1="1094.1587" x2="1094.1587" y1="571.0703" y2="606.0703"/><polygon fill="#000000" points="1090.1587,596.0703,1094.1587,606.0703,1098.1587,596.0703,1094.1587,600.0703" style="stroke:#000000;stroke-width:1;"/><line style="stroke:#000000;stroke-width:1;" x1="1094.1587" x2="1094.1587" y1="640.0391" y2="675.0391"/><polygon fill="#000000" points="1090.1587,665.0391,1094.1587,675.0391,1098.1587,665.0391,1094.1587,669.0391" style="stroke:#000000;stroke-width:1;"/><line style="stroke:#000000;stroke-width:1;" x1="1094.1587" x2="1094.1587" y1="722.9766" y2="757.9766"/><polygon fill="#000000" points="1090.1587,747.9766,1094.1587,757.9766,1098.1587,747.9766,1094.1587,751.9766" style="stroke:#000000;stroke-width:1;"/><line style="stroke:#000000;stroke-width:1;" x1="1632.6807" x2="1632.6807" y1="231.4844" y2="264.2891"/><polygon fill="#000000" points="1628.6807,254.2891,1632.6807,264.2891,1636.6807,254.2891,1632.6807,258.2891" style="stroke:#000000;stroke-width:1;"/><line style="stroke:#000000;stroke-width:1;" x1="1632.6807" x2="1632.6807" y1="298.2578" y2="331.0625"/><polygon fill="#000000" points="1628.6807,321.0625,1632.6807,331.0625,1636.6807,321.0625,1632.6807,325.0625" style="stroke:#000000;stroke-width:1;"/><line style="stroke:#000000;stroke-width:1;" x1="1632.6807" x2="1632.6807" y1="365.0313" y2="397.8359"/><polygon fill="#000000" points="1628.6807,387.8359,1632.6807,397.8359,1636.6807,387.8359,1632.6807,391.8359" style="stroke:#000000;stroke-width:1;"/><line style="stroke:#000000;stroke-width:1;" x1="1632.6807" x2="1632.6807" y1="473.7109" y2="508.7109"/><polygon fill="#000000" points="1628.6807,498.7109,1632.6807,508.7109,1636.6807,498.7109,1632.6807,502.7109" style="stroke:#000000;stroke-width:1;"/><line style="stroke:#000000;stroke-width:1;" x1="1632.6807" x2="1632.6807" y1="542.6797" y2="577.6797"/><polygon fill="#000000" points="1628.6807,567.6797,1632.6807,577.6797,1636.6807,567.6797,1632.6807,571.6797" style="stroke:#000000;stroke-width:1;"/><line style="stroke:#000000;stroke-width:1;" x1="1632.6807" x2="1632.6807" y1="625.6172" y2="660.6172"/><polygon fill="#000000" points="1628.6807,650.6172,1632.6807,660.6172,1636.6807,650.6172,1632.6807,654.6172" style="stroke:#000000;stroke-width:1;"/><line style="stroke:#000000;stroke-width:1;" x1="1632.6807" x2="1632.6807" y1="708.5547" y2="743.5547"/><polygon fill="#000000" points="1628.6807,733.5547,1632.6807,743.5547,1636.6807,733.5547,1632.6807,737.5547" style="stroke:#000000;stroke-width:1;"/><line style="stroke:#000000;stroke-width:1;" x1="2107.4712" x2="2107.4712" y1="502.5313" y2="540.6797"/><polygon fill="#000000" points="2103.4712,530.6797,2107.4712,540.6797,2111.4712,530.6797,2107.4712,534.6797" style="stroke:#000000;stroke-width:1;"/><line style="stroke:#000000;stroke-width:1;" x1="2107.4712" x2="2107.4712" y1="574.6484" y2="612.7969"/><polygon fill="#000000" points="2103.4712,602.7969,2107.4712,612.7969,2111.4712,602.7969,2107.4712,606.7969" style="stroke:#000000;stroke-width:1;"/><line style="stroke:#000000;stroke-width:1;" x1="2107.4712" x2="2107.4712" y1="660.7344" y2="695.7344"/><polygon fill="#000000" points="2103.4712,685.7344,2107.4712,695.7344,2111.4712,685.7344,2107.4712,689.7344" style="stroke:#000000;stroke-width:1;"/><line style="stroke:#000000;stroke-width:1;" x1="267.5376" x2="267.5376" y1="141.2188" y2="210.3203"/><polygon fill="#000000" points="263.5376,200.3203,267.5376,210.3203,271.5376,200.3203,267.5376,204.3203" style="stroke:#000000;stroke-width:1;"/><line style="stroke:#000000;stroke-width:1;" x1="267.5376" x2="267.5376" y1="971.3359" y2="1003.3359"/><polygon fill="#000000" points="263.5376,993.3359,267.5376,1003.3359,271.5376,993.3359,267.5376,997.3359" style="stroke:#000000;stroke-width:1;"/><line style="stroke:#000000;stroke-width:1;" x1="1094.1587" x2="1094.1587" y1="141.2188" y2="200.6641"/><polygon fill="#000000" points="1090.1587,190.6641,1094.1587,200.6641,1098.1587,190.6641,1094.1587,194.6641" style="stroke:#000000;stroke-width:1;"/><line style="stroke:#000000;stroke-width:1;" x1="1094.1587" x2="1094.1587" y1="791.9453" y2="1003.3359"/><polygon fill="#000000" points="1090.1587,993.3359,1094.1587,1003.3359,1098.1587,993.3359,1094.1587,997.3359" style="stroke:#000000;stroke-width:1;"/><line style="stroke:#000000;stroke-width:1;" x1="1632.6807" x2="1632.6807" y1="141.2188" y2="197.5156"/><polygon fill="#000000" points="1628.6807,187.5156,1632.6807,197.5156,1636.6807,187.5156,1632.6807,191.5156" style="stroke:#000000;stroke-width:1;"/><line style="stroke:#000000;stroke-width:1;" x1="1632.6807" x2="1632.6807" y1="777.5234" y2="1003.3359"/><polygon fill="#000000" points="1628.6807,993.3359,1632.6807,1003.3359,1636.6807,993.3359,1632.6807,997.3359" style="stroke:#000000;stroke-width:1;"/><line style="stroke:#000000;stroke-width:1;" x1="320.562" x2="1069.687" y1="129.2188" y2="129.2188"/><polygon fill="#000000" points="1059.687,125.2188,1069.687,129.2188,1059.687,133.2188,1063.687,129.2188" style="stroke:#000000;stroke-width:1;"/><line style="stroke:#000000;stroke-width:1;" x1="1118.6304" x2="1608.6807" y1="129.2188" y2="129.2188"/><polygon fill="#000000" points="1598.6807,125.2188,1608.6807,129.2188,1598.6807,133.2188,1602.6807,129.2188" style="stroke:#000000;stroke-width:1;"/><line style="stroke:#000000;stroke-width:1;" x1="1219.4478" x2="1219.4478" y1="97.2188" y2="102.2188"/><line style="stroke:#000000;stroke-width:1;" x1="1219.4478" x2="267.5376" y1="102.2188" y2="102.2188"/><line style="stroke:#000000;stroke-width:1;" x1="267.5376" x2="267.5376" y1="102.2188" y2="117.2188"/><polygon fill="#000000" points="263.5376,107.2188,267.5376,117.2188,271.5376,107.2188,267.5376,111.2188" style="stroke:#000000;stroke-width:1;"/><line style="stroke:#000000;stroke-width:1;" x1="1656.6807" x2="2107.4712" y1="129.2188" y2="129.2188"/><line style="stroke:#000000;stroke-width:1;" x1="2107.4712" x2="2107.4712" y1="129.2188" y2="468.5625"/><polygon fill="#000000" points="2103.4712,458.5625,2107.4712,468.5625,2111.4712,458.5625,2107.4712,462.5625" style="stroke:#000000;stroke-width:1;"/><line style="stroke:#000000;stroke-width:1;" x1="2107.4712" x2="2107.4712" y1="729.7031" y2="1003.3359"/><polygon fill="#000000" points="2103.4712,993.3359,2107.4712,1003.3359,2111.4712,993.3359,2107.4712,997.3359" style="stroke:#000000;stroke-width:1;"/><line style="stroke:#000000;stroke-width:1;" x1="267.5376" x2="2107.4712" y1="1003.3359" y2="1003.3359"/><line style="stroke:#000000;stroke-width:1;" x1="1219.4478" x2="1219.4478" y1="1003.3359" y2="1023.3359"/><polygon fill="#000000" points="1215.4478,1013.3359,1219.4478,1023.3359,1223.4478,1013.3359,1219.4478,1017.3359" style="stroke:#000000;stroke-width:1;"/><line style="stroke:#000000;stroke-width:1;" x1="1219.4478" x2="1219.4478" y1="1057.3047" y2="1077.3047"/><polygon fill="#000000" points="1215.4478,1067.3047,1219.4478,1077.3047,1223.4478,1067.3047,1219.4478,1071.3047" style="stroke:#000000;stroke-width:1;"/><?plantuml-src tLRRRkCs47tNLqpb5olnEiawUKcmAEJ4Q8tOQH2x1Gei88mjMYOiKIn5BTOj2lIf7r3q2_TBEhnOSNpPHNfvQHwOP3Zap1oUEQElz98L36IEN0IQwvn1nWHJg5aoBrFMZk3JRtz2NEiI7kfYnXGN6SIguX8cDRcz5mNo7DLyoJ-mWaxaNRcKrvUzgpTNLnT1K6bKEWZu0jgte-7WOPhSVdSt-3e22YoWtHzFeY00aEJ5DIy5X6IoCVierdM1LGYj4S-Mkf_N37uXNu1hnHOsFNW7OO69i9abYr8Lg9DPKOKtpczKOWgQ5LIVPf2Yub2jguIECyN4d6sxcJhSfTQlL1aA_ZEQfBpR4wDxvWnQj6SzM_3fzp-U3zu4pc-wbeoiKX9MrzPqGNxXy2o4zb1efWJcaRM_DVQniOy9F6Vh6HjP1glAkNP0ev08ajBc7oCVnI1QBXPypZmI1CNZzvDu6huNgB66C1wDmWPek-K2K8P5CaTDu15s1Vtbi_URBavIiPzgWn6vQLFGAVn8FywBvHMZ1utxySCtdxsKJeLlGbgtKlrCeEs2wEIPERaN742Kz9hAaC8R06vnXiHCMOlr1YbwU2LvXSl62JDKq8GJ6put-roaJ39Q14YcO6xlzBjajd43_mzV13kiC8csEj0QFvdLv6j-MrHQda5RfMPC9rgXg9hwszPd6a_kat4y72Nnq-stmny67TZ1gGCd9vSd9v6xSm-BHqnJqwINaFACQsYVdvzVT83MjzrkT_DQLFcCfGXKA_7SSXZM1i6UEnRirVnSA2NYcB_9o6JoQn0OLXXQJiPtZdOxdKrsszaJBAZ3H8glRksgICCZPO_AZC-1KpsQhpPbaPRuxIKQOjYIcmWROJXGwqlXEDtkyVqMRzgxqpHqnxVn5vlrx7_RfeTwnAxBCa-PglwxbdZ9r1rozXyV3fAJx7xiv7mbKQ9u_U39vU71iy-VlpDAeEtcG9LZjOos1ykHkR8_Lkx9TC_o6jKnzI0OhlsySQyCCteHckuYwtgNAKzn1KYTPDaA7oglbDsNZVHwUJnAQIAdzJZTPUqptVuz8lM-J2Hefso1TQvtFrxkdFcVKEUGj3JAiX6MmJ4Pz0aywxlvbZ6FwlSje3sJmu2uCAjNf994Y-YW1Xf5hKYiIUXf7cfxaTrh7sP8jFiKqi-YTmvMDresE3fz88nrhGIi33HeFomNd8XyOxuTIndy1G00?></g></svg>