<?xml version="1.0" encoding="us-ascii" standalone="no"?><svg xmlns="http://www.w3.org/2000/svg" xmlns:xlink="http://www.w3.org/1999/xlink" contentStyleType="text/css" height="629px" preserveAspectRatio="none" style="width:634px;height:629px;background:#FFFFFF;" version="1.1" viewBox="0 0 634 629" width="634px" zoomAndPan="magnify"><defs/><g><text fill="#000000" font-family="Verdana" font-size="22" font-weight="bold" lengthAdjust="spacing" textLength="530" x="54.25" y="38.5181">Authentication &amp; Authorization Flow (AppWrite)</text><line style="stroke:#000000;stroke-width:1.0;" x1="58" x2="58" y1="155.0999" y2="525.9842"/><line style="stroke:#000000;stroke-width:1.0;" x1="281" x2="281" y1="155.0999" y2="525.9842"/><line style="stroke:#000000;stroke-width:1.0;" x1="407" x2="407" y1="155.0999" y2="525.9842"/><text fill="#000000" font-family="Verdana" font-size="14" lengthAdjust="spacing" textLength="39" x="36" y="131.93">Client</text><text fill="#000000" font-family="Verdana" font-size="14" lengthAdjust="spacing" textLength="91" x="10" y="150.998">(ExtJS/Mobile)</text><ellipse cx="58.5" cy="64.9641" fill="#FFFFFF" rx="8" ry="8" style="stroke:#000000;stroke-width:1.0;"/><path d="M58.5,72.9641 L58.5,99.9641 M45.5,80.9641 L71.5,80.9641 M58.5,99.9641 L45.5,114.9641 M58.5,99.9641 L71.5,114.9641 " fill="none" style="stroke:#000000;stroke-width:1.0;"/><text fill="#000000" font-family="Verdana" font-size="14" lengthAdjust="spacing" textLength="39" x="36" y="539.9501">Client</text><text fill="#000000" font-family="Verdana" font-size="14" lengthAdjust="spacing" textLength="91" x="10" y="559.018">(ExtJS/Mobile)</text><ellipse cx="58.5" cy="572.12" fill="#FFFFFF" rx="8" ry="8" style="stroke:#000000;stroke-width:1.0;"/><path d="M58.5,580.12 L58.5,607.12 M45.5,588.12 L71.5,588.12 M58.5,607.12 L45.5,622.12 M58.5,607.12 L71.5,622.12 " fill="none" style="stroke:#000000;stroke-width:1.0;"/><rect fill="#FFFFFF" height="52.1358" rx="2.5" ry="2.5" style="stroke:#000000;stroke-width:1.0;" width="97" x="233" y="101.9641"/><text fill="#000000" font-family="Verdana" font-size="14" lengthAdjust="spacing" textLength="63" x="250" y="123.93">AppWrite</text><text fill="#000000" font-family="Verdana" font-size="14" lengthAdjust="spacing" textLength="83" x="240" y="142.998">(Auth v1.3.4)</text><rect fill="#FFFFFF" height="52.1358" rx="2.5" ry="2.5" style="stroke:#000000;stroke-width:1.0;" width="97" x="233" y="524.9842"/><text fill="#000000" font-family="Verdana" font-size="14" lengthAdjust="spacing" textLength="63" x="250" y="546.9501">AppWrite</text><text fill="#000000" font-family="Verdana" font-size="14" lengthAdjust="spacing" textLength="83" x="240" y="566.018">(Auth v1.3.4)</text><rect fill="#FFFFFF" height="33.0679" rx="2.5" ry="2.5" style="stroke:#000000;stroke-width:1.0;" width="95" x="360" y="121.032"/><text fill="#000000" font-family="Verdana" font-size="14" lengthAdjust="spacing" textLength="81" x="367" y="142.998">Mail Service</text><rect fill="#FFFFFF" height="33.0679" rx="2.5" ry="2.5" style="stroke:#000000;stroke-width:1.0;" width="95" x="360" y="524.9842"/><text fill="#000000" font-family="Verdana" font-size="14" lengthAdjust="spacing" textLength="81" x="367" y="546.9501">Mail Service</text><polygon fill="#000000" points="269.5,220.218,279.5,224.218,269.5,228.218,273.5,224.218" style="stroke:#000000;stroke-width:1.0;"/><line style="stroke:#000000;stroke-width:1.0;" x1="58.5" x2="275.5" y1="224.218" y2="224.218"/><text fill="#000000" font-family="Verdana" font-size="13" lengthAdjust="spacing" textLength="34" x="65.5" y="182.9969">Login</text><text fill="#000000" font-family="Verdana" font-size="13" lengthAdjust="spacing" textLength="199" x="65.5" y="200.703">POST /v1/account/sessions/email</text><text fill="#000000" font-family="Verdana" font-size="13" lengthAdjust="spacing" textLength="106" x="65.5" y="218.409">{email, password}</text><polygon fill="#000000" points="69.5,251.924,59.5,255.924,69.5,259.924,65.5,255.924" style="stroke:#000000;stroke-width:1.0;"/><line style="stroke:#000000;stroke-width:1.0;stroke-dasharray:2.0,2.0;" x1="63.5" x2="280.5" y1="255.924" y2="255.924"/><text fill="#000000" font-family="Verdana" font-size="13" lengthAdjust="spacing" textLength="121" x="75.5" y="250.115">JWT Token + Session</text><path d="M286,268.924 L286,348.924 L430,348.924 L430,278.924 L420,268.924 L286,268.924 " fill="#FFFFFF" style="stroke:#000000;stroke-width:1.0;"/><path d="M420,268.924 L420,278.924 L430,278.924 L420,268.924 " fill="#FFFFFF" style="stroke:#000000;stroke-width:1.0;"/><text fill="#000000" font-family="Verdana" font-size="13" lengthAdjust="spacing" textLength="93" x="292" y="287.821">AppWrite v1.3.4</text><text fill="#000000" font-family="Verdana" font-size="13" lengthAdjust="spacing" textLength="67" x="292" y="305.527">Self-hosted</text><text fill="#000000" font-family="Verdana" font-size="13" lengthAdjust="spacing" textLength="66" x="292" y="323.233">JWT claims:</text><text fill="#000000" font-family="Verdana" font-size="13" lengthAdjust="spacing" textLength="123" x="292" y="340.9391">userId, empId, posId</text><polygon fill="#000000" points="395.5,392.1601,405.5,396.1601,395.5,400.1601,399.5,396.1601" style="stroke:#000000;stroke-width:1.0;"/><line style="stroke:#000000;stroke-width:1.0;" x1="58.5" x2="401.5" y1="396.1601" y2="396.1601"/><text fill="#000000" font-family="Verdana" font-size="13" lengthAdjust="spacing" textLength="49" x="65.5" y="372.6451">Request</text><text fill="#000000" font-family="Verdana" font-size="13" lengthAdjust="spacing" textLength="158" x="65.5" y="390.3511">Authorization: Bearer {jwt}</text><line style="stroke:#000000;stroke-width:1.0;" x1="407.5" x2="449.5" y1="463.2782" y2="463.2782"/><line style="stroke:#000000;stroke-width:1.0;" x1="449.5" x2="449.5" y1="463.2782" y2="476.2782"/><line style="stroke:#000000;stroke-width:1.0;" x1="408.5" x2="449.5" y1="476.2782" y2="476.2782"/><polygon fill="#000000" points="418.5,472.2782,408.5,476.2782,418.5,480.2782,414.5,476.2782" style="stroke:#000000;stroke-width:1.0;"/><text fill="#000000" font-family="Verdana" font-size="13" lengthAdjust="spacing" textLength="56" x="414.5" y="422.0571">JWT Filter</text><text fill="#000000" font-family="Verdana" font-size="13" lengthAdjust="spacing" textLength="208" x="414.5" y="439.7631">- Validate token with AppWrite SDK</text><text fill="#000000" font-family="Verdana" font-size="13" lengthAdjust="spacing" textLength="213" x="414.5" y="457.4691">- Extract: userId, empId, posId, roles</text><polygon fill="#000000" points="69.5,503.9842,59.5,507.9842,69.5,511.9842,65.5,507.9842" style="stroke:#000000;stroke-width:1.0;"/><line style="stroke:#000000;stroke-width:1.0;stroke-dasharray:2.0,2.0;" x1="63.5" x2="406.5" y1="507.9842" y2="507.9842"/><text fill="#000000" font-family="Verdana" font-size="13" lengthAdjust="spacing" textLength="58" x="75.5" y="502.1752">Response</text><!--SRC=[RL71Ji904BtlLumS34HAG_JKWmbMIK29nXAvS5dR0KQtk-lkbXe9_-wqW0c9fybCtdlpvir5s629O9KaBKIWe1165Gzre5m6CXeksu5nz7FenyhKq1rPkt0Ki2U4p8Dnq4aLCMkfkm_VOPh5C_DE2diTa1vIOQLZGR9I1-YSk8njf64x75mFRWxGqU8SEvEa84EtfHnRm2mJ8eNebf6Gm9DParxgb-Ti3l5s6CiyDvKEiKVlsQoFiMI1fTwrjGzMUbyRL-m5qoDMILbakfZ3t7oYXYjUrHA5q2OWE5fl0fXLOmlWvFjec2SPgbMqCJvWmLsZatEIfK-ugpowIT47B6rJhF6JGg0ke54-tZ3BUFqhVbNeERcpd1EuG-dGmUwZ3diX67eYD7l6f0AwfOxWJIeg9BiAxGarSQ9_JhFxnmR3Bt7yfkHVKtrmHg4_h3X6yehUSdmeVW40]--></g></svg>