<?xml version="1.0" encoding="us-ascii" standalone="no"?><svg xmlns="http://www.w3.org/2000/svg" xmlns:xlink="http://www.w3.org/1999/xlink" contentStyleType="text/css" height="658px" preserveAspectRatio="none" style="width:2824px;height:658px;background:#FFFFFF;" version="1.1" viewBox="0 0 2824 658" width="2824px" zoomAndPan="magnify"><defs/><g><text fill="#000000" font-family="Verdana" font-size="22" font-weight="bold" lengthAdjust="spacing" textLength="521" x="1147" y="38.5181">Mail Service - Internal Component Architecture</text><!--cluster Mail Service (Spring Boot)--><g id="cluster_Mail Service (Spring Boot)"><path d="M13.5,62.5661 L192.5,62.5661 A3.75,3.75 0 0 1 195,65.0661 L202,87.634 L2814.5,87.634 A2.5,2.5 0 0 1 2817,90.134 L2817,649.0661 A2.5,2.5 0 0 1 2814.5,651.5661 L13.5,651.5661 A2.5,2.5 0 0 1 11,649.0661 L11,65.0661 A2.5,2.5 0 0 1 13.5,62.5661 " fill="#FFFFFF" style="stroke:#000000;stroke-width:1.0;"/><line style="stroke:#000000;stroke-width:1.0;" x1="11" x2="202" y1="87.634" y2="87.634"/><text fill="#000000" font-family="Verdana" font-size="14" font-weight="bold" lengthAdjust="spacing" textLength="178" x="15" y="79.532">Mail Service (Spring Boot)</text></g><!--cluster Controller Layer--><g id="cluster_Controller Layer"><path d="M1237.5,108.5661 L1350.5,108.5661 A3.75,3.75 0 0 1 1353,111.0661 L1360,133.634 L2544.5,133.634 A2.5,2.5 0 0 1 2547,136.134 L2547,199.0661 A2.5,2.5 0 0 1 2544.5,201.5661 L1237.5,201.5661 A2.5,2.5 0 0 1 1235,199.0661 L1235,111.0661 A2.5,2.5 0 0 1 1237.5,108.5661 " fill="#FFFFFF" style="stroke:#000000;stroke-width:1.0;"/><line style="stroke:#000000;stroke-width:1.0;" x1="1235" x2="1360" y1="133.634" y2="133.634"/><text fill="#000000" font-family="Verdana" font-size="14" font-weight="bold" lengthAdjust="spacing" textLength="112" x="1239" y="125.532">Controller Layer</text></g><!--cluster Security--><g id="cluster_Security"><path d="M541.5,108.5661 L598.5,108.5661 A3.75,3.75 0 0 1 601,111.0661 L608,133.634 L780.5,133.634 A2.5,2.5 0 0 1 783,136.134 L783,462.0661 A2.5,2.5 0 0 1 780.5,464.5661 L541.5,464.5661 A2.5,2.5 0 0 1 539,462.0661 L539,111.0661 A2.5,2.5 0 0 1 541.5,108.5661 " fill="#FFFFFF" style="stroke:#000000;stroke-width:1.0;"/><line style="stroke:#000000;stroke-width:1.0;" x1="539" x2="608" y1="133.634" y2="133.634"/><text fill="#000000" font-family="Verdana" font-size="14" font-weight="bold" lengthAdjust="spacing" textLength="56" x="543" y="125.532">Security</text></g><!--cluster Service Layer--><g id="cluster_Service Layer"><path d="M1673.5,234.5661 L1765.5,234.5661 A3.75,3.75 0 0 1 1768,237.0661 L1775,259.634 L2469.5,259.634 A2.5,2.5 0 0 1 2472,262.134 L2472,452.5661 A2.5,2.5 0 0 1 2469.5,455.0661 L1673.5,455.0661 A2.5,2.5 0 0 1 1671,452.5661 L1671,237.0661 A2.5,2.5 0 0 1 1673.5,234.5661 " fill="#FFFFFF" style="stroke:#000000;stroke-width:1.0;"/><line style="stroke:#000000;stroke-width:1.0;" x1="1671" x2="1775" y1="259.634" y2="259.634"/><text fill="#000000" font-family="Verdana" font-size="14" font-weight="bold" lengthAdjust="spacing" textLength="91" x="1675" y="251.532">Service Layer</text></g><!--cluster Integration Layer--><g id="cluster_Integration Layer"><path d="M2092.5,515.5661 L2214.5,515.5661 A3.75,3.75 0 0 1 2217,518.0661 L2224,540.634 L2790.5,540.634 A2.5,2.5 0 0 1 2793,543.134 L2793,625.0661 A2.5,2.5 0 0 1 2790.5,627.5661 L2092.5,627.5661 A2.5,2.5 0 0 1 2090,625.0661 L2090,518.0661 A2.5,2.5 0 0 1 2092.5,515.5661 " fill="#FFFFFF" style="stroke:#000000;stroke-width:1.0;"/><line style="stroke:#000000;stroke-width:1.0;" x1="2090" x2="2224" y1="540.634" y2="540.634"/><text fill="#000000" font-family="Verdana" font-size="14" font-weight="bold" lengthAdjust="spacing" textLength="121" x="2094" y="532.532">Integration Layer</text></g><!--cluster Repository Layer (Spring Data JPA)--><g id="cluster_Repository Layer (Spring Data JPA)"><path d="M37.5,525.0661 L278.5,525.0661 A3.75,3.75 0 0 1 281,527.5661 L288,550.134 L2063.5,550.134 A2.5,2.5 0 0 1 2066,552.634 L2066,615.5661 A2.5,2.5 0 0 1 2063.5,618.0661 L37.5,618.0661 A2.5,2.5 0 0 1 35,615.5661 L35,527.5661 A2.5,2.5 0 0 1 37.5,525.0661 " fill="#FFFFFF" style="stroke:#000000;stroke-width:1.0;"/><line style="stroke:#000000;stroke-width:1.0;" x1="35" x2="288" y1="550.134" y2="550.134"/><text fill="#000000" font-family="Verdana" font-size="14" font-weight="bold" lengthAdjust="spacing" textLength="240" x="39" y="542.032">Repository Layer (Spring Data JPA)</text></g><!--cluster Domain (JPA Entities)--><g id="cluster_Domain (JPA Entities)"><path d="M43.5,108.5661 L192.5,108.5661 A3.75,3.75 0 0 1 195,111.0661 L202,133.634 L430.5,133.634 A2.5,2.5 0 0 1 433,136.134 L433,452.5661 A2.5,2.5 0 0 1 430.5,455.0661 L43.5,455.0661 A2.5,2.5 0 0 1 41,452.5661 L41,111.0661 A2.5,2.5 0 0 1 43.5,108.5661 " fill="#FFFFFF" style="stroke:#000000;stroke-width:1.0;"/><line style="stroke:#000000;stroke-width:1.0;" x1="41" x2="202" y1="133.634" y2="133.634"/><text fill="#000000" font-family="Verdana" font-size="14" font-weight="bold" lengthAdjust="spacing" textLength="148" x="45" y="125.532">Domain (JPA Entities)</text></g><!--entity MC--><g id="elem_MC"><rect fill="#FFFFFF" height="39.0679" rx="2.5" ry="2.5" style="stroke:#000000;stroke-width:1.0;" width="116" x="2039" y="146.5661"/><text fill="#000000" font-family="Verdana" font-size="14" lengthAdjust="spacing" textLength="96" x="2049" y="171.532">MailController</text></g><!--entity MFC--><g id="elem_MFC"><rect fill="#FFFFFF" height="39.0679" rx="2.5" ry="2.5" style="stroke:#000000;stroke-width:1.0;" width="158" x="1645" y="146.5661"/><text fill="#000000" font-family="Verdana" font-size="14" lengthAdjust="spacing" textLength="138" x="1655" y="171.532">MailFolderController</text></g><!--entity MAC--><g id="elem_MAC"><rect fill="#FFFFFF" height="39.0679" rx="2.5" ry="2.5" style="stroke:#000000;stroke-width:1.0;" width="166" x="1838" y="146.5661"/><text fill="#000000" font-family="Verdana" font-size="14" lengthAdjust="spacing" textLength="146" x="1848" y="171.532">MailArchiveController</text></g><!--entity MCC--><g id="elem_MCC"><rect fill="#FFFFFF" height="39.0679" rx="2.5" ry="2.5" style="stroke:#000000;stroke-width:1.0;" width="176" x="1251" y="146.5661"/><text fill="#000000" font-family="Verdana" font-size="14" lengthAdjust="spacing" textLength="156" x="1261" y="171.532">MailCategoryController</text></g><!--entity MTC--><g id="elem_MTC"><rect fill="#FFFFFF" height="39.0679" rx="2.5" ry="2.5" style="stroke:#000000;stroke-width:1.0;" width="148" x="1462" y="146.5661"/><text fill="#000000" font-family="Verdana" font-size="14" lengthAdjust="spacing" textLength="128" x="1472" y="171.532">MailTypeController</text></g><!--entity AC--><g id="elem_AC"><rect fill="#FFFFFF" height="39.0679" rx="2.5" ry="2.5" style="stroke:#000000;stroke-width:1.0;" width="165" x="2190.5" y="146.5661"/><text fill="#000000" font-family="Verdana" font-size="14" lengthAdjust="spacing" textLength="145" x="2200.5" y="171.532">AttachmentController</text></g><!--entity SC--><g id="elem_SC"><rect fill="#FFFFFF" height="39.0679" rx="2.5" ry="2.5" style="stroke:#000000;stroke-width:1.0;" width="140" x="2391" y="146.5661"/><text fill="#000000" font-family="Verdana" font-size="14" lengthAdjust="spacing" textLength="120" x="2401" y="171.532">StatisticController</text></g><!--entity JwtFilter--><g id="elem_JwtFilter"><rect fill="#FFFFFF" height="39.0679" rx="2.5" ry="2.5" style="stroke:#000000;stroke-width:1.0;" width="173" x="574.5" y="146.5661"/><text fill="#000000" font-family="Verdana" font-size="14" lengthAdjust="spacing" textLength="153" x="584.5" y="171.532">JwtAuthenticationFilter</text></g><!--entity TokenValidator--><g id="elem_TokenValidator"><rect fill="#FFFFFF" height="39.0679" rx="2.5" ry="2.5" style="stroke:#000000;stroke-width:1.0;" width="183" x="569.5" y="272.5661"/><text fill="#000000" font-family="Verdana" font-size="14" lengthAdjust="spacing" textLength="163" x="579.5" y="297.532">AppWriteTokenValidator</text></g><!--entity SecCtx--><g id="elem_SecCtx"><rect fill="#FFFFFF" height="58.1358" rx="2.5" ry="2.5" style="stroke:#000000;stroke-width:1.0;" width="211" x="555.5" y="390.5661"/><text fill="#000000" font-family="Verdana" font-size="14" lengthAdjust="spacing" textLength="105" x="565.5" y="415.532">SecurityContext</text><text fill="#000000" font-family="Verdana" font-size="14" lengthAdjust="spacing" textLength="191" x="565.5" y="434.5999">(userId, empId, posId, roles)</text></g><!--entity MSvc--><g id="elem_MSvc"><rect fill="#FFFFFF" height="39.0679" rx="2.5" ry="2.5" style="stroke:#000000;stroke-width:1.0;" width="97" x="2043.5" y="272.5661"/><text fill="#000000" font-family="Verdana" font-size="14" lengthAdjust="spacing" textLength="77" x="2053.5" y="297.532">MailService</text></g><!--entity MSSvc--><g id="elem_MSSvc"><rect fill="#FFFFFF" height="39.0679" rx="2.5" ry="2.5" style="stroke:#000000;stroke-width:1.0;" width="131" x="2175.5" y="272.5661"/><text fill="#000000" font-family="Verdana" font-size="14" lengthAdjust="spacing" textLength="111" x="2185.5" y="297.532">MailSendService</text></g><!--entity MASvc--><g id="elem_MASvc"><rect fill="#FFFFFF" height="39.0679" rx="2.5" ry="2.5" style="stroke:#000000;stroke-width:1.0;" width="147" x="1861.5" y="272.5661"/><text fill="#000000" font-family="Verdana" font-size="14" lengthAdjust="spacing" textLength="127" x="1871.5" y="297.532">MailArchiveService</text></g><!--entity MFSvc--><g id="elem_MFSvc"><rect fill="#FFFFFF" height="39.0679" rx="2.5" ry="2.5" style="stroke:#000000;stroke-width:1.0;" width="139" x="1687.5" y="272.5661"/><text fill="#000000" font-family="Verdana" font-size="14" lengthAdjust="spacing" textLength="119" x="1697.5" y="297.532">MailFolderService</text></g><!--entity MNGSvc--><g id="elem_MNGSvc"><rect fill="#FFFFFF" height="39.0679" rx="2.5" ry="2.5" style="stroke:#000000;stroke-width:1.0;" width="221" x="1868.5" y="400.0661"/><text fill="#000000" font-family="Verdana" font-size="14" lengthAdjust="spacing" textLength="201" x="1878.5" y="425.032">MailNumberGeneratorService</text></g><!--entity MSTSvc--><g id="elem_MSTSvc"><rect fill="#FFFFFF" height="39.0679" rx="2.5" ry="2.5" style="stroke:#000000;stroke-width:1.0;" width="150" x="2306" y="400.0661"/><text fill="#000000" font-family="Verdana" font-size="14" lengthAdjust="spacing" textLength="130" x="2316" y="425.032">MailStatisticService</text></g><!--entity NSvc--><g id="elem_NSvc"><rect fill="#FFFFFF" height="39.0679" rx="2.5" ry="2.5" style="stroke:#000000;stroke-width:1.0;" width="146" x="1687" y="400.0661"/><text fill="#000000" font-family="Verdana" font-size="14" lengthAdjust="spacing" textLength="126" x="1697" y="425.032">NotificationService</text></g><!--entity ASvc--><g id="elem_ASvc"><rect fill="#FFFFFF" height="39.0679" rx="2.5" ry="2.5" style="stroke:#000000;stroke-width:1.0;" width="146" x="2125" y="400.0661"/><text fill="#000000" font-family="Verdana" font-size="14" lengthAdjust="spacing" textLength="126" x="2135" y="425.032">AttachmentService</text></g><!--entity HrClient--><g id="elem_HrClient"><rect fill="#FFFFFF" height="58.1358" rx="2.5" ry="2.5" style="stroke:#000000;stroke-width:1.0;" width="154" x="2106" y="553.5661"/><text fill="#000000" font-family="Verdana" font-size="14" lengthAdjust="spacing" textLength="103" x="2116" y="578.532">HrServiceClient</text><text fill="#000000" font-family="Verdana" font-size="14" lengthAdjust="spacing" textLength="134" x="2116" y="597.5999">(WebClient + Cache)</text></g><!--entity AWClient--><g id="elem_AWClient"><rect fill="#FFFFFF" height="39.0679" rx="2.5" ry="2.5" style="stroke:#000000;stroke-width:1.0;" width="122" x="2488" y="563.0661"/><text fill="#000000" font-family="Verdana" font-size="14" lengthAdjust="spacing" textLength="102" x="2498" y="588.032">AppWriteClient</text></g><!--entity SmtpSvc--><g id="elem_SmtpSvc"><rect fill="#FFFFFF" height="39.0679" rx="2.5" ry="2.5" style="stroke:#000000;stroke-width:1.0;" width="132" x="2645" y="563.0661"/><text fill="#000000" font-family="Verdana" font-size="14" lengthAdjust="spacing" textLength="112" x="2655" y="588.032">SmtpMailService</text></g><!--entity FBSvc--><g id="elem_FBSvc"><rect fill="#FFFFFF" height="39.0679" rx="2.5" ry="2.5" style="stroke:#000000;stroke-width:1.0;" width="158" x="2295" y="563.0661"/><text fill="#000000" font-family="Verdana" font-size="14" lengthAdjust="spacing" textLength="138" x="2305" y="588.032">FirebasePushService</text></g><!--entity MR--><g id="elem_MR"><rect fill="#FFFFFF" height="39.0679" rx="2.5" ry="2.5" style="stroke:#000000;stroke-width:1.0;" width="120" x="1508" y="563.0661"/><text fill="#000000" font-family="Verdana" font-size="14" lengthAdjust="spacing" textLength="100" x="1518" y="588.032">MailRepository</text></g><!--entity MRR--><g id="elem_MRR"><rect fill="#FFFFFF" height="39.0679" rx="2.5" ry="2.5" style="stroke:#000000;stroke-width:1.0;" width="183" x="1663.5" y="563.0661"/><text fill="#000000" font-family="Verdana" font-size="14" lengthAdjust="spacing" textLength="163" x="1673.5" y="588.032">MailRecipientRepository</text></g><!--entity MFR--><g id="elem_MFR"><rect fill="#FFFFFF" height="39.0679" rx="2.5" ry="2.5" style="stroke:#000000;stroke-width:1.0;" width="162" x="668" y="563.0661"/><text fill="#000000" font-family="Verdana" font-size="14" lengthAdjust="spacing" textLength="142" x="678" y="588.032">MailFolderRepository</text></g><!--entity UTR--><g id="elem_UTR"><rect fill="#FFFFFF" height="39.0679" rx="2.5" ry="2.5" style="stroke:#000000;stroke-width:1.0;" width="152" x="1321" y="563.0661"/><text fill="#000000" font-family="Verdana" font-size="14" lengthAdjust="spacing" textLength="132" x="1331" y="588.032">UserTaskRepository</text></g><!--entity MAR--><g id="elem_MAR"><rect fill="#FFFFFF" height="39.0679" rx="2.5" ry="2.5" style="stroke:#000000;stroke-width:1.0;" width="170" x="865" y="563.0661"/><text fill="#000000" font-family="Verdana" font-size="14" lengthAdjust="spacing" textLength="150" x="875" y="588.032">MailArchiveRepository</text></g><!--entity MAAR--><g id="elem_MAAR"><rect fill="#FFFFFF" height="39.0679" rx="2.5" ry="2.5" style="stroke:#000000;stroke-width:1.0;" width="215" x="1070.5" y="563.0661"/><text fill="#000000" font-family="Verdana" font-size="14" lengthAdjust="spacing" textLength="195" x="1080.5" y="588.032">MailArchiveAccessRepository</text></g><!--entity MCR--><g id="elem_MCR"><rect fill="#FFFFFF" height="39.0679" rx="2.5" ry="2.5" style="stroke:#000000;stroke-width:1.0;" width="180" x="266" y="563.0661"/><text fill="#000000" font-family="Verdana" font-size="14" lengthAdjust="spacing" textLength="160" x="276" y="588.032">MailCategoryRepository</text></g><!--entity MTR--><g id="elem_MTR"><rect fill="#FFFFFF" height="39.0679" rx="2.5" ry="2.5" style="stroke:#000000;stroke-width:1.0;" width="152" x="481" y="563.0661"/><text fill="#000000" font-family="Verdana" font-size="14" lengthAdjust="spacing" textLength="132" x="491" y="588.032">MailTypeRepository</text></g><!--entity AR--><g id="elem_AR"><rect fill="#FFFFFF" height="39.0679" rx="2.5" ry="2.5" style="stroke:#000000;stroke-width:1.0;" width="169" x="1881.5" y="563.0661"/><text fill="#000000" font-family="Verdana" font-size="14" lengthAdjust="spacing" textLength="149" x="1891.5" y="588.032">AttachmentRepository</text></g><!--entity SMLR--><g id="elem_SMLR"><rect fill="#FFFFFF" height="39.0679" rx="2.5" ry="2.5" style="stroke:#000000;stroke-width:1.0;" width="179" x="51.5" y="563.0661"/><text fill="#000000" font-family="Verdana" font-size="14" lengthAdjust="spacing" textLength="159" x="61.5" y="588.032">SmtpMailLogRepository</text></g><!--entity ME--><g id="elem_ME"><rect fill="#FFFFFF" height="39.0679" rx="2.5" ry="2.5" style="stroke:#000000;stroke-width:1.0;" width="49" x="73.5" y="146.5661"/><text fill="#000000" font-family="Verdana" font-size="14" lengthAdjust="spacing" textLength="29" x="83.5" y="171.532">Mail</text></g><!--entity MRE--><g id="elem_MRE"><rect fill="#FFFFFF" height="39.0679" rx="2.5" ry="2.5" style="stroke:#000000;stroke-width:1.0;" width="112" x="158" y="146.5661"/><text fill="#000000" font-family="Verdana" font-size="14" lengthAdjust="spacing" textLength="92" x="168" y="171.532">MailRecipient</text></g><!--entity MFE--><g id="elem_MFE"><rect fill="#FFFFFF" height="39.0679" rx="2.5" ry="2.5" style="stroke:#000000;stroke-width:1.0;" width="91" x="305.5" y="146.5661"/><text fill="#000000" font-family="Verdana" font-size="14" lengthAdjust="spacing" textLength="71" x="315.5" y="171.532">MailFolder</text></g><!--entity UTE--><g id="elem_UTE"><rect fill="#FFFFFF" height="39.0679" rx="2.5" ry="2.5" style="stroke:#000000;stroke-width:1.0;" width="81" x="57.5" y="272.5661"/><text fill="#000000" font-family="Verdana" font-size="14" lengthAdjust="spacing" textLength="61" x="67.5" y="297.532">UserTask</text></g><!--entity MAE--><g id="elem_MAE"><rect fill="#FFFFFF" height="39.0679" rx="2.5" ry="2.5" style="stroke:#000000;stroke-width:1.0;" width="99" x="173.5" y="272.5661"/><text fill="#000000" font-family="Verdana" font-size="14" lengthAdjust="spacing" textLength="79" x="183.5" y="297.532">MailArchive</text></g><!--entity MCE--><g id="elem_MCE"><rect fill="#FFFFFF" height="39.0679" rx="2.5" ry="2.5" style="stroke:#000000;stroke-width:1.0;" width="109" x="307.5" y="272.5661"/><text fill="#000000" font-family="Verdana" font-size="14" lengthAdjust="spacing" textLength="89" x="317.5" y="297.532">MailCategory</text></g><!--entity MTE--><g id="elem_MTE"><rect fill="#FFFFFF" height="39.0679" rx="2.5" ry="2.5" style="stroke:#000000;stroke-width:1.0;" width="81" x="57.5" y="400.0661"/><text fill="#000000" font-family="Verdana" font-size="14" lengthAdjust="spacing" textLength="61" x="67.5" y="425.032">MailType</text></g><!--entity AE--><g id="elem_AE"><rect fill="#FFFFFF" height="39.0679" rx="2.5" ry="2.5" style="stroke:#000000;stroke-width:1.0;" width="98" x="174" y="400.0661"/><text fill="#000000" font-family="Verdana" font-size="14" lengthAdjust="spacing" textLength="78" x="184" y="425.032">Attachment</text></g><!--link JwtFilter to TokenValidator--><g id="link_JwtFilter_TokenValidator"><path d="M661,185.6261 C661,209.0061 661,242.9361 661,266.3761 " fill="none" id="JwtFilter-to-TokenValidator" style="stroke:#000000;stroke-width:1.0;"/><polygon fill="#000000" points="661,272.3761,665,263.3761,661,267.3761,657,263.3761,661,272.3761" style="stroke:#000000;stroke-width:1.0;"/></g><!--link TokenValidator to SecCtx--><g id="link_TokenValidator_SecCtx"><path d="M661,311.5861 C661,332.3161 661,360.1361 661,384.2061 " fill="none" id="TokenValidator-to-SecCtx" style="stroke:#000000;stroke-width:1.0;"/><polygon fill="#000000" points="661,390.2061,665,381.2061,661,385.2061,657,381.2061,661,390.2061" style="stroke:#000000;stroke-width:1.0;"/></g><!--link MC to MSvc--><g id="link_MC_MSvc"><path d="M2096.25,185.6261 C2095.31,209.0061 2093.943,242.941 2092.993,266.381 " fill="none" id="MC-to-MSvc" style="stroke:#000000;stroke-width:1.0;"/><polygon fill="#000000" points="2092.75,272.3761,2097.1112,263.5454,2092.9525,267.3802,2089.1177,263.2215,2092.75,272.3761" style="stroke:#000000;stroke-width:1.0;"/></g><!--link MC to MSSvc--><g id="link_MC_MSSvc"><path d="M2118.56,185.6261 C2145.71,209.0061 2187.5341,245.0201 2214.7441,268.4601 " fill="none" id="MC-to-MSSvc" style="stroke:#000000;stroke-width:1.0;"/><polygon fill="#000000" points="2219.29,272.3761,2215.0819,263.4715,2215.5018,269.1127,2209.8605,269.5326,2219.29,272.3761" style="stroke:#000000;stroke-width:1.0;"/></g><!--link MFC to MFSvc--><g id="link_MFC_MFSvc"><path d="M1728.94,185.6261 C1735.16,209.0061 1744.2465,243.138 1750.4865,266.578 " fill="none" id="MFC-to-MFSvc" style="stroke:#000000;stroke-width:1.0;"/><polygon fill="#000000" points="1752.03,272.3761,1753.5801,262.65,1750.7437,267.5444,1745.8494,264.708,1752.03,272.3761" style="stroke:#000000;stroke-width:1.0;"/></g><!--link MAC to MASvc--><g id="link_MAC_MASvc"><path d="M1923.1,185.6261 C1925.74,209.0061 1929.566,242.9741 1932.216,266.4141 " fill="none" id="MAC-to-MASvc" style="stroke:#000000;stroke-width:1.0;"/><polygon fill="#000000" points="1932.89,272.3761,1935.8536,262.9837,1932.3283,267.4077,1927.9043,263.8824,1932.89,272.3761" style="stroke:#000000;stroke-width:1.0;"/></g><!--link MCC to MCR--><g id="link_MCC_MCR"><path d="M1273.22,185.5861 C1239.81,195.9461 1198.98,210.0961 1164,226.5661 C1038.35,285.7361 1013.72,313.7661 898,390.5661 C845.7,425.2761 841.66,450.2061 783,472.5661 C649.31,523.5261 597.05,457.5661 463,507.5661 C429.56,520.0361 401.1834,541.3872 380.8834,558.8972 " fill="none" id="MCC-to-MCR" style="stroke:#000000;stroke-width:1.0;stroke-dasharray:7.0,7.0;"/><polygon fill="#000000" points="376.34,562.8161,385.7676,559.9666,380.1261,559.5503,380.5424,553.9088,376.34,562.8161" style="stroke:#000000;stroke-width:1.0;"/><text fill="#000000" font-family="Verdana" font-size="13" lengthAdjust="spacing" textLength="72" x="968" y="356.4631">direct CRUD</text></g><!--link MTC to MTR--><g id="link_MTC_MTR"><path d="M1497.22,185.6861 C1481.14,193.2761 1462.25,202.0161 1445,209.5661 C1251.65,294.1661 1190.26,287.6561 1006,390.5661 C933.11,431.2761 932.01,472.5761 853,499.5661 C810.28,514.1661 692.32,491.8461 650,507.5661 C619.05,519.0661 594.6021,540.7552 577.5121,558.6652 " fill="none" id="MTC-to-MTR" style="stroke:#000000;stroke-width:1.0;stroke-dasharray:7.0,7.0;"/><polygon fill="#000000" points="573.37,563.0061,582.4771,559.2562,576.8218,559.3887,576.6893,553.7334,573.37,563.0061" style="stroke:#000000;stroke-width:1.0;"/><text fill="#000000" font-family="Verdana" font-size="13" lengthAdjust="spacing" textLength="72" x="1101" y="356.4631">direct CRUD</text></g><!--link AC to ASvc--><g id="link_AC_ASvc"><path d="M2293.88,185.5761 C2331.82,221.4561 2404.44,302.0661 2363,360.5661 C2359.66,365.2761 2307.8224,382.9698 2261.6224,398.0898 " fill="none" id="AC-to-ASvc" style="stroke:#000000;stroke-width:1.0;"/><polygon fill="#000000" points="2255.92,399.9561,2265.7177,400.9583,2260.672,398.4009,2263.2294,393.3551,2255.92,399.9561" style="stroke:#000000;stroke-width:1.0;"/></g><!--link SC to MSTSvc--><g id="link_SC_MSTSvc"><path d="M2454.99,185.9661 C2440.12,232.6961 2403.6088,347.4784 2388.7888,394.0684 " fill="none" id="SC-to-MSTSvc" style="stroke:#000000;stroke-width:1.0;"/><polygon fill="#000000" points="2386.97,399.7861,2393.5099,392.422,2388.4856,395.0213,2385.8863,389.997,2386.97,399.7861" style="stroke:#000000;stroke-width:1.0;"/></g><!--link MSSvc to MNGSvc--><g id="link_MSSvc_MNGSvc"><path d="M2175.39,308.1461 C2169.52,309.3561 2163.66,310.5161 2158,311.5661 C2113.6,319.8161 1986.48,307.3561 1957,341.5661 C1942.84,357.9961 1950.8616,377.9515 1961.8216,394.9715 " fill="none" id="MSSvc-to-MNGSvc" style="stroke:#000000;stroke-width:1.0;"/><polygon fill="#000000" points="1965.07,400.0161,1963.5604,390.2836,1962.363,395.8123,1956.8343,394.6149,1965.07,400.0161" style="stroke:#000000;stroke-width:1.0;"/><text fill="#000000" font-family="Verdana" font-size="13" lengthAdjust="spacing" textLength="106" x="1958" y="356.4631">Generate number</text></g><!--link MSSvc to NSvc--><g id="link_MSSvc_NSvc"><path d="M2175.46,308.5061 C2169.57,309.6361 2163.69,310.6861 2158,311.5661 C2083.49,323.1261 1886.22,305.4961 1820,341.5661 C1796.04,354.6161 1781.2933,376.4065 1771.5733,394.7165 " fill="none" id="MSSvc-to-NSvc" style="stroke:#000000;stroke-width:1.0;"/><polygon fill="#000000" points="1768.76,400.0161,1776.513,393.9423,1771.1044,395.5998,1769.4469,390.1912,1768.76,400.0161" style="stroke:#000000;stroke-width:1.0;"/><text fill="#000000" font-family="Verdana" font-size="13" lengthAdjust="spacing" textLength="120" x="1821" y="356.4631">Trigger notifications</text></g><!--link MSSvc to MSTSvc--><g id="link_MSSvc_MSTSvc"><path d="M2261.66,311.5861 C2288.13,335.3161 2329.2828,372.2006 2355.7928,395.9706 " fill="none" id="MSSvc-to-MSTSvc" style="stroke:#000000;stroke-width:1.0;"/><polygon fill="#000000" points="2360.26,399.9761,2356.2295,390.9897,2356.5373,396.6382,2350.8888,396.946,2360.26,399.9761" style="stroke:#000000;stroke-width:1.0;"/><text fill="#000000" font-family="Verdana" font-size="13" lengthAdjust="spacing" textLength="100" x="2316" y="356.4631">Update statistics</text></g><!--link MASvc to ASvc--><g id="link_MASvc_ASvc"><path d="M1993.7,311.5861 C2017.49,319.7961 2044.97,330.1761 2069,341.5661 C2105.29,358.7761 2139.5747,379.8679 2165.1447,396.5479 " fill="none" id="MASvc-to-ASvc" style="stroke:#000000;stroke-width:1.0;"/><polygon fill="#000000" points="2170.17,399.8261,2164.8175,391.5587,2165.9822,397.0943,2160.4466,398.2591,2170.17,399.8261" style="stroke:#000000;stroke-width:1.0;"/><text fill="#000000" font-family="Verdana" font-size="13" lengthAdjust="spacing" textLength="110" x="2106" y="356.4631">Copy attachments</text></g><!--link MSvc to HrClient--><g id="link_MSvc_HrClient"><path d="M2043.18,307.6161 C2037.42,309.0761 2031.6,310.4361 2026,311.5661 C1923.05,332.3961 1626.04,308.8961 1560,390.5661 C1537.08,418.9061 1535.36,445.7161 1560,472.5661 C1598.1,514.0861 2012.21,490.7561 2066,507.5661 C2096.51,517.0961 2122.1021,533.0933 2144.2621,549.7333 " fill="none" id="MSvc-to-HrClient" style="stroke:#000000;stroke-width:1.0;"/><polygon fill="#000000" points="2149.06,553.3361,2144.265,544.7333,2145.0617,550.3338,2139.4613,551.1305,2149.06,553.3361" style="stroke:#000000;stroke-width:1.0;"/><text fill="#000000" font-family="Verdana" font-size="13" lengthAdjust="spacing" textLength="108" x="1561" y="424.9631">Lookup employee</text></g><!--link MASvc to HrClient--><g id="link_MASvc_HrClient"><path d="M1861.09,308.6061 C1855.32,309.6661 1849.57,310.6661 1844,311.5661 C1751.12,326.6261 1484.52,315.3361 1428,390.5661 C1406.11,419.7061 1404.82,444.4461 1428,472.5661 C1468.03,521.1261 1504.41,493.0361 1567,499.5661 C1594.58,502.4461 2039.43,499.6361 2066,507.5661 C2096.86,516.7761 2122.69,532.9896 2144.86,549.8096 " fill="none" id="MASvc-to-HrClient" style="stroke:#000000;stroke-width:1.0;"/><polygon fill="#000000" points="2149.64,553.4361,2144.8877,544.8097,2145.6567,550.414,2140.0523,551.183,2149.64,553.4361" style="stroke:#000000;stroke-width:1.0;"/><text fill="#000000" font-family="Verdana" font-size="13" lengthAdjust="spacing" textLength="104" x="1429" y="424.9631">Lookup positions</text></g><!--link NSvc to SmtpSvc--><g id="link_NSvc_SmtpSvc"><path d="M1784.74,439.2961 C1802.23,451.3361 1826.78,465.9261 1851,472.5661 C1878.17,480.0061 2329.88,478.9361 2358,480.5661 C2478.4,487.5261 2517.59,459.0661 2628,507.5661 C2656.1,519.9161 2677.4061,540.9098 2692.4861,558.5098 " fill="none" id="NSvc-to-SmtpSvc" style="stroke:#000000;stroke-width:1.0;"/><polygon fill="#000000" points="2696.39,563.0661,2693.5717,553.6291,2693.1368,559.2692,2687.4966,558.8343,2696.39,563.0661" style="stroke:#000000;stroke-width:1.0;"/><text fill="#000000" font-family="Verdana" font-size="13" lengthAdjust="spacing" textLength="82" x="2603" y="495.4631">Email delivery</text></g><!--link NSvc to FBSvc--><g id="link_NSvc_FBSvc"><path d="M1785.66,439.3061 C1803.16,451.0261 1827.36,465.2461 1851,472.5661 C2032.88,528.9261 2100.42,438.8461 2278,507.5661 C2309.2,519.6461 2334.4159,541.045 2352.2759,558.725 " fill="none" id="NSvc-to-FBSvc" style="stroke:#000000;stroke-width:1.0;"/><polygon fill="#000000" points="2356.54,562.9461,2352.958,553.7717,2352.9866,559.4285,2347.3298,559.4572,2356.54,562.9461" style="stroke:#000000;stroke-width:1.0;"/><text fill="#000000" font-family="Verdana" font-size="13" lengthAdjust="spacing" textLength="101" x="2248" y="495.4631">Push notification</text></g><!--link MSvc to MR--><g id="link_MSvc_MR"><path d="M2043.24,307.9661 C2037.47,309.3661 2031.63,310.6061 2026,311.5661 C1921.29,329.3261 1641.87,290.0261 1549,341.5661 C1496.31,370.8061 1500.26,413.8861 1514,472.5661 C1521.94,506.4961 1538.8603,536.9031 1552.1703,557.8331 " fill="none" id="MSvc-to-MR" style="stroke:#000000;stroke-width:1.0;"/><polygon fill="#000000" points="1555.39,562.8961,1553.9358,553.1552,1552.7069,558.6769,1547.1852,557.4481,1555.39,562.8961" style="stroke:#000000;stroke-width:1.0;"/></g><!--link MSvc to MRR--><g id="link_MSvc_MRR"><path d="M2043.24,307.9261 C2037.47,309.3361 2031.63,310.5861 2026,311.5661 C1931.84,327.8761 1686.26,307.4161 1597,341.5661 C1563.87,354.2461 1549.58,358.6961 1534,390.5661 C1517.99,423.3061 1518.39,439.6361 1534,472.5661 C1556.33,519.6961 1596.99,489.7461 1646,507.5661 C1679.96,519.9161 1708.9427,541.3269 1729.6627,558.8869 " fill="none" id="MSvc-to-MRR" style="stroke:#000000;stroke-width:1.0;"/><polygon fill="#000000" points="1734.24,562.7661,1729.9602,553.8957,1730.4256,559.5334,1724.7879,559.9988,1734.24,562.7661" style="stroke:#000000;stroke-width:1.0;"/></g><!--link MSvc to UTR--><g id="link_MSvc_UTR"><path d="M2043.25,307.9861 C2037.47,309.3861 2031.63,310.6261 2026,311.5661 C1970.02,320.9461 1563.34,310.2361 1516,341.5661 C1436.49,394.1861 1409.0482,510.5166 1400.8582,557.1366 " fill="none" id="MSvc-to-UTR" style="stroke:#000000;stroke-width:1.0;"/><polygon fill="#000000" points="1399.82,563.0461,1405.3169,554.8739,1400.6851,558.1215,1397.4376,553.4897,1399.82,563.0461" style="stroke:#000000;stroke-width:1.0;"/></g><!--link MFSvc to MFR--><g id="link_MFSvc_MFR"><path d="M1687.46,298.2261 C1540.77,309.9461 1204.74,341.4161 1102,390.5661 C1033.37,423.4061 1040.72,471.4961 970,499.5661 C919.49,519.6161 898.98,488.7461 848,507.5661 C815.99,519.3861 789.8738,540.9062 771.4038,558.6762 " fill="none" id="MFSvc-to-MFR" style="stroke:#000000;stroke-width:1.0;"/><polygon fill="#000000" points="767.08,562.8361,776.339,559.4787,770.6832,559.3695,770.7924,553.7137,767.08,562.8361" style="stroke:#000000;stroke-width:1.0;"/></g><!--link MASvc to MAR--><g id="link_MASvc_MAR"><path d="M1861.14,308.9161 C1855.35,309.9061 1849.59,310.8061 1844,311.5661 C1588.41,346.4161 1505.98,288.6661 1269,390.5661 C1168.7,433.6961 1145.52,449.5961 1053,507.5661 C1025.01,525.1061 999.2426,543.873 978.7426,559.403 " fill="none" id="MASvc-to-MAR" style="stroke:#000000;stroke-width:1.0;"/><polygon fill="#000000" points="973.96,563.0261,983.5493,560.7798,977.9455,560.0068,978.7185,554.403,973.96,563.0261" style="stroke:#000000;stroke-width:1.0;"/></g><!--link MASvc to MAAR--><g id="link_MASvc_MAAR"><path d="M1861.13,308.8661 C1855.35,309.8661 1849.59,310.7861 1844,311.5661 C1759.9,323.3861 1541.82,309.9261 1463,341.5661 C1339.64,391.0861 1234.4511,511.0893 1196.2611,558.3493 " fill="none" id="MASvc-to-MAAR" style="stroke:#000000;stroke-width:1.0;"/><polygon fill="#000000" points="1192.49,563.0161,1201.2579,558.53,1195.6326,559.1271,1195.0355,553.5019,1192.49,563.0161" style="stroke:#000000;stroke-width:1.0;"/></g><!--link ASvc to AR--><g id="link_ASvc_AR"><path d="M2170.93,439.3461 C2126.23,470.3761 2042.4194,528.5354 1997.8194,559.4854 " fill="none" id="ASvc-to-AR" style="stroke:#000000;stroke-width:1.0;"/><polygon fill="#000000" points="1992.89,562.9061,2002.5645,561.0613,1996.9978,560.0555,1998.0036,554.4888,1992.89,562.9061" style="stroke:#000000;stroke-width:1.0;"/></g><!--SRC=[TPPBRjim48RtEWMRJHEqoG6w2A0gSXwmZK1IcaNR1IDFPC8IAL1q4g7ejWVe4NkI3X-oAKhnngRuSJYSV_JJ7zGM6Y1jJHcFkXtZBPMq8QLeMi61grprDH09fQAygY6A55FuO4LPJNAGBwm4SavkkGB9QKsIOHs9PRbb2jVj9QvgQRcZ5P2JqSBJl9MCL-Ih4EhiXFoA8eAV0vi8hgIeQv1aINkGcY3kyrq7EW8_2Ut8AXbFBqIz0Hb2Yu0oYRv0YCK1bb05bP3zPC-0A_fs4glmc5WfMcuRB550-HlcYYhMALO6J6wPtq6XSYZtagb-LA2xLnNlKLsEOJ2Qu0jMAnS7v-p8owjj7p465687_1kjsOOgOUdn8ozBjwrE4jxK3twwxq3URZuJQ5hzrOfEV-41e3kp1u0oKM_l7C8snRpKRjRMCtyfmrc-6HCJnCayek89PLjc12qcq7hVF86y1WvI5sH4hw-doGrYZZCiHk1QAFRiXFAvzOWwDe_F78uHbbI_bfKqCMVAUZDadjGC8w9yZ_1aVvDF9C6Dm8fs8-tJQRFOvpQ9nn3A6zM6qkbdenCjc8Gdsi7zljlwuEBhUuVA0DkAOTrxUwQ3YrnHHSdTVNmsQPxZ4blxB9mkMQjpdt3PN7U4rCAZ7l05A6Yt2vY78fljnZ1KF8_5PGbTDu53Uh2e44oogKM5Z9_WiSi2ojzmK7Sfge3ALyjiLhahqU0jGqvH8vAYBIc6jZ0Ho-QJlYEH4oQT4yR9aKxbS2AaizLrrKpdY-bAc4vBw0gNpXNEbYjrPS12V2I3MvBdMhn61mScv-UNeSEEXuPmnebnl5lntv-_mrqQhHB36Myy_3Q3XHiP8yDxpOvY2oRauk9IjmZvGZPCt_CaoHwk8hopx4mHphW0Pdq-R6JCp1pIclWeCvs6vOmxOZpddK2uiL8FMLkWaAogy8JSiyNEZsHsHF2XtUWutU2n2CK355ia4MrFw46QBipJSybeDQmTF0_NBuNOxLjzfzMY1_0sc4BcHJ2vhWV8MHuoQQF__6oWngQJ_P4mNeVpsWD79mupFRvenqJHpBpVta1xZj7SgPzvYMkZyKSuF5OjY_u3]--></g></svg>