<?xml version="1.0" encoding="us-ascii" standalone="no"?><svg xmlns="http://www.w3.org/2000/svg" xmlns:xlink="http://www.w3.org/1999/xlink" contentStyleType="text/css" height="1077px" preserveAspectRatio="none" style="width:1736px;height:1077px;background:#FFFFFF;" version="1.1" viewBox="0 0 1736 1077" width="1736px" zoomAndPan="magnify"><defs/><g><text fill="#000000" font-family="Verdana" font-size="22" font-weight="bold" lengthAdjust="spacing" textLength="604" x="561.75" y="38.5181">SmartOffice - Component Diagram: Service Decoupling</text><!--cluster Client Layer--><g id="cluster_Client Layer"><path d="M1001,62.5661 L1084,62.5661 A3.75,3.75 0 0 1 1086.5,65.0661 L1093.5,87.634 L1319,87.634 A2.5,2.5 0 0 1 1321.5,90.134 L1321.5,172.0661 A2.5,2.5 0 0 1 1319,174.5661 L1001,174.5661 A2.5,2.5 0 0 1 998.5,172.0661 L998.5,65.0661 A2.5,2.5 0 0 1 1001,62.5661 " fill="#FFFFFF" style="stroke:#000000;stroke-width:1.0;"/><line style="stroke:#000000;stroke-width:1.0;" x1="998.5" x2="1093.5" y1="87.634" y2="87.634"/><text fill="#000000" font-family="Verdana" font-size="14" font-weight="bold" lengthAdjust="spacing" textLength="82" x="1002.5" y="79.532">Client Layer</text></g><!--cluster Authentication--><g id="cluster_Authentication"><path d="M1196,424.5661 L1301,424.5661 A3.75,3.75 0 0 1 1303.5,427.0661 L1310.5,449.634 L1349,449.634 A2.5,2.5 0 0 1 1351.5,452.134 L1351.5,553.0661 A2.5,2.5 0 0 1 1349,555.5661 L1196,555.5661 A2.5,2.5 0 0 1 1193.5,553.0661 L1193.5,427.0661 A2.5,2.5 0 0 1 1196,424.5661 " fill="#FFFFFF" style="stroke:#000000;stroke-width:1.0;"/><line style="stroke:#000000;stroke-width:1.0;" x1="1193.5" x2="1310.5" y1="449.634" y2="449.634"/><text fill="#000000" font-family="Verdana" font-size="14" font-weight="bold" lengthAdjust="spacing" textLength="104" x="1197.5" y="441.532">Authentication</text><text fill="#000000" font-family="Verdana" font-size="14" font-style="italic" lengthAdjust="spacing" textLength="48" x="1252.5" y="466.5999">&#171;cloud&#187;</text></g><!--cluster Mail Service (Persuratan)--><g id="cluster_Mail Service (Persuratan)"><path d="M206,225.5661 L379,225.5661 A3.75,3.75 0 0 1 381.5,228.0661 L388.5,250.634 L1167,250.634 A2.5,2.5 0 0 1 1169.5,253.134 L1169.5,1067.5661 A2.5,2.5 0 0 1 1167,1070.0661 L206,1070.0661 A2.5,2.5 0 0 1 203.5,1067.5661 L203.5,228.0661 A2.5,2.5 0 0 1 206,225.5661 " fill="#FFFFFF" style="stroke:#000000;stroke-width:1.0;"/><line style="stroke:#000000;stroke-width:1.0;" x1="203.5" x2="388.5" y1="250.634" y2="250.634"/><text fill="#000000" font-family="Verdana" font-size="14" font-weight="bold" lengthAdjust="spacing" textLength="172" x="207.5" y="242.532">Mail Service (Persuratan)</text><text fill="#000000" font-family="Verdana" font-size="14" font-style="italic" lengthAdjust="spacing" textLength="51" x="665" y="267.5999">&#171;frame&#187;</text></g><!--cluster MailDB--><g id="cluster_MailDB"><path d="M368.5,642.5661 C368.5,632.5661 582.5,632.5661 582.5,632.5661 C582.5,632.5661 796.5,632.5661 796.5,642.5661 L796.5,1028.0661 C796.5,1038.0661 582.5,1038.0661 582.5,1038.0661 C582.5,1038.0661 368.5,1038.0661 368.5,1028.0661 L368.5,642.5661 " fill="#FFFFFF" style="stroke:#000000;stroke-width:1.0;"/><path d="M368.5,642.5661 C368.5,652.5661 582.5,652.5661 582.5,652.5661 C582.5,652.5661 796.5,652.5661 796.5,642.5661 " fill="none" style="stroke:#000000;stroke-width:1.0;"/><text fill="#000000" font-family="Verdana" font-size="14" font-weight="bold" lengthAdjust="spacing" textLength="97" x="534" y="669.532">Mail Database</text><text fill="#000000" font-family="Verdana" font-size="14" font-weight="bold" lengthAdjust="spacing" textLength="68" x="548.5" y="688.5999">(MariaDB)</text></g><!--cluster HR Service (Kepegawaian)--><g id="cluster_HR Service (Kepegawaian)"><path d="M1233,646.0661 L1413,646.0661 A3.75,3.75 0 0 1 1415.5,648.5661 L1422.5,671.134 L1450,671.134 A2.5,2.5 0 0 1 1452.5,673.634 L1452.5,920.0661 A2.5,2.5 0 0 1 1450,922.5661 L1233,922.5661 A2.5,2.5 0 0 1 1230.5,920.0661 L1230.5,648.5661 A2.5,2.5 0 0 1 1233,646.0661 " fill="#FFFFFF" style="stroke:#000000;stroke-width:1.0;"/><line style="stroke:#000000;stroke-width:1.0;" x1="1230.5" x2="1422.5" y1="671.134" y2="671.134"/><text fill="#000000" font-family="Verdana" font-size="14" font-weight="bold" lengthAdjust="spacing" textLength="179" x="1234.5" y="663.032">HR Service (Kepegawaian)</text><text fill="#000000" font-family="Verdana" font-size="14" font-style="italic" lengthAdjust="spacing" textLength="51" x="1320" y="688.0999">&#171;frame&#187;</text></g><!--entity WebClient--><g id="elem_WebClient"><rect fill="#FFFFFF" height="58.1358" rx="2.5" ry="2.5" style="stroke:#000000;stroke-width:1.0;" width="146" x="1014.5" y="100.5661"/><text fill="#000000" font-family="Verdana" font-size="14" lengthAdjust="spacing" textLength="73" x="1024.5" y="125.532">Web Client</text><text fill="#000000" font-family="Verdana" font-size="14" lengthAdjust="spacing" textLength="126" x="1024.5" y="144.5999">(ExtJS &#8594; React/Vue)</text></g><!--entity MobileClient--><g id="elem_MobileClient"><rect fill="#FFFFFF" height="58.1358" rx="2.5" ry="2.5" style="stroke:#000000;stroke-width:1.0;" width="110" x="1195.5" y="100.5661"/><text fill="#000000" font-family="Verdana" font-size="14" lengthAdjust="spacing" textLength="89" x="1205.5" y="125.532">Mobile Client</text><text fill="#000000" font-family="Verdana" font-size="14" lengthAdjust="spacing" textLength="90" x="1205.5" y="144.5999">(Android/iOS)</text></g><!--entity AppWrite--><g id="elem_AppWrite"><rect fill="#FFFFFF" height="58.1358" rx="2.5" ry="2.5" style="stroke:#000000;stroke-width:1.0;" width="126" x="1209.5" y="481.5661"/><text fill="#000000" font-family="Verdana" font-size="14" lengthAdjust="spacing" textLength="106" x="1219.5" y="506.532">AppWrite v1.3.4</text><text fill="#000000" font-family="Verdana" font-size="14" lengthAdjust="spacing" textLength="85" x="1219.5" y="525.5999">(Self-Hosted)</text></g><!--entity MailAPI--><g id="elem_MailAPI"><rect fill="#FFFFFF" height="58.1358" rx="2.5" ry="2.5" style="stroke:#000000;stroke-width:1.0;" width="128" x="1023.5" y="292.0661"/><text fill="#000000" font-family="Verdana" font-size="14" lengthAdjust="spacing" textLength="92" x="1033.5" y="317.032">Mail REST API</text><text fill="#000000" font-family="Verdana" font-size="14" lengthAdjust="spacing" textLength="108" x="1033.5" y="336.0999">/api/v1/mails/**</text></g><!--entity ArchiveAPI--><g id="elem_ArchiveAPI"><rect fill="#FFFFFF" height="58.1358" rx="2.5" ry="2.5" style="stroke:#000000;stroke-width:1.0;" width="148" x="609.5" y="292.0661"/><text fill="#000000" font-family="Verdana" font-size="14" lengthAdjust="spacing" textLength="113" x="619.5" y="317.032">Archive REST API</text><text fill="#000000" font-family="Verdana" font-size="14" lengthAdjust="spacing" textLength="128" x="619.5" y="336.0999">/api/v1/archives/**</text></g><!--entity MasterAPI--><g id="elem_MasterAPI"><rect fill="#FFFFFF" height="77.2038" rx="2.5" ry="2.5" style="stroke:#000000;stroke-width:1.0;" width="196" x="792.5" y="282.5661"/><text fill="#000000" font-family="Verdana" font-size="14" lengthAdjust="spacing" textLength="108" x="802.5" y="307.532">Master Data API</text><text fill="#000000" font-family="Verdana" font-size="14" lengthAdjust="spacing" textLength="142" x="802.5" y="326.5999">/api/v1/mail-types/**</text><text fill="#000000" font-family="Verdana" font-size="14" lengthAdjust="spacing" textLength="176" x="802.5" y="345.6679">/api/v1/mail-categories/**</text></g><!--entity AttachmentAPI--><g id="elem_AttachmentAPI"><rect fill="#FFFFFF" height="58.1358" rx="2.5" ry="2.5" style="stroke:#000000;stroke-width:1.0;" width="176" x="232.5" y="481.5661"/><text fill="#000000" font-family="Verdana" font-size="14" lengthAdjust="spacing" textLength="104" x="242.5" y="506.532">Attachment API</text><text fill="#000000" font-family="Verdana" font-size="14" lengthAdjust="spacing" textLength="156" x="242.5" y="525.5999">/api/v1/attachments/**</text></g><!--entity StatAPI--><g id="elem_StatAPI"><rect fill="#FFFFFF" height="58.1358" rx="2.5" ry="2.5" style="stroke:#000000;stroke-width:1.0;" width="151" x="423" y="292.0661"/><text fill="#000000" font-family="Verdana" font-size="14" lengthAdjust="spacing" textLength="86" x="433" y="317.032">Statistics API</text><text fill="#000000" font-family="Verdana" font-size="14" lengthAdjust="spacing" textLength="131" x="433" y="336.0999">/api/v1/statistics/**</text></g><!--entity MailSvc--><g id="elem_MailSvc"><rect fill="#FFFFFF" height="39.0679" rx="2.5" ry="2.5" style="stroke:#000000;stroke-width:1.0;" width="141" x="947" y="491.0661"/><text fill="#000000" font-family="Verdana" font-size="14" lengthAdjust="spacing" textLength="121" x="957" y="516.032">Mail Service Layer</text></g><!--entity ArchiveSvc--><g id="elem_ArchiveSvc"><rect fill="#FFFFFF" height="39.0679" rx="2.5" ry="2.5" style="stroke:#000000;stroke-width:1.0;" width="162" x="602.5" y="491.0661"/><text fill="#000000" font-family="Verdana" font-size="14" lengthAdjust="spacing" textLength="142" x="612.5" y="516.032">Archive Service Layer</text></g><!--entity NotifSvc--><g id="elem_NotifSvc"><rect fill="#FFFFFF" height="58.1358" rx="2.5" ry="2.5" style="stroke:#000000;stroke-width:1.0;" width="150" x="820.5" y="703.0661"/><text fill="#000000" font-family="Verdana" font-size="14" lengthAdjust="spacing" textLength="130" x="830.5" y="728.032">Notification Service</text><text fill="#000000" font-family="Verdana" font-size="14" lengthAdjust="spacing" textLength="118" x="830.5" y="747.0999">(SMTP + Firebase)</text></g><!--entity NumGen--><g id="elem_NumGen"><rect fill="#FFFFFF" height="58.1358" rx="2.5" ry="2.5" style="stroke:#000000;stroke-width:1.0;" width="148" x="1005.5" y="703.0661"/><text fill="#000000" font-family="Verdana" font-size="14" lengthAdjust="spacing" textLength="128" x="1015.5" y="728.032">Number Generator</text><text fill="#000000" font-family="Verdana" font-size="14" lengthAdjust="spacing" textLength="126" x="1015.5" y="747.0999">(Sequence Service)</text></g><!--entity FileStore--><g id="elem_FileStore"><rect fill="#FFFFFF" height="58.1358" rx="35" ry="35" style="stroke:#000000;stroke-width:1.0;" width="122" x="219.5" y="703.0661"/><text fill="#000000" font-family="Verdana" font-size="14" lengthAdjust="spacing" textLength="79" x="229.5" y="728.032">File Storage</text><text fill="#000000" font-family="Verdana" font-size="14" lengthAdjust="spacing" textLength="102" x="229.5" y="747.0999">(/attachments/)</text></g><!--entity mail--><g id="elem_mail"><rect fill="#FFFFFF" height="39.0679" rx="2.5" ry="2.5" style="stroke:#000000;stroke-width:1.0;" width="49" x="428" y="712.5661"/><text fill="#000000" font-family="Verdana" font-size="14" lengthAdjust="spacing" textLength="29" x="438" y="737.532">mail</text></g><!--entity mail_recipient--><g id="elem_mail_recipient"><rect fill="#FFFFFF" height="39.0679" rx="2.5" ry="2.5" style="stroke:#000000;stroke-width:1.0;" width="115" x="512" y="712.5661"/><text fill="#000000" font-family="Verdana" font-size="14" lengthAdjust="spacing" textLength="95" x="522" y="737.532">mail_recipient</text></g><!--entity mail_folder--><g id="elem_mail_folder"><rect fill="#FFFFFF" height="39.0679" rx="2.5" ry="2.5" style="stroke:#000000;stroke-width:1.0;" width="95" x="662" y="712.5661"/><text fill="#000000" font-family="Verdana" font-size="14" lengthAdjust="spacing" textLength="75" x="672" y="737.532">mail_folder</text></g><!--entity mail_archive--><g id="elem_mail_archive"><rect fill="#FFFFFF" height="39.0679" rx="2.5" ry="2.5" style="stroke:#000000;stroke-width:1.0;" width="104" x="400.5" y="863.0661"/><text fill="#000000" font-family="Verdana" font-size="14" lengthAdjust="spacing" textLength="84" x="410.5" y="888.032">mail_archive</text></g><!--entity mail_category--><g id="elem_mail_category"><rect fill="#FFFFFF" height="39.0679" rx="2.5" ry="2.5" style="stroke:#000000;stroke-width:1.0;" width="113" x="540" y="863.0661"/><text fill="#000000" font-family="Verdana" font-size="14" lengthAdjust="spacing" textLength="93" x="550" y="888.032">mail_category</text></g><!--entity mail_type--><g id="elem_mail_type"><rect fill="#FFFFFF" height="39.0679" rx="2.5" ry="2.5" style="stroke:#000000;stroke-width:1.0;" width="84" x="688.5" y="863.0661"/><text fill="#000000" font-family="Verdana" font-size="14" lengthAdjust="spacing" textLength="64" x="698.5" y="888.032">mail_type</text></g><!--entity attachments--><g id="elem_attachments"><rect fill="#FFFFFF" height="39.0679" rx="2.5" ry="2.5" style="stroke:#000000;stroke-width:1.0;" width="104" x="400.5" y="975.0661"/><text fill="#000000" font-family="Verdana" font-size="14" lengthAdjust="spacing" textLength="84" x="410.5" y="1000.032">attachments</text></g><!--entity smtp_mail_log--><g id="elem_smtp_mail_log"><rect fill="#FFFFFF" height="39.0679" rx="2.5" ry="2.5" style="stroke:#000000;stroke-width:1.0;" width="116" x="539.5" y="975.0661"/><text fill="#000000" font-family="Verdana" font-size="14" lengthAdjust="spacing" textLength="96" x="549.5" y="1000.032">smtp_mail_log</text></g><!--entity HRAPI--><g id="elem_HRAPI"><rect fill="#FFFFFF" height="58.1358" rx="2.5" ry="2.5" style="stroke:#000000;stroke-width:1.0;" width="190" x="1246.5" y="703.0661"/><text fill="#000000" font-family="Verdana" font-size="14" lengthAdjust="spacing" textLength="82" x="1256.5" y="728.032">HR REST API</text><text fill="#000000" font-family="Verdana" font-size="14" lengthAdjust="spacing" textLength="170" x="1256.5" y="747.0999">http://192.168.1.214:8080</text></g><!--entity HRDB--><g id="elem_HRDB"><path d="M1288.5,868.5661 C1288.5,858.5661 1341.5,858.5661 1341.5,858.5661 C1341.5,858.5661 1394.5,858.5661 1394.5,868.5661 L1394.5,896.634 C1394.5,906.634 1341.5,906.634 1341.5,906.634 C1341.5,906.634 1288.5,906.634 1288.5,896.634 L1288.5,868.5661 " fill="#FFFFFF" style="stroke:#000000;stroke-width:1.0;"/><path d="M1288.5,868.5661 C1288.5,878.5661 1341.5,878.5661 1341.5,878.5661 C1341.5,878.5661 1394.5,878.5661 1394.5,868.5661 " fill="none" style="stroke:#000000;stroke-width:1.0;"/><text fill="#000000" font-family="Verdana" font-size="14" lengthAdjust="spacing" textLength="86" x="1298.5" y="897.532">HR Database</text></g><g id="elem_GMN49"><path d="M1471.5,674.0661 L1471.5,728.0661 L1436.6,732.0661 L1471.5,736.0661 L1471.5,790.3022 A0,0 0 0 0 1471.5,790.3022 L1729.5,790.3022 A0,0 0 0 0 1729.5,790.3022 L1729.5,684.0661 L1719.5,674.0661 L1471.5,674.0661 A0,0 0 0 0 1471.5,674.0661 " fill="#FFFFFF" style="stroke:#000000;stroke-width:1.0;"/><path d="M1719.5,674.0661 L1719.5,684.0661 L1729.5,684.0661 L1719.5,674.0661 " fill="#FFFFFF" style="stroke:#000000;stroke-width:1.0;"/><text fill="#000000" font-family="Verdana" font-size="13" font-weight="bold" lengthAdjust="spacing" textLength="142" x="1477.5" y="692.9631">Integration Contract:</text><text fill="#000000" font-family="Verdana" font-size="13" lengthAdjust="spacing" textLength="180" x="1477.5" y="710.6691">- GET /api/employees/{empId}</text><text fill="#000000" font-family="Verdana" font-size="13" lengthAdjust="spacing" textLength="211" x="1477.5" y="728.3751">- GET /api/employees?status=active</text><text fill="#000000" font-family="Verdana" font-size="13" lengthAdjust="spacing" textLength="165" x="1477.5" y="746.0811">- GET /api/positions/{posId}</text><text fill="#000000" font-family="Verdana" font-size="13" lengthAdjust="spacing" textLength="191" x="1477.5" y="763.7872">- GET /api/organizations/{orgId}</text><text fill="#000000" font-family="Verdana" font-size="13" lengthAdjust="spacing" textLength="237" x="1477.5" y="781.4932">- Response: EmployeeDTO, PositionDTO</text></g><g id="elem_GMN52"><path d="M11,851.0661 L11,914.1841 L188,914.1841 L188,861.0661 L178,851.0661 L11,851.0661 " fill="#FFFFFF" style="stroke:#000000;stroke-width:1.0;"/><path d="M178,851.0661 L178,861.0661 L188,861.0661 L178,851.0661 " fill="#FFFFFF" style="stroke:#000000;stroke-width:1.0;"/><text fill="#000000" font-family="Verdana" font-size="13" font-weight="bold" lengthAdjust="spacing" textLength="156" x="17" y="869.9631">Ownership: Mail Service</text><text fill="#000000" font-family="Verdana" font-size="13" lengthAdjust="spacing" textLength="125" x="17" y="887.6691">17 tables fully owned</text><text fill="#000000" font-family="Verdana" font-size="13" lengthAdjust="spacing" textLength="150" x="17" y="905.3751">No direct HR table access</text></g><!--link WebClient to AppWrite--><g id="link_WebClient_AppWrite"><path d="M1131.08,158.6761 C1142.54,167.7361 1154.05,178.5761 1162.5,190.5661 C1164.7,193.6861 1234.5133,398.1472 1260.9333,475.6172 " fill="none" id="WebClient-to-AppWrite" style="stroke:#000000;stroke-width:1.0;"/><polygon fill="#000000" points="1262.87,481.2961,1263.7509,471.4867,1261.2561,476.5637,1256.1791,474.0689,1262.87,481.2961" style="stroke:#000000;stroke-width:1.0;"/><text fill="#000000" font-family="Verdana" font-size="13" lengthAdjust="spacing" textLength="62" x="1220.5" y="326.4631">Login/JWT</text></g><!--link MobileClient to AppWrite--><g id="link_MobileClient_AppWrite"><path d="M1268.54,158.7061 C1278.01,175.1561 1288.63,196.7261 1293.5,217.5661 C1315.64,312.3461 1294.3352,422.8878 1281.4652,475.5178 " fill="none" id="MobileClient-to-AppWrite" style="stroke:#000000;stroke-width:1.0;"/><polygon fill="#000000" points="1280.04,481.3461,1286.0634,473.5538,1281.2277,476.4892,1278.2923,471.6535,1280.04,481.3461" style="stroke:#000000;stroke-width:1.0;"/><text fill="#000000" font-family="Verdana" font-size="13" lengthAdjust="spacing" textLength="62" x="1303.5" y="326.4631">Login/JWT</text></g><!--link WebClient to MailAPI--><g id="link_WebClient_MailAPI"><path d="M1087.5,158.9361 C1087.5,194.7661 1087.5,250.0361 1087.5,285.8161 " fill="none" id="WebClient-to-MailAPI" style="stroke:#000000;stroke-width:1.0;"/><polygon fill="#000000" points="1087.5,291.8161,1091.5,282.8161,1087.5,286.8161,1083.5,282.8161,1087.5,291.8161" style="stroke:#000000;stroke-width:1.0;"/><text fill="#000000" font-family="Verdana" font-size="13" lengthAdjust="spacing" textLength="65" x="1088.5" y="205.4631">Bearer JWT</text></g><!--link WebClient to ArchiveAPI--><g id="link_WebClient_ArchiveAPI"><path d="M1014.38,139.0861 C947.99,149.4661 849.43,171.6661 775.5,217.5661 C745.03,236.4861 722.1714,263.5465 705.5714,286.7465 " fill="none" id="WebClient-to-ArchiveAPI" style="stroke:#000000;stroke-width:1.0;"/><polygon fill="#000000" points="702.08,291.6261,710.5701,286.6344,704.9895,287.5598,704.0641,281.9791,702.08,291.6261" style="stroke:#000000;stroke-width:1.0;"/><text fill="#000000" font-family="Verdana" font-size="13" lengthAdjust="spacing" textLength="65" x="822.5" y="205.4631">Bearer JWT</text></g><!--link WebClient to MasterAPI--><g id="link_WebClient_MasterAPI"><path d="M1050.02,158.8661 C1037.76,168.5661 1024.27,179.7161 1012.5,190.5661 C980.71,219.8861 951.2044,251.3979 927.3744,277.9879 " fill="none" id="WebClient-to-MasterAPI" style="stroke:#000000;stroke-width:1.0;"/><polygon fill="#000000" points="923.37,282.4561,932.3554,278.4234,926.707,278.7326,926.3978,273.0842,923.37,282.4561" style="stroke:#000000;stroke-width:1.0;"/><text fill="#000000" font-family="Verdana" font-size="13" lengthAdjust="spacing" textLength="65" x="1013.5" y="205.4631">Bearer JWT</text></g><!--link WebClient to AttachmentAPI--><g id="link_WebClient_AttachmentAPI"><path d="M1014.35,133.8161 C834.98,142.4961 384.53,168.9761 338.5,217.5661 C269.86,290.0161 294.4091,417.4981 310.2591,475.5281 " fill="none" id="WebClient-to-AttachmentAPI" style="stroke:#000000;stroke-width:1.0;"/><polygon fill="#000000" points="311.84,481.3161,313.3273,471.5802,310.5226,476.4928,305.61,473.688,311.84,481.3161" style="stroke:#000000;stroke-width:1.0;"/><text fill="#000000" font-family="Verdana" font-size="13" lengthAdjust="spacing" textLength="65" x="339.5" y="326.4631">Bearer JWT</text></g><!--link MobileClient to MailAPI--><g id="link_MobileClient_MailAPI"><path d="M1226.1,158.9361 C1195.28,194.7661 1146.4822,251.4869 1115.7122,287.2669 " fill="none" id="MobileClient-to-MailAPI" style="stroke:#000000;stroke-width:1.0;"/><polygon fill="#000000" points="1111.8,291.8161,1120.701,287.6005,1115.0601,288.0251,1114.6355,282.3842,1111.8,291.8161" style="stroke:#000000;stroke-width:1.0;"/><text fill="#000000" font-family="Verdana" font-size="13" lengthAdjust="spacing" textLength="65" x="1198.5" y="205.4631">Bearer JWT</text></g><!--link MailAPI to MailSvc--><g id="link_MailAPI_MailSvc"><path d="M1064.63,350.1561 C1056.21,361.7561 1047.32,375.7061 1041.5,389.5661 C1027.18,423.6461 1021.8182,460.864 1019.4782,485.034 " fill="none" id="MailAPI-to-MailSvc" style="stroke:#000000;stroke-width:1.0;"/><polygon fill="#000000" points="1018.9,491.0061,1023.7487,482.4334,1019.3818,486.0294,1015.7859,481.6625,1018.9,491.0061" style="stroke:#000000;stroke-width:1.0;"/></g><!--link ArchiveAPI to ArchiveSvc--><g id="link_ArchiveAPI_ArchiveSvc"><path d="M683.5,350.1361 C683.5,388.9561 683.5,451.9761 683.5,484.9761 " fill="none" id="ArchiveAPI-to-ArchiveSvc" style="stroke:#000000;stroke-width:1.0;"/><polygon fill="#000000" points="683.5,490.9761,687.5,481.9761,683.5,485.9761,679.5,481.9761,683.5,490.9761" style="stroke:#000000;stroke-width:1.0;"/></g><!--link MailSvc to NumGen--><g id="link_MailSvc_NumGen"><path d="M1013.97,530.1161 C1010.9,549.8761 1007.87,581.9161 1014.5,608.5661 C1023.16,643.3761 1040.4576,674.1567 1056.1676,697.9867 " fill="none" id="MailSvc-to-NumGen" style="stroke:#000000;stroke-width:1.0;"/><polygon fill="#000000" points="1059.47,702.9961,1057.8559,693.2804,1056.718,698.8216,1051.1767,697.6837,1059.47,702.9961" style="stroke:#000000;stroke-width:1.0;"/><text fill="#000000" font-family="Verdana" font-size="13" lengthAdjust="spacing" textLength="134" x="1015.5" y="595.4631">Generate mail number</text></g><!--link MailSvc to NotifSvc--><g id="link_MailSvc_NotifSvc"><path d="M946.7,529.9261 C925.97,538.9561 905.63,552.2161 893.5,571.5661 C868.42,611.5661 876.0981,663.2349 885.0581,697.1649 " fill="none" id="MailSvc-to-NotifSvc" style="stroke:#000000;stroke-width:1.0;"/><polygon fill="#000000" points="886.59,702.9661,888.1595,693.2431,885.3134,698.1318,880.4247,695.2857,886.59,702.9661" style="stroke:#000000;stroke-width:1.0;"/><text fill="#000000" font-family="Verdana" font-size="13" lengthAdjust="spacing" textLength="107" x="894.5" y="595.4631">Send notifications</text></g><!--link MailSvc to MailDB--><g id="link_MailSvc_MailDB"><path d="M954.81,530.0661 C873.65,553.1061 727.43,591.4961 599.5,608.5661 C587.65,610.1461 393.09,608.2561 384.5,616.5661 C382.245,618.7486 380.4238,622.1276 378.9637,626.3758 C378.5986,627.4378 378.2562,628.5541 377.9352,629.7197 C377.7747,630.3024 377.6195,630.8975 377.4696,631.5042 C377.3946,631.8076 378.6888,626.2719 378.6164,626.581 " fill="none" id="MailSvc-to-MailDB" style="stroke:#000000;stroke-width:1.0;"/><polygon fill="#000000" points="377.2486,632.423,383.195,624.5718,378.3884,627.5546,375.4056,622.7481,377.2486,632.423" style="stroke:#000000;stroke-width:1.0;"/><text fill="#000000" font-family="Verdana" font-size="13" lengthAdjust="spacing" textLength="35" x="784.5" y="595.4631">CRUD</text></g><!--link ArchiveSvc to MailDB--><g id="link_ArchiveSvc_MailDB"><path d="M647.46,530.2361 C602.58,552.6161 522.96,589.4761 450.5,608.5661 C436.21,612.3261 394.68,605.8561 384.5,616.5661 C382.3375,618.8411 380.5861,622.2898 379.1773,626.589 C378.8252,627.6638 378.4944,628.7918 378.184,629.9678 C378.0287,630.5559 377.8786,631.1559 377.7334,631.7674 C377.6972,631.9202 379.013,626.2281 378.9773,626.3823 " fill="none" id="ArchiveSvc-to-MailDB" style="stroke:#000000;stroke-width:1.0;"/><polygon fill="#000000" points="377.6255,632.2281,383.5504,624.3607,378.752,627.3566,375.7561,622.5583,377.6255,632.2281" style="stroke:#000000;stroke-width:1.0;"/><text fill="#000000" font-family="Verdana" font-size="13" lengthAdjust="spacing" textLength="35" x="555.5" y="595.4631">CRUD</text></g><!--link AttachmentAPI to FileStore--><g id="link_AttachmentAPI_FileStore"><path d="M286.04,539.7861 C277.34,548.9261 269.15,559.7661 264.5,571.5661 C247.35,615.0661 257.7756,664.4502 268.2256,697.1902 " fill="none" id="AttachmentAPI-to-FileStore" style="stroke:#000000;stroke-width:1.0;"/><polygon fill="#000000" points="270.05,702.9061,271.124,693.116,268.5297,698.1428,263.5028,695.5485,270.05,702.9061" style="stroke:#000000;stroke-width:1.0;"/><text fill="#000000" font-family="Verdana" font-size="13" lengthAdjust="spacing" textLength="110" x="265.5" y="595.4631">Upload/Download</text></g><!--link AttachmentAPI to MailDB--><g id="link_AttachmentAPI_MailDB"><path d="M357.7,539.6961 C366.9,548.7561 375.54,559.5861 380.5,571.5661 C382.17,575.5961 382.7756,587.3023 382.7397,602.6626 C382.7217,610.3428 382.5434,618.9365 382.2575,627.9409 C382.2217,629.0664 382.1843,630.1984 382.1453,631.3358 C382.1356,631.6202 382.3349,625.9085 382.325,626.1935 " fill="none" id="AttachmentAPI-to-MailDB" style="stroke:#000000;stroke-width:1.0;"/><polygon fill="#000000" points="382.1158,632.1899,386.4272,623.3348,382.2901,627.1929,378.432,623.0559,382.1158,632.1899" style="stroke:#000000;stroke-width:1.0;"/><text fill="#000000" font-family="Verdana" font-size="13" lengthAdjust="spacing" textLength="58" x="383.5" y="595.4631">Metadata</text></g><!--link MailSvc to HRAPI--><g id="link_MailSvc_HRAPI"><path d="M1068.73,530.1461 C1103.45,541.8761 1150.64,556.1661 1193.5,563.5661 C1209.51,566.3261 1328.26,559.8361 1339.5,571.5661 C1372.75,606.2461 1363.5413,661.4294 1353.0613,697.0994 " fill="none" id="MailSvc-to-HRAPI" style="stroke:#000000;stroke-width:1.0;"/><polygon fill="#000000" points="1351.37,702.8561,1357.7448,695.3486,1352.7794,698.0588,1350.0692,693.0935,1351.37,702.8561" style="stroke:#000000;stroke-width:1.0;"/><text fill="#000000" font-family="Verdana" font-size="13" lengthAdjust="spacing" textLength="139" x="1359.5" y="586.4631">GET employee/position</text><text fill="#000000" font-family="Verdana" font-size="13" lengthAdjust="spacing" textLength="138" x="1360" y="604.1691">(via WebClient + Cache)</text></g><!--link ArchiveSvc to HRAPI--><g id="link_ArchiveSvc_HRAPI"><path d="M755.07,530.1161 C803.86,541.9161 870.14,556.2961 929.5,563.5661 C954.33,566.6061 1131.94,560.7561 1154.5,571.5661 C1174.11,580.9561 1170.79,593.5361 1186.5,608.5661 C1223.3,643.7761 1264.7272,675.8138 1297.0872,699.4838 " fill="none" id="ArchiveSvc-to-HRAPI" style="stroke:#000000;stroke-width:1.0;"/><polygon fill="#000000" points="1301.93,703.0261,1297.0274,694.4842,1297.8944,700.0742,1292.3043,700.9412,1301.93,703.0261" style="stroke:#000000;stroke-width:1.0;"/><text fill="#000000" font-family="Verdana" font-size="13" lengthAdjust="spacing" textLength="143" x="1187.5" y="586.4631">GET position employees</text><text fill="#000000" font-family="Verdana" font-size="13" lengthAdjust="spacing" textLength="112" x="1203" y="604.1691">(for access control)</text></g><!--link MailAPI to AppWrite--><g id="link_MailAPI_AppWrite"><path d="M1076.04,350.0761 C1070.37,368.9461 1067.39,393.1161 1081.5,408.5661 C1094.74,423.0661 1151.51,408.6961 1169.5,416.5661 C1202.17,430.8661 1227.5562,455.1856 1246.4762,476.9756 " fill="none" id="MailAPI-to-AppWrite" style="stroke:#000000;stroke-width:1.0;"/><polygon fill="#000000" points="1250.41,481.5061,1247.5297,472.0878,1247.1319,477.7307,1241.489,477.3329,1250.41,481.5061" style="stroke:#000000;stroke-width:1.0;"/><text fill="#000000" font-family="Verdana" font-size="13" lengthAdjust="spacing" textLength="112" x="1082.5" y="404.4631">Validate JWT token</text></g><!--link HRAPI to HRDB--><g id="link_HRAPI_HRDB"><path d="M1341.5,761.3461 C1341.5,789.4561 1341.5,826.0461 1341.5,852.2661 " fill="none" id="HRAPI-to-HRDB" style="stroke:#000000;stroke-width:1.0;"/><polygon fill="#000000" points="1341.5,858.2661,1345.5,849.2661,1341.5,853.2661,1337.5,849.2661,1341.5,858.2661" style="stroke:#000000;stroke-width:1.0;"/></g><!--link MailDB to GMN52--><g id="link_MailDB_GMN52"><path d="M368.3312,795.2199 C366.9078,796.9051 365.4512,798.5577 363.963,800.1784 C360.9866,803.4197 357.8837,806.5332 354.6673,809.524 C348.2345,815.5055 341.3474,820.9958 334.1092,826.035 C319.6328,836.1133 303.7519,844.3867 287.2913,851.1748 C254.37,864.7511 219.13,872.3861 188.17,876.6361 " fill="none" id="MailDB-GMN52" style="stroke:#000000;stroke-width:1.0;stroke-dasharray:7.0,7.0;"/></g><!--SRC=[VLRDSjis4BxpARQwD5OhCKephQj9tR5D9tOQnHvHYGzD9WEHImfZ4c08KAwQyRKFq4ViatH1WY0fAz59sFts_rk0t-aDvWX5nhZmr1qN1IjP3f7C2obGw53lCeGI8yr4cg7dQQv94EQirDT9mYE42PotQ0WuIyb-3Y6MMwCCC99LaN6HUbx1eZkM8epECsx0RzWEon5yyO1-VzxY6Xh51_7auY_zEeJ__laNbiWYxR-lyEWZC0M4Qa2DqKAkEQNZx4v5N4eU-_mwRF0Dm9eyz78uhQXoeNd4D9TY12zUH9ciufEJDf_JehWjkKROpgO_JP-Jyn2pP78fbSQuSTv21euNZ6Uk_2StMAggPDIz8nCZeUPW5wF6BY_25PpUN7qGFYkulvtvEOcLFnut5T21j3QfCjhmBHwmOOt6cLcairmmohk4W59v76oYTqLjkYUcvc0gIuwzR8oRBX-jMRJ9pJI7sJXvbv0JEUjGK_CLpK0DhPMJjyO6QSnwRMjRNBF8TIhSHiDEFOPPZKE-bPedbWSjt4nxiRg17-0bBt7DbALVZUqigtnDFNs50cd4igmvyhb24RcurgpA2THa7zC4Z4FBbC0UoNR1Iiw2CoAABIOuiqIfevc9V1mUFz5Yyi9mUr-Ho2ocUlUabYJxOZlctRxSiA8dwmsr9rMvBZxLy4ocZVoXgLHHI-gLU6bsD6nELEU07Ksr1c40mrMwN7QBz0SMcB9xnWzl4a6xdTXeNSnzV_Rhi-div-FfRFfizdn-_FJuQJsCosLBm6uKPDuEOjHWWZEJolVsQg4BKGYw18aYodDt44mc9-uIW3cyaIaN_klRbTU_ThwEslDaDvqWPyXA8fR1x0LpM_qjb5lIRxhgx-CG-2ZxWvbHSwu4nH4iW_v6UYswjJJxqakyLuVHM4GjRlQ4mjYLGZ340b7lsH1f5n7CKoDY4BqbLWEaNQGvd2_V1LuN-91oq1AZTxmaoBiYaops0talp9y3QETjWPePShKzeZVH93R8gwOXOKUlBbQ0EJdV8Vg5LDn0QKssd7NF7Tr4vnGDZqRx9GpyjEREeI97YIo1HH4gPMYiIvcHb_wGUkHypp8UcyRJX47BEtDhDH6QMBGM7lMQFWbukj4W4xTEut6lKleae43qSi_7Oz9Dm2HNN-ykCVyB_RsA7xwY_jqy0fNwZNnGiKDGMoNveB-FVCWoPOB_pIo4ZYraYOe-L1JEuSB62LRNFyADzKS7pv89RPbhgRNCJPtDSEj2h- -9dMh3Y_c0-7Mfir-0xf4C5IHLbks0s88noTzAYBdvZgA6DGWxaoxY_m00]--></g></svg>