<?xml version="1.0" encoding="us-ascii" standalone="no"?><svg xmlns="http://www.w3.org/2000/svg" xmlns:xlink="http://www.w3.org/1999/xlink" contentStyleType="text/css" height="1564px" preserveAspectRatio="none" style="width:1964px;height:1564px;background:#FFFFFF;" version="1.1" viewBox="0 0 1964 1564" width="1964px" zoomAndPan="magnify"><defs/><g><text fill="#000000" font-family="Verdana" font-size="22" font-weight="bold" lengthAdjust="spacing" textLength="443" x="759" y="38.5181">Sequence Diagram: Arsip Surat dari Mail</text><rect fill="#FFFFFF" height="69.118" style="stroke:#000000;stroke-width:1.0;" width="483.5" x="229" y="324.5621"/><rect fill="#FFFFFF" height="100.8241" style="stroke:#000000;stroke-width:1.0;" width="1129.5" x="562.5" y="502.7982"/><rect fill="#FFFFFF" height="69.118" style="stroke:#000000;stroke-width:1.0;" width="513.5" x="562.5" y="617.6223"/><rect fill="#FFFFFF" height="51.412" style="stroke:#000000;stroke-width:1.0;" width="797" x="895" y="1207.0366"/><rect fill="#FFFFFF" height="64.412" style="stroke:#000000;stroke-width:1.0;" width="279.5" x="895" y="1304.1546"/><line style="stroke:#000000;stroke-width:1.0;" x1="28" x2="28" y1="136.032" y2="1480.6847"/><line style="stroke:#000000;stroke-width:1.0;" x1="275" x2="275" y1="136.032" y2="1480.6847"/><line style="stroke:#000000;stroke-width:1.0;" x1="370" x2="370" y1="136.032" y2="1480.6847"/><line style="stroke:#000000;stroke-width:1.0;" x1="637.5" x2="637.5" y1="136.032" y2="1480.6847"/><line style="stroke:#000000;stroke-width:1.0;" x1="985" x2="985" y1="136.032" y2="1480.6847"/><line style="stroke:#000000;stroke-width:1.0;" x1="1249" x2="1249" y1="136.032" y2="1480.6847"/><line style="stroke:#000000;stroke-width:1.0;" x1="1408" x2="1408" y1="136.032" y2="1480.6847"/><line style="stroke:#000000;stroke-width:1.0;" x1="1590" x2="1590" y1="136.032" y2="1480.6847"/><line style="stroke:#000000;stroke-width:1.0;" x1="1759" x2="1759" y1="136.032" y2="1480.6847"/><line style="stroke:#000000;stroke-width:1.0;" x1="1894" x2="1894" y1="136.032" y2="1480.6847"/><text fill="#000000" font-family="Verdana" font-size="14" lengthAdjust="spacing" textLength="31" x="10" y="131.93">User</text><ellipse cx="28.5" cy="64.9641" fill="#FFFFFF" rx="8" ry="8" style="stroke:#000000;stroke-width:1.0;"/><path d="M28.5,72.9641 L28.5,99.9641 M15.5,80.9641 L41.5,80.9641 M28.5,99.9641 L15.5,114.9641 M28.5,99.9641 L41.5,114.9641 " fill="none" style="stroke:#000000;stroke-width:1.0;"/><text fill="#000000" font-family="Verdana" font-size="14" lengthAdjust="spacing" textLength="31" x="10" y="1494.6506">User</text><ellipse cx="28.5" cy="1507.7526" fill="#FFFFFF" rx="8" ry="8" style="stroke:#000000;stroke-width:1.0;"/><path d="M28.5,1515.7526 L28.5,1542.7526 M15.5,1523.7526 L41.5,1523.7526 M28.5,1542.7526 L15.5,1557.7526 M28.5,1542.7526 L41.5,1557.7526 " fill="none" style="stroke:#000000;stroke-width:1.0;"/><rect fill="#FFFFFF" height="33.0679" rx="2.5" ry="2.5" style="stroke:#000000;stroke-width:1.0;" width="53" x="249" y="101.9641"/><text fill="#000000" font-family="Verdana" font-size="14" lengthAdjust="spacing" textLength="39" x="256" y="123.93">Client</text><rect fill="#FFFFFF" height="33.0679" rx="2.5" ry="2.5" style="stroke:#000000;stroke-width:1.0;" width="53" x="249" y="1479.6847"/><text fill="#000000" font-family="Verdana" font-size="14" lengthAdjust="spacing" textLength="39" x="256" y="1501.6506">Client</text><rect fill="#FFFFFF" height="33.0679" rx="2.5" ry="2.5" style="stroke:#000000;stroke-width:1.0;" width="77" x="332" y="101.9641"/><text fill="#000000" font-family="Verdana" font-size="14" lengthAdjust="spacing" textLength="63" x="339" y="123.93">AppWrite</text><rect fill="#FFFFFF" height="33.0679" rx="2.5" ry="2.5" style="stroke:#000000;stroke-width:1.0;" width="77" x="332" y="1479.6847"/><text fill="#000000" font-family="Verdana" font-size="14" lengthAdjust="spacing" textLength="63" x="339" y="1501.6506">AppWrite</text><rect fill="#FFFFFF" height="33.0679" rx="2.5" ry="2.5" style="stroke:#000000;stroke-width:1.0;" width="110" x="582.5" y="101.9641"/><text fill="#000000" font-family="Verdana" font-size="14" lengthAdjust="spacing" textLength="96" x="589.5" y="123.93">MailController</text><rect fill="#FFFFFF" height="33.0679" rx="2.5" ry="2.5" style="stroke:#000000;stroke-width:1.0;" width="110" x="582.5" y="1479.6847"/><text fill="#000000" font-family="Verdana" font-size="14" lengthAdjust="spacing" textLength="96" x="589.5" y="1501.6506">MailController</text><rect fill="#FFFFFF" height="33.0679" rx="2.5" ry="2.5" style="stroke:#000000;stroke-width:1.0;" width="141" x="915" y="101.9641"/><text fill="#000000" font-family="Verdana" font-size="14" lengthAdjust="spacing" textLength="127" x="922" y="123.93">MailArchiveService</text><rect fill="#FFFFFF" height="33.0679" rx="2.5" ry="2.5" style="stroke:#000000;stroke-width:1.0;" width="141" x="915" y="1479.6847"/><text fill="#000000" font-family="Verdana" font-size="14" lengthAdjust="spacing" textLength="127" x="922" y="1501.6506">MailArchiveService</text><rect fill="#FFFFFF" height="33.0679" rx="2.5" ry="2.5" style="stroke:#000000;stroke-width:1.0;" width="117" x="1191" y="101.9641"/><text fill="#000000" font-family="Verdana" font-size="14" lengthAdjust="spacing" textLength="103" x="1198" y="123.93">HrServiceClient</text><rect fill="#FFFFFF" height="33.0679" rx="2.5" ry="2.5" style="stroke:#000000;stroke-width:1.0;" width="117" x="1191" y="1479.6847"/><text fill="#000000" font-family="Verdana" font-size="14" lengthAdjust="spacing" textLength="103" x="1198" y="1501.6506">HrServiceClient</text><rect fill="#FFFFFF" height="33.0679" rx="2.5" ry="2.5" style="stroke:#000000;stroke-width:1.0;" width="140" x="1338" y="101.9641"/><text fill="#000000" font-family="Verdana" font-size="14" lengthAdjust="spacing" textLength="126" x="1345" y="123.93">AttachmentService</text><rect fill="#FFFFFF" height="33.0679" rx="2.5" ry="2.5" style="stroke:#000000;stroke-width:1.0;" width="140" x="1338" y="1479.6847"/><text fill="#000000" font-family="Verdana" font-size="14" lengthAdjust="spacing" textLength="126" x="1345" y="1501.6506">AttachmentService</text><rect fill="#FFFFFF" height="33.0679" rx="2.5" ry="2.5" style="stroke:#000000;stroke-width:1.0;" width="164" x="1508" y="101.9641"/><text fill="#000000" font-family="Verdana" font-size="14" lengthAdjust="spacing" textLength="150" x="1515" y="123.93">MailArchiveRepository</text><rect fill="#FFFFFF" height="33.0679" rx="2.5" ry="2.5" style="stroke:#000000;stroke-width:1.0;" width="164" x="1508" y="1479.6847"/><text fill="#000000" font-family="Verdana" font-size="14" lengthAdjust="spacing" textLength="150" x="1515" y="1501.6506">MailArchiveRepository</text><rect fill="#FFFFFF" height="33.0679" rx="2.5" ry="2.5" style="stroke:#000000;stroke-width:1.0;" width="114" x="1702" y="101.9641"/><text fill="#000000" font-family="Verdana" font-size="14" lengthAdjust="spacing" textLength="100" x="1709" y="123.93">MailRepository</text><rect fill="#FFFFFF" height="33.0679" rx="2.5" ry="2.5" style="stroke:#000000;stroke-width:1.0;" width="114" x="1702" y="1479.6847"/><text fill="#000000" font-family="Verdana" font-size="14" lengthAdjust="spacing" textLength="100" x="1709" y="1501.6506">MailRepository</text><rect fill="#FFFFFF" height="33.0679" rx="2.5" ry="2.5" style="stroke:#000000;stroke-width:1.0;" width="96" x="1846" y="101.9641"/><text fill="#000000" font-family="Verdana" font-size="14" lengthAdjust="spacing" textLength="82" x="1853" y="123.93">HR REST API</text><rect fill="#FFFFFF" height="33.0679" rx="2.5" ry="2.5" style="stroke:#000000;stroke-width:1.0;" width="96" x="1846" y="1479.6847"/><text fill="#000000" font-family="Verdana" font-size="14" lengthAdjust="spacing" textLength="82" x="1853" y="1501.6506">HR REST API</text><rect fill="#FFFFFF" height="3" style="stroke:#FFFFFF;stroke-width:1.0;" width="1952" x="5" y="167.885"/><line style="stroke:#000000;stroke-width:0.5;" x1="5" x2="1957" y1="167.885" y2="167.885"/><line style="stroke:#000000;stroke-width:0.5;" x1="5" x2="1957" y1="170.885" y2="170.885"/><rect fill="#FFFFFF" height="25.706" style="stroke:#000000;stroke-width:1.0;" width="173" x="894.5" y="156.032"/><text fill="#000000" font-family="Verdana" font-size="13" font-weight="bold" lengthAdjust="spacing" textLength="156" x="900.5" y="173.929">Pre-check: Can Archive?</text><polygon fill="#000000" points="263.5,211.4441,273.5,215.4441,263.5,219.4441,267.5,215.4441" style="stroke:#000000;stroke-width:1.0;"/><line style="stroke:#000000;stroke-width:1.0;" x1="28.5" x2="269.5" y1="215.4441" y2="215.4441"/><text fill="#000000" font-family="Verdana" font-size="13" lengthAdjust="spacing" textLength="127" x="35.5" y="209.635">Click "Arsipkan Surat"</text><polygon fill="#000000" points="625.5,260.8561,635.5,264.8561,625.5,268.8561,629.5,264.8561" style="stroke:#000000;stroke-width:1.0;"/><line style="stroke:#000000;stroke-width:1.0;" x1="275.5" x2="631.5" y1="264.8561" y2="264.8561"/><text fill="#000000" font-family="Verdana" font-size="13" lengthAdjust="spacing" textLength="213" x="282.5" y="241.3411">POST /api/v1/mails/{mailId}/archive</text><text fill="#000000" font-family="Verdana" font-size="13" lengthAdjust="spacing" textLength="163" x="282.5" y="259.0471">{Authorization: Bearer JWT}</text><line style="stroke:#000000;stroke-width:1.0;" x1="637.5" x2="679.5" y1="296.5621" y2="296.5621"/><line style="stroke:#000000;stroke-width:1.0;" x1="679.5" x2="679.5" y1="296.5621" y2="309.5621"/><line style="stroke:#000000;stroke-width:1.0;" x1="638.5" x2="679.5" y1="309.5621" y2="309.5621"/><polygon fill="#000000" points="648.5,305.5621,638.5,309.5621,648.5,313.5621,644.5,309.5621" style="stroke:#000000;stroke-width:1.0;"/><text fill="#000000" font-family="Verdana" font-size="13" lengthAdjust="spacing" textLength="176" x="644.5" y="290.7531">Extract userId, roles from JWT</text><path d="M229,324.5621 L292,324.5621 L292,334.2681 L282,344.2681 L229,344.2681 L229,324.5621 " fill="#FFFFFF" style="stroke:#000000;stroke-width:1.0;"/><rect fill="none" height="69.118" style="stroke:#000000;stroke-width:1.0;" width="483.5" x="229" y="324.5621"/><text fill="#000000" font-family="Verdana" font-size="13" font-weight="bold" lengthAdjust="spacing" textLength="18" x="244" y="339.4591">alt</text><text fill="#000000" font-family="Verdana" font-size="11" font-weight="bold" lengthAdjust="spacing" textLength="188" x="307" y="338.321">[User has no ROLE_MAIL_ARCHIVE]</text><polygon fill="#000000" points="286.5,381.6802,276.5,385.6802,286.5,389.6802,282.5,385.6802" style="stroke:#000000;stroke-width:1.0;"/><line style="stroke:#000000;stroke-width:1.0;stroke-dasharray:2.0,2.0;" x1="280.5" x2="636.5" y1="385.6802" y2="385.6802"/><text fill="#000000" font-family="Verdana" font-size="13" lengthAdjust="spacing" textLength="86" x="292.5" y="362.1651">403 Forbidden</text><text fill="#000000" font-family="Verdana" font-size="13" lengthAdjust="spacing" textLength="338" x="292.5" y="379.8711">"Anda tidak memiliki hak untuk melakukan pengarsipan"</text><polygon fill="#000000" points="973.5,420.3862,983.5,424.3862,973.5,428.3862,977.5,424.3862" style="stroke:#000000;stroke-width:1.0;"/><line style="stroke:#000000;stroke-width:1.0;" x1="637.5" x2="979.5" y1="424.3862" y2="424.3862"/><text fill="#000000" font-family="Verdana" font-size="13" lengthAdjust="spacing" textLength="180" x="644.5" y="418.5772">prepareArchive(mailId, userId)</text><polygon fill="#000000" points="1747,452.0922,1757,456.0922,1747,460.0922,1751,456.0922" style="stroke:#000000;stroke-width:1.0;"/><line style="stroke:#000000;stroke-width:1.0;" x1="985.5" x2="1753" y1="456.0922" y2="456.0922"/><text fill="#000000" font-family="Verdana" font-size="13" lengthAdjust="spacing" textLength="95" x="992.5" y="450.2832">findById(mailId)</text><polygon fill="#000000" points="1747,483.7982,1757,487.7982,1747,491.7982,1751,487.7982" style="stroke:#000000;stroke-width:1.0;"/><line style="stroke:#000000;stroke-width:1.0;" x1="985.5" x2="1753" y1="487.7982" y2="487.7982"/><text fill="#000000" font-family="Verdana" font-size="13" lengthAdjust="spacing" textLength="124" x="992.5" y="481.9892">findById(mail.rootId)</text><path d="M562.5,502.7982 L625.5,502.7982 L625.5,512.5042 L615.5,522.5042 L562.5,522.5042 L562.5,502.7982 " fill="#FFFFFF" style="stroke:#000000;stroke-width:1.0;"/><rect fill="none" height="100.8241" style="stroke:#000000;stroke-width:1.0;" width="1129.5" x="562.5" y="502.7982"/><text fill="#000000" font-family="Verdana" font-size="13" font-weight="bold" lengthAdjust="spacing" textLength="18" x="577.5" y="517.6952">alt</text><text fill="#000000" font-family="Verdana" font-size="11" font-weight="bold" lengthAdjust="spacing" textLength="145" x="640.5" y="516.5571">[rootMail.archiveId != null]</text><polygon fill="#000000" points="1578,542.2102,1588,546.2102,1578,550.2102,1582,546.2102" style="stroke:#000000;stroke-width:1.0;"/><line style="stroke:#000000;stroke-width:1.0;" x1="985.5" x2="1584" y1="546.2102" y2="546.2102"/><text fill="#000000" font-family="Verdana" font-size="13" lengthAdjust="spacing" textLength="167" x="992.5" y="540.4012">findById(rootMail.archiveId)</text><polygon fill="#000000" points="648.5,591.6223,638.5,595.6223,648.5,599.6223,644.5,595.6223" style="stroke:#000000;stroke-width:1.0;"/><line style="stroke:#000000;stroke-width:1.0;stroke-dasharray:2.0,2.0;" x1="642.5" x2="984.5" y1="595.6223" y2="595.6223"/><text fill="#000000" font-family="Verdana" font-size="13" lengthAdjust="spacing" textLength="69" x="654.5" y="572.1072">409 Conflict</text><text fill="#000000" font-family="Verdana" font-size="13" lengthAdjust="spacing" textLength="324" x="654.5" y="589.8133">"Sudah diarsipkan oleh {name} dengan nomor {code}"</text><path d="M562.5,617.6223 L625.5,617.6223 L625.5,627.3283 L615.5,637.3283 L562.5,637.3283 L562.5,617.6223 " fill="#FFFFFF" style="stroke:#000000;stroke-width:1.0;"/><rect fill="none" height="69.118" style="stroke:#000000;stroke-width:1.0;" width="513.5" x="562.5" y="617.6223"/><text fill="#000000" font-family="Verdana" font-size="13" font-weight="bold" lengthAdjust="spacing" textLength="18" x="577.5" y="632.5193">alt</text><text fill="#000000" font-family="Verdana" font-size="11" font-weight="bold" lengthAdjust="spacing" textLength="159" x="640.5" y="631.3812">[mail.attachmentCount == 0]</text><polygon fill="#000000" points="648.5,674.7403,638.5,678.7403,648.5,682.7403,644.5,678.7403" style="stroke:#000000;stroke-width:1.0;"/><line style="stroke:#000000;stroke-width:1.0;stroke-dasharray:2.0,2.0;" x1="642.5" x2="984.5" y1="678.7403" y2="678.7403"/><text fill="#000000" font-family="Verdana" font-size="13" lengthAdjust="spacing" textLength="99" x="654.5" y="655.2253">400 Bad Request</text><text fill="#000000" font-family="Verdana" font-size="13" lengthAdjust="spacing" textLength="184" x="654.5" y="672.9313">"Surat tidak memiliki lampiran"</text><polygon fill="#000000" points="1396,713.4463,1406,717.4463,1396,721.4463,1400,717.4463" style="stroke:#000000;stroke-width:1.0;"/><line style="stroke:#000000;stroke-width:1.0;" x1="985.5" x2="1402" y1="717.4463" y2="717.4463"/><text fill="#000000" font-family="Verdana" font-size="13" lengthAdjust="spacing" textLength="307" x="992.5" y="711.6373">copyAttachments(tempId, mailId, MAIL &#8594; ARCHIVE)</text><polygon fill="#000000" points="648.5,745.1523,638.5,749.1523,648.5,753.1523,644.5,749.1523" style="stroke:#000000;stroke-width:1.0;"/><line style="stroke:#000000;stroke-width:1.0;stroke-dasharray:2.0,2.0;" x1="642.5" x2="984.5" y1="749.1523" y2="749.1523"/><text fill="#000000" font-family="Verdana" font-size="13" lengthAdjust="spacing" textLength="263" x="654.5" y="743.3433">ArchivePrepareResponse {tempId, rootMail}</text><polygon fill="#000000" points="286.5,776.8584,276.5,780.8584,286.5,784.8584,282.5,780.8584" style="stroke:#000000;stroke-width:1.0;"/><line style="stroke:#000000;stroke-width:1.0;stroke-dasharray:2.0,2.0;" x1="280.5" x2="636.5" y1="780.8584" y2="780.8584"/><text fill="#000000" font-family="Verdana" font-size="13" lengthAdjust="spacing" textLength="184" x="292.5" y="775.0494">200 OK {tempId, rootMailData}</text><rect fill="#FFFFFF" height="3" style="stroke:#FFFFFF;stroke-width:1.0;" width="1952" x="5" y="810.7114"/><line style="stroke:#000000;stroke-width:0.5;" x1="5" x2="1957" y1="810.7114" y2="810.7114"/><line style="stroke:#000000;stroke-width:0.5;" x1="5" x2="1957" y1="813.7114" y2="813.7114"/><rect fill="#FFFFFF" height="25.706" style="stroke:#000000;stroke-width:1.0;" width="154" x="904" y="798.8584"/><text fill="#000000" font-family="Verdana" font-size="13" font-weight="bold" lengthAdjust="spacing" textLength="137" x="910" y="816.7554">Submit Archive Form</text><polygon fill="#000000" points="263.5,871.9764,273.5,875.9764,263.5,879.9764,267.5,875.9764" style="stroke:#000000;stroke-width:1.0;"/><line style="stroke:#000000;stroke-width:1.0;" x1="28.5" x2="269.5" y1="875.9764" y2="875.9764"/><text fill="#000000" font-family="Verdana" font-size="13" lengthAdjust="spacing" textLength="94" x="35.5" y="852.4614">Fill archive form</text><text fill="#000000" font-family="Verdana" font-size="13" lengthAdjust="spacing" textLength="223" x="35.5" y="870.1674">(category, location, access, keywords)</text><polygon fill="#000000" points="625.5,921.3884,635.5,925.3884,625.5,929.3884,629.5,925.3884" style="stroke:#000000;stroke-width:1.0;"/><line style="stroke:#000000;stroke-width:1.0;" x1="275.5" x2="631.5" y1="925.3884" y2="925.3884"/><text fill="#000000" font-family="Verdana" font-size="13" lengthAdjust="spacing" textLength="131" x="282.5" y="901.8734">POST /api/v1/archives</text><text fill="#000000" font-family="Verdana" font-size="13" lengthAdjust="spacing" textLength="153" x="282.5" y="919.5794">{archiveData + accessList}</text><polygon fill="#000000" points="973.5,953.0945,983.5,957.0945,973.5,961.0945,977.5,957.0945" style="stroke:#000000;stroke-width:1.0;"/><line style="stroke:#000000;stroke-width:1.0;" x1="637.5" x2="979.5" y1="957.0945" y2="957.0945"/><text fill="#000000" font-family="Verdana" font-size="13" lengthAdjust="spacing" textLength="135" x="644.5" y="951.2855">createArchive(request)</text><line style="stroke:#000000;stroke-width:1.0;" x1="985.5" x2="1027.5" y1="988.8005" y2="988.8005"/><line style="stroke:#000000;stroke-width:1.0;" x1="1027.5" x2="1027.5" y1="988.8005" y2="1001.8005"/><line style="stroke:#000000;stroke-width:1.0;" x1="986.5" x2="1027.5" y1="1001.8005" y2="1001.8005"/><polygon fill="#000000" points="996.5,997.8005,986.5,1001.8005,996.5,1005.8005,992.5,1001.8005" style="stroke:#000000;stroke-width:1.0;"/><text fill="#000000" font-family="Verdana" font-size="13" lengthAdjust="spacing" textLength="250" x="992.5" y="982.9915">generateArchiveCode(type, category, org)</text><polygon fill="#000000" points="1237.5,1029.5065,1247.5,1033.5065,1237.5,1037.5065,1241.5,1033.5065" style="stroke:#000000;stroke-width:1.0;"/><line style="stroke:#000000;stroke-width:1.0;" x1="985.5" x2="1243.5" y1="1033.5065" y2="1033.5065"/><text fill="#000000" font-family="Verdana" font-size="13" lengthAdjust="spacing" textLength="139" x="992.5" y="1027.6975">getOrganization(orgId)</text><polygon fill="#000000" points="1882,1061.2125,1892,1065.2125,1882,1069.2125,1886,1065.2125" style="stroke:#000000;stroke-width:1.0;"/><line style="stroke:#000000;stroke-width:1.0;" x1="1249.5" x2="1888" y1="1065.2125" y2="1065.2125"/><text fill="#000000" font-family="Verdana" font-size="13" lengthAdjust="spacing" textLength="184" x="1256.5" y="1059.4035">GET /api/organizations/{orgId}</text><polygon fill="#000000" points="1260.5,1092.9185,1250.5,1096.9185,1260.5,1100.9185,1256.5,1096.9185" style="stroke:#000000;stroke-width:1.0;"/><line style="stroke:#000000;stroke-width:1.0;stroke-dasharray:2.0,2.0;" x1="1254.5" x2="1893" y1="1096.9185" y2="1096.9185"/><text fill="#000000" font-family="Verdana" font-size="13" lengthAdjust="spacing" textLength="129" x="1266.5" y="1091.1095">{orgName, mailCode}</text><polygon fill="#000000" points="996.5,1124.6245,986.5,1128.6245,996.5,1132.6245,992.5,1128.6245" style="stroke:#000000;stroke-width:1.0;"/><line style="stroke:#000000;stroke-width:1.0;stroke-dasharray:2.0,2.0;" x1="990.5" x2="1248.5" y1="1128.6245" y2="1128.6245"/><text fill="#000000" font-family="Verdana" font-size="13" lengthAdjust="spacing" textLength="104" x="1002.5" y="1122.8155">OrganizationDTO</text><polygon fill="#000000" points="1578,1156.3306,1588,1160.3306,1578,1164.3306,1582,1160.3306" style="stroke:#000000;stroke-width:1.0;"/><line style="stroke:#000000;stroke-width:1.0;" x1="985.5" x2="1584" y1="1160.3306" y2="1160.3306"/><text fill="#000000" font-family="Verdana" font-size="13" lengthAdjust="spacing" textLength="104" x="992.5" y="1154.5216">save(mailArchive)</text><polygon fill="#000000" points="1396,1188.0366,1406,1192.0366,1396,1196.0366,1400,1192.0366" style="stroke:#000000;stroke-width:1.0;"/><line style="stroke:#000000;stroke-width:1.0;" x1="985.5" x2="1402" y1="1192.0366" y2="1192.0366"/><text fill="#000000" font-family="Verdana" font-size="13" lengthAdjust="spacing" textLength="234" x="992.5" y="1186.2276">updateRef(ARCHIVE, tempId, archiveId)</text><path d="M895,1207.0366 L968,1207.0366 L968,1216.7426 L958,1226.7426 L895,1226.7426 L895,1207.0366 " fill="#FFFFFF" style="stroke:#000000;stroke-width:1.0;"/><rect fill="none" height="51.412" style="stroke:#000000;stroke-width:1.0;" width="797" x="895" y="1207.0366"/><text fill="#000000" font-family="Verdana" font-size="13" font-weight="bold" lengthAdjust="spacing" textLength="28" x="910" y="1221.9336">loop</text><text fill="#000000" font-family="Verdana" font-size="11" font-weight="bold" lengthAdjust="spacing" textLength="172" x="983" y="1220.7955">[for each position in accessList]</text><polygon fill="#000000" points="1578,1246.4486,1588,1250.4486,1578,1254.4486,1582,1250.4486" style="stroke:#000000;stroke-width:1.0;"/><line style="stroke:#000000;stroke-width:1.0;" x1="985.5" x2="1584" y1="1250.4486" y2="1250.4486"/><text fill="#000000" font-family="Verdana" font-size="13" lengthAdjust="spacing" textLength="327" x="992.5" y="1244.6396">saveAccess(archiveId, posId, access, download, history)</text><polygon fill="#000000" points="1747,1285.1546,1757,1289.1546,1747,1293.1546,1751,1289.1546" style="stroke:#000000;stroke-width:1.0;"/><line style="stroke:#000000;stroke-width:1.0;" x1="985.5" x2="1753" y1="1289.1546" y2="1289.1546"/><text fill="#000000" font-family="Verdana" font-size="13" lengthAdjust="spacing" textLength="231" x="992.5" y="1283.3456">updateArchiveId(rootMailId, archiveId)</text><path d="M895,1304.1546 L958,1304.1546 L958,1313.8606 L948,1323.8606 L895,1323.8606 L895,1304.1546 " fill="#FFFFFF" style="stroke:#000000;stroke-width:1.0;"/><rect fill="none" height="64.412" style="stroke:#000000;stroke-width:1.0;" width="279.5" x="895" y="1304.1546"/><text fill="#000000" font-family="Verdana" font-size="13" font-weight="bold" lengthAdjust="spacing" textLength="18" x="910" y="1319.0516">alt</text><text fill="#000000" font-family="Verdana" font-size="11" font-weight="bold" lengthAdjust="spacing" textLength="120" x="973" y="1317.9135">[status == PUBLISHED]</text><line style="stroke:#000000;stroke-width:1.0;" x1="985.5" x2="1027.5" y1="1347.5667" y2="1347.5667"/><line style="stroke:#000000;stroke-width:1.0;" x1="1027.5" x2="1027.5" y1="1347.5667" y2="1360.5667"/><line style="stroke:#000000;stroke-width:1.0;" x1="986.5" x2="1027.5" y1="1360.5667" y2="1360.5667"/><polygon fill="#000000" points="996.5,1356.5667,986.5,1360.5667,996.5,1364.5667,992.5,1360.5667" style="stroke:#000000;stroke-width:1.0;"/><text fill="#000000" font-family="Verdana" font-size="13" lengthAdjust="spacing" textLength="170" x="992.5" y="1341.7577">createNotification(archiveId)</text><polygon fill="#000000" points="648.5,1395.2727,638.5,1399.2727,648.5,1403.2727,644.5,1399.2727" style="stroke:#000000;stroke-width:1.0;"/><line style="stroke:#000000;stroke-width:1.0;stroke-dasharray:2.0,2.0;" x1="642.5" x2="984.5" y1="1399.2727" y2="1399.2727"/><text fill="#000000" font-family="Verdana" font-size="13" lengthAdjust="spacing" textLength="161" x="654.5" y="1393.4637">ArchiveResponse {id, code}</text><polygon fill="#000000" points="286.5,1426.9787,276.5,1430.9787,286.5,1434.9787,282.5,1430.9787" style="stroke:#000000;stroke-width:1.0;"/><line style="stroke:#000000;stroke-width:1.0;stroke-dasharray:2.0,2.0;" x1="280.5" x2="636.5" y1="1430.9787" y2="1430.9787"/><text fill="#000000" font-family="Verdana" font-size="13" lengthAdjust="spacing" textLength="175" x="292.5" y="1425.1697">201 Created {id, archiveCode}</text><polygon fill="#000000" points="39.5,1458.6847,29.5,1462.6847,39.5,1466.6847,35.5,1462.6847" style="stroke:#000000;stroke-width:1.0;"/><line style="stroke:#000000;stroke-width:1.0;stroke-dasharray:2.0,2.0;" x1="33.5" x2="274.5" y1="1462.6847" y2="1462.6847"/><text fill="#000000" font-family="Verdana" font-size="13" lengthAdjust="spacing" textLength="222" x="45.5" y="1456.8757">"Arsip berhasil dibuat: {archiveCode}"</text><!--SRC=[VLN1Sjis4BtpApQwL9xAiTFcKi-e7PfM8hLMhA6i-kAP34oi98n8W0L09wf7rtv0Fx5VqWK8KgILrXThi8yFk_lUBjxOBHO8PSw4Z28hR8wmn3ygb1d2ZM0RpOehYBKH9ImhpInmfWNCcSYZY6LMQHYi3Ee1C0Ehg6JQYaoKJ5eO9Bb0QNqawKVYidpGmgAFnG_zeEDEbBHQvNaWdYUda5XdM_6CIzJF8gkPvl6oZvlg4EwaCarVvM8joxO5XRjKhvawDwPOAYEeydsuD3s5liQyWanJI2VBUuWNiv0J_OgYyHWM6i-pBMQxAqYOX73bBp0UHoiu_naIe40kiXqbxaJP4SZhCeWI5vyxmEAEk2zOAIwUtrqKb8wvU77_PlnmmMh6H_aILtQhjFYJMQ7a5LmZqwZXruVxGnJDZsIJhrQJq52HoZC-0f853QorAXmsYhw3nENhpw54NGXZY31YkGNd3DXIWL91UdSx-JoFPxUVupIPpdwVH41_xg9GrllB7-63qa-2SvIFSX1Bpi0ApdPGO25oiHF4jODAsieTvMnNkV9Bb1lcUi7a84B9s-pZ9R6M6gdr61evhDim2jMSkVG_egNabGKNW-6QB6st6Xb57OLZIebeBII_tizueFYVu5l75iZhteWriDnHxY7qd_l-EA2pozjmEkFmPWooolEwEU66k7V5wKTdHtIZsllBdu26Q4rMiTJBPSNP5hXWZMT8h2syI5RW0RXhe2ID2Yhz9LCS3w6HJVwidH43-5KOwxFtjHv3YI9boAXm-QrqBk6QSKZTQZ5rHcwPl98tPqKfTAiZNQ_AVUzsgy1YKJRDzn9d13fEiHawWDEuqTgP3lxvwsy8nYDXUia5RongfwHeIYKDmal3qpJy47NS-WDLTFVRAUY6MNRmexoidWfX6tPdxQ8tnXz4dZTs079TyIY76REueQqnWbnbVZ17mB8CZHd13lTVbERcxBycFN0PcktmqoK3tmU6MzBjq1-EZ3nfszdGjJXXA2IIGDWcAAlY2NLhUl_v9e02GKBE6TfzYICurg7qffqo-atF1wNajmSjui0sJJsPlTFamx2GXWHspgQOHz229D37IIXNTQ2qtJpu4DMmyuRI7NyYYzTMSEaTF5zRGFV2c_ixb-UCfDUsAJlgZQ1XOOE4WdrXgvBxFhK618rhqpDevI4fheV1WIDeRDEPOU9QKfDgiTmc1V-6k5sQArKwYm3I7Uqn2DcHzdHZk7HZ7n-srupSr_xYu2gkliXSCJhP4Wb9TjRCtgsGkrP-chjsH_OsNrrRtF2ts-cqk7ijDXkgIYehrg9sDmnfDHhBR6N6Y-ef5sQBX7RRfJvr-sInkhwTBQUJctw9HmD_wZ0EEvVMZy4tHlquuuBIz1klFzll8F7Cl4Qmey4FKOrR4Qv-We7cWjuuUZkuUAgO9TzryOFeNm00]--></g></svg>