<?xml version="1.0" encoding="us-ascii" standalone="no"?><svg xmlns="http://www.w3.org/2000/svg" xmlns:xlink="http://www.w3.org/1999/xlink" contentStyleType="text/css" height="1943px" preserveAspectRatio="none" style="width:2298px;height:1943px;background:#FFFFFF;" version="1.1" viewBox="0 0 2298 1943" width="2298px" zoomAndPan="magnify"><defs/><g><text fill="#000000" font-family="Verdana" font-size="22" font-weight="bold" lengthAdjust="spacing" textLength="470" x="912.75" y="38.5181">Sequence Diagram: Kirim Surat (Send Mail)</text><rect fill="#FFFFFF" height="83.118" style="stroke:#000000;stroke-width:1.0;" width="752.5" x="177" y="940.3884"/><rect fill="#FFFFFF" height="275.3541" style="stroke:#000000;stroke-width:1.0;" width="1527" x="754.5" y="1164.3306"/><rect fill="#FFFFFF" height="209.9421" style="stroke:#000000;stroke-width:1.0;" width="1507" x="764.5" y="1222.7426"/><rect fill="#FFFFFF" height="51.412" style="stroke:#000000;stroke-width:1.0;" width="1161" x="764.5" y="1574.8028"/><line style="stroke:#000000;stroke-width:1.0;" x1="28" x2="28" y1="136.032" y2="1859.4509"/><line style="stroke:#000000;stroke-width:1.0;" x1="235" x2="235" y1="136.032" y2="1859.4509"/><line style="stroke:#000000;stroke-width:1.0;" x1="458" x2="458" y1="136.032" y2="1859.4509"/><line style="stroke:#000000;stroke-width:1.0;" x1="582" x2="582" y1="136.032" y2="1859.4509"/><line style="stroke:#000000;stroke-width:1.0;" x1="846.5" x2="846.5" y1="136.032" y2="1859.4509"/><line style="stroke:#000000;stroke-width:1.0;" x1="1184.5" x2="1184.5" y1="136.032" y2="1859.4509"/><line style="stroke:#000000;stroke-width:1.0;" x1="1356.5" x2="1356.5" y1="136.032" y2="1859.4509"/><line style="stroke:#000000;stroke-width:1.0;" x1="1515.5" x2="1515.5" y1="136.032" y2="1859.4509"/><line style="stroke:#000000;stroke-width:1.0;" x1="1672.5" x2="1672.5" y1="136.032" y2="1859.4509"/><line style="stroke:#000000;stroke-width:1.0;" x1="1832.5" x2="1832.5" y1="136.032" y2="1859.4509"/><line style="stroke:#000000;stroke-width:1.0;" x1="2021.5" x2="2021.5" y1="136.032" y2="1859.4509"/><line style="stroke:#000000;stroke-width:1.0;" x1="2194.5" x2="2194.5" y1="136.032" y2="1859.4509"/><text fill="#000000" font-family="Verdana" font-size="14" lengthAdjust="spacing" textLength="31" x="10" y="131.93">User</text><ellipse cx="28.5" cy="64.9641" fill="#FFFFFF" rx="8" ry="8" style="stroke:#000000;stroke-width:1.0;"/><path d="M28.5,72.9641 L28.5,99.9641 M15.5,80.9641 L41.5,80.9641 M28.5,99.9641 L15.5,114.9641 M28.5,99.9641 L41.5,114.9641 " fill="none" style="stroke:#000000;stroke-width:1.0;"/><text fill="#000000" font-family="Verdana" font-size="14" lengthAdjust="spacing" textLength="31" x="10" y="1873.4168">User</text><ellipse cx="28.5" cy="1886.5188" fill="#FFFFFF" rx="8" ry="8" style="stroke:#000000;stroke-width:1.0;"/><path d="M28.5,1894.5188 L28.5,1921.5188 M15.5,1902.5188 L41.5,1902.5188 M28.5,1921.5188 L15.5,1936.5188 M28.5,1921.5188 L41.5,1936.5188 " fill="none" style="stroke:#000000;stroke-width:1.0;"/><rect fill="#FFFFFF" height="52.1358" rx="2.5" ry="2.5" style="stroke:#000000;stroke-width:1.0;" width="77" x="197" y="82.8962"/><text fill="#000000" font-family="Verdana" font-size="14" lengthAdjust="spacing" textLength="39" x="216" y="104.8621">Client</text><text fill="#000000" font-family="Verdana" font-size="14" lengthAdjust="spacing" textLength="63" x="204" y="123.93">(Browser)</text><rect fill="#FFFFFF" height="52.1358" rx="2.5" ry="2.5" style="stroke:#000000;stroke-width:1.0;" width="77" x="197" y="1858.4509"/><text fill="#000000" font-family="Verdana" font-size="14" lengthAdjust="spacing" textLength="39" x="216" y="1880.4168">Client</text><text fill="#000000" font-family="Verdana" font-size="14" lengthAdjust="spacing" textLength="63" x="204" y="1899.4847">(Browser)</text><rect fill="#FFFFFF" height="52.1358" rx="2.5" ry="2.5" style="stroke:#000000;stroke-width:1.0;" width="77" x="420" y="82.8962"/><text fill="#000000" font-family="Verdana" font-size="14" lengthAdjust="spacing" textLength="63" x="427" y="104.8621">AppWrite</text><text fill="#000000" font-family="Verdana" font-size="14" lengthAdjust="spacing" textLength="40" x="438.5" y="123.93">(Auth)</text><rect fill="#FFFFFF" height="52.1358" rx="2.5" ry="2.5" style="stroke:#000000;stroke-width:1.0;" width="77" x="420" y="1858.4509"/><text fill="#000000" font-family="Verdana" font-size="14" lengthAdjust="spacing" textLength="63" x="427" y="1880.4168">AppWrite</text><text fill="#000000" font-family="Verdana" font-size="14" lengthAdjust="spacing" textLength="40" x="438.5" y="1899.4847">(Auth)</text><rect fill="#FFFFFF" height="33.0679" rx="2.5" ry="2.5" style="stroke:#000000;stroke-width:1.0;" width="110" x="527" y="101.9641"/><text fill="#000000" font-family="Verdana" font-size="14" lengthAdjust="spacing" textLength="96" x="534" y="123.93">MailController</text><rect fill="#FFFFFF" height="33.0679" rx="2.5" ry="2.5" style="stroke:#000000;stroke-width:1.0;" width="110" x="527" y="1858.4509"/><text fill="#000000" font-family="Verdana" font-size="14" lengthAdjust="spacing" textLength="96" x="534" y="1880.4168">MailController</text><rect fill="#FFFFFF" height="33.0679" rx="2.5" ry="2.5" style="stroke:#000000;stroke-width:1.0;" width="125" x="784.5" y="101.9641"/><text fill="#000000" font-family="Verdana" font-size="14" lengthAdjust="spacing" textLength="111" x="791.5" y="123.93">MailSendService</text><rect fill="#FFFFFF" height="33.0679" rx="2.5" ry="2.5" style="stroke:#000000;stroke-width:1.0;" width="125" x="784.5" y="1858.4509"/><text fill="#000000" font-family="Verdana" font-size="14" lengthAdjust="spacing" textLength="111" x="791.5" y="1880.4168">MailSendService</text><rect fill="#FFFFFF" height="33.0679" rx="2.5" ry="2.5" style="stroke:#000000;stroke-width:1.0;" width="167" x="1101.5" y="101.9641"/><text fill="#000000" font-family="Verdana" font-size="14" lengthAdjust="spacing" textLength="153" x="1108.5" y="123.93">MailNumberGenerator</text><rect fill="#FFFFFF" height="33.0679" rx="2.5" ry="2.5" style="stroke:#000000;stroke-width:1.0;" width="167" x="1101.5" y="1858.4509"/><text fill="#000000" font-family="Verdana" font-size="14" lengthAdjust="spacing" textLength="153" x="1108.5" y="1880.4168">MailNumberGenerator</text><rect fill="#FFFFFF" height="33.0679" rx="2.5" ry="2.5" style="stroke:#000000;stroke-width:1.0;" width="117" x="1298.5" y="101.9641"/><text fill="#000000" font-family="Verdana" font-size="14" lengthAdjust="spacing" textLength="103" x="1305.5" y="123.93">HrServiceClient</text><rect fill="#FFFFFF" height="33.0679" rx="2.5" ry="2.5" style="stroke:#000000;stroke-width:1.0;" width="117" x="1298.5" y="1858.4509"/><text fill="#000000" font-family="Verdana" font-size="14" lengthAdjust="spacing" textLength="103" x="1305.5" y="1880.4168">HrServiceClient</text><rect fill="#FFFFFF" height="33.0679" rx="2.5" ry="2.5" style="stroke:#000000;stroke-width:1.0;" width="140" x="1445.5" y="101.9641"/><text fill="#000000" font-family="Verdana" font-size="14" lengthAdjust="spacing" textLength="126" x="1452.5" y="123.93">NotificationService</text><rect fill="#FFFFFF" height="33.0679" rx="2.5" ry="2.5" style="stroke:#000000;stroke-width:1.0;" width="140" x="1445.5" y="1858.4509"/><text fill="#000000" font-family="Verdana" font-size="14" lengthAdjust="spacing" textLength="126" x="1452.5" y="1880.4168">NotificationService</text><rect fill="#FFFFFF" height="33.0679" rx="2.5" ry="2.5" style="stroke:#000000;stroke-width:1.0;" width="114" x="1615.5" y="101.9641"/><text fill="#000000" font-family="Verdana" font-size="14" lengthAdjust="spacing" textLength="100" x="1622.5" y="123.93">MailRepository</text><rect fill="#FFFFFF" height="33.0679" rx="2.5" ry="2.5" style="stroke:#000000;stroke-width:1.0;" width="114" x="1615.5" y="1858.4509"/><text fill="#000000" font-family="Verdana" font-size="14" lengthAdjust="spacing" textLength="100" x="1622.5" y="1880.4168">MailRepository</text><rect fill="#FFFFFF" height="33.0679" rx="2.5" ry="2.5" style="stroke:#000000;stroke-width:1.0;" width="146" x="1759.5" y="101.9641"/><text fill="#000000" font-family="Verdana" font-size="14" lengthAdjust="spacing" textLength="132" x="1766.5" y="123.93">UserTaskRepository</text><rect fill="#FFFFFF" height="33.0679" rx="2.5" ry="2.5" style="stroke:#000000;stroke-width:1.0;" width="146" x="1759.5" y="1858.4509"/><text fill="#000000" font-family="Verdana" font-size="14" lengthAdjust="spacing" textLength="132" x="1766.5" y="1880.4168">UserTaskRepository</text><rect fill="#FFFFFF" height="33.0679" rx="2.5" ry="2.5" style="stroke:#000000;stroke-width:1.0;" width="173" x="1935.5" y="101.9641"/><text fill="#000000" font-family="Verdana" font-size="14" lengthAdjust="spacing" textLength="159" x="1942.5" y="123.93">SmtpMailLogRepository</text><rect fill="#FFFFFF" height="33.0679" rx="2.5" ry="2.5" style="stroke:#000000;stroke-width:1.0;" width="173" x="1935.5" y="1858.4509"/><text fill="#000000" font-family="Verdana" font-size="14" lengthAdjust="spacing" textLength="159" x="1942.5" y="1880.4168">SmtpMailLogRepository</text><rect fill="#FFFFFF" height="52.1358" rx="2.5" ry="2.5" style="stroke:#000000;stroke-width:1.0;" width="113" x="2138.5" y="82.8962"/><text fill="#000000" font-family="Verdana" font-size="14" lengthAdjust="spacing" textLength="82" x="2154" y="104.8621">HR REST API</text><text fill="#000000" font-family="Verdana" font-size="14" lengthAdjust="spacing" textLength="99" x="2145.5" y="123.93">(Kepegawaian)</text><rect fill="#FFFFFF" height="52.1358" rx="2.5" ry="2.5" style="stroke:#000000;stroke-width:1.0;" width="113" x="2138.5" y="1858.4509"/><text fill="#000000" font-family="Verdana" font-size="14" lengthAdjust="spacing" textLength="82" x="2154" y="1880.4168">HR REST API</text><text fill="#000000" font-family="Verdana" font-size="14" lengthAdjust="spacing" textLength="99" x="2145.5" y="1899.4847">(Kepegawaian)</text><rect fill="#FFFFFF" height="3" style="stroke:#FFFFFF;stroke-width:1.0;" width="2286.5" x="5" y="167.885"/><line style="stroke:#000000;stroke-width:0.5;" x1="5" x2="2291.5" y1="167.885" y2="167.885"/><line style="stroke:#000000;stroke-width:0.5;" x1="5" x2="2291.5" y1="170.885" y2="170.885"/><rect fill="#FFFFFF" height="25.706" style="stroke:#000000;stroke-width:1.0;" width="119" x="1088.75" y="156.032"/><text fill="#000000" font-family="Verdana" font-size="13" font-weight="bold" lengthAdjust="spacing" textLength="102" x="1094.75" y="173.929">Authentication</text><polygon fill="#000000" points="223.5,211.4441,233.5,215.4441,223.5,219.4441,227.5,215.4441" style="stroke:#000000;stroke-width:1.0;"/><line style="stroke:#000000;stroke-width:1.0;" x1="28.5" x2="229.5" y1="215.4441" y2="215.4441"/><text fill="#000000" font-family="Verdana" font-size="13" lengthAdjust="spacing" textLength="34" x="35.5" y="209.635">Login</text><polygon fill="#000000" points="446.5,260.8561,456.5,264.8561,446.5,268.8561,450.5,264.8561" style="stroke:#000000;stroke-width:1.0;"/><line style="stroke:#000000;stroke-width:1.0;" x1="235.5" x2="452.5" y1="264.8561" y2="264.8561"/><text fill="#000000" font-family="Verdana" font-size="13" lengthAdjust="spacing" textLength="199" x="242.5" y="241.3411">POST /v1/account/sessions/email</text><text fill="#000000" font-family="Verdana" font-size="13" lengthAdjust="spacing" textLength="106" x="242.5" y="259.0471">{email, password}</text><polygon fill="#000000" points="246.5,292.5621,236.5,296.5621,246.5,300.5621,242.5,296.5621" style="stroke:#000000;stroke-width:1.0;"/><line style="stroke:#000000;stroke-width:1.0;stroke-dasharray:2.0,2.0;" x1="240.5" x2="457.5" y1="296.5621" y2="296.5621"/><text fill="#000000" font-family="Verdana" font-size="13" lengthAdjust="spacing" textLength="121" x="252.5" y="290.7531">JWT Token + Session</text><path d="M463,309.5621 L463,389.5621 L629,389.5621 L629,319.5621 L619,309.5621 L463,309.5621 " fill="#FFFFFF" style="stroke:#000000;stroke-width:1.0;"/><path d="M619,309.5621 L619,319.5621 L629,319.5621 L619,309.5621 " fill="#FFFFFF" style="stroke:#000000;stroke-width:1.0;"/><text fill="#000000" font-family="Verdana" font-size="13" lengthAdjust="spacing" textLength="93" x="469" y="328.4591">AppWrite v1.3.4</text><text fill="#000000" font-family="Verdana" font-size="13" lengthAdjust="spacing" textLength="67" x="469" y="346.1651">Self-hosted</text><text fill="#000000" font-family="Verdana" font-size="13" lengthAdjust="spacing" textLength="145" x="469" y="363.8711">Returns JWT with claims:</text><text fill="#000000" font-family="Verdana" font-size="13" lengthAdjust="spacing" textLength="123" x="469" y="381.5772">userId, empId, posId</text><rect fill="#FFFFFF" height="3" style="stroke:#FFFFFF;stroke-width:1.0;" width="2286.5" x="5" y="417.2392"/><line style="stroke:#000000;stroke-width:0.5;" x1="5" x2="2291.5" y1="417.2392" y2="417.2392"/><line style="stroke:#000000;stroke-width:0.5;" x1="5" x2="2291.5" y1="420.2392" y2="420.2392"/><rect fill="#FFFFFF" height="25.706" style="stroke:#000000;stroke-width:1.0;" width="197" x="1049.75" y="405.3862"/><text fill="#000000" font-family="Verdana" font-size="13" font-weight="bold" lengthAdjust="spacing" textLength="180" x="1055.75" y="423.2832">Create Draft (Simpan Draft)</text><polygon fill="#000000" points="223.5,460.7982,233.5,464.7982,223.5,468.7982,227.5,464.7982" style="stroke:#000000;stroke-width:1.0;"/><line style="stroke:#000000;stroke-width:1.0;" x1="28.5" x2="229.5" y1="464.7982" y2="464.7982"/><text fill="#000000" font-family="Verdana" font-size="13" lengthAdjust="spacing" textLength="183" x="35.5" y="458.9892">Compose mail + Add recipients</text><polygon fill="#000000" points="570,527.9163,580,531.9163,570,535.9163,574,531.9163" style="stroke:#000000;stroke-width:1.0;"/><line style="stroke:#000000;stroke-width:1.0;" x1="235.5" x2="576" y1="531.9163" y2="531.9163"/><text fill="#000000" font-family="Verdana" font-size="13" lengthAdjust="spacing" textLength="113" x="242.5" y="490.6952">POST /api/v1/mails</text><text fill="#000000" font-family="Verdana" font-size="13" lengthAdjust="spacing" textLength="163" x="242.5" y="508.4012">{Authorization: Bearer JWT}</text><text fill="#000000" font-family="Verdana" font-size="13" lengthAdjust="spacing" textLength="246" x="242.5" y="526.1072">{subject, content, recipients[], send: false}</text><line style="stroke:#000000;stroke-width:1.0;" x1="582" x2="624" y1="563.6223" y2="563.6223"/><line style="stroke:#000000;stroke-width:1.0;" x1="624" x2="624" y1="563.6223" y2="576.6223"/><line style="stroke:#000000;stroke-width:1.0;" x1="583" x2="624" y1="576.6223" y2="576.6223"/><polygon fill="#000000" points="593,572.6223,583,576.6223,593,580.6223,589,576.6223" style="stroke:#000000;stroke-width:1.0;"/><text fill="#000000" font-family="Verdana" font-size="13" lengthAdjust="spacing" textLength="141" x="589" y="557.8133">Extract userId from JWT</text><polygon fill="#000000" points="835,604.3283,845,608.3283,835,612.3283,839,608.3283" style="stroke:#000000;stroke-width:1.0;"/><line style="stroke:#000000;stroke-width:1.0;" x1="582" x2="841" y1="608.3283" y2="608.3283"/><text fill="#000000" font-family="Verdana" font-size="13" lengthAdjust="spacing" textLength="165" x="589" y="602.5193">createDraft(request, userId)</text><polygon fill="#000000" points="1660.5,636.0343,1670.5,640.0343,1660.5,644.0343,1664.5,640.0343" style="stroke:#000000;stroke-width:1.0;"/><line style="stroke:#000000;stroke-width:1.0;" x1="847" x2="1666.5" y1="640.0343" y2="640.0343"/><text fill="#000000" font-family="Verdana" font-size="13" lengthAdjust="spacing" textLength="159" x="854" y="634.2253">save(mail) &#8594; status=DRAFT</text><polygon fill="#000000" points="1820.5,667.7403,1830.5,671.7403,1820.5,675.7403,1824.5,671.7403" style="stroke:#000000;stroke-width:1.0;"/><line style="stroke:#000000;stroke-width:1.0;" x1="847" x2="1826.5" y1="671.7403" y2="671.7403"/><text fill="#000000" font-family="Verdana" font-size="13" lengthAdjust="spacing" textLength="185" x="854" y="665.9313">save(userTask) &#8594; folder=DRAFT</text><polygon fill="#000000" points="593,699.4463,583,703.4463,593,707.4463,589,703.4463" style="stroke:#000000;stroke-width:1.0;"/><line style="stroke:#000000;stroke-width:1.0;stroke-dasharray:2.0,2.0;" x1="587" x2="846" y1="703.4463" y2="703.4463"/><text fill="#000000" font-family="Verdana" font-size="13" lengthAdjust="spacing" textLength="195" x="599" y="697.6373">MailResponse {id, status: DRAFT}</text><polygon fill="#000000" points="246.5,731.1523,236.5,735.1523,246.5,739.1523,242.5,735.1523" style="stroke:#000000;stroke-width:1.0;"/><line style="stroke:#000000;stroke-width:1.0;stroke-dasharray:2.0,2.0;" x1="240.5" x2="581" y1="735.1523" y2="735.1523"/><text fill="#000000" font-family="Verdana" font-size="13" lengthAdjust="spacing" textLength="71" x="252.5" y="729.3433">201 Created</text><rect fill="#FFFFFF" height="3" style="stroke:#FFFFFF;stroke-width:1.0;" width="2286.5" x="5" y="765.0054"/><line style="stroke:#000000;stroke-width:0.5;" x1="5" x2="2291.5" y1="765.0054" y2="765.0054"/><line style="stroke:#000000;stroke-width:0.5;" x1="5" x2="2291.5" y1="768.0054" y2="768.0054"/><rect fill="#FFFFFF" height="25.706" style="stroke:#000000;stroke-width:1.0;" width="166" x="1065.25" y="753.1523"/><text fill="#000000" font-family="Verdana" font-size="13" font-weight="bold" lengthAdjust="spacing" textLength="149" x="1071.25" y="771.0494">Send Mail (Kirim Surat)</text><polygon fill="#000000" points="223.5,808.5644,233.5,812.5644,223.5,816.5644,227.5,812.5644" style="stroke:#000000;stroke-width:1.0;"/><line style="stroke:#000000;stroke-width:1.0;" x1="28.5" x2="229.5" y1="812.5644" y2="812.5644"/><text fill="#000000" font-family="Verdana" font-size="13" lengthAdjust="spacing" textLength="71" x="35.5" y="806.7554">Click "Kirim"</text><polygon fill="#000000" points="570,857.9764,580,861.9764,570,865.9764,574,861.9764" style="stroke:#000000;stroke-width:1.0;"/><line style="stroke:#000000;stroke-width:1.0;" x1="235.5" x2="576" y1="861.9764" y2="861.9764"/><text fill="#000000" font-family="Verdana" font-size="13" lengthAdjust="spacing" textLength="199" x="242.5" y="838.4614">POST /api/v1/mails/{mailId}/send</text><text fill="#000000" font-family="Verdana" font-size="13" lengthAdjust="spacing" textLength="163" x="242.5" y="856.1674">{Authorization: Bearer JWT}</text><polygon fill="#000000" points="835,889.6824,845,893.6824,835,897.6824,839,893.6824" style="stroke:#000000;stroke-width:1.0;"/><line style="stroke:#000000;stroke-width:1.0;" x1="582" x2="841" y1="893.6824" y2="893.6824"/><text fill="#000000" font-family="Verdana" font-size="13" lengthAdjust="spacing" textLength="143" x="589" y="887.8734">sendMail(mailId, userId)</text><polygon fill="#000000" points="1660.5,921.3884,1670.5,925.3884,1660.5,929.3884,1664.5,925.3884" style="stroke:#000000;stroke-width:1.0;"/><line style="stroke:#000000;stroke-width:1.0;" x1="847" x2="1666.5" y1="925.3884" y2="925.3884"/><text fill="#000000" font-family="Verdana" font-size="13" lengthAdjust="spacing" textLength="184" x="854" y="919.5794">findByIdWithRecipients(mailId)</text><path d="M177,940.3884 L240,940.3884 L240,950.0945 L230,960.0945 L177,960.0945 L177,940.3884 " fill="#FFFFFF" style="stroke:#000000;stroke-width:1.0;"/><rect fill="none" height="83.118" style="stroke:#000000;stroke-width:1.0;" width="752.5" x="177" y="940.3884"/><text fill="#000000" font-family="Verdana" font-size="13" font-weight="bold" lengthAdjust="spacing" textLength="18" x="192" y="955.2855">alt</text><text fill="#000000" font-family="Verdana" font-size="11" font-weight="bold" lengthAdjust="spacing" textLength="84" x="255" y="954.1474">[No Recipients]</text><polygon fill="#000000" points="593,979.8005,583,983.8005,593,987.8005,589,983.8005" style="stroke:#000000;stroke-width:1.0;"/><line style="stroke:#000000;stroke-width:1.0;stroke-dasharray:2.0,2.0;" x1="587" x2="846" y1="983.8005" y2="983.8005"/><text fill="#000000" font-family="Verdana" font-size="13" lengthAdjust="spacing" textLength="171" x="599" y="977.9915">throw NoRecipientException</text><polygon fill="#000000" points="246.5,1011.5065,236.5,1015.5065,246.5,1019.5065,242.5,1015.5065" style="stroke:#000000;stroke-width:1.0;"/><line style="stroke:#000000;stroke-width:1.0;stroke-dasharray:2.0,2.0;" x1="240.5" x2="581" y1="1015.5065" y2="1015.5065"/><text fill="#000000" font-family="Verdana" font-size="13" lengthAdjust="spacing" textLength="197" x="252.5" y="1009.6975">400 "Daftar penerima belum ada"</text><polygon fill="#000000" points="1173,1050.2125,1183,1054.2125,1173,1058.2125,1177,1054.2125" style="stroke:#000000;stroke-width:1.0;"/><line style="stroke:#000000;stroke-width:1.0;" x1="847" x2="1179" y1="1054.2125" y2="1054.2125"/><text fill="#000000" font-family="Verdana" font-size="13" lengthAdjust="spacing" textLength="314" x="854" y="1048.4035">generateNumber(mailType, categoryCode, orgCode)</text><polygon fill="#000000" points="1660.5,1081.9185,1670.5,1085.9185,1660.5,1089.9185,1664.5,1085.9185" style="stroke:#000000;stroke-width:1.0;"/><line style="stroke:#000000;stroke-width:1.0;" x1="1185" x2="1666.5" y1="1085.9185" y2="1085.9185"/><text fill="#000000" font-family="Verdana" font-size="13" lengthAdjust="spacing" textLength="149" x="1192" y="1080.1095">getNextSequence(prefix)</text><polygon fill="#000000" points="858,1113.6245,848,1117.6245,858,1121.6245,854,1117.6245" style="stroke:#000000;stroke-width:1.0;"/><line style="stroke:#000000;stroke-width:1.0;stroke-dasharray:2.0,2.0;" x1="852" x2="1184" y1="1117.6245" y2="1117.6245"/><text fill="#000000" font-family="Verdana" font-size="13" lengthAdjust="spacing" textLength="142" x="864" y="1111.8155">"001/AITI-I/III/2026-485"</text><polygon fill="#000000" points="1660.5,1145.3306,1670.5,1149.3306,1660.5,1153.3306,1664.5,1149.3306" style="stroke:#000000;stroke-width:1.0;"/><line style="stroke:#000000;stroke-width:1.0;" x1="847" x2="1666.5" y1="1149.3306" y2="1149.3306"/><text fill="#000000" font-family="Verdana" font-size="13" lengthAdjust="spacing" textLength="291" x="854" y="1143.5216">updateStatusAndNumber(mailId, SENT, number)</text><path d="M754.5,1164.3306 L827.5,1164.3306 L827.5,1174.0366 L817.5,1184.0366 L754.5,1184.0366 L754.5,1164.3306 " fill="#FFFFFF" style="stroke:#000000;stroke-width:1.0;"/><rect fill="none" height="275.3541" style="stroke:#000000;stroke-width:1.0;" width="1527" x="754.5" y="1164.3306"/><text fill="#000000" font-family="Verdana" font-size="13" font-weight="bold" lengthAdjust="spacing" textLength="28" x="769.5" y="1179.2276">loop</text><text fill="#000000" font-family="Verdana" font-size="11" font-weight="bold" lengthAdjust="spacing" textLength="107" x="842.5" y="1178.0895">[for each recipient]</text><polygon fill="#000000" points="1820.5,1203.7426,1830.5,1207.7426,1820.5,1211.7426,1824.5,1207.7426" style="stroke:#000000;stroke-width:1.0;"/><line style="stroke:#000000;stroke-width:1.0;" x1="847" x2="1826.5" y1="1207.7426" y2="1207.7426"/><text fill="#000000" font-family="Verdana" font-size="13" lengthAdjust="spacing" textLength="274" x="854" y="1201.9336">save(recipientUserId, mailId, INBOX, UNREAD)</text><path d="M764.5,1222.7426 L827.5,1222.7426 L827.5,1232.4486 L817.5,1242.4486 L764.5,1242.4486 L764.5,1222.7426 " fill="#FFFFFF" style="stroke:#000000;stroke-width:1.0;"/><rect fill="none" height="209.9421" style="stroke:#000000;stroke-width:1.0;" width="1507" x="764.5" y="1222.7426"/><text fill="#000000" font-family="Verdana" font-size="13" font-weight="bold" lengthAdjust="spacing" textLength="18" x="779.5" y="1237.6396">alt</text><text fill="#000000" font-family="Verdana" font-size="11" font-weight="bold" lengthAdjust="spacing" textLength="157" x="842.5" y="1236.5015">[recipient.emailFlag == true]</text><polygon fill="#000000" points="1345,1262.1546,1355,1266.1546,1345,1270.1546,1349,1266.1546" style="stroke:#000000;stroke-width:1.0;"/><line style="stroke:#000000;stroke-width:1.0;" x1="847" x2="1351" y1="1266.1546" y2="1266.1546"/><text fill="#000000" font-family="Verdana" font-size="13" lengthAdjust="spacing" textLength="213" x="854" y="1260.3456">getEmployeeEmail(recipient.empId)</text><polygon fill="#000000" points="2183,1293.8606,2193,1297.8606,2183,1301.8606,2187,1297.8606" style="stroke:#000000;stroke-width:1.0;"/><line style="stroke:#000000;stroke-width:1.0;" x1="1357" x2="2189" y1="1297.8606" y2="1297.8606"/><text fill="#000000" font-family="Verdana" font-size="13" lengthAdjust="spacing" textLength="173" x="1364" y="1292.0516">GET /api/employees/{empId}</text><polygon fill="#000000" points="1368,1325.5667,1358,1329.5667,1368,1333.5667,1364,1329.5667" style="stroke:#000000;stroke-width:1.0;"/><line style="stroke:#000000;stroke-width:1.0;stroke-dasharray:2.0,2.0;" x1="1362" x2="2194" y1="1329.5667" y2="1329.5667"/><text fill="#000000" font-family="Verdana" font-size="13" lengthAdjust="spacing" textLength="153" x="1374" y="1323.7577">{empEmail, empName, ...}</text><polygon fill="#000000" points="858,1357.2727,848,1361.2727,858,1365.2727,854,1361.2727" style="stroke:#000000;stroke-width:1.0;"/><line style="stroke:#000000;stroke-width:1.0;stroke-dasharray:2.0,2.0;" x1="852" x2="1356" y1="1361.2727" y2="1361.2727"/><text fill="#000000" font-family="Verdana" font-size="13" lengthAdjust="spacing" textLength="85" x="864" y="1355.4637">employeeDTO</text><polygon fill="#000000" points="1503.5,1388.9787,1513.5,1392.9787,1503.5,1396.9787,1507.5,1392.9787" style="stroke:#000000;stroke-width:1.0;"/><line style="stroke:#000000;stroke-width:1.0;" x1="847" x2="1509.5" y1="1392.9787" y2="1392.9787"/><text fill="#000000" font-family="Verdana" font-size="13" lengthAdjust="spacing" textLength="231" x="854" y="1387.1697">queueEmailNotification(recipient, mail)</text><polygon fill="#000000" points="2010,1420.6847,2020,1424.6847,2010,1428.6847,2014,1424.6847" style="stroke:#000000;stroke-width:1.0;"/><line style="stroke:#000000;stroke-width:1.0;" x1="1515.5" x2="2016" y1="1424.6847" y2="1424.6847"/><text fill="#000000" font-family="Verdana" font-size="13" lengthAdjust="spacing" textLength="231" x="1522.5" y="1418.8757">save(smtpMailLog) &#8594; status=PENDING</text><polygon fill="#000000" points="1820.5,1466.3907,1830.5,1470.3907,1820.5,1474.3907,1824.5,1470.3907" style="stroke:#000000;stroke-width:1.0;"/><line style="stroke:#000000;stroke-width:1.0;" x1="847" x2="1826.5" y1="1470.3907" y2="1470.3907"/><text fill="#000000" font-family="Verdana" font-size="13" lengthAdjust="spacing" textLength="262" x="854" y="1464.5817">updateFolder(userId, mailId, DRAFT &#8594; SENT)</text><line style="stroke:#000000;stroke-width:1.0;" x1="847" x2="889" y1="1502.0967" y2="1502.0967"/><line style="stroke:#000000;stroke-width:1.0;" x1="889" x2="889" y1="1502.0967" y2="1515.0967"/><line style="stroke:#000000;stroke-width:1.0;" x1="848" x2="889" y1="1515.0967" y2="1515.0967"/><polygon fill="#000000" points="858,1511.0967,848,1515.0967,858,1519.0967,854,1515.0967" style="stroke:#000000;stroke-width:1.0;"/><text fill="#000000" font-family="Verdana" font-size="13" lengthAdjust="spacing" textLength="263" x="854" y="1496.2877">updateCategoryStatistic(categoryId, period)</text><line style="stroke:#000000;stroke-width:1.0;" x1="847" x2="889" y1="1546.8028" y2="1546.8028"/><line style="stroke:#000000;stroke-width:1.0;" x1="889" x2="889" y1="1546.8028" y2="1559.8028"/><line style="stroke:#000000;stroke-width:1.0;" x1="848" x2="889" y1="1559.8028" y2="1559.8028"/><polygon fill="#000000" points="858,1555.8028,848,1559.8028,858,1563.8028,854,1559.8028" style="stroke:#000000;stroke-width:1.0;"/><text fill="#000000" font-family="Verdana" font-size="13" lengthAdjust="spacing" textLength="199" x="854" y="1540.9938">updateOrgStatistic(orgId, period)</text><path d="M764.5,1574.8028 L827.5,1574.8028 L827.5,1584.5088 L817.5,1594.5088 L764.5,1594.5088 L764.5,1574.8028 " fill="#FFFFFF" style="stroke:#000000;stroke-width:1.0;"/><rect fill="none" height="51.412" style="stroke:#000000;stroke-width:1.0;" width="1161" x="764.5" y="1574.8028"/><text fill="#000000" font-family="Verdana" font-size="13" font-weight="bold" lengthAdjust="spacing" textLength="18" x="779.5" y="1589.6998">alt</text><text fill="#000000" font-family="Verdana" font-size="11" font-weight="bold" lengthAdjust="spacing" textLength="127" x="842.5" y="1588.5617">[isReply (parentId != 0)]</text><polygon fill="#000000" points="1820.5,1614.2148,1830.5,1618.2148,1820.5,1622.2148,1824.5,1618.2148" style="stroke:#000000;stroke-width:1.0;"/><line style="stroke:#000000;stroke-width:1.0;" x1="847" x2="1826.5" y1="1618.2148" y2="1618.2148"/><text fill="#000000" font-family="Verdana" font-size="13" lengthAdjust="spacing" textLength="279" x="854" y="1612.4058">updateFolder(userId, parentId, INBOX &#8594; READ)</text><line style="stroke:#000000;stroke-width:1.0;" x1="1513.5" x2="1503.5" y1="1656.9208" y2="1652.9208"/><line style="stroke:#000000;stroke-width:1.0;" x1="1513.5" x2="1503.5" y1="1656.9208" y2="1660.9208"/><line style="stroke:#000000;stroke-width:1.0;" x1="847" x2="1514.5" y1="1656.9208" y2="1656.9208"/><text fill="#000000" font-family="Verdana" font-size="13" lengthAdjust="spacing" textLength="131" x="854" y="1651.1118">processQueue(mailId)</text><line style="stroke:#000000;stroke-width:1.0;" x1="1515.5" x2="1557.5" y1="1688.6268" y2="1688.6268"/><line style="stroke:#000000;stroke-width:1.0;" x1="1557.5" x2="1557.5" y1="1688.6268" y2="1701.6268"/><line style="stroke:#000000;stroke-width:1.0;" x1="1516.5" x2="1557.5" y1="1701.6268" y2="1701.6268"/><polygon fill="#000000" points="1526.5,1697.6268,1516.5,1701.6268,1526.5,1705.6268,1522.5,1701.6268" style="stroke:#000000;stroke-width:1.0;"/><text fill="#000000" font-family="Verdana" font-size="13" lengthAdjust="spacing" textLength="107" x="1522.5" y="1682.8178">sendSmtpEmails()</text><line style="stroke:#000000;stroke-width:1.0;" x1="1515.5" x2="1557.5" y1="1733.3328" y2="1733.3328"/><line style="stroke:#000000;stroke-width:1.0;" x1="1557.5" x2="1557.5" y1="1733.3328" y2="1746.3328"/><line style="stroke:#000000;stroke-width:1.0;" x1="1516.5" x2="1557.5" y1="1746.3328" y2="1746.3328"/><polygon fill="#000000" points="1526.5,1742.3328,1516.5,1746.3328,1526.5,1750.3328,1522.5,1746.3328" style="stroke:#000000;stroke-width:1.0;"/><text fill="#000000" font-family="Verdana" font-size="13" lengthAdjust="spacing" textLength="117" x="1522.5" y="1727.5238">sendFirebasePush()</text><polygon fill="#000000" points="593,1774.0389,583,1778.0389,593,1782.0389,589,1778.0389" style="stroke:#000000;stroke-width:1.0;"/><line style="stroke:#000000;stroke-width:1.0;stroke-dasharray:2.0,2.0;" x1="587" x2="846" y1="1778.0389" y2="1778.0389"/><text fill="#000000" font-family="Verdana" font-size="13" lengthAdjust="spacing" textLength="241" x="599" y="1772.2299">MailResponse {id, number, status: SENT}</text><polygon fill="#000000" points="246.5,1805.7449,236.5,1809.7449,246.5,1813.7449,242.5,1809.7449" style="stroke:#000000;stroke-width:1.0;"/><line style="stroke:#000000;stroke-width:1.0;stroke-dasharray:2.0,2.0;" x1="240.5" x2="581" y1="1809.7449" y2="1809.7449"/><text fill="#000000" font-family="Verdana" font-size="13" lengthAdjust="spacing" textLength="210" x="252.5" y="1803.9359">200 OK {id, number, status: "SENT"}</text><polygon fill="#000000" points="39.5,1837.4509,29.5,1841.4509,39.5,1845.4509,35.5,1841.4509" style="stroke:#000000;stroke-width:1.0;"/><line style="stroke:#000000;stroke-width:1.0;stroke-dasharray:2.0,2.0;" x1="33.5" x2="234.5" y1="1841.4509" y2="1841.4509"/><text fill="#000000" font-family="Verdana" font-size="13" lengthAdjust="spacing" textLength="136" x="45.5" y="1835.6419">"Surat berhasil dikirim"</text><!--SRC=[XLRRRkCs47tNLypwfJRgn4wwBGe3AU3OJbRTZP9QTbEWsmT6ecqsagWbgLmQ-BKVq4_ibtI6f6p92RPFjiGpjpE7CtfdDZpdK6PC545WXCaunFnBnOk4mrImjMBv23uA9NA8AyKCT6DUf735HDOB0fOOgQ2pr5nrW6bO1YLJHYIYP8M1pYGJl32VY-wvae-8wLdGf0qQb-Mj4eOZR5oPZSECRziWYZUHXL4ootoigybh2EKMS_KW4kumSVmQ55Nv7LUNlE1OZ_JEeiisy8FoVbmD5lHXtiP4qeYLI9WHicX6ZTu8EkUbr0B3FRju1ww8mGNJzmUmvU805-Uc97UVvFe06bzzEgXW3lDPl83nJOZKVkGbNxD79bZHyyNWGH2SdG6nZYNwGk3iB5Z2qKymWH5W6DJ5X1x7j_XySuqE1myd0vOaiYhCG7EjqKWFU8vPVIvUx6yVIgRrerJfDa2x8-_jvzi5BEGzB-1R59ar30ffE2YntXYGAsexG2q8U3Wv_kxuFRw9UROwsaXjU8fFSsugLMZhxb6O3IIetboFyAX26iEq3pmlwGS92jE0z4fXRB4JnHcwdYgs8YsB7CboJxrMvHEPepK7AWVJ7QSfA8xKaXYqO-HgicE4bO9O8R164eXHgSHVbj0Hd7EckA9yjtYegxi_UMBwaA2UqLk_uVZtF_gWCTyHh5Yc-JQusaUQFHc5zytN22ibSt9PG-8OCOcjpfRJLNIDDRft1hs088IS8r2p1zwbT7lmxz__W3RCLFfiEXzVB6eSQgy6LbwT3hoIMSfL4rodw8IkInG4XnU17N2EHs31hXnFyEdmn3SZjOtPZHNeDiRDGLCoaTn3nvvtljg4mGlzXEbsG7H-jIL1Yq62KnPTPxzdB_W6VcMPI4az3IKqILs98Zr_3jDR5ELy1_6UUW7B34GIzYSeM80MWMQ3Wn91EypiAU4bfUomU_hU3uVGcMAVcOAIHfd86TpnhCg1fQn3egUK_PJpEYxivDlb75sYexL7kAbearqybnpbYI_NE5qcCiKdgTRq1rM4LdN1QsuY_cJgXT4j5L-99u_PKTeP3ay6ut0H7eM3C0m7fyFJ7uxU__XzXn9SbkakFIUM5gMLFOxjmRX86qbIR-9PjEZxgco7_EqMnPryGfqgu2pPxDiLP5AMRxtVDQ8b-ztvqe-LEcuOdL__reTbD9-DfnYOp37uXgCwkMEwiHfWbR6rnP02TawFBV82pr3ZO5J5BQQHoWVFyImlC_dC-OmCkaq79UcgjaAuDSAvZdQNCtybkBV6Es4DjWq3WXxLaUXuviOt_ejOZcq_FZxUjWBikbgxdIwkWyF48mAW9YgNSdDFxjDtTExJZwmfhh6QVhtVTQqfTJEBfY7kQp8YcNkfUoNH1SQRxOQK7ppMciJIdcrEN1SMsQqEUjmsx3KZO1f2uxxSIzKoujnD_BM9QrItlaXs8-55bOrPt32yLkkz3Lwt9Xo3XokKJfazZo2N3_Z5XlCBjxp1UO8QjBD5w3a1eElES4UyEuDXxxMutwoxDlBgjfKxUNj-RvHCS6ctfMsR35scdukahihtltJuNmYncu7HNX_KAFgSiHBHtLTd5qBnEwRvJQKtUFf_cyPDWVt6eQuTB9mXN7zy6zmXT6SREFIIXfRxsaNKXccyqAcuTrldFm00]--></g></svg>