<?plantuml 1.2026.2?><svg xmlns="http://www.w3.org/2000/svg" xmlns:xlink="http://www.w3.org/1999/xlink" contentStyleType="text/css" data-diagram-type="SEQUENCE" height="1532px" preserveAspectRatio="none" style="width:861px;height:1532px;background:#FFFFFF;" version="1.1" viewBox="0 0 861 1532" width="861px" zoomAndPan="magnify"><title>create_approval_cuti_notif() &#8212; Notifikasi Approval Cuti
mailmodel.php:572-675</title><defs/><g><text fill="#000000" font-family="Verdana" font-size="22" font-weight="bold" lengthAdjust="spacing" textLength="678.9277" x="89.9048" y="35.4209">create_approval_cuti_notif() &#8212; Notifikasi Approval Cuti</text><text fill="#000000" font-family="Verdana" font-size="22" font-weight="bold" lengthAdjust="spacing" textLength="294.3896" x="282.1738" y="61.0303">mailmodel.php:572-675</text><rect fill="#FFFFFF" height="276.6719" style="stroke:#000000;stroke-width:1;" width="374.8389" x="219.5029" y="265.0469"/><rect fill="#FFFFFF" height="203.4063" style="stroke:#000000;stroke-width:1;" width="354.8389" x="229.5029" y="289.1797"/><rect fill="#FFFFFF" height="56.9375" style="stroke:none;stroke-width:1;" width="354.8389" x="229.5029" y="378.7109"/><rect fill="#FFFFFF" height="56.9375" style="stroke:none;stroke-width:1;" width="354.8389" x="229.5029" y="435.6484"/><rect fill="#FFFFFF" height="105.6641" style="stroke:#000000;stroke-width:1;" width="411.4927" x="229.5029" y="1331.3047"/><g class="participant-lifeline" data-entity-uid="part1" data-qualified-name="Caller" id="part1-lifeline"><g><title>Caller</title><rect fill="#000000" fill-opacity="0.00000" height="1314.4531" width="8" x="70.1543" y="139.5156"/><line style="stroke:#000000;stroke-width:1;stroke-dasharray:5,5;" x1="74" x2="74" y1="139.5156" y2="1453.9688"/></g></g><g class="participant-lifeline" data-entity-uid="part2" data-qualified-name="Model" id="part2-lifeline"><g><title>MailModel</title><rect fill="#000000" fill-opacity="0.00000" height="1314.4531" width="8" x="287.7388" y="139.5156"/><line style="stroke:#000000;stroke-width:1;stroke-dasharray:5,5;" x1="291.5029" x2="291.5029" y1="139.5156" y2="1453.9688"/></g></g><g class="participant-lifeline" data-entity-uid="part3" data-qualified-name="DB" id="part3-lifeline"><g><title>Database</title><rect fill="#000000" fill-opacity="0.00000" height="1314.4531" width="8" x="590.5952" y="139.5156"/><line style="stroke:#000000;stroke-width:1;stroke-dasharray:5,5;" x1="594.1948" x2="594.1948" y1="139.5156" y2="1453.9688"/></g></g><g class="participant participant-head" data-entity-uid="part1" data-qualified-name="Caller" id="part1-head"><rect fill="#FFFFFF" height="46.5938" rx="2.5" ry="2.5" style="stroke:#000000;stroke-width:1;" width="108.3086" x="20" y="91.9219"/><text fill="#000000" font-family="Verdana" font-size="14" lengthAdjust="spacing" textLength="40.5029" x="53.9028" y="111.917">Caller</text><text fill="#000000" font-family="Verdana" font-size="14" lengthAdjust="spacing" textLength="94.3086" x="27" y="128.2139">(Cuti Module)</text></g><g class="participant participant-tail" data-entity-uid="part1" data-qualified-name="Caller" id="part1-tail"><rect fill="#FFFFFF" height="46.5938" rx="2.5" ry="2.5" style="stroke:#000000;stroke-width:1;" width="108.3086" x="20" y="1452.9688"/><text fill="#000000" font-family="Verdana" font-size="14" lengthAdjust="spacing" textLength="40.5029" x="53.9028" y="1472.9639">Caller</text><text fill="#000000" font-family="Verdana" font-size="14" lengthAdjust="spacing" textLength="94.3086" x="27" y="1489.2607">(Cuti Module)</text></g><g class="participant participant-head" data-entity-uid="part2" data-qualified-name="Model" id="part2-head"><rect fill="#FFFFFF" height="30.2969" rx="2.5" ry="2.5" style="stroke:#000000;stroke-width:1;" width="84.4717" x="249.5029" y="108.2188"/><text fill="#000000" font-family="Verdana" font-size="14" lengthAdjust="spacing" textLength="70.4717" x="256.5029" y="128.2139">MailModel</text></g><g class="participant participant-tail" data-entity-uid="part2" data-qualified-name="Model" id="part2-tail"><rect fill="#FFFFFF" height="30.2969" rx="2.5" ry="2.5" style="stroke:#000000;stroke-width:1;" width="84.4717" x="249.5029" y="1452.9688"/><text fill="#000000" font-family="Verdana" font-size="14" lengthAdjust="spacing" textLength="70.4717" x="256.5029" y="1472.9639">MailModel</text></g><g class="participant participant-head" data-entity-uid="part3" data-qualified-name="DB" id="part3-head"><text fill="#000000" font-family="Verdana" font-size="14" lengthAdjust="spacing" textLength="66.8008" x="558.1948" y="136.2139">Database</text><path d="M576.5952,87.2188 C576.5952,77.2188 594.5952,77.2188 594.5952,77.2188 C594.5952,77.2188 612.5952,77.2188 612.5952,87.2188 L612.5952,113.2188 C612.5952,123.2188 594.5952,123.2188 594.5952,123.2188 C594.5952,123.2188 576.5952,123.2188 576.5952,113.2188 L576.5952,87.2188" fill="#FFFFFF" style="stroke:#000000;stroke-width:1;"/><path d="M576.5952,87.2188 C576.5952,97.2188 594.5952,97.2188 594.5952,97.2188 C594.5952,97.2188 612.5952,97.2188 612.5952,87.2188" fill="none" style="stroke:#000000;stroke-width:1;"/></g><g class="participant participant-tail" data-entity-uid="part3" data-qualified-name="DB" id="part3-tail"><text fill="#000000" font-family="Verdana" font-size="14" lengthAdjust="spacing" textLength="66.8008" x="558.1948" y="1465.9639">Database</text><path d="M576.5952,1479.2656 C576.5952,1469.2656 594.5952,1469.2656 594.5952,1469.2656 C594.5952,1469.2656 612.5952,1469.2656 612.5952,1479.2656 L612.5952,1505.2656 C612.5952,1515.2656 594.5952,1515.2656 594.5952,1515.2656 C594.5952,1515.2656 576.5952,1515.2656 576.5952,1505.2656 L576.5952,1479.2656" fill="#FFFFFF" style="stroke:#000000;stroke-width:1;"/><path d="M576.5952,1479.2656 C576.5952,1489.2656 594.5952,1489.2656 594.5952,1489.2656 C594.5952,1489.2656 612.5952,1489.2656 612.5952,1479.2656" fill="none" style="stroke:#000000;stroke-width:1;"/></g><g class="message" data-entity-1="part1" data-entity-2="part2" id="msg1"><polygon fill="#000000" points="279.7388,192.3477,289.7388,196.3477,279.7388,200.3477,283.7388,196.3477" style="stroke:#000000;stroke-width:1;"/><line style="stroke:#000000;stroke-width:1;" x1="74.1543" x2="285.7388" y1="196.3477" y2="196.3477"/><text fill="#000000" font-family="Verdana" font-size="13" lengthAdjust="spacing" textLength="176.7378" x="81.1543" y="176.1489">create_approval_cuti_notif(</text><text fill="#000000" font-family="Verdana" font-size="13" lengthAdjust="spacing" textLength="193.5845" x="81.1543" y="191.2817">emp, detail, subject, msg_tpl)</text></g><path d="M296,154.5156 L296,209.5156 L576,209.5156 L576,164.5156 L566,154.5156 L296,154.5156" fill="#FFFFFF" style="stroke:#000000;stroke-width:1;"/><path d="M566,154.5156 L566,164.5156 L576,164.5156 L566,154.5156" fill="#FFFFFF" style="stroke:#000000;stroke-width:1;"/><text fill="#000000" font-family="Verdana" font-size="13" lengthAdjust="spacing" textLength="149.5889" x="302" y="171.5825">Berbeda dari notif lain:</text><text fill="#000000" font-family="Verdana" font-size="13" lengthAdjust="spacing" textLength="259.3843" x="302" y="186.7153">- subject dan msg_tpl di-pass dari caller</text><text fill="#000000" font-family="Verdana" font-size="13" lengthAdjust="spacing" textLength="220.9048" x="302" y="201.8481">- detail sudah berupa HTML string</text><rect fill="#FFFFFF" height="3" style="stroke:#FFFFFF;stroke-width:1;" width="849.7373" x="5" y="235.4805"/><line style="stroke:#000000;stroke-width:0.5;" x1="5" x2="854.7373" y1="235.4805" y2="235.4805"/><line style="stroke:#000000;stroke-width:0.5;" x1="5" x2="854.7373" y1="238.4805" y2="238.4805"/><rect fill="#FFFFFF" height="23.1328" style="stroke:#000000;stroke-width:1;" width="287.0127" x="286.3623" y="224.9141"/><text fill="#000000" font-family="Verdana" font-size="13" font-weight="bold" lengthAdjust="spacing" textLength="268.4868" x="292.3623" y="240.981">Step 1: Resolve CLIENT_CODE Config</text><path d="M219.5029,265.0469 L441.4058,265.0469 L441.4058,272.1797 L431.4058,282.1797 L219.5029,282.1797 L219.5029,265.0469" fill="#FFFFFF" style="stroke:#000000;stroke-width:1;"/><rect fill="none" height="276.6719" style="stroke:#000000;stroke-width:1;" width="374.8389" x="219.5029" y="265.0469"/><text fill="#000000" font-family="Verdana" font-size="13" font-weight="bold" lengthAdjust="spacing" textLength="176.9028" x="234.5029" y="278.1138">CLIENT_CODE Branching</text><path d="M229.5029,289.1797 L293.9458,289.1797 L293.9458,296.3125 L283.9458,306.3125 L229.5029,306.3125 L229.5029,289.1797" fill="#FFFFFF" style="stroke:#000000;stroke-width:1;"/><rect fill="none" height="203.4063" style="stroke:#000000;stroke-width:1;" width="354.8389" x="229.5029" y="289.1797"/><text fill="#000000" font-family="Verdana" font-size="13" font-weight="bold" lengthAdjust="spacing" textLength="19.4429" x="244.5029" y="302.2466">alt</text><text fill="#000000" font-family="Verdana" font-size="11" font-weight="bold" lengthAdjust="spacing" textLength="37.3076" x="308.9458" y="301.3901">[BMS]</text><g class="message" data-entity-1="part2" data-entity-2="part2" id="msg3"><line style="stroke:#000000;stroke-width:1;" x1="291.7388" x2="333.7388" y1="357.7109" y2="357.7109"/><line style="stroke:#000000;stroke-width:1;" x1="333.7388" x2="333.7388" y1="357.7109" y2="370.7109"/><line style="stroke:#000000;stroke-width:1;" x1="292.7388" x2="333.7388" y1="370.7109" y2="370.7109"/><polygon fill="#000000" points="302.7388,366.7109,292.7388,370.7109,302.7388,374.7109,298.7388,370.7109" style="stroke:#000000;stroke-width:1;"/><text fill="#000000" font-family="Verdana" font-size="13" lengthAdjust="spacing" textLength="227.1509" x="298.7388" y="322.3794">m_type=1, m_category=1 (UMUM)</text><text fill="#000000" font-family="Verdana" font-size="13" lengthAdjust="spacing" textLength="162.1318" x="298.7388" y="337.5122">m_category_code="000"</text><text fill="#000000" font-family="Verdana" font-size="13" lengthAdjust="spacing" textLength="232.813" x="298.7388" y="352.645">ref_code="m_number_format_bms"</text></g><line style="stroke:#000000;stroke-width:1;stroke-dasharray:2,2;" x1="229.5029" x2="584.3418" y1="379.7109" y2="379.7109"/><text fill="#000000" font-family="Verdana" font-size="11" font-weight="bold" lengthAdjust="spacing" textLength="38.0542" x="234.5029" y="389.9214">[SMD]</text><g class="message" data-entity-1="part2" data-entity-2="part2" id="msg4"><line style="stroke:#000000;stroke-width:1;" x1="291.7388" x2="333.7388" y1="414.6484" y2="414.6484"/><line style="stroke:#000000;stroke-width:1;" x1="333.7388" x2="333.7388" y1="414.6484" y2="427.6484"/><line style="stroke:#000000;stroke-width:1;" x1="292.7388" x2="333.7388" y1="427.6484" y2="427.6484"/><polygon fill="#000000" points="302.7388,423.6484,292.7388,427.6484,302.7388,431.6484,298.7388,427.6484" style="stroke:#000000;stroke-width:1;"/><text fill="#000000" font-family="Verdana" font-size="13" lengthAdjust="spacing" textLength="273.603" x="298.7388" y="409.5825">idem, ref_code="m_number_format_smd"</text></g><line style="stroke:#000000;stroke-width:1;stroke-dasharray:2,2;" x1="229.5029" x2="584.3418" y1="436.6484" y2="436.6484"/><text fill="#000000" font-family="Verdana" font-size="11" font-weight="bold" lengthAdjust="spacing" textLength="35.707" x="234.5029" y="446.8589">[BPN]</text><g class="message" data-entity-1="part2" data-entity-2="part2" id="msg5"><line style="stroke:#000000;stroke-width:1;" x1="291.7388" x2="333.7388" y1="471.5859" y2="471.5859"/><line style="stroke:#000000;stroke-width:1;" x1="333.7388" x2="333.7388" y1="471.5859" y2="484.5859"/><line style="stroke:#000000;stroke-width:1;" x1="292.7388" x2="333.7388" y1="484.5859" y2="484.5859"/><polygon fill="#000000" points="302.7388,480.5859,292.7388,484.5859,302.7388,488.5859,298.7388,484.5859" style="stroke:#000000;stroke-width:1;"/><text fill="#000000" font-family="Verdana" font-size="13" lengthAdjust="spacing" textLength="266.0303" x="298.7388" y="466.52">idem, ref_code="m_number_format_blp"</text></g><g class="message" data-entity-1="part2" data-entity-2="part2" id="msg6"><line style="stroke:#000000;stroke-width:1;" x1="291.7388" x2="333.7388" y1="520.7188" y2="520.7188"/><line style="stroke:#000000;stroke-width:1;" x1="333.7388" x2="333.7388" y1="520.7188" y2="533.7188"/><line style="stroke:#000000;stroke-width:1;" x1="292.7388" x2="333.7388" y1="533.7188" y2="533.7188"/><polygon fill="#000000" points="302.7388,529.7188,292.7388,533.7188,302.7388,537.7188,298.7388,533.7188" style="stroke:#000000;stroke-width:1;"/><text fill="#000000" font-family="Verdana" font-size="13" lengthAdjust="spacing" textLength="169.0063" x="298.7388" y="515.6528">user_id=2 (Administrator)</text></g><rect fill="#FFFFFF" height="3" style="stroke:#FFFFFF;stroke-width:1;" width="849.7373" x="5" y="569.2852"/><line style="stroke:#000000;stroke-width:0.5;" x1="5" x2="854.7373" y1="569.2852" y2="569.2852"/><line style="stroke:#000000;stroke-width:0.5;" x1="5" x2="854.7373" y1="572.2852" y2="572.2852"/><rect fill="#FFFFFF" height="23.1328" style="stroke:#000000;stroke-width:1;" width="241.062" x="309.3376" y="558.7188"/><text fill="#000000" font-family="Verdana" font-size="13" font-weight="bold" lengthAdjust="spacing" textLength="222.5361" x="315.3376" y="574.7856">Step 2: Generate Nomor Surat</text><g class="message" data-entity-1="part2" data-entity-2="part3" id="msg7"><polygon fill="#000000" points="582.5952,624.1172,592.5952,628.1172,582.5952,632.1172,586.5952,628.1172" style="stroke:#000000;stroke-width:1;"/><line style="stroke:#000000;stroke-width:1;" x1="291.7388" x2="588.5952" y1="628.1172" y2="628.1172"/><text fill="#000000" font-family="Verdana" font-size="13" lengthAdjust="spacing" textLength="215.5664" x="298.7388" y="607.9185">SELECT text FROM sys_reference</text><text fill="#000000" font-family="Verdana" font-size="13" lengthAdjust="spacing" textLength="150.2363" x="298.7388" y="623.0513">WHERE code=ref_code</text></g><g class="message" data-entity-1="part3" data-entity-2="part2" id="msg8"><polygon fill="#000000" points="302.7388,653.25,292.7388,657.25,302.7388,661.25,298.7388,657.25" style="stroke:#000000;stroke-width:1;"/><line style="stroke:#000000;stroke-width:1;stroke-dasharray:2,2;" x1="296.7388" x2="593.5952" y1="657.25" y2="657.25"/><text fill="#000000" font-family="Verdana" font-size="13" lengthAdjust="spacing" textLength="81.377" x="308.7388" y="652.1841">no_template</text></g><g class="message" data-entity-1="part2" data-entity-2="part2" id="msg9"><line style="stroke:#000000;stroke-width:1;" x1="291.7388" x2="333.7388" y1="686.3828" y2="686.3828"/><line style="stroke:#000000;stroke-width:1;" x1="333.7388" x2="333.7388" y1="686.3828" y2="699.3828"/><line style="stroke:#000000;stroke-width:1;" x1="292.7388" x2="333.7388" y1="699.3828" y2="699.3828"/><polygon fill="#000000" points="302.7388,695.3828,292.7388,699.3828,302.7388,703.3828,298.7388,699.3828" style="stroke:#000000;stroke-width:1;"/><text fill="#000000" font-family="Verdana" font-size="13" lengthAdjust="spacing" textLength="288.8564" x="298.7388" y="681.3169">Replace placeholders + get_trans_sequence</text></g><g class="message" data-entity-1="part2" data-entity-2="part2" id="msg10"><line style="stroke:#000000;stroke-width:1;" x1="291.7388" x2="333.7388" y1="728.5156" y2="728.5156"/><line style="stroke:#000000;stroke-width:1;" x1="333.7388" x2="333.7388" y1="728.5156" y2="741.5156"/><line style="stroke:#000000;stroke-width:1;" x1="292.7388" x2="333.7388" y1="741.5156" y2="741.5156"/><polygon fill="#000000" points="302.7388,737.5156,292.7388,741.5156,302.7388,745.5156,298.7388,741.5156" style="stroke:#000000;stroke-width:1;"/><text fill="#000000" font-family="Verdana" font-size="13" lengthAdjust="spacing" textLength="116.4478" x="298.7388" y="723.4497">&#8594; kode surat final</text></g><rect fill="#FFFFFF" height="3" style="stroke:#FFFFFF;stroke-width:1;" width="849.7373" x="5" y="770.082"/><line style="stroke:#000000;stroke-width:0.5;" x1="5" x2="854.7373" y1="770.082" y2="770.082"/><line style="stroke:#000000;stroke-width:0.5;" x1="5" x2="854.7373" y1="773.082" y2="773.082"/><rect fill="#FFFFFF" height="23.1328" style="stroke:#000000;stroke-width:1;" width="226.7734" x="316.4819" y="759.5156"/><text fill="#000000" font-family="Verdana" font-size="13" font-weight="bold" lengthAdjust="spacing" textLength="208.2476" x="322.4819" y="775.5825">Step 3: Load &amp; Fill Template</text><g class="message" data-entity-1="part2" data-entity-2="part3" id="msg11"><polygon fill="#000000" points="582.5952,827.9141,592.5952,831.9141,582.5952,835.9141,586.5952,831.9141" style="stroke:#000000;stroke-width:1;"/><line style="stroke:#000000;stroke-width:1;" x1="291.7388" x2="588.5952" y1="831.9141" y2="831.9141"/><text fill="#000000" font-family="Verdana" font-size="13" lengthAdjust="spacing" textLength="250.5928" x="298.7388" y="811.7153">SELECT message FROM msg_template</text><text fill="#000000" font-family="Verdana" font-size="13" lengthAdjust="spacing" textLength="191.312" x="298.7388" y="826.8481">WHERE template_id=msg_tpl</text></g><path d="M599,797.6484 L599,837.6484 L844,837.6484 L844,807.6484 L834,797.6484 L599,797.6484" fill="#FFFFFF" style="stroke:#000000;stroke-width:1;"/><path d="M834,797.6484 L834,807.6484 L844,807.6484 L834,797.6484" fill="#FFFFFF" style="stroke:#000000;stroke-width:1;"/><text fill="#000000" font-family="Verdana" font-size="13" lengthAdjust="spacing" textLength="174.8525" x="605" y="814.7153">msg_tpl di-pass dari caller,</text><text fill="#000000" font-family="Verdana" font-size="13" lengthAdjust="spacing" textLength="224.1421" x="605" y="829.8481">bukan hardcoded seperti notif lain</text><g class="message" data-entity-1="part3" data-entity-2="part2" id="msg13"><polygon fill="#000000" points="302.7388,860.0469,292.7388,864.0469,302.7388,868.0469,298.7388,864.0469" style="stroke:#000000;stroke-width:1;"/><line style="stroke:#000000;stroke-width:1;stroke-dasharray:2,2;" x1="296.7388" x2="593.5952" y1="864.0469" y2="864.0469"/><text fill="#000000" font-family="Verdana" font-size="13" lengthAdjust="spacing" textLength="58.6841" x="308.7388" y="858.981">template</text></g><g class="message" data-entity-1="part2" data-entity-2="part2" id="msg14"><line style="stroke:#000000;stroke-width:1;" x1="291.7388" x2="333.7388" y1="893.1797" y2="893.1797"/><line style="stroke:#000000;stroke-width:1;" x1="333.7388" x2="333.7388" y1="893.1797" y2="906.1797"/><line style="stroke:#000000;stroke-width:1;" x1="292.7388" x2="333.7388" y1="906.1797" y2="906.1797"/><polygon fill="#000000" points="302.7388,902.1797,292.7388,906.1797,302.7388,910.1797,298.7388,906.1797" style="stroke:#000000;stroke-width:1;"/><text fill="#000000" font-family="Verdana" font-size="13" lengthAdjust="spacing" textLength="210.4629" x="298.7388" y="888.1138">Replace #detail# &#8594; detail HTML</text></g><rect fill="#FFFFFF" height="3" style="stroke:#FFFFFF;stroke-width:1;" width="849.7373" x="5" y="934.7461"/><line style="stroke:#000000;stroke-width:0.5;" x1="5" x2="854.7373" y1="934.7461" y2="934.7461"/><line style="stroke:#000000;stroke-width:0.5;" x1="5" x2="854.7373" y1="937.7461" y2="937.7461"/><rect fill="#FFFFFF" height="23.1328" style="stroke:#000000;stroke-width:1;" width="153.9404" x="352.8984" y="924.1797"/><text fill="#000000" font-family="Verdana" font-size="13" font-weight="bold" lengthAdjust="spacing" textLength="135.4146" x="358.8984" y="940.2466">Step 4: Insert Mail</text><g class="message" data-entity-1="part2" data-entity-2="part3" id="msg15"><polygon fill="#000000" points="582.5952,1019.8438,592.5952,1023.8438,582.5952,1027.8438,586.5952,1023.8438" style="stroke:#000000;stroke-width:1;"/><line style="stroke:#000000;stroke-width:1;" x1="291.7388" x2="588.5952" y1="1023.8438" y2="1023.8438"/><text fill="#000000" font-family="Verdana" font-size="13" lengthAdjust="spacing" textLength="78.9839" x="298.7388" y="973.3794">INSERT mail</text><text fill="#000000" font-family="Verdana" font-size="13" lengthAdjust="spacing" textLength="212.7607" x="298.7388" y="988.5122">(m_subject=subject (dari caller),</text><text fill="#000000" font-family="Verdana" font-size="13" lengthAdjust="spacing" textLength="176.2808" x="298.7388" y="1003.645">m_to_str=emp.emp_name,</text><text fill="#000000" font-family="Verdana" font-size="13" lengthAdjust="spacing" textLength="129.8667" x="298.7388" y="1018.7778">m_status=SENT, ...)</text></g><g class="message" data-entity-1="part3" data-entity-2="part2" id="msg16"><polygon fill="#000000" points="302.7388,1048.9766,292.7388,1052.9766,302.7388,1056.9766,298.7388,1052.9766" style="stroke:#000000;stroke-width:1;"/><line style="stroke:#000000;stroke-width:1;stroke-dasharray:2,2;" x1="296.7388" x2="593.5952" y1="1052.9766" y2="1052.9766"/><text fill="#000000" font-family="Verdana" font-size="13" lengthAdjust="spacing" textLength="46.2173" x="308.7388" y="1047.9106">mail_id</text></g><g class="message" data-entity-1="part2" data-entity-2="part3" id="msg17"><polygon fill="#000000" points="582.5952,1093.2422,592.5952,1097.2422,582.5952,1101.2422,586.5952,1097.2422" style="stroke:#000000;stroke-width:1;"/><line style="stroke:#000000;stroke-width:1;" x1="291.7388" x2="588.5952" y1="1097.2422" y2="1097.2422"/><text fill="#000000" font-family="Verdana" font-size="13" lengthAdjust="spacing" textLength="112.9375" x="298.7388" y="1077.0435">UPDATE mail SET</text><text fill="#000000" font-family="Verdana" font-size="13" lengthAdjust="spacing" textLength="228.8394" x="298.7388" y="1092.1763">m_root_id=mail_id, m_parent_id=0</text></g><rect fill="#FFFFFF" height="3" style="stroke:#FFFFFF;stroke-width:1;" width="849.7373" x="5" y="1125.8086"/><line style="stroke:#000000;stroke-width:0.5;" x1="5" x2="854.7373" y1="1125.8086" y2="1125.8086"/><line style="stroke:#000000;stroke-width:0.5;" x1="5" x2="854.7373" y1="1128.8086" y2="1128.8086"/><rect fill="#FFFFFF" height="23.1328" style="stroke:#000000;stroke-width:1;" width="210.1426" x="324.7974" y="1115.2422"/><text fill="#000000" font-family="Verdana" font-size="13" font-weight="bold" lengthAdjust="spacing" textLength="191.6167" x="330.7974" y="1131.3091">Step 5: Sent Item (Admin)</text><g class="message" data-entity-1="part2" data-entity-2="part3" id="msg18"><polygon fill="#000000" points="582.5952,1180.6406,592.5952,1184.6406,582.5952,1188.6406,586.5952,1184.6406" style="stroke:#000000;stroke-width:1;"/><line style="stroke:#000000;stroke-width:1;" x1="291.7388" x2="588.5952" y1="1184.6406" y2="1184.6406"/><text fill="#000000" font-family="Verdana" font-size="13" lengthAdjust="spacing" textLength="141.0894" x="298.7388" y="1164.4419">INSERT sys_user_task</text><text fill="#000000" font-family="Verdana" font-size="13" lengthAdjust="spacing" textLength="185.415" x="298.7388" y="1179.5747">(user_id=2, folder_id=SENT)</text></g><rect fill="#FFFFFF" height="3" style="stroke:#FFFFFF;stroke-width:1;" width="849.7373" x="5" y="1213.207"/><line style="stroke:#000000;stroke-width:0.5;" x1="5" x2="854.7373" y1="1213.207" y2="1213.207"/><line style="stroke:#000000;stroke-width:0.5;" x1="5" x2="854.7373" y1="1216.207" y2="1216.207"/><rect fill="#FFFFFF" height="23.1328" style="stroke:#000000;stroke-width:1;" width="240.4526" x="309.6423" y="1202.6406"/><text fill="#000000" font-family="Verdana" font-size="13" font-weight="bold" lengthAdjust="spacing" textLength="221.9268" x="315.6423" y="1218.7075">Step 6: Inbox untuk Karyawan</text><g class="message" data-entity-1="part2" data-entity-2="part3" id="msg19"><polygon fill="#000000" points="582.5952,1283.1719,592.5952,1287.1719,582.5952,1291.1719,586.5952,1287.1719" style="stroke:#000000;stroke-width:1;"/><line style="stroke:#000000;stroke-width:1;" x1="291.7388" x2="588.5952" y1="1287.1719" y2="1287.1719"/><text fill="#000000" font-family="Verdana" font-size="13" lengthAdjust="spacing" textLength="174.2622" x="298.7388" y="1251.8403">SELECT * FROM sys_user u</text><text fill="#000000" font-family="Verdana" font-size="13" lengthAdjust="spacing" textLength="124.5854" x="298.7388" y="1266.9731">JOIN employee e ...</text><text fill="#000000" font-family="Verdana" font-size="13" lengthAdjust="spacing" textLength="190.7153" x="298.7388" y="1282.106">WHERE emp_id=emp.emp_id</text></g><g class="message" data-entity-1="part3" data-entity-2="part2" id="msg20"><polygon fill="#000000" points="302.7388,1312.3047,292.7388,1316.3047,302.7388,1320.3047,298.7388,1316.3047" style="stroke:#000000;stroke-width:1;"/><line style="stroke:#000000;stroke-width:1;stroke-dasharray:2,2;" x1="296.7388" x2="593.5952" y1="1316.3047" y2="1316.3047"/><text fill="#000000" font-family="Verdana" font-size="13" lengthAdjust="spacing" textLength="72.2427" x="308.7388" y="1311.2388">target user</text></g><path d="M229.5029,1331.3047 L306.127,1331.3047 L306.127,1338.4375 L296.127,1348.4375 L229.5029,1348.4375 L229.5029,1331.3047" fill="#FFFFFF" style="stroke:#000000;stroke-width:1;"/><rect fill="none" height="105.6641" style="stroke:#000000;stroke-width:1;" width="411.4927" x="229.5029" y="1331.3047"/><text fill="#000000" font-family="Verdana" font-size="13" font-weight="bold" lengthAdjust="spacing" textLength="31.624" x="244.5029" y="1344.3716">loop</text><text fill="#000000" font-family="Verdana" font-size="11" font-weight="bold" lengthAdjust="spacing" textLength="119.3779" x="321.127" y="1343.5151">[untuk setiap user]</text><g class="message" data-entity-1="part2" data-entity-2="part3" id="msg21"><polygon fill="#000000" points="582.5952,1380.7031,592.5952,1384.7031,582.5952,1388.7031,586.5952,1384.7031" style="stroke:#000000;stroke-width:1;"/><line style="stroke:#000000;stroke-width:1;" x1="291.7388" x2="588.5952" y1="1384.7031" y2="1384.7031"/><text fill="#000000" font-family="Verdana" font-size="13" lengthAdjust="spacing" textLength="142.7842" x="298.7388" y="1364.5044">INSERT mail_recipient</text><text fill="#000000" font-family="Verdana" font-size="13" lengthAdjust="spacing" textLength="97.2778" x="298.7388" y="1379.6372">(circulation=4)</text></g><g class="message" data-entity-1="part2" data-entity-2="part3" id="msg22"><polygon fill="#000000" points="582.5952,1424.9688,592.5952,1428.9688,582.5952,1432.9688,586.5952,1428.9688" style="stroke:#000000;stroke-width:1;"/><line style="stroke:#000000;stroke-width:1;" x1="291.7388" x2="588.5952" y1="1428.9688" y2="1428.9688"/><text fill="#000000" font-family="Verdana" font-size="13" lengthAdjust="spacing" textLength="141.0894" x="298.7388" y="1408.77">INSERT sys_user_task</text><text fill="#000000" font-family="Verdana" font-size="13" lengthAdjust="spacing" textLength="269.3057" x="298.7388" y="1423.9028">(folder_id=INBOX, read_status=UNREAD)</text></g><?plantuml-src dLNTZXet5BwVfpWbKiKaW7QtsKH2caeBJ1hQXOs0LNg1D3BZ0xXux8djISDTh_e0KPumJvBZ-LbOigHIBqQoVVw_SxupFxajPWYvP485JZY9a1fa3XEMvqP_P3992oSIfPrOjqFu-iyNcFgps34huAPMWY4fBLN6XCmqHzdBjtd_-lLLzzNhwo38cN4Y5JbJ3bf39YMQfMfx4vXeNaWCMy0iL9B7sXFoEF4UIuto573cs8fPXDQeFfN2qI08AXVG_RLIXVwFgbagpF8ES7GKf0EsMFs5gUj0PZU9osKOa1g24Pkj2m06Q5R86N1c19GEm8FM9r6tiIMXQio1YsxEhAqCqgeshrl58nFEjh12K-GCtYucjs2T4MeJeEBUFmP15C7SOGwNVPYXrV8Zml1s74yNoV1k5CDGgxNOG1G5mSRe8dya71Ycqgtt1y2aWy5aJYUeSJa2A4lSFiVeakfEKe9geyq-keJs_UH-4b9B7nwJb2oYriN5HMkf3AxhUvQe8gCoahKs6NF9AhCjYeII6ZIVZ9uEAZXc7JZln6RymSdWtVJ_ELd9l7IYUF24TM59K_3e2jetF1DA4FpCQHFw1Xoml-h3RwYGH4Y3dsa3yu8k9UeFFaS3SZYFR-FX0Xn-Sl1cTZS1kxS9POS6LOfBzVvjF8kXJBN9EI33xb5EIYUEPb9IiE2xX6T8WhJaQefRBJaQ2ozWWowXp9LDB7ueVAZlJR_--nbsTAQXyxclXMBoKE8lVRZLZCFFy4P82OiwW_CbPcWjss1LPJdkjKbJP7Ft-DPqU4oc7t2aG-9LiICYRPdX7YKE5dEafN14kmDBJY3yR_oULGHyLg9Iaz7pxm38opwC5Os70xz-di1XF9t7CyA1fBJ8igIcVzIiWVPHFM77ayZfXEOhekHwz2MAPLY-MyTSOQCvyRO3lLulFAt7no0OJpEuVpUwMSIbbBgoyAwCrgu4lBBmVAPLYgfyl3XKTqrzf5SO4rJrx8VdQ_H3N5B5CRkZOXzequ5rEOF-ujCF3n5UUVnM-XCKoXKx-8EPFVkR6dfse9uV2EFzGx5Klz-Df-1xgVU8W1wRPheyW1IqmPB0EPq1PeWL9SE3G6gTrubOT8BbrVlHHZXjAP6MVZ-2CA9wKs7IWWPAQ1Mz3C-PdQ9qW6Oy7TpzwRSKuqspxwUp-6PKxPbl?></g></svg>