<?plantuml 1.2026.2?><svg xmlns="http://www.w3.org/2000/svg" xmlns:xlink="http://www.w3.org/1999/xlink" contentStyleType="text/css" data-diagram-type="SEQUENCE" height="1850px" preserveAspectRatio="none" style="width:1024px;height:1850px;background:#FFFFFF;" version="1.1" viewBox="0 0 1024 1850" width="1024px" zoomAndPan="magnify"><title>create_publication_mail_notif() &#8212; Notifikasi Publikasi Baru
mailmodel.php:337-442</title><defs/><g><text fill="#000000" font-family="Verdana" font-size="22" font-weight="bold" lengthAdjust="spacing" textLength="724.7217" x="148.6223" y="35.4209">create_publication_mail_notif() &#8212; Notifikasi Publikasi Baru</text><text fill="#000000" font-family="Verdana" font-size="22" font-weight="bold" lengthAdjust="spacing" textLength="294.3896" x="363.7883" y="61.0303">mailmodel.php:337-442</text><rect fill="#FFFFFF" height="337.2031" style="stroke:#000000;stroke-width:1;" width="334.0488" x="322.9346" y="228.7813"/><rect fill="#FFFFFF" height="263.9375" style="stroke:#000000;stroke-width:1;" width="314.0488" x="332.9346" y="252.9141"/><rect fill="#FFFFFF" height="87.2031" style="stroke:none;stroke-width:1;" width="314.0488" x="332.9346" y="342.4453"/><rect fill="#FFFFFF" height="87.2031" style="stroke:none;stroke-width:1;" width="314.0488" x="332.9346" y="429.6484"/><rect fill="#FFFFFF" height="151.0625" style="stroke:#000000;stroke-width:1;" width="396.8701" x="332.9346" y="1604.5625"/><g class="participant-lifeline" data-entity-uid="part1" data-qualified-name="Caller" id="part1-lifeline"><g><title>Caller</title><rect fill="#000000" fill-opacity="0.00000" height="1633.1094" width="8" x="94.6782" y="139.5156"/><line style="stroke:#000000;stroke-width:1;stroke-dasharray:5,5;" x1="98" x2="98" y1="139.5156" y2="1772.625"/></g></g><g class="participant-lifeline" data-entity-uid="part2" data-qualified-name="Model" id="part2-lifeline"><g><title>MailModel</title><rect fill="#000000" fill-opacity="0.00000" height="1633.1094" width="8" x="391.1704" y="139.5156"/><line style="stroke:#000000;stroke-width:1;stroke-dasharray:5,5;" x1="394.9346" x2="394.9346" y1="139.5156" y2="1772.625"/></g></g><g class="participant-lifeline" data-entity-uid="part3" data-qualified-name="DB" id="part3-lifeline"><g><title>Database</title><rect fill="#000000" fill-opacity="0.00000" height="1633.1094" width="8" x="679.4043" y="139.5156"/><line style="stroke:#000000;stroke-width:1;stroke-dasharray:5,5;" x1="683.0039" x2="683.0039" y1="139.5156" y2="1772.625"/></g></g><g class="participant-lifeline" data-entity-uid="part4" data-qualified-name="API" id="part4-lifeline"><g><title>Kepegawaian API</title><rect fill="#000000" fill-opacity="0.00000" height="1633.1094" width="8" x="803.1694" y="139.5156"/><line style="stroke:#000000;stroke-width:1;stroke-dasharray:5,5;" x1="806.8047" x2="806.8047" y1="139.5156" y2="1772.625"/></g></g><g class="participant participant-head" data-entity-uid="part1" data-qualified-name="Caller" id="part1-head"><rect fill="#FFFFFF" height="46.5938" rx="2.5" ry="2.5" style="stroke:#000000;stroke-width:1;" width="157.3564" x="20" y="91.9219"/><text fill="#000000" font-family="Verdana" font-size="14" lengthAdjust="spacing" textLength="40.5029" x="78.4268" y="111.917">Caller</text><text fill="#000000" font-family="Verdana" font-size="14" lengthAdjust="spacing" textLength="143.3564" x="27" y="128.2139">(Publication Module)</text></g><g class="participant participant-tail" data-entity-uid="part1" data-qualified-name="Caller" id="part1-tail"><rect fill="#FFFFFF" height="46.5938" rx="2.5" ry="2.5" style="stroke:#000000;stroke-width:1;" width="157.3564" x="20" y="1771.625"/><text fill="#000000" font-family="Verdana" font-size="14" lengthAdjust="spacing" textLength="40.5029" x="78.4268" y="1791.6201">Caller</text><text fill="#000000" font-family="Verdana" font-size="14" lengthAdjust="spacing" textLength="143.3564" x="27" y="1807.917">(Publication Module)</text></g><g class="participant participant-head" data-entity-uid="part2" data-qualified-name="Model" id="part2-head"><rect fill="#FFFFFF" height="30.2969" rx="2.5" ry="2.5" style="stroke:#000000;stroke-width:1;" width="84.4717" x="352.9346" y="108.2188"/><text fill="#000000" font-family="Verdana" font-size="14" lengthAdjust="spacing" textLength="70.4717" x="359.9346" y="128.2139">MailModel</text></g><g class="participant participant-tail" data-entity-uid="part2" data-qualified-name="Model" id="part2-tail"><rect fill="#FFFFFF" height="30.2969" rx="2.5" ry="2.5" style="stroke:#000000;stroke-width:1;" width="84.4717" x="352.9346" y="1771.625"/><text fill="#000000" font-family="Verdana" font-size="14" lengthAdjust="spacing" textLength="70.4717" x="359.9346" y="1791.6201">MailModel</text></g><g class="participant participant-head" data-entity-uid="part3" data-qualified-name="DB" id="part3-head"><text fill="#000000" font-family="Verdana" font-size="14" lengthAdjust="spacing" textLength="66.8008" x="647.0039" y="136.2139">Database</text><path d="M665.4043,87.2188 C665.4043,77.2188 683.4043,77.2188 683.4043,77.2188 C683.4043,77.2188 701.4043,77.2188 701.4043,87.2188 L701.4043,113.2188 C701.4043,123.2188 683.4043,123.2188 683.4043,123.2188 C683.4043,123.2188 665.4043,123.2188 665.4043,113.2188 L665.4043,87.2188" fill="#FFFFFF" style="stroke:#000000;stroke-width:1;"/><path d="M665.4043,87.2188 C665.4043,97.2188 683.4043,97.2188 683.4043,97.2188 C683.4043,97.2188 701.4043,97.2188 701.4043,87.2188" fill="none" style="stroke:#000000;stroke-width:1;"/></g><g class="participant participant-tail" data-entity-uid="part3" data-qualified-name="DB" id="part3-tail"><text fill="#000000" font-family="Verdana" font-size="14" lengthAdjust="spacing" textLength="66.8008" x="647.0039" y="1784.6201">Database</text><path d="M665.4043,1797.9219 C665.4043,1787.9219 683.4043,1787.9219 683.4043,1787.9219 C683.4043,1787.9219 701.4043,1787.9219 701.4043,1797.9219 L701.4043,1823.9219 C701.4043,1833.9219 683.4043,1833.9219 683.4043,1833.9219 C683.4043,1833.9219 665.4043,1833.9219 665.4043,1823.9219 L665.4043,1797.9219" fill="#FFFFFF" style="stroke:#000000;stroke-width:1;"/><path d="M665.4043,1797.9219 C665.4043,1807.9219 683.4043,1807.9219 683.4043,1807.9219 C683.4043,1807.9219 701.4043,1807.9219 701.4043,1797.9219" fill="none" style="stroke:#000000;stroke-width:1;"/></g><g class="participant participant-head" data-entity-uid="part4" data-qualified-name="API" id="part4-head"><rect fill="#FFFFFF" height="46.5938" rx="2.5" ry="2.5" style="stroke:#000000;stroke-width:1;" width="134.7295" x="739.8047" y="91.9219"/><text fill="#000000" font-family="Verdana" font-size="14" lengthAdjust="spacing" textLength="120.7295" x="746.8047" y="111.917">Kepegawaian API</text><text fill="#000000" font-family="Verdana" font-size="14" lengthAdjust="spacing" textLength="110.1201" x="752.1094" y="128.2139">(target migrasi)</text></g><g class="participant participant-tail" data-entity-uid="part4" data-qualified-name="API" id="part4-tail"><rect fill="#FFFFFF" height="46.5938" rx="2.5" ry="2.5" style="stroke:#000000;stroke-width:1;" width="134.7295" x="739.8047" y="1771.625"/><text fill="#000000" font-family="Verdana" font-size="14" lengthAdjust="spacing" textLength="120.7295" x="746.8047" y="1791.6201">Kepegawaian API</text><text fill="#000000" font-family="Verdana" font-size="14" lengthAdjust="spacing" textLength="110.1201" x="752.1094" y="1807.917">(target migrasi)</text></g><g class="message" data-entity-1="part1" data-entity-2="part2" id="msg1"><polygon fill="#000000" points="383.1704,166.6484,393.1704,170.6484,383.1704,174.6484,387.1704,170.6484" style="stroke:#000000;stroke-width:1;"/><line style="stroke:#000000;stroke-width:1;" x1="98.6782" x2="389.1704" y1="170.6484" y2="170.6484"/><text fill="#000000" font-family="Verdana" font-size="13" lengthAdjust="spacing" textLength="272.4922" x="105.6782" y="165.5825">create_publication_mail_notif(publication)</text></g><rect fill="#FFFFFF" height="3" style="stroke:#FFFFFF;stroke-width:1;" width="1012.9663" x="5" y="199.2148"/><line style="stroke:#000000;stroke-width:0.5;" x1="5" x2="1017.9663" y1="199.2148" y2="199.2148"/><line style="stroke:#000000;stroke-width:0.5;" x1="5" x2="1017.9663" y1="202.2148" y2="202.2148"/><rect fill="#FFFFFF" height="23.1328" style="stroke:#000000;stroke-width:1;" width="287.0127" x="367.9768" y="188.6484"/><text fill="#000000" font-family="Verdana" font-size="13" font-weight="bold" lengthAdjust="spacing" textLength="268.4868" x="373.9768" y="204.7153">Step 1: Resolve CLIENT_CODE Config</text><path d="M322.9346,228.7813 L544.8374,228.7813 L544.8374,235.9141 L534.8374,245.9141 L322.9346,245.9141 L322.9346,228.7813" fill="#FFFFFF" style="stroke:#000000;stroke-width:1;"/><rect fill="none" height="337.2031" style="stroke:#000000;stroke-width:1;" width="334.0488" x="322.9346" y="228.7813"/><text fill="#000000" font-family="Verdana" font-size="13" font-weight="bold" lengthAdjust="spacing" textLength="176.9028" x="337.9346" y="241.8481">CLIENT_CODE Branching</text><path d="M332.9346,252.9141 L397.3774,252.9141 L397.3774,260.0469 L387.3774,270.0469 L332.9346,270.0469 L332.9346,252.9141" fill="#FFFFFF" style="stroke:#000000;stroke-width:1;"/><rect fill="none" height="263.9375" style="stroke:#000000;stroke-width:1;" width="314.0488" x="332.9346" y="252.9141"/><text fill="#000000" font-family="Verdana" font-size="13" font-weight="bold" lengthAdjust="spacing" textLength="19.4429" x="347.9346" y="265.981">alt</text><text fill="#000000" font-family="Verdana" font-size="11" font-weight="bold" lengthAdjust="spacing" textLength="37.3076" x="412.3774" y="265.1245">[BMS]</text><g class="message" data-entity-1="part2" data-entity-2="part2" id="msg2"><line style="stroke:#000000;stroke-width:1;" x1="395.1704" x2="437.1704" y1="321.4453" y2="321.4453"/><line style="stroke:#000000;stroke-width:1;" x1="437.1704" x2="437.1704" y1="321.4453" y2="334.4453"/><line style="stroke:#000000;stroke-width:1;" x1="396.1704" x2="437.1704" y1="334.4453" y2="334.4453"/><polygon fill="#000000" points="406.1704,330.4453,396.1704,334.4453,406.1704,338.4453,402.1704,334.4453" style="stroke:#000000;stroke-width:1;"/><text fill="#000000" font-family="Verdana" font-size="13" lengthAdjust="spacing" textLength="179.6831" x="402.1704" y="286.1138">m_type=1, m_category=86</text><text fill="#000000" font-family="Verdana" font-size="13" lengthAdjust="spacing" textLength="174.5352" x="402.1704" y="301.2466">m_category_code="485.1"</text><text fill="#000000" font-family="Verdana" font-size="13" lengthAdjust="spacing" textLength="232.813" x="402.1704" y="316.3794">ref_code="m_number_format_bms"</text></g><line style="stroke:#000000;stroke-width:1;stroke-dasharray:2,2;" x1="332.9346" x2="646.9834" y1="343.4453" y2="343.4453"/><text fill="#000000" font-family="Verdana" font-size="11" font-weight="bold" lengthAdjust="spacing" textLength="38.0542" x="337.9346" y="353.6558">[SMD]</text><g class="message" data-entity-1="part2" data-entity-2="part2" id="msg3"><line style="stroke:#000000;stroke-width:1;" x1="395.1704" x2="437.1704" y1="408.6484" y2="408.6484"/><line style="stroke:#000000;stroke-width:1;" x1="437.1704" x2="437.1704" y1="408.6484" y2="421.6484"/><line style="stroke:#000000;stroke-width:1;" x1="396.1704" x2="437.1704" y1="421.6484" y2="421.6484"/><polygon fill="#000000" points="406.1704,417.6484,396.1704,421.6484,406.1704,425.6484,402.1704,421.6484" style="stroke:#000000;stroke-width:1;"/><text fill="#000000" font-family="Verdana" font-size="13" lengthAdjust="spacing" textLength="171.4121" x="402.1704" y="373.3169">m_type=1, m_category=1</text><text fill="#000000" font-family="Verdana" font-size="13" lengthAdjust="spacing" textLength="162.1318" x="402.1704" y="388.4497">m_category_code="000"</text><text fill="#000000" font-family="Verdana" font-size="13" lengthAdjust="spacing" textLength="232.813" x="402.1704" y="403.5825">ref_code="m_number_format_smd"</text></g><line style="stroke:#000000;stroke-width:1;stroke-dasharray:2,2;" x1="332.9346" x2="646.9834" y1="430.6484" y2="430.6484"/><text fill="#000000" font-family="Verdana" font-size="11" font-weight="bold" lengthAdjust="spacing" textLength="35.707" x="337.9346" y="440.8589">[BPN]</text><g class="message" data-entity-1="part2" data-entity-2="part2" id="msg4"><line style="stroke:#000000;stroke-width:1;" x1="395.1704" x2="437.1704" y1="495.8516" y2="495.8516"/><line style="stroke:#000000;stroke-width:1;" x1="437.1704" x2="437.1704" y1="495.8516" y2="508.8516"/><line style="stroke:#000000;stroke-width:1;" x1="396.1704" x2="437.1704" y1="508.8516" y2="508.8516"/><polygon fill="#000000" points="406.1704,504.8516,396.1704,508.8516,406.1704,512.8516,402.1704,508.8516" style="stroke:#000000;stroke-width:1;"/><text fill="#000000" font-family="Verdana" font-size="13" lengthAdjust="spacing" textLength="171.4121" x="402.1704" y="460.52">m_type=1, m_category=3</text><text fill="#000000" font-family="Verdana" font-size="13" lengthAdjust="spacing" textLength="146.396" x="402.1704" y="475.6528">m_category_code="C"</text><text fill="#000000" font-family="Verdana" font-size="13" lengthAdjust="spacing" textLength="225.2402" x="402.1704" y="490.7856">ref_code="m_number_format_blp"</text></g><g class="message" data-entity-1="part2" data-entity-2="part2" id="msg5"><line style="stroke:#000000;stroke-width:1;" x1="395.1704" x2="437.1704" y1="544.9844" y2="544.9844"/><line style="stroke:#000000;stroke-width:1;" x1="437.1704" x2="437.1704" y1="544.9844" y2="557.9844"/><line style="stroke:#000000;stroke-width:1;" x1="396.1704" x2="437.1704" y1="557.9844" y2="557.9844"/><polygon fill="#000000" points="406.1704,553.9844,396.1704,557.9844,406.1704,561.9844,402.1704,557.9844" style="stroke:#000000;stroke-width:1;"/><text fill="#000000" font-family="Verdana" font-size="13" lengthAdjust="spacing" textLength="169.0063" x="402.1704" y="539.9185">user_id=2 (Administrator)</text></g><rect fill="#FFFFFF" height="3" style="stroke:#FFFFFF;stroke-width:1;" width="1012.9663" x="5" y="593.5508"/><line style="stroke:#000000;stroke-width:0.5;" x1="5" x2="1017.9663" y1="593.5508" y2="593.5508"/><line style="stroke:#000000;stroke-width:0.5;" x1="5" x2="1017.9663" y1="596.5508" y2="596.5508"/><rect fill="#FFFFFF" height="23.1328" style="stroke:#000000;stroke-width:1;" width="241.062" x="390.9521" y="582.9844"/><text fill="#000000" font-family="Verdana" font-size="13" font-weight="bold" lengthAdjust="spacing" textLength="222.5361" x="396.9521" y="599.0513">Step 2: Generate Nomor Surat</text><g class="message" data-entity-1="part2" data-entity-2="part3" id="msg6"><polygon fill="#000000" points="671.4043,648.3828,681.4043,652.3828,671.4043,656.3828,675.4043,652.3828" style="stroke:#000000;stroke-width:1;"/><line style="stroke:#000000;stroke-width:1;" x1="395.1704" x2="677.4043" y1="652.3828" y2="652.3828"/><text fill="#000000" font-family="Verdana" font-size="13" lengthAdjust="spacing" textLength="215.5664" x="402.1704" y="632.1841">SELECT text FROM sys_reference</text><text fill="#000000" font-family="Verdana" font-size="13" lengthAdjust="spacing" textLength="150.2363" x="402.1704" y="647.3169">WHERE code=ref_code</text></g><g class="message" data-entity-1="part3" data-entity-2="part2" id="msg7"><polygon fill="#000000" points="406.1704,677.5156,396.1704,681.5156,406.1704,685.5156,402.1704,681.5156" style="stroke:#000000;stroke-width:1;"/><line style="stroke:#000000;stroke-width:1;stroke-dasharray:2,2;" x1="400.1704" x2="682.4043" y1="681.5156" y2="681.5156"/><text fill="#000000" font-family="Verdana" font-size="13" lengthAdjust="spacing" textLength="81.377" x="412.1704" y="676.4497">no_template</text></g><g class="message" data-entity-1="part2" data-entity-2="part2" id="msg8"><line style="stroke:#000000;stroke-width:1;" x1="395.1704" x2="437.1704" y1="756.0469" y2="756.0469"/><line style="stroke:#000000;stroke-width:1;" x1="437.1704" x2="437.1704" y1="756.0469" y2="769.0469"/><line style="stroke:#000000;stroke-width:1;" x1="396.1704" x2="437.1704" y1="769.0469" y2="769.0469"/><polygon fill="#000000" points="406.1704,765.0469,396.1704,769.0469,406.1704,773.0469,402.1704,769.0469" style="stroke:#000000;stroke-width:1;"/><text fill="#000000" font-family="Verdana" font-size="13" lengthAdjust="spacing" textLength="143.6665" x="402.1704" y="705.5825">Replace placeholders:</text><text fill="#000000" font-family="Verdana" font-size="13" lengthAdjust="spacing" textLength="12.4033" x="402.1704" y="720.7153">1.</text><text fill="#000000" font-family="Verdana" font-size="13" lengthAdjust="spacing" textLength="195.4634" x="418.7061" y="720.7153">org_code#&#8594;"00", #type#&#8594;"I"</text><text fill="#000000" font-family="Verdana" font-size="13" lengthAdjust="spacing" textLength="12.4033" x="402.1704" y="735.8481">2.</text><text fill="#000000" font-family="Verdana" font-size="13" lengthAdjust="spacing" textLength="241.1348" x="418.7061" y="735.8481">MR#&#8594;bulan romawi, #YYYY#&#8594;tahun</text><text fill="#000000" font-family="Verdana" font-size="13" lengthAdjust="spacing" textLength="12.4033" x="402.1704" y="750.981">3.</text><text fill="#000000" font-family="Verdana" font-size="13" lengthAdjust="spacing" textLength="175.627" x="418.7061" y="750.981">m_cat#&#8594;m_category_code</text></g><g class="message" data-entity-1="part2" data-entity-2="part3" id="msg9"><polygon fill="#000000" points="671.4043,809.3125,681.4043,813.3125,671.4043,817.3125,675.4043,813.3125" style="stroke:#000000;stroke-width:1;"/><line style="stroke:#000000;stroke-width:1;" x1="395.1704" x2="677.4043" y1="813.3125" y2="813.3125"/><text fill="#000000" font-family="Verdana" font-size="13" lengthAdjust="spacing" textLength="135.4844" x="402.1704" y="793.1138">get_trans_sequence(</text><text fill="#000000" font-family="Verdana" font-size="13" lengthAdjust="spacing" textLength="259.7207" x="402.1704" y="808.2466">TASK_MAIL, "00-"+m_category_code, 3)</text></g><g class="message" data-entity-1="part3" data-entity-2="part2" id="msg10"><polygon fill="#000000" points="406.1704,838.4453,396.1704,842.4453,406.1704,846.4453,402.1704,842.4453" style="stroke:#000000;stroke-width:1;"/><line style="stroke:#000000;stroke-width:1;stroke-dasharray:2,2;" x1="400.1704" x2="682.4043" y1="842.4453" y2="842.4453"/><text fill="#000000" font-family="Verdana" font-size="13" lengthAdjust="spacing" textLength="117.5142" x="412.1704" y="837.3794">sequence number</text></g><g class="message" data-entity-1="part2" data-entity-2="part2" id="msg11"><line style="stroke:#000000;stroke-width:1;" x1="395.1704" x2="437.1704" y1="886.7109" y2="886.7109"/><line style="stroke:#000000;stroke-width:1;" x1="437.1704" x2="437.1704" y1="886.7109" y2="899.7109"/><line style="stroke:#000000;stroke-width:1;" x1="396.1704" x2="437.1704" y1="899.7109" y2="899.7109"/><polygon fill="#000000" points="406.1704,895.7109,396.1704,899.7109,406.1704,903.7109,402.1704,899.7109" style="stroke:#000000;stroke-width:1;"/><text fill="#000000" font-family="Verdana" font-size="13" lengthAdjust="spacing" textLength="182.749" x="402.1704" y="866.5122">Replace #seq# &#8594; sequence</text><text fill="#000000" font-family="Verdana" font-size="13" lengthAdjust="spacing" textLength="116.4478" x="402.1704" y="881.645">&#8594; kode surat final</text></g><rect fill="#FFFFFF" height="3" style="stroke:#FFFFFF;stroke-width:1;" width="1012.9663" x="5" y="928.2773"/><line style="stroke:#000000;stroke-width:0.5;" x1="5" x2="1017.9663" y1="928.2773" y2="928.2773"/><line style="stroke:#000000;stroke-width:0.5;" x1="5" x2="1017.9663" y1="931.2773" y2="931.2773"/><rect fill="#FFFFFF" height="23.1328" style="stroke:#000000;stroke-width:1;" width="226.7734" x="398.0964" y="917.7109"/><text fill="#000000" font-family="Verdana" font-size="13" font-weight="bold" lengthAdjust="spacing" textLength="208.2476" x="404.0964" y="933.7778">Step 3: Load &amp; Fill Template</text><g class="message" data-entity-1="part2" data-entity-2="part3" id="msg12"><polygon fill="#000000" points="671.4043,983.1094,681.4043,987.1094,671.4043,991.1094,675.4043,987.1094" style="stroke:#000000;stroke-width:1;"/><line style="stroke:#000000;stroke-width:1;" x1="395.1704" x2="677.4043" y1="987.1094" y2="987.1094"/><text fill="#000000" font-family="Verdana" font-size="13" lengthAdjust="spacing" textLength="250.5928" x="402.1704" y="966.9106">SELECT message FROM msg_template</text><text fill="#000000" font-family="Verdana" font-size="13" lengthAdjust="spacing" textLength="148.4336" x="402.1704" y="982.0435">WHERE template_id=2</text></g><g class="message" data-entity-1="part3" data-entity-2="part2" id="msg13"><polygon fill="#000000" points="406.1704,1012.2422,396.1704,1016.2422,406.1704,1020.2422,402.1704,1016.2422" style="stroke:#000000;stroke-width:1;"/><line style="stroke:#000000;stroke-width:1;stroke-dasharray:2,2;" x1="400.1704" x2="682.4043" y1="1016.2422" y2="1016.2422"/><text fill="#000000" font-family="Verdana" font-size="13" lengthAdjust="spacing" textLength="58.6841" x="412.1704" y="1011.1763">template</text></g><g class="message" data-entity-1="part2" data-entity-2="part2" id="msg14"><line style="stroke:#000000;stroke-width:1;" x1="395.1704" x2="437.1704" y1="1075.6406" y2="1075.6406"/><line style="stroke:#000000;stroke-width:1;" x1="437.1704" x2="437.1704" y1="1075.6406" y2="1088.6406"/><line style="stroke:#000000;stroke-width:1;" x1="396.1704" x2="437.1704" y1="1088.6406" y2="1088.6406"/><polygon fill="#000000" points="406.1704,1084.6406,396.1704,1088.6406,406.1704,1092.6406,402.1704,1088.6406" style="stroke:#000000;stroke-width:1;"/><text fill="#000000" font-family="Verdana" font-size="13" lengthAdjust="spacing" textLength="163.7949" x="402.1704" y="1040.3091">Replace dalam template:</text><text fill="#000000" font-family="Verdana" font-size="13" lengthAdjust="spacing" textLength="12.4033" x="402.1704" y="1055.4419">1.</text><text fill="#000000" font-family="Verdana" font-size="13" lengthAdjust="spacing" textLength="241.0649" x="418.7061" y="1055.4419">title#, #type#, #created_by_name#</text><text fill="#000000" font-family="Verdana" font-size="13" lengthAdjust="spacing" textLength="12.4033" x="402.1704" y="1070.5747">2.</text><text fill="#000000" font-family="Verdana" font-size="13" lengthAdjust="spacing" textLength="244.1499" x="418.7061" y="1070.5747">created_by_title#, #published_date#</text></g><rect fill="#FFFFFF" height="3" style="stroke:#FFFFFF;stroke-width:1;" width="1012.9663" x="5" y="1117.207"/><line style="stroke:#000000;stroke-width:0.5;" x1="5" x2="1017.9663" y1="1117.207" y2="1117.207"/><line style="stroke:#000000;stroke-width:0.5;" x1="5" x2="1017.9663" y1="1120.207" y2="1120.207"/><rect fill="#FFFFFF" height="23.1328" style="stroke:#000000;stroke-width:1;" width="153.9404" x="434.5129" y="1106.6406"/><text fill="#000000" font-family="Verdana" font-size="13" font-weight="bold" lengthAdjust="spacing" textLength="135.4146" x="440.5129" y="1122.7075">Step 4: Insert Mail</text><g class="message" data-entity-1="part2" data-entity-2="part3" id="msg15"><polygon fill="#000000" points="671.4043,1232.5703,681.4043,1236.5703,671.4043,1240.5703,675.4043,1236.5703" style="stroke:#000000;stroke-width:1;"/><line style="stroke:#000000;stroke-width:1;" x1="395.1704" x2="677.4043" y1="1236.5703" y2="1236.5703"/><text fill="#000000" font-family="Verdana" font-size="13" lengthAdjust="spacing" textLength="78.9839" x="402.1704" y="1155.8403">INSERT mail</text><text fill="#000000" font-family="Verdana" font-size="13" lengthAdjust="spacing" textLength="242.6519" x="402.1704" y="1170.9731">(m_no, m_date, m_type, m_category,</text><text fill="#000000" font-family="Verdana" font-size="13" lengthAdjust="spacing" textLength="184.6343" x="402.1704" y="1186.106">m_subject="Publikasi baru",</text><text fill="#000000" font-family="Verdana" font-size="13" lengthAdjust="spacing" textLength="185.4658" x="402.1704" y="1201.2388">m_content, m_status=SENT,</text><text fill="#000000" font-family="Verdana" font-size="13" lengthAdjust="spacing" textLength="207.9365" x="402.1704" y="1216.3716">m_created_by=2/Administrator,</text><text fill="#000000" font-family="Verdana" font-size="13" lengthAdjust="spacing" textLength="197.4375" x="402.1704" y="1231.5044">m_to_str="Semua Karyawan")</text></g><g class="message" data-entity-1="part3" data-entity-2="part2" id="msg16"><polygon fill="#000000" points="406.1704,1261.7031,396.1704,1265.7031,406.1704,1269.7031,402.1704,1265.7031" style="stroke:#000000;stroke-width:1;"/><line style="stroke:#000000;stroke-width:1;stroke-dasharray:2,2;" x1="400.1704" x2="682.4043" y1="1265.7031" y2="1265.7031"/><text fill="#000000" font-family="Verdana" font-size="13" lengthAdjust="spacing" textLength="46.2173" x="412.1704" y="1260.6372">mail_id</text></g><g class="message" data-entity-1="part2" data-entity-2="part3" id="msg17"><polygon fill="#000000" points="671.4043,1321.1016,681.4043,1325.1016,671.4043,1329.1016,675.4043,1325.1016" style="stroke:#000000;stroke-width:1;"/><line style="stroke:#000000;stroke-width:1;" x1="395.1704" x2="677.4043" y1="1325.1016" y2="1325.1016"/><text fill="#000000" font-family="Verdana" font-size="13" lengthAdjust="spacing" textLength="112.9375" x="402.1704" y="1289.77">UPDATE mail SET</text><text fill="#000000" font-family="Verdana" font-size="13" lengthAdjust="spacing" textLength="228.8394" x="402.1704" y="1304.9028">m_root_id=mail_id, m_parent_id=0</text><text fill="#000000" font-family="Verdana" font-size="13" lengthAdjust="spacing" textLength="140.3594" x="402.1704" y="1320.0356">WHERE m_id=mail_id</text></g><path d="M688,1283.2695 L688,1323.2695 L937,1323.2695 L937,1293.2695 L927,1283.2695 L688,1283.2695" fill="#FFFFFF" style="stroke:#000000;stroke-width:1;"/><path d="M927,1283.2695 L927,1293.2695 L937,1293.2695 L927,1283.2695" fill="#FFFFFF" style="stroke:#000000;stroke-width:1;"/><text fill="#000000" font-family="Verdana" font-size="13" lengthAdjust="spacing" textLength="133.25" x="694" y="1300.3364">Self-reference untuk</text><text fill="#000000" font-family="Verdana" font-size="13" lengthAdjust="spacing" textLength="228.5347" x="694" y="1315.4692">threaded view (root of new thread)</text><rect fill="#FFFFFF" height="3" style="stroke:#FFFFFF;stroke-width:1;" width="1012.9663" x="5" y="1353.668"/><line style="stroke:#000000;stroke-width:0.5;" x1="5" x2="1017.9663" y1="1353.668" y2="1353.668"/><line style="stroke:#000000;stroke-width:0.5;" x1="5" x2="1017.9663" y1="1356.668" y2="1356.668"/><rect fill="#FFFFFF" height="23.1328" style="stroke:#000000;stroke-width:1;" width="263.2407" x="379.8628" y="1343.1016"/><text fill="#000000" font-family="Verdana" font-size="13" font-weight="bold" lengthAdjust="spacing" textLength="244.7148" x="385.8628" y="1359.1685">Step 5: Create Sent Item (Admin)</text><g class="message" data-entity-1="part2" data-entity-2="part3" id="msg19"><polygon fill="#000000" points="671.4043,1423.6328,681.4043,1427.6328,671.4043,1431.6328,675.4043,1427.6328" style="stroke:#000000;stroke-width:1;"/><line style="stroke:#000000;stroke-width:1;" x1="395.1704" x2="677.4043" y1="1427.6328" y2="1427.6328"/><text fill="#000000" font-family="Verdana" font-size="13" lengthAdjust="spacing" textLength="141.0894" x="402.1704" y="1392.3013">INSERT sys_user_task</text><text fill="#000000" font-family="Verdana" font-size="13" lengthAdjust="spacing" textLength="176.5854" x="402.1704" y="1407.4341">(user_id=2, tm_id=mail_id,</text><text fill="#000000" font-family="Verdana" font-size="13" lengthAdjust="spacing" textLength="237.5103" x="402.1704" y="1422.5669">folder_id=SENT, read_status=READ)</text></g><rect fill="#FFFFFF" height="3" style="stroke:#FFFFFF;stroke-width:1;" width="1012.9663" x="5" y="1456.1992"/><line style="stroke:#000000;stroke-width:0.5;" x1="5" x2="1017.9663" y1="1456.1992" y2="1456.1992"/><line style="stroke:#000000;stroke-width:0.5;" x1="5" x2="1017.9663" y1="1459.1992" y2="1459.1992"/><rect fill="#FFFFFF" height="23.1328" style="stroke:#000000;stroke-width:1;" width="389.4321" x="316.7671" y="1445.6328"/><text fill="#000000" font-family="Verdana" font-size="13" font-weight="bold" lengthAdjust="spacing" textLength="370.9063" x="322.7671" y="1461.6997">Step 6: Create Inbox untuk SEMUA Karyawan Aktif</text><g class="message" data-entity-1="part2" data-entity-2="part3" id="msg20"><polygon fill="#000000" points="671.4043,1556.4297,681.4043,1560.4297,671.4043,1564.4297,675.4043,1560.4297" style="stroke:#000000;stroke-width:1;"/><line style="stroke:#000000;stroke-width:1;" x1="395.1704" x2="677.4043" y1="1560.4297" y2="1560.4297"/><text fill="#000000" font-family="Verdana" font-size="13" lengthAdjust="spacing" textLength="174.2622" x="402.1704" y="1494.8325">SELECT * FROM sys_user u</text><text fill="#000000" font-family="Verdana" font-size="13" lengthAdjust="spacing" textLength="108.0562" x="402.1704" y="1509.9653">JOIN employee e</text><text fill="#000000" font-family="Verdana" font-size="13" lengthAdjust="spacing" textLength="120.9038" x="402.1704" y="1525.0981">JOIN emp_profile p</text><text fill="#000000" font-family="Verdana" font-size="13" lengthAdjust="spacing" textLength="102.4067" x="402.1704" y="1540.231">JOIN position ps</text><text fill="#000000" font-family="Verdana" font-size="13" lengthAdjust="spacing" textLength="146.1865" x="402.1704" y="1555.3638">WHERE user_status=1</text></g><path d="M688,1488.332 L688,1558.332 L1007,1558.332 L1007,1498.332 L997,1488.332 L688,1488.332" fill="#FFA500" style="stroke:#000000;stroke-width:1;"/><path d="M997,1488.332 L997,1498.332 L1007,1498.332 L997,1488.332" fill="#FFA500" style="stroke:#000000;stroke-width:1;"/><text fill="#000000" font-family="Verdana" font-size="13" font-weight="bold" lengthAdjust="spacing" textLength="59.2744" x="694" y="1505.3989">Migrasi:</text><text fill="#000000" font-family="Verdana" font-size="13" lengthAdjust="spacing" textLength="235.1553" x="757.4067" y="1505.3989">Query ini JOIN tabel employee lokal.</text><text fill="#000000" font-family="Verdana" font-size="13" lengthAdjust="spacing" textLength="192.6514" x="694" y="1520.5317">Di Spring Boot, ganti dengan:</text><text fill="#000000" font-family="Verdana" font-size="13" lengthAdjust="spacing" textLength="194.0098" x="694" y="1535.6646">GET /pegawai?status=ACTIVE</text><text fill="#000000" font-family="Verdana" font-size="13" lengthAdjust="spacing" textLength="141.4131" x="694" y="1550.7974">dari Kepegawaian API</text><g class="message" data-entity-1="part3" data-entity-2="part2" id="msg22"><polygon fill="#000000" points="406.1704,1585.5625,396.1704,1589.5625,406.1704,1593.5625,402.1704,1589.5625" style="stroke:#000000;stroke-width:1;"/><line style="stroke:#000000;stroke-width:1;stroke-dasharray:2,2;" x1="400.1704" x2="682.4043" y1="1589.5625" y2="1589.5625"/><text fill="#000000" font-family="Verdana" font-size="13" lengthAdjust="spacing" textLength="98.0967" x="412.1704" y="1584.4966">all active users</text></g><path d="M332.9346,1604.5625 L409.5586,1604.5625 L409.5586,1611.6953 L399.5586,1621.6953 L332.9346,1621.6953 L332.9346,1604.5625" fill="#FFFFFF" style="stroke:#000000;stroke-width:1;"/><rect fill="none" height="151.0625" style="stroke:#000000;stroke-width:1;" width="396.8701" x="332.9346" y="1604.5625"/><text fill="#000000" font-family="Verdana" font-size="13" font-weight="bold" lengthAdjust="spacing" textLength="31.624" x="347.9346" y="1617.6294">loop</text><text fill="#000000" font-family="Verdana" font-size="11" font-weight="bold" lengthAdjust="spacing" textLength="151.7603" x="424.5586" y="1616.7729">[untuk setiap user aktif]</text><g class="message" data-entity-1="part2" data-entity-2="part3" id="msg23"><polygon fill="#000000" points="671.4043,1684.2266,681.4043,1688.2266,671.4043,1692.2266,675.4043,1688.2266" style="stroke:#000000;stroke-width:1;"/><line style="stroke:#000000;stroke-width:1;" x1="395.1704" x2="677.4043" y1="1688.2266" y2="1688.2266"/><text fill="#000000" font-family="Verdana" font-size="13" lengthAdjust="spacing" textLength="142.7842" x="402.1704" y="1637.7622">INSERT mail_recipient</text><text fill="#000000" font-family="Verdana" font-size="13" lengthAdjust="spacing" textLength="165.9468" x="402.1704" y="1652.895">(mail_id, user_id, emp_id,</text><text fill="#000000" font-family="Verdana" font-size="13" lengthAdjust="spacing" textLength="200.6304" x="402.1704" y="1668.0278">emp_name, pos_id, pos_name,</text><text fill="#000000" font-family="Verdana" font-size="13" lengthAdjust="spacing" textLength="209.1235" x="402.1704" y="1683.1606">circulation=4, email=0, sms=0)</text></g><g class="message" data-entity-1="part2" data-entity-2="part3" id="msg24"><polygon fill="#000000" points="671.4043,1743.625,681.4043,1747.625,671.4043,1751.625,675.4043,1747.625" style="stroke:#000000;stroke-width:1;"/><line style="stroke:#000000;stroke-width:1;" x1="395.1704" x2="677.4043" y1="1747.625" y2="1747.625"/><text fill="#000000" font-family="Verdana" font-size="13" lengthAdjust="spacing" textLength="141.0894" x="402.1704" y="1712.2935">INSERT sys_user_task</text><text fill="#000000" font-family="Verdana" font-size="13" lengthAdjust="spacing" textLength="157.4219" x="402.1704" y="1727.4263">(user_id, tm_id=mail_id,</text><text fill="#000000" font-family="Verdana" font-size="13" lengthAdjust="spacing" textLength="264.2339" x="402.1704" y="1742.5591">folder_id=INBOX, read_status=UNREAD)</text></g><?plantuml-src bLRRRkCs47tNLqnbe8XJ9vlRRXS6rCAttRg9dTHsUW4C2BGqbhcMI9MaDkktFlK3YdxXVac7b2mxRf9s_M9oPZYtCnTzPLQO8UGfuy8ptAG8aK9cCCoBHSeZPhWKOSPu6Wff-FAe2P__-1l6zipNJ7EuitBkr6Mgc0ihcyaOqzDybRSlBxyzkRgwyBoSASCZdZDXmE-nD4Kr5qTtEoCmad6HOjC7fg4KUFneH8f7Lh6JS2SlPeOjc4Rm-zN9CVlTnq-lCSU4FJ3E17JkXcJOC9MWWOmdYbmlZHB7yqhBSF9TQG7Q_v6FFNBJyu80fWPpE6_31BLCFoBqReQ3yIpitVO7q9DYoHC80izBb2poHyokOY9QSP5u02mrq1rDwGIL7tiEPQ7Pv1YSj-X4bZ6HQXEyVKEfhwzXHBA1V_NszUcvFnSAbnKb2qMHBL25IwaoPi95fdsoWYdbS3hgVu71yoVidPsTlMXDPt5jhNit_W9hbqzOwxqSMPexMoBsdZ1IQ9BaSN01Hvquuu9hevYHgkdP1pME5sruZmA9XLJpcLGmBUZY4AnrzhkaS3gu6VHcOF2JWNUJsn7eZGx9ErGe8foBNtuOJ0RWNDtwxD73apsVX0mDPjIA1lUqRxaJ94xaMZN2bKnZLBez5msf4gUjyVdFlmW0lmKDcpzt7LA66gE9FI-Ab8fVoOmzS1BvZNwMRDYg42Jaaci91ra-39EQ9gHC2Hrg_BsmeHtDnQmplGv7dU5D2yY34_-R0oKjk6mU1hjz3YLgBmJS8D46a6lrcxcmjpN9WNPmBBbWwGwropRSI1R3r_2EfodCggG-Zrg6MhC4I-0odTGuR77Rtbt978RoFq2BMSgoMj32vcPjOmiM_PTZ9WuNcr2m31iaiqUgnTsyqIkYqkp3nYxegpOC1LMr0JieduXrE9uE9XGhSMa0Khj8ss5MIwlgkVsEQzc6qyNY0qOcy7T3Va53tdVCI0g3mjX7sZ1Jw61AiwnarOu75wyUzPTZ6qalLE1FCIiON3EreTai_7_LY1kpF3uCvFwktvaD79S0d5cDIafZiQbUM9ze0P1tbdYsHJ7R4_5eV2CedgmCpOSffikJkbkX4APO4zciA90OO_Z8yG6Eh1MGIn1qALbkN81LjGFYTHjwBdxIIijdIAXNGwRvF2fsMhYPP9XU4pprV6g1sNURyhTqlMzfBjzW_TWYC1bq-djhw4tjob0ivASoBihPwBvJfnqwQzfZp_V6yMwSMQU0LloFjyCns5gM6qJ07I7CbLno-eR8ArekDNVBFTTR45nabRldUoX0uvRcIeAKzkFZKRcNsyV7y5E1QWDKGU0qqfOd7slZgLopz9JUz3bCSqNR4xg4KWiIMlmSOXHqQ1F__M06hwglWEyhyvtURFZpW9WnKnmEFX9so1vK9NqW08iCfzrkOz6UbqgPLxdLQ3ZB7GEOJUp-yZbiGzeFz8N2gKfiGsvBjuA-vHBg4BS7EnDQDf-EPVyTPIuYhYAQxJRBmPLzH7g2inReJ0TdL0lFs7-cu5ugj-6uU_lhutgx7vSLPvVcFm00?></g></svg>