<?plantuml 1.2026.2?><svg xmlns="http://www.w3.org/2000/svg" xmlns:xlink="http://www.w3.org/1999/xlink" contentStyleType="text/css" data-diagram-type="ACTIVITY" height="1291px" preserveAspectRatio="none" style="width:742px;height:1291px;background:#FFFFFF;" version="1.1" viewBox="0 0 742 1291" width="742px" zoomAndPan="magnify"><title>signMe() + checkSign() &#8212; Verifikasi Cetak Surat
direct/mail.php:395-419</title><defs/><g><g class="title" data-source-line="2"><text fill="#000000" font-family="Verdana" font-size="22" font-weight="bold" lengthAdjust="spacing" textLength="597.8994" x="70.8563" y="35.4209">signMe() + checkSign() &#8212; Verifikasi Cetak Surat</text><text fill="#000000" font-family="Verdana" font-size="22" font-weight="bold" lengthAdjust="spacing" textLength="298.7939" x="220.4091" y="61.0303">direct/mail.php:395-419</text></g><ellipse cx="368.7537" cy="87.2188" fill="#FFFFFF" rx="10" ry="10" style="stroke:#000000;stroke-width:1;"/><rect fill="#FFFFFF" height="33.9688" rx="12.5" ry="12.5" style="stroke:#000000;stroke-width:1;" width="254.2871" x="241.6101" y="117.2188"/><text fill="#000000" font-family="Verdana" font-size="12" lengthAdjust="spacing" textLength="234.2871" x="251.6101" y="138.3574">signMe() &#8212; Generate Verification Code</text><rect fill="#FFFFFF" height="33.9688" rx="12.5" ry="12.5" style="stroke:#000000;stroke-width:1;" width="165.1602" x="286.1736" y="171.1875"/><text fill="#000000" font-family="Verdana" font-size="12" lengthAdjust="spacing" textLength="145.1602" x="296.1736" y="192.3262">direct/mail.php:395-405</text><rect fill="#FFFFFF" height="33.9688" rx="12.5" ry="12.5" style="stroke:#000000;stroke-width:1;" width="227.6211" x="254.9431" y="225.1563"/><text fill="#000000" font-family="Verdana" font-size="12" lengthAdjust="spacing" textLength="207.6211" x="264.9431" y="246.2949">User mencetak surat (print action)</text><rect fill="#ADD8E6" height="311.3047" style="stroke:#000000;stroke-width:1;" width="479.2441" x="257.3679" y="269.125"/><path d="M410.3074,269.125 L410.3074,278.4219 L400.3074,288.4219 L257.3679,288.4219" fill="none" style="stroke:#000000;stroke-width:1;"/><text fill="#000000" font-family="Verdana" font-size="14" lengthAdjust="spacing" textLength="142.9395" x="260.3679" y="283.1201">Generate Auth Code</text><path d="M461.9382,298.4219 L461.9382,367.5195 L441.9382,371.5195 L461.9382,375.5195 L461.9382,444.6172 A0,0 0 0 0 461.9382,444.6172 L726.6121,444.6172 A0,0 0 0 0 726.6121,444.6172 L726.6121,308.4219 L716.6121,298.4219 L461.9382,298.4219 A0,0 0 0 0 461.9382,298.4219" fill="#FFFFFF" style="stroke:#000000;stroke-width:1;"/><path d="M716.6121,298.4219 L716.6121,308.4219 L726.6121,308.4219 L716.6121,298.4219" fill="#FFFFFF" style="stroke:#000000;stroke-width:1;"/><text fill="#000000" font-family="Verdana" font-size="13" lengthAdjust="spacing" textLength="175.1572" x="467.9382" y="315.4888">PHP uniqid() menghasilkan</text><text fill="#000000" font-family="Verdana" font-size="13" lengthAdjust="spacing" textLength="200.0464" x="467.9382" y="330.6216">unique ID berbasis timestamp.</text><text fill="#000000" font-family="Verdana" font-size="13" lengthAdjust="spacing" textLength="170.2441" x="467.9382" y="345.7544">Contoh: "65f8a3b2e4d01"</text><text fill="#000000" font-family="Verdana" font-size="13" lengthAdjust="spacing" textLength="4.1323" x="467.9382" y="360.8872">&#160;</text><text fill="#000000" font-family="Verdana" font-size="13" lengthAdjust="spacing" textLength="11.6543" x="467.9382" y="376.02">&#9888;&#65039;</text><text fill="#000000" font-family="Verdana" font-size="13" font-weight="bold" lengthAdjust="spacing" textLength="59.2744" x="483.7249" y="376.02">Migrasi:</text><text fill="#000000" font-family="Verdana" font-size="13" lengthAdjust="spacing" textLength="104.5776" x="547.1316" y="376.02">Ini bukan digital</text><text fill="#000000" font-family="Verdana" font-size="13" lengthAdjust="spacing" textLength="210.4629" x="467.9382" y="391.1528">signature sesungguhnya. Hanya</text><text fill="#000000" font-family="Verdana" font-size="13" lengthAdjust="spacing" textLength="147.145" x="467.9382" y="406.2856">print verification code.</text><text fill="#000000" font-family="Verdana" font-size="13" lengthAdjust="spacing" textLength="195.7109" x="467.9382" y="421.4185">Di Spring Boot: gunakan UUID</text><text fill="#000000" font-family="Verdana" font-size="13" lengthAdjust="spacing" textLength="243.6738" x="467.9382" y="436.5513">atau JWT untuk keamanan lebih baik.</text><rect fill="#FFFFFF" height="33.9688" rx="12.5" ry="12.5" style="stroke:#000000;stroke-width:1;" width="146.3691" x="295.5691" y="354.5352"/><text fill="#000000" font-family="Verdana" font-size="12" lengthAdjust="spacing" textLength="126.3691" x="305.5691" y="375.6738">auth_code = uniqid()</text><rect fill="#FFFFFF" height="103.8125" rx="12.5" ry="12.5" style="stroke:#000000;stroke-width:1;" width="202.7715" x="267.3679" y="464.6172"/><text fill="#000000" font-family="Verdana" font-size="12" lengthAdjust="spacing" textLength="103.7285" x="277.3679" y="485.7559">INSERT print_log:</text><text fill="#000000" font-family="Verdana" font-size="12" lengthAdjust="spacing" textLength="182.7715" x="277.3679" y="499.7246">- auth_code = generated code</text><text fill="#000000" font-family="Verdana" font-size="12" lengthAdjust="spacing" textLength="87.0117" x="277.3679" y="513.6934">- date = now()</text><text fill="#000000" font-family="Verdana" font-size="12" lengthAdjust="spacing" textLength="111.1523" x="277.3679" y="527.6621">- mail_id = id_mail</text><text fill="#000000" font-family="Verdana" font-size="12" lengthAdjust="spacing" textLength="176.7363" x="277.3679" y="541.6309">- username = user_full_name</text><text fill="#000000" font-family="Verdana" font-size="12" lengthAdjust="spacing" textLength="137.7363" x="277.3679" y="555.5996">- ip_address = client IP</text><path d="M481.8982,590.4297 L481.8982,614.1289 L461.8982,618.1289 L481.8982,622.1289 L481.8982,645.8281 A0,0 0 0 0 481.8982,645.8281 L710.1238,645.8281 A0,0 0 0 0 710.1238,645.8281 L710.1238,600.4297 L700.1238,590.4297 L481.8982,590.4297 A0,0 0 0 0 481.8982,590.4297" fill="#FFFFFF" style="stroke:#000000;stroke-width:1;"/><path d="M700.1238,590.4297 L700.1238,600.4297 L710.1238,600.4297 L700.1238,590.4297" fill="#FFFFFF" style="stroke:#000000;stroke-width:1;"/><text fill="#000000" font-family="Verdana" font-size="13" lengthAdjust="spacing" textLength="149.8047" x="487.8982" y="607.4966">Code ini ditampilkan di</text><text fill="#000000" font-family="Verdana" font-size="13" lengthAdjust="spacing" textLength="175.2969" x="487.8982" y="622.6294">hasil cetak surat (biasanya</text><text fill="#000000" font-family="Verdana" font-size="13" lengthAdjust="spacing" textLength="207.2256" x="487.8982" y="637.7622">di footer atau sebagai QR code)</text><rect fill="#FFFFFF" height="33.9688" rx="12.5" ry="12.5" style="stroke:#000000;stroke-width:1;" width="186.2891" x="275.6091" y="601.1445"/><text fill="#000000" font-family="Verdana" font-size="12" lengthAdjust="spacing" textLength="166.2891" x="285.6091" y="622.2832">Return { code: auth_code }</text><ellipse cx="368.7537" cy="676.8281" fill="none" rx="11" ry="11" style="stroke:#000000;stroke-width:1;"/><ellipse cx="368.7537" cy="676.8281" fill="#FFFFFF" rx="6" ry="6" style="stroke:#000000;stroke-width:1;"/><rect fill="#FFFFFF" height="33.9688" rx="12.5" ry="12.5" style="stroke:#000000;stroke-width:1;" width="258.0957" x="239.7058" y="697.8281"/><text fill="#000000" font-family="Verdana" font-size="12" lengthAdjust="spacing" textLength="238.0957" x="249.7058" y="718.9668">checkSign() &#8212; Verify Printed Document</text><rect fill="#FFFFFF" height="33.9688" rx="12.5" ry="12.5" style="stroke:#000000;stroke-width:1;" width="165.1602" x="286.1736" y="751.7969"/><text fill="#000000" font-family="Verdana" font-size="12" lengthAdjust="spacing" textLength="145.1602" x="296.1736" y="772.9355">direct/mail.php:410-419</text><ellipse cx="368.7537" cy="815.7656" fill="#FFFFFF" rx="10" ry="10" style="stroke:#000000;stroke-width:1;"/><rect fill="#FFFFFF" height="33.9688" rx="12.5" ry="12.5" style="stroke:#000000;stroke-width:1;" width="242.8086" x="247.3494" y="845.7656"/><text fill="#000000" font-family="Verdana" font-size="12" lengthAdjust="spacing" textLength="222.8086" x="257.3494" y="866.9043">Input: key (auth_code dari dokumen)</text><rect fill="#ADD8E6" height="138.1406" style="stroke:#000000;stroke-width:1;" width="251.1367" x="243.1853" y="889.7344"/><path d="M388.1814,889.7344 L388.1814,899.0313 L378.1814,909.0313 L243.1853,909.0313" fill="none" style="stroke:#000000;stroke-width:1;"/><text fill="#000000" font-family="Verdana" font-size="14" lengthAdjust="spacing" textLength="134.9961" x="246.1853" y="903.7295">Lookup Verification</text><rect fill="#FFFFFF" height="89.8438" rx="12.5" ry="12.5" style="stroke:#000000;stroke-width:1;" width="231.1367" x="253.1853" y="926.0313"/><text fill="#000000" font-family="Verdana" font-size="12" lengthAdjust="spacing" textLength="190.1309" x="263.1853" y="947.1699">SELECT s.*, print_date, m_date,</text><text fill="#000000" font-family="Verdana" font-size="12" lengthAdjust="spacing" textLength="132.4453" x="263.1853" y="961.1387">m_subject, m_content</text><text fill="#000000" font-family="Verdana" font-size="12" lengthAdjust="spacing" textLength="101.4082" x="263.1853" y="975.1074">FROM print_log s</text><text fill="#000000" font-family="Verdana" font-size="12" lengthAdjust="spacing" textLength="211.1367" x="263.1853" y="989.0762">JOIN mail m ON m.m_id = s.mail_id</text><text fill="#000000" font-family="Verdana" font-size="12" lengthAdjust="spacing" textLength="159.5977" x="263.1853" y="1003.0449">WHERE s.auth_code = key</text><polygon fill="#FFFFFF" points="316.8555,1047.875,420.6519,1047.875,432.6519,1059.875,420.6519,1071.875,316.8555,1071.875,304.8555,1059.875,316.8555,1047.875" style="stroke:#000000;stroke-width:1;"/><text fill="#000000" font-family="Verdana" font-size="11" lengthAdjust="spacing" textLength="103.7964" x="316.8555" y="1063.6831">record ditemukan?</text><text fill="#000000" font-family="Verdana" font-size="11" lengthAdjust="spacing" textLength="19.0083" x="285.8472" y="1057.2808">yes</text><text fill="#000000" font-family="Verdana" font-size="11" lengthAdjust="spacing" textLength="13.7017" x="432.6519" y="1057.2808">no</text><path d="M282.3906,1089.7852 L282.3906,1143.75 L262.3906,1147.75 L282.3906,1151.75 L282.3906,1205.7148 A0,0 0 0 0 282.3906,1205.7148 L513.9741,1205.7148 A0,0 0 0 0 513.9741,1205.7148 L513.9741,1099.7852 L503.9741,1089.7852 L282.3906,1089.7852 A0,0 0 0 0 282.3906,1089.7852" fill="#FFFFFF" style="stroke:#000000;stroke-width:1;"/><path d="M503.9741,1089.7852 L503.9741,1099.7852 L513.9741,1099.7852 L503.9741,1089.7852" fill="#FFFFFF" style="stroke:#000000;stroke-width:1;"/><text fill="#000000" font-family="Verdana" font-size="13" lengthAdjust="spacing" textLength="161.5542" x="288.3906" y="1106.8521">Halaman ini bisa diakses</text><text fill="#000000" font-family="Verdana" font-size="13" lengthAdjust="spacing" textLength="143.8188" x="288.3906" y="1121.9849">publik untuk verifikasi</text><text fill="#000000" font-family="Verdana" font-size="13" lengthAdjust="spacing" textLength="162.7031" x="288.3906" y="1137.1177">keaslian dokumen cetak.</text><text fill="#000000" font-family="Verdana" font-size="13" lengthAdjust="spacing" textLength="4.1323" x="288.3906" y="1152.2505">&#160;</text><text fill="#000000" font-family="Verdana" font-size="13" font-weight="bold" lengthAdjust="spacing" textLength="59.2744" x="288.3906" y="1167.3833">Migrasi:</text><text fill="#000000" font-family="Verdana" font-size="13" lengthAdjust="spacing" textLength="47.0933" x="351.7974" y="1167.3833">Map ke</text><text fill="#000000" font-family="Verdana" font-size="13" lengthAdjust="spacing" textLength="210.5835" x="288.3906" y="1182.5161">GET /api/mails/verify-sign/{key}</text><text fill="#000000" font-family="Verdana" font-size="13" lengthAdjust="spacing" textLength="207.124" x="288.3906" y="1197.6489">Return JSON, bukan HTML view.</text><rect fill="#FFFFFF" height="131.75" rx="12.5" ry="12.5" style="stroke:#000000;stroke-width:1;" width="256.3906" x="6" y="1081.875"/><text fill="#000000" font-family="Verdana" font-size="12" lengthAdjust="spacing" textLength="204.4277" x="16" y="1103.0137">Render view "cek_signature.html"</text><text fill="#000000" font-family="Verdana" font-size="12" lengthAdjust="spacing" textLength="80.0684" x="16" y="1116.9824">dengan data:</text><text fill="#000000" font-family="Verdana" font-size="12" lengthAdjust="spacing" textLength="236.3906" x="16" y="1130.9512">- Informasi penandatangan (username)</text><text fill="#000000" font-family="Verdana" font-size="12" lengthAdjust="spacing" textLength="167.5898" x="16" y="1144.9199">- Tanggal cetak (print_date)</text><text fill="#000000" font-family="Verdana" font-size="12" lengthAdjust="spacing" textLength="148.9453" x="16" y="1158.8887">- Tanggal surat (m_date)</text><text fill="#000000" font-family="Verdana" font-size="12" lengthAdjust="spacing" textLength="158.3496" x="16" y="1172.8574">- Perihal surat (m_subject)</text><text fill="#000000" font-family="Verdana" font-size="12" lengthAdjust="spacing" textLength="132.7441" x="16" y="1186.8262">- Isi surat (m_content)</text><text fill="#000000" font-family="Verdana" font-size="12" lengthAdjust="spacing" textLength="130.9805" x="16" y="1200.7949">- Kode verifikasi (key)</text><rect fill="#FFC0CB" height="47.9375" rx="12.5" ry="12.5" style="stroke:#000000;stroke-width:1;" width="138.6758" x="533.9741" y="1081.875"/><text fill="#000000" font-family="Verdana" font-size="12" lengthAdjust="spacing" textLength="118.6758" x="543.9741" y="1103.0137">Tampilkan halaman</text><text fill="#000000" font-family="Verdana" font-size="12" lengthAdjust="spacing" textLength="107.5781" x="543.9741" y="1116.9824">"Kode tidak valid"</text><polygon fill="#FFFFFF" points="368.7537,1219.625,380.7537,1231.625,368.7537,1243.625,356.7537,1231.625,368.7537,1219.625" style="stroke:#000000;stroke-width:1;"/><ellipse cx="368.7537" cy="1274.625" fill="none" rx="11" ry="11" style="stroke:#000000;stroke-width:1;"/><ellipse cx="368.7537" cy="1274.625" fill="#FFFFFF" rx="6" ry="6" style="stroke:#000000;stroke-width:1;"/><line style="stroke:#000000;stroke-width:1;" x1="368.7537" x2="368.7537" y1="97.2188" y2="117.2188"/><polygon fill="#000000" points="364.7537,107.2188,368.7537,117.2188,372.7537,107.2188,368.7537,111.2188" style="stroke:#000000;stroke-width:1;"/><line style="stroke:#000000;stroke-width:1;" x1="368.7537" x2="368.7537" y1="151.1875" y2="171.1875"/><polygon fill="#000000" points="364.7537,161.1875,368.7537,171.1875,372.7537,161.1875,368.7537,165.1875" style="stroke:#000000;stroke-width:1;"/><line style="stroke:#000000;stroke-width:1;" x1="368.7537" x2="368.7537" y1="205.1563" y2="225.1563"/><polygon fill="#000000" points="364.7537,215.1563,368.7537,225.1563,372.7537,215.1563,368.7537,219.1563" style="stroke:#000000;stroke-width:1;"/><line style="stroke:#000000;stroke-width:1;" x1="368.7537" x2="368.7537" y1="388.5039" y2="464.6172"/><polygon fill="#000000" points="364.7537,454.6172,368.7537,464.6172,372.7537,454.6172,368.7537,458.6172" style="stroke:#000000;stroke-width:1;"/><line style="stroke:#000000;stroke-width:1;" x1="368.7537" x2="368.7537" y1="259.125" y2="354.5352"/><polygon fill="#000000" points="364.7537,344.5352,368.7537,354.5352,372.7537,344.5352,368.7537,348.5352" style="stroke:#000000;stroke-width:1;"/><line style="stroke:#000000;stroke-width:1;" x1="368.7537" x2="368.7537" y1="568.4297" y2="601.1445"/><polygon fill="#000000" points="364.7537,591.1445,368.7537,601.1445,372.7537,591.1445,368.7537,595.1445" style="stroke:#000000;stroke-width:1;"/><line style="stroke:#000000;stroke-width:1;" x1="368.7537" x2="368.7537" y1="635.1133" y2="665.8281"/><polygon fill="#000000" points="364.7537,655.8281,368.7537,665.8281,372.7537,655.8281,368.7537,659.8281" style="stroke:#000000;stroke-width:1;"/><line style="stroke:#000000;stroke-width:1;" x1="368.7537" x2="368.7537" y1="731.7969" y2="751.7969"/><polygon fill="#000000" points="364.7537,741.7969,368.7537,751.7969,372.7537,741.7969,368.7537,745.7969" style="stroke:#000000;stroke-width:1;"/><line style="stroke:#000000;stroke-width:1;" x1="368.7537" x2="368.7537" y1="785.7656" y2="805.7656"/><polygon fill="#000000" points="364.7537,795.7656,368.7537,805.7656,372.7537,795.7656,368.7537,799.7656" style="stroke:#000000;stroke-width:1;"/><line style="stroke:#000000;stroke-width:1;" x1="368.7537" x2="368.7537" y1="825.7656" y2="845.7656"/><polygon fill="#000000" points="364.7537,835.7656,368.7537,845.7656,372.7537,835.7656,368.7537,839.7656" style="stroke:#000000;stroke-width:1;"/><line style="stroke:#000000;stroke-width:1;" x1="368.7537" x2="368.7537" y1="879.7344" y2="926.0313"/><polygon fill="#000000" points="364.7537,916.0313,368.7537,926.0313,372.7537,916.0313,368.7537,920.0313" style="stroke:#000000;stroke-width:1;"/><line style="stroke:#000000;stroke-width:1;" x1="304.8555" x2="134.1953" y1="1059.875" y2="1059.875"/><line style="stroke:#000000;stroke-width:1;" x1="134.1953" x2="134.1953" y1="1059.875" y2="1081.875"/><polygon fill="#000000" points="130.1953,1071.875,134.1953,1081.875,138.1953,1071.875,134.1953,1075.875" style="stroke:#000000;stroke-width:1;"/><line style="stroke:#000000;stroke-width:1;" x1="432.6519" x2="603.312" y1="1059.875" y2="1059.875"/><line style="stroke:#000000;stroke-width:1;" x1="603.312" x2="603.312" y1="1059.875" y2="1081.875"/><polygon fill="#000000" points="599.312,1071.875,603.312,1081.875,607.312,1071.875,603.312,1075.875" style="stroke:#000000;stroke-width:1;"/><line style="stroke:#000000;stroke-width:1;" x1="134.1953" x2="134.1953" y1="1213.625" y2="1231.625"/><line style="stroke:#000000;stroke-width:1;" x1="134.1953" x2="356.7537" y1="1231.625" y2="1231.625"/><polygon fill="#000000" points="346.7537,1227.625,356.7537,1231.625,346.7537,1235.625,350.7537,1231.625" style="stroke:#000000;stroke-width:1;"/><line style="stroke:#000000;stroke-width:1;" x1="603.312" x2="603.312" y1="1129.8125" y2="1231.625"/><line style="stroke:#000000;stroke-width:1;" x1="603.312" x2="380.7537" y1="1231.625" y2="1231.625"/><polygon fill="#000000" points="390.7537,1227.625,380.7537,1231.625,390.7537,1235.625,386.7537,1231.625" style="stroke:#000000;stroke-width:1;"/><line style="stroke:#000000;stroke-width:1;" x1="368.7537" x2="368.7537" y1="1015.875" y2="1047.875"/><polygon fill="#000000" points="364.7537,1037.875,368.7537,1047.875,372.7537,1037.875,368.7537,1041.875" style="stroke:#000000;stroke-width:1;"/><line style="stroke:#000000;stroke-width:1;" x1="368.7537" x2="368.7537" y1="1243.625" y2="1263.625"/><polygon fill="#000000" points="364.7537,1253.625,368.7537,1263.625,372.7537,1253.625,368.7537,1257.625" style="stroke:#000000;stroke-width:1;"/><?plantuml-src RLJDSkD44BxhAHhlHJQ9ax09nSgxIx69MIl4YR4TzaALQwGPIusaaT2CikLAfOetuCA94u_1y-mBy0fqZxJ-WPmazTVgd-_hxYzigWe5LIvGUnPjhi1WegVAxyEN4ASgpXRqJL-VVli3Vb8rhZ4J1k5IMP71egc5_LbBh5LiJmg1-R1Ag-3bgulZyxDNdcUigAtd1TkO7EMzqef-KrsuM5WiDLoMKesyuDbGfnSZ2d9lL0s5qh5BRJWr-5MDseA8EKQVl2fAY2vWRvldkyQcBduFNjnWajftUQFWqGC8146hc21u0ut6Nr7w50L0b_HVpRxq0J2RpBOmbv2an46U2UrGHYXWU0MHgYD235Wi53LVL4FdSLbgMwO1zBw-M7yZNaPVgNDvUjRp7FZfpx_--Vjt60occDJqTp0OGAWHeeOIWCG4hSYT9zCeR5EJICeqEacQL6_442Q27iwZfUDXdrZkhgtY2c713WcyAqiRGD9emIdkxyChvo2iQE3wmv8wiaq6cHA5qEIGgmXJY0Hc74XfwVZXweFmTZ6UBzkygxnC0Z8UmpwjIIU3T9KuMB8gRoZ8Hx_l32pt2YNPKAxumraR4boBmcb3hwjra-ShDZWKgvMGibR641xdgAZnS3RodcXKvefOql3eKWPxvJoDl0DfUIe0YMo9h9RJbDu9SGh3mQn5A4p7j4HO4uSqa8upeoAH28GVvovZtzjnP6nPKKNFhj86PimRKNDLnWtDbNrc0yxFJdcPHhjj2dNLa7oPse2_QqsAcjeeCuxpdqsuASbS7UpR_rTXCRuPNox130T7dPmiqn4KxPDSYfLfeb-eE3R6DD9KC9c_dzzDTmC0XapNT-6j4nKAkAEtOT6gQuQTqkJpOJAUZycoFolKaXCGr-0J2sKjMHXLy2PysmSwLXhyZJ8yDIIobYJ00wgFq8jLjjgknp2rHTvZcMXLML0IgHtCKA_Bkk03LYcQR0QSX_zvrjfvN98r4P_bztTq7CBTN1Hxq8muJlUXZh8M3Idn5kaOR94Vc827tNtrYOhdBj54vBoKRcOZD8Bu4HbTWtRxcoZ7hDlUNJ27qJAR79cCTaJQteRj2JguFLDHaRUplnyluKHKwARHdBYGcsFc-UIH2dnoJjsoNI_kRe-wepLPJc-SC0VtGkL6WQzBfzvoksvfsn8PUuu5Yv98Vn0vojxezUiNCzJPsxUyKhZkzkbV?></g></svg>