<?plantuml 1.2026.2?><svg xmlns="http://www.w3.org/2000/svg" xmlns:xlink="http://www.w3.org/1999/xlink" contentStyleType="text/css" data-diagram-type="SEQUENCE" height="1903px" preserveAspectRatio="none" style="width:947px;height:1903px;background:#FFFFFF;" version="1.1" viewBox="0 0 947 1903" width="947px" zoomAndPan="magnify"><title>Archive Access Control &#8212; Permission &amp; Notification Workflow
mailarchivemodel.php:401-590</title><defs/><g><text fill="#000000" font-family="Verdana" font-size="22" font-weight="bold" lengthAdjust="spacing" textLength="763.0391" x="90.9172" y="35.4209">Archive Access Control &#8212; Permission &amp; Notification Workflow</text><text fill="#000000" font-family="Verdana" font-size="22" font-weight="bold" lengthAdjust="spacing" textLength="385.5908" x="279.6414" y="61.0303">mailarchivemodel.php:401-590</text><rect fill="#FFFFFF" height="185.7344" style="stroke:#000000;stroke-width:1;" width="707.7051" x="223.1685" y="337.3125"/><rect fill="#FFFFFF" height="154.6016" style="stroke:#000000;stroke-width:1;" width="687.7051" x="233.1685" y="361.4453"/><rect fill="#FFFFFF" height="56.9375" style="stroke:none;stroke-width:1;" width="687.7051" x="233.1685" y="459.1094"/><rect fill="#FFFFFF" height="541.8594" style="stroke:#000000;stroke-width:1;" width="693.0356" x="213.1685" y="936.9063"/><rect fill="#FFFFFF" height="259.1328" style="stroke:#000000;stroke-width:1;" width="516.9644" x="223.1685" y="1153.2344"/><rect fill="#FFFFFF" height="183.7344" style="stroke:#000000;stroke-width:1;" width="496.9644" x="233.1685" y="1221.6328"/><rect fill="#FFFFFF" height="56.9375" style="stroke:none;stroke-width:1;" width="496.9644" x="233.1685" y="1348.4297"/><g class="participant-lifeline" data-entity-uid="part1" data-qualified-name="Ctrl" id="part1-lifeline"><g><title>Controller</title><rect fill="#000000" fill-opacity="0.00000" height="1686.1094" width="8" x="84.855" y="139.5156"/><line style="stroke:#000000;stroke-width:1;stroke-dasharray:5,5;" x1="88" x2="88" y1="139.5156" y2="1825.625"/></g></g><g class="participant-lifeline" data-entity-uid="part2" data-qualified-name="Model" id="part2-lifeline"><g><title>MailArchiveModel</title><rect fill="#000000" fill-opacity="0.00000" height="1686.1094" width="8" x="317.75" y="139.5156"/><line style="stroke:#000000;stroke-width:1;stroke-dasharray:5,5;" x1="321.1685" x2="321.1685" y1="139.5156" y2="1825.625"/></g></g><g class="participant-lifeline" data-entity-uid="part3" data-qualified-name="MailModel" id="part3-lifeline"><g><title>MailModel</title><rect fill="#000000" fill-opacity="0.00000" height="1686.1094" width="8" x="513.2065" y="139.5156"/><line style="stroke:#000000;stroke-width:1;stroke-dasharray:5,5;" x1="516.9707" x2="516.9707" y1="139.5156" y2="1825.625"/></g></g><g class="participant-lifeline" data-entity-uid="part4" data-qualified-name="DB" id="part4-lifeline"><g><title>Database</title><rect fill="#000000" fill-opacity="0.00000" height="1686.1094" width="8" x="632.187" y="139.5156"/><line style="stroke:#000000;stroke-width:1;stroke-dasharray:5,5;" x1="635.7866" x2="635.7866" y1="139.5156" y2="1825.625"/></g></g><g class="participant-lifeline" data-entity-uid="part5" data-qualified-name="API" id="part5-lifeline"><g><title>Kepegawaian API</title><rect fill="#000000" fill-opacity="0.00000" height="1686.1094" width="8" x="755.9521" y="139.5156"/><line style="stroke:#000000;stroke-width:1;stroke-dasharray:5,5;" x1="759.5874" x2="759.5874" y1="139.5156" y2="1825.625"/></g></g><g class="participant participant-head" data-entity-uid="part1" data-qualified-name="Ctrl" id="part1-head"><rect fill="#FFFFFF" height="46.5938" rx="2.5" ry="2.5" style="stroke:#000000;stroke-width:1;" width="137.71" x="20" y="91.9219"/><text fill="#000000" font-family="Verdana" font-size="14" lengthAdjust="spacing" textLength="69.1729" x="54.2686" y="111.917">Controller</text><text fill="#000000" font-family="Verdana" font-size="14" lengthAdjust="spacing" textLength="123.71" x="27" y="128.2139">(mailarchive.php)</text></g><g class="participant participant-tail" data-entity-uid="part1" data-qualified-name="Ctrl" id="part1-tail"><rect fill="#FFFFFF" height="46.5938" rx="2.5" ry="2.5" style="stroke:#000000;stroke-width:1;" width="137.71" x="20" y="1824.625"/><text fill="#000000" font-family="Verdana" font-size="14" lengthAdjust="spacing" textLength="69.1729" x="54.2686" y="1844.6201">Controller</text><text fill="#000000" font-family="Verdana" font-size="14" lengthAdjust="spacing" textLength="123.71" x="27" y="1860.917">(mailarchive.php)</text></g><g class="participant participant-head" data-entity-uid="part2" data-qualified-name="Model" id="part2-head"><rect fill="#FFFFFF" height="30.2969" rx="2.5" ry="2.5" style="stroke:#000000;stroke-width:1;" width="137.1631" x="253.1685" y="108.2188"/><text fill="#000000" font-family="Verdana" font-size="14" lengthAdjust="spacing" textLength="123.1631" x="260.1685" y="128.2139">MailArchiveModel</text></g><g class="participant participant-tail" data-entity-uid="part2" data-qualified-name="Model" id="part2-tail"><rect fill="#FFFFFF" height="30.2969" rx="2.5" ry="2.5" style="stroke:#000000;stroke-width:1;" width="137.1631" x="253.1685" y="1824.625"/><text fill="#000000" font-family="Verdana" font-size="14" lengthAdjust="spacing" textLength="123.1631" x="260.1685" y="1844.6201">MailArchiveModel</text></g><g class="participant participant-head" data-entity-uid="part3" data-qualified-name="MailModel" id="part3-head"><rect fill="#FFFFFF" height="30.2969" rx="2.5" ry="2.5" style="stroke:#000000;stroke-width:1;" width="84.4717" x="474.9707" y="108.2188"/><text fill="#000000" font-family="Verdana" font-size="14" lengthAdjust="spacing" textLength="70.4717" x="481.9707" y="128.2139">MailModel</text></g><g class="participant participant-tail" data-entity-uid="part3" data-qualified-name="MailModel" id="part3-tail"><rect fill="#FFFFFF" height="30.2969" rx="2.5" ry="2.5" style="stroke:#000000;stroke-width:1;" width="84.4717" x="474.9707" y="1824.625"/><text fill="#000000" font-family="Verdana" font-size="14" lengthAdjust="spacing" textLength="70.4717" x="481.9707" y="1844.6201">MailModel</text></g><g class="participant participant-head" data-entity-uid="part4" data-qualified-name="DB" id="part4-head"><text fill="#000000" font-family="Verdana" font-size="14" lengthAdjust="spacing" textLength="66.8008" x="599.7866" y="136.2139">Database</text><path d="M618.187,87.2188 C618.187,77.2188 636.187,77.2188 636.187,77.2188 C636.187,77.2188 654.187,77.2188 654.187,87.2188 L654.187,113.2188 C654.187,123.2188 636.187,123.2188 636.187,123.2188 C636.187,123.2188 618.187,123.2188 618.187,113.2188 L618.187,87.2188" fill="#FFFFFF" style="stroke:#000000;stroke-width:1;"/><path d="M618.187,87.2188 C618.187,97.2188 636.187,97.2188 636.187,97.2188 C636.187,97.2188 654.187,97.2188 654.187,87.2188" fill="none" style="stroke:#000000;stroke-width:1;"/></g><g class="participant participant-tail" data-entity-uid="part4" data-qualified-name="DB" id="part4-tail"><text fill="#000000" font-family="Verdana" font-size="14" lengthAdjust="spacing" textLength="66.8008" x="599.7866" y="1837.6201">Database</text><path d="M618.187,1850.9219 C618.187,1840.9219 636.187,1840.9219 636.187,1840.9219 C636.187,1840.9219 654.187,1840.9219 654.187,1850.9219 L654.187,1876.9219 C654.187,1886.9219 636.187,1886.9219 636.187,1886.9219 C636.187,1886.9219 618.187,1886.9219 618.187,1876.9219 L618.187,1850.9219" fill="#FFFFFF" style="stroke:#000000;stroke-width:1;"/><path d="M618.187,1850.9219 C618.187,1860.9219 636.187,1860.9219 636.187,1860.9219 C636.187,1860.9219 654.187,1860.9219 654.187,1850.9219" fill="none" style="stroke:#000000;stroke-width:1;"/></g><g class="participant participant-head" data-entity-uid="part5" data-qualified-name="API" id="part5-head"><rect fill="#FFFFFF" height="46.5938" rx="2.5" ry="2.5" style="stroke:#000000;stroke-width:1;" width="134.7295" x="692.5874" y="91.9219"/><text fill="#000000" font-family="Verdana" font-size="14" lengthAdjust="spacing" textLength="120.7295" x="699.5874" y="111.917">Kepegawaian API</text><text fill="#000000" font-family="Verdana" font-size="14" lengthAdjust="spacing" textLength="110.1201" x="704.8921" y="128.2139">(target migrasi)</text></g><g class="participant participant-tail" data-entity-uid="part5" data-qualified-name="API" id="part5-tail"><rect fill="#FFFFFF" height="46.5938" rx="2.5" ry="2.5" style="stroke:#000000;stroke-width:1;" width="134.7295" x="692.5874" y="1824.625"/><text fill="#000000" font-family="Verdana" font-size="14" lengthAdjust="spacing" textLength="120.7295" x="699.5874" y="1844.6201">Kepegawaian API</text><text fill="#000000" font-family="Verdana" font-size="14" lengthAdjust="spacing" textLength="110.1201" x="704.8921" y="1860.917">(target migrasi)</text></g><rect fill="#FFFFFF" height="3" style="stroke:#FFFFFF;stroke-width:1;" width="935.8735" x="5" y="170.082"/><line style="stroke:#000000;stroke-width:0.5;" x1="5" x2="940.8735" y1="170.082" y2="170.082"/><line style="stroke:#000000;stroke-width:0.5;" x1="5" x2="940.8735" y1="173.082" y2="173.082"/><rect fill="#FFFFFF" height="23.1328" style="stroke:#000000;stroke-width:1;" width="245.5879" x="350.1428" y="159.5156"/><text fill="#000000" font-family="Verdana" font-size="13" font-weight="bold" lengthAdjust="spacing" textLength="227.062" x="356.1428" y="175.5825">Part 1: Set Access (set_access)</text><rect fill="#FFFFFF" height="3" style="stroke:#FFFFFF;stroke-width:1;" width="935.8735" x="5" y="213.2148"/><line style="stroke:#000000;stroke-width:0.5;" x1="5" x2="940.8735" y1="213.2148" y2="213.2148"/><line style="stroke:#000000;stroke-width:0.5;" x1="5" x2="940.8735" y1="216.2148" y2="216.2148"/><rect fill="#FFFFFF" height="23.1328" style="stroke:#000000;stroke-width:1;" width="246.375" x="349.7493" y="202.6484"/><text fill="#000000" font-family="Verdana" font-size="13" font-weight="bold" lengthAdjust="spacing" textLength="227.8491" x="355.7493" y="218.7153">mailarchivemodel.php:401-415</text><g class="message" data-entity-1="part1" data-entity-2="part2" id="msg1"><polygon fill="#000000" points="309.75,252.9141,319.75,256.9141,309.75,260.9141,313.75,256.9141" style="stroke:#000000;stroke-width:1;"/><line style="stroke:#000000;stroke-width:1;" x1="88.855" x2="315.75" y1="256.9141" y2="256.9141"/><text fill="#000000" font-family="Verdana" font-size="13" lengthAdjust="spacing" textLength="208.895" x="95.855" y="251.8481">set_access(access[], archive_id)</text></g><g class="message" data-entity-1="part2" data-entity-2="part4" id="msg2"><polygon fill="#000000" points="624.187,307.7461,634.187,311.7461,624.187,315.7461,628.187,311.7461" style="stroke:#000000;stroke-width:1;"/><line style="stroke:#000000;stroke-width:1;" x1="321.75" x2="630.187" y1="311.7461" y2="311.7461"/><text fill="#000000" font-family="Verdana" font-size="13" lengthAdjust="spacing" textLength="228.7188" x="328.75" y="291.5474">DELETE FROM mail_archive_access</text><text fill="#000000" font-family="Verdana" font-size="13" lengthAdjust="spacing" textLength="183.9614" x="328.75" y="306.6802">WHERE mail_archive_id = id</text></g><path d="M641,269.9141 L641,324.9141 L863,324.9141 L863,279.9141 L853,269.9141 L641,269.9141" fill="#FFFFFF" style="stroke:#000000;stroke-width:1;"/><path d="M853,269.9141 L853,279.9141 L863,279.9141 L853,269.9141" fill="#FFFFFF" style="stroke:#000000;stroke-width:1;"/><text fill="#000000" font-family="Verdana" font-size="13" lengthAdjust="spacing" textLength="183.2188" x="647" y="286.981">Delete-and-reinsert pattern.</text><text fill="#000000" font-family="Verdana" font-size="13" lengthAdjust="spacing" textLength="201.9316" x="647" y="302.1138">Semua permission di-reset lalu</text><text fill="#000000" font-family="Verdana" font-size="13" lengthAdjust="spacing" textLength="165.0708" x="647" y="317.2466">di-insert ulang dari input.</text><path d="M223.1685,337.3125 L299.7925,337.3125 L299.7925,344.4453 L289.7925,354.4453 L223.1685,354.4453 L223.1685,337.3125" fill="#FFFFFF" style="stroke:#000000;stroke-width:1;"/><rect fill="none" height="185.7344" style="stroke:#000000;stroke-width:1;" width="707.7051" x="223.1685" y="337.3125"/><text fill="#000000" font-family="Verdana" font-size="13" font-weight="bold" lengthAdjust="spacing" textLength="31.624" x="238.1685" y="350.3794">loop</text><text fill="#000000" font-family="Verdana" font-size="11" font-weight="bold" lengthAdjust="spacing" textLength="170.1079" x="314.7925" y="349.5229">[untuk setiap access entry]</text><path d="M233.1685,361.4453 L297.6113,361.4453 L297.6113,368.5781 L287.6113,378.5781 L233.1685,378.5781 L233.1685,361.4453" fill="#FFFFFF" style="stroke:#000000;stroke-width:1;"/><rect fill="none" height="154.6016" style="stroke:#000000;stroke-width:1;" width="687.7051" x="233.1685" y="361.4453"/><text fill="#000000" font-family="Verdana" font-size="13" font-weight="bold" lengthAdjust="spacing" textLength="19.4429" x="248.1685" y="374.5122">alt</text><text fill="#000000" font-family="Verdana" font-size="11" font-weight="bold" lengthAdjust="spacing" textLength="78.7241" x="312.6113" y="373.6558">[pos_id != 0]</text><g class="message" data-entity-1="part2" data-entity-2="part4" id="msg4"><polygon fill="#000000" points="624.187,436.543,634.187,440.543,624.187,444.543,628.187,440.543" style="stroke:#000000;stroke-width:1;"/><line style="stroke:#000000;stroke-width:1;" x1="321.75" x2="630.187" y1="440.543" y2="440.543"/><text fill="#000000" font-family="Verdana" font-size="13" lengthAdjust="spacing" textLength="183.79" x="328.75" y="405.2114">INSERT mail_archive_access</text><text fill="#000000" font-family="Verdana" font-size="13" lengthAdjust="spacing" textLength="159.5293" x="328.75" y="420.3442">(mail_archive_id, pos_id,</text><text fill="#000000" font-family="Verdana" font-size="13" lengthAdjust="spacing" textLength="268.4233" x="328.75" y="435.4771">access=0/1, download=0/1, history=0/1)</text></g><path d="M641,383.5781 L641,453.5781 L905,453.5781 L905,393.5781 L895,383.5781 L641,383.5781" fill="#FFFFFF" style="stroke:#000000;stroke-width:1;"/><path d="M895,383.5781 L895,393.5781 L905,393.5781 L895,383.5781" fill="#FFFFFF" style="stroke:#000000;stroke-width:1;"/><text fill="#000000" font-family="Verdana" font-size="13" lengthAdjust="spacing" textLength="129.8223" x="647" y="400.645">3 permission levels:</text><text fill="#000000" font-family="Verdana" font-size="13" lengthAdjust="spacing" textLength="4.6909" x="647" y="415.7778">-</text><text fill="#000000" font-family="Verdana" font-size="13" font-weight="bold" lengthAdjust="spacing" textLength="48.4771" x="655.8232" y="415.7778">access</text><text fill="#000000" font-family="Verdana" font-size="13" lengthAdjust="spacing" textLength="103.854" x="704.3003" y="415.7778">: bisa lihat arsip</text><text fill="#000000" font-family="Verdana" font-size="13" lengthAdjust="spacing" textLength="4.6909" x="647" y="430.9106">-</text><text fill="#000000" font-family="Verdana" font-size="13" font-weight="bold" lengthAdjust="spacing" textLength="70.9668" x="655.8232" y="430.9106">download</text><text fill="#000000" font-family="Verdana" font-size="13" lengthAdjust="spacing" textLength="163.8965" x="726.79" y="430.9106">: bisa download lampiran</text><text fill="#000000" font-family="Verdana" font-size="13" lengthAdjust="spacing" textLength="4.6909" x="647" y="446.0435">-</text><text fill="#000000" font-family="Verdana" font-size="13" font-weight="bold" lengthAdjust="spacing" textLength="51.4795" x="655.8232" y="446.0435">history</text><text fill="#000000" font-family="Verdana" font-size="13" lengthAdjust="spacing" textLength="120.2183" x="707.3027" y="446.0435">: bisa lihat riwayat</text><line style="stroke:#000000;stroke-width:1;stroke-dasharray:2,2;" x1="233.1685" x2="920.8735" y1="460.1094" y2="460.1094"/><text fill="#000000" font-family="Verdana" font-size="11" font-weight="bold" lengthAdjust="spacing" textLength="82.9243" x="238.1685" y="470.3198">[pos_id == 0]</text><g class="message" data-entity-1="part2" data-entity-2="part2" id="msg6"><line style="stroke:#000000;stroke-width:1;" x1="321.75" x2="363.75" y1="495.0469" y2="495.0469"/><line style="stroke:#000000;stroke-width:1;" x1="363.75" x2="363.75" y1="495.0469" y2="508.0469"/><line style="stroke:#000000;stroke-width:1;" x1="322.75" x2="363.75" y1="508.0469" y2="508.0469"/><polygon fill="#000000" points="332.75,504.0469,322.75,508.0469,332.75,512.0469,328.75,508.0469" style="stroke:#000000;stroke-width:1;"/><text fill="#000000" font-family="Verdana" font-size="13" lengthAdjust="spacing" textLength="121.9321" x="328.75" y="489.981">skip (invalid entry)</text></g><rect fill="#FFFFFF" height="3" style="stroke:#FFFFFF;stroke-width:1;" width="935.8735" x="5" y="550.6133"/><line style="stroke:#000000;stroke-width:0.5;" x1="5" x2="940.8735" y1="550.6133" y2="550.6133"/><line style="stroke:#000000;stroke-width:0.5;" x1="5" x2="940.8735" y1="553.6133" y2="553.6133"/><rect fill="#FFFFFF" height="23.1328" style="stroke:#000000;stroke-width:1;" width="290.5864" x="327.6436" y="540.0469"/><text fill="#000000" font-family="Verdana" font-size="13" font-weight="bold" lengthAdjust="spacing" textLength="272.0605" x="333.6436" y="556.1138">Part 2: Queue Notification (set_notif)</text><rect fill="#FFFFFF" height="3" style="stroke:#FFFFFF;stroke-width:1;" width="935.8735" x="5" y="593.7461"/><line style="stroke:#000000;stroke-width:0.5;" x1="5" x2="940.8735" y1="593.7461" y2="593.7461"/><line style="stroke:#000000;stroke-width:0.5;" x1="5" x2="940.8735" y1="596.7461" y2="596.7461"/><rect fill="#FFFFFF" height="23.1328" style="stroke:#000000;stroke-width:1;" width="246.375" x="349.7493" y="583.1797"/><text fill="#000000" font-family="Verdana" font-size="13" font-weight="bold" lengthAdjust="spacing" textLength="227.8491" x="355.7493" y="599.2466">mailarchivemodel.php:417-422</text><g class="message" data-entity-1="part1" data-entity-2="part2" id="msg7"><polygon fill="#000000" points="309.75,633.4453,319.75,637.4453,309.75,641.4453,313.75,637.4453" style="stroke:#000000;stroke-width:1;"/><line style="stroke:#000000;stroke-width:1;" x1="88.855" x2="315.75" y1="637.4453" y2="637.4453"/><text fill="#000000" font-family="Verdana" font-size="13" lengthAdjust="spacing" textLength="132.355" x="95.855" y="632.3794">set_notif(archive_id)</text></g><g class="message" data-entity-1="part2" data-entity-2="part4" id="msg8"><polygon fill="#000000" points="624.187,692.8438,634.187,696.8438,624.187,700.8438,628.187,696.8438" style="stroke:#000000;stroke-width:1;"/><line style="stroke:#000000;stroke-width:1;" x1="321.75" x2="630.187" y1="696.8438" y2="696.8438"/><text fill="#000000" font-family="Verdana" font-size="13" lengthAdjust="spacing" textLength="169.4634" x="328.75" y="661.5122">INSERT mail_archive_notif</text><text fill="#000000" font-family="Verdana" font-size="13" lengthAdjust="spacing" textLength="197.7358" x="328.75" y="676.645">(mail_archive_id, notif_flag=0,</text><text fill="#000000" font-family="Verdana" font-size="13" lengthAdjust="spacing" textLength="125.8105" x="328.75" y="691.7778">insert_date=now())</text></g><path d="M641,655.0117 L641,695.0117 L889,695.0117 L889,665.0117 L879,655.0117 L641,655.0117" fill="#FFFFFF" style="stroke:#000000;stroke-width:1;"/><path d="M879,655.0117 L879,665.0117 L889,665.0117 L879,655.0117" fill="#FFFFFF" style="stroke:#000000;stroke-width:1;"/><text fill="#000000" font-family="Verdana" font-size="13" lengthAdjust="spacing" textLength="162.8555" x="647" y="672.0786">Flag 0 = belum diproses.</text><text fill="#000000" font-family="Verdana" font-size="13" lengthAdjust="spacing" textLength="227.0049" x="647" y="687.2114">Akan di-pickup oleh scheduled job.</text><rect fill="#FFFFFF" height="3" style="stroke:#FFFFFF;stroke-width:1;" width="935.8735" x="5" y="725.4102"/><line style="stroke:#000000;stroke-width:0.5;" x1="5" x2="940.8735" y1="725.4102" y2="725.4102"/><line style="stroke:#000000;stroke-width:0.5;" x1="5" x2="940.8735" y1="728.4102" y2="728.4102"/><rect fill="#FFFFFF" height="23.1328" style="stroke:#000000;stroke-width:1;" width="363.375" x="291.2493" y="714.8438"/><text fill="#000000" font-family="Verdana" font-size="13" font-weight="bold" lengthAdjust="spacing" textLength="344.8491" x="297.2493" y="730.9106">Part 3: Notification Processing (Scheduled Job)</text><rect fill="#FFFFFF" height="3" style="stroke:#FFFFFF;stroke-width:1;" width="935.8735" x="5" y="768.543"/><line style="stroke:#000000;stroke-width:0.5;" x1="5" x2="940.8735" y1="768.543" y2="768.543"/><line style="stroke:#000000;stroke-width:0.5;" x1="5" x2="940.8735" y1="771.543" y2="771.543"/><rect fill="#FFFFFF" height="23.1328" style="stroke:#000000;stroke-width:1;" width="246.375" x="349.7493" y="757.9766"/><text fill="#000000" font-family="Verdana" font-size="13" font-weight="bold" lengthAdjust="spacing" textLength="227.8491" x="355.7493" y="774.0435">mailarchivemodel.php:553-590</text><path d="M194,796.1094 L194,836.1094 L448,836.1094 L448,806.1094 L438,796.1094 L194,796.1094" fill="#FFFFFF" style="stroke:#000000;stroke-width:1;"/><path d="M438,796.1094 L438,806.1094 L448,806.1094 L438,796.1094" fill="#FFFFFF" style="stroke:#000000;stroke-width:1;"/><text fill="#000000" font-family="Verdana" font-size="13" lengthAdjust="spacing" textLength="233.1875" x="200" y="813.1763">Berikut adalah flow yang dijalankan</text><text fill="#000000" font-family="Verdana" font-size="13" lengthAdjust="spacing" textLength="168.105" x="200" y="828.3091">oleh scheduled job / cron:</text><g class="message" data-entity-1="part2" data-entity-2="part4" id="msg10"><polygon fill="#000000" points="624.187,888.7734,634.187,892.7734,624.187,896.7734,628.187,892.7734" style="stroke:#000000;stroke-width:1;"/><line style="stroke:#000000;stroke-width:1;" x1="321.75" x2="630.187" y1="892.7734" y2="892.7734"/><text fill="#000000" font-family="Verdana" font-size="13" lengthAdjust="spacing" textLength="103.8096" x="328.75" y="857.4419">get_unnotified()</text><text fill="#000000" font-family="Verdana" font-size="13" lengthAdjust="spacing" textLength="224.1294" x="328.75" y="872.5747">SELECT * FROM mail_archive_notif</text><text fill="#000000" font-family="Verdana" font-size="13" lengthAdjust="spacing" textLength="131.771" x="328.75" y="887.7075">WHERE notif_flag=0</text></g><g class="message" data-entity-1="part4" data-entity-2="part2" id="msg11"><polygon fill="#000000" points="332.75,917.9063,322.75,921.9063,332.75,925.9063,328.75,921.9063" style="stroke:#000000;stroke-width:1;"/><line style="stroke:#000000;stroke-width:1;stroke-dasharray:2,2;" x1="326.75" x2="635.187" y1="921.9063" y2="921.9063"/><text fill="#000000" font-family="Verdana" font-size="13" lengthAdjust="spacing" textLength="89.0449" x="338.75" y="916.8403">unnotified list</text></g><path d="M213.1685,936.9063 L289.7925,936.9063 L289.7925,944.0391 L279.7925,954.0391 L213.1685,954.0391 L213.1685,936.9063" fill="#FFFFFF" style="stroke:#000000;stroke-width:1;"/><rect fill="none" height="541.8594" style="stroke:#000000;stroke-width:1;" width="693.0356" x="213.1685" y="936.9063"/><text fill="#000000" font-family="Verdana" font-size="13" font-weight="bold" lengthAdjust="spacing" textLength="31.624" x="228.1685" y="949.9731">loop</text><text fill="#000000" font-family="Verdana" font-size="11" font-weight="bold" lengthAdjust="spacing" textLength="205.5142" x="304.7925" y="949.1167">[untuk setiap unnotified archive]</text><g class="message" data-entity-1="part2" data-entity-2="part4" id="msg12"><polygon fill="#000000" points="624.187,971.1719,634.187,975.1719,624.187,979.1719,628.187,975.1719" style="stroke:#000000;stroke-width:1;"/><line style="stroke:#000000;stroke-width:1;" x1="321.75" x2="630.187" y1="975.1719" y2="975.1719"/><text fill="#000000" font-family="Verdana" font-size="13" lengthAdjust="spacing" textLength="193.1655" x="328.75" y="970.106">get_archive_by_id(archive_id)</text></g><g class="message" data-entity-1="part4" data-entity-2="part2" id="msg13"><polygon fill="#000000" points="332.75,1000.3047,322.75,1004.3047,332.75,1008.3047,328.75,1004.3047" style="stroke:#000000;stroke-width:1;"/><line style="stroke:#000000;stroke-width:1;stroke-dasharray:2,2;" x1="326.75" x2="635.187" y1="1004.3047" y2="1004.3047"/><text fill="#000000" font-family="Verdana" font-size="13" lengthAdjust="spacing" textLength="92.1934" x="338.75" y="999.2388">archive object</text></g><g class="message" data-entity-1="part2" data-entity-2="part4" id="msg14"><polygon fill="#000000" points="624.187,1105.1016,634.187,1109.1016,624.187,1113.1016,628.187,1109.1016" style="stroke:#000000;stroke-width:1;"/><line style="stroke:#000000;stroke-width:1;" x1="321.75" x2="630.187" y1="1109.1016" y2="1109.1016"/><text fill="#000000" font-family="Verdana" font-size="13" lengthAdjust="spacing" textLength="189.2363" x="328.75" y="1028.3716">get_allowed_user(archive_id)</text><text fill="#000000" font-family="Verdana" font-size="13" lengthAdjust="spacing" textLength="248.2759" x="328.75" y="1043.5044">SELECT user_id, emp_id, emp_name...</text><text fill="#000000" font-family="Verdana" font-size="13" lengthAdjust="spacing" textLength="174.751" x="328.75" y="1058.6372">FROM mail_archive_access</text><text fill="#000000" font-family="Verdana" font-size="13" lengthAdjust="spacing" textLength="171.6216" x="328.75" y="1073.77">JOIN employee (by pos_id)</text><text fill="#000000" font-family="Verdana" font-size="13" lengthAdjust="spacing" textLength="232.6353" x="328.75" y="1088.9028">JOIN emp_profile, sys_user, position</text><text fill="#000000" font-family="Verdana" font-size="13" lengthAdjust="spacing" textLength="146.1865" x="328.75" y="1104.0356">WHERE user_status=1</text></g><path d="M641,1029.4375 L641,1099.4375 L891,1099.4375 L891,1039.4375 L881,1029.4375 L641,1029.4375" fill="#FFA500" style="stroke:#000000;stroke-width:1;"/><path d="M881,1029.4375 L881,1039.4375 L891,1039.4375 L881,1029.4375" fill="#FFA500" style="stroke:#000000;stroke-width:1;"/><text fill="#000000" font-family="Verdana" font-size="13" font-weight="bold" lengthAdjust="spacing" textLength="59.2744" x="647" y="1046.5044">Migrasi:</text><text fill="#000000" font-family="Verdana" font-size="13" lengthAdjust="spacing" textLength="165.6104" x="710.4067" y="1046.5044">JOIN employee by pos_id.</text><text fill="#000000" font-family="Verdana" font-size="13" lengthAdjust="spacing" textLength="98.1411" x="647" y="1061.6372">Di Spring Boot:</text><text fill="#000000" font-family="Verdana" font-size="13" lengthAdjust="spacing" textLength="201.2778" x="647" y="1076.77">GET /pegawai/{posId}/position</text><text fill="#000000" font-family="Verdana" font-size="13" lengthAdjust="spacing" textLength="213.8081" x="647" y="1091.9028">untuk setiap pos_id di access list</text><g class="message" data-entity-1="part4" data-entity-2="part2" id="msg16"><polygon fill="#000000" points="332.75,1134.2344,322.75,1138.2344,332.75,1142.2344,328.75,1138.2344" style="stroke:#000000;stroke-width:1;"/><line style="stroke:#000000;stroke-width:1;stroke-dasharray:2,2;" x1="326.75" x2="635.187" y1="1138.2344" y2="1138.2344"/><text fill="#000000" font-family="Verdana" font-size="13" lengthAdjust="spacing" textLength="99.4297" x="338.75" y="1133.1685">allowed users[]</text></g><path d="M223.1685,1153.2344 L299.7925,1153.2344 L299.7925,1160.3672 L289.7925,1170.3672 L223.1685,1170.3672 L223.1685,1153.2344" fill="#FFFFFF" style="stroke:#000000;stroke-width:1;"/><rect fill="none" height="259.1328" style="stroke:#000000;stroke-width:1;" width="516.9644" x="223.1685" y="1153.2344"/><text fill="#000000" font-family="Verdana" font-size="13" font-weight="bold" lengthAdjust="spacing" textLength="31.624" x="238.1685" y="1166.3013">loop</text><text fill="#000000" font-family="Verdana" font-size="11" font-weight="bold" lengthAdjust="spacing" textLength="171.2251" x="314.7925" y="1165.4448">[untuk setiap allowed user]</text><g class="message" data-entity-1="part2" data-entity-2="part4" id="msg17"><polygon fill="#000000" points="624.187,1202.6328,634.187,1206.6328,624.187,1210.6328,628.187,1206.6328" style="stroke:#000000;stroke-width:1;"/><line style="stroke:#000000;stroke-width:1;" x1="321.75" x2="630.187" y1="1206.6328" y2="1206.6328"/><text fill="#000000" font-family="Verdana" font-size="13" lengthAdjust="spacing" textLength="224.999" x="328.75" y="1186.4341">cek_user_notif(archive_id, user_id)</text><text fill="#000000" font-family="Verdana" font-size="13" lengthAdjust="spacing" textLength="290.437" x="328.75" y="1201.5669">SELECT COUNT FROM mail_archive_notif_log</text></g><path d="M233.1685,1221.6328 L297.6113,1221.6328 L297.6113,1228.7656 L287.6113,1238.7656 L233.1685,1238.7656 L233.1685,1221.6328" fill="#FFFFFF" style="stroke:#000000;stroke-width:1;"/><rect fill="none" height="183.7344" style="stroke:#000000;stroke-width:1;" width="496.9644" x="233.1685" y="1221.6328"/><text fill="#000000" font-family="Verdana" font-size="13" font-weight="bold" lengthAdjust="spacing" textLength="19.4429" x="248.1685" y="1234.6997">alt</text><text fill="#000000" font-family="Verdana" font-size="11" font-weight="bold" lengthAdjust="spacing" textLength="176.4619" x="312.6113" y="1233.8433">[user belum pernah di-notif]</text><g class="message" data-entity-1="part2" data-entity-2="part3" id="msg18"><polygon fill="#000000" points="505.2065,1274.0313,515.2065,1278.0313,505.2065,1282.0313,509.2065,1278.0313" style="stroke:#000000;stroke-width:1;"/><line style="stroke:#000000;stroke-width:1;" x1="321.75" x2="511.2065" y1="1278.0313" y2="1278.0313"/><text fill="#000000" font-family="Verdana" font-size="13" lengthAdjust="spacing" textLength="171.4565" x="328.75" y="1257.8325">create_archive_mail_notif(</text><text fill="#000000" font-family="Verdana" font-size="13" lengthAdjust="spacing" textLength="89.6924" x="328.75" y="1272.9653">user, archive)</text></g><path d="M522,1243.7656 L522,1283.7656 L714,1283.7656 L714,1253.7656 L704,1243.7656 L522,1243.7656" fill="#FFFFFF" style="stroke:#000000;stroke-width:1;"/><path d="M704,1243.7656 L704,1253.7656 L714,1253.7656 L704,1243.7656" fill="#FFFFFF" style="stroke:#000000;stroke-width:1;"/><text fill="#000000" font-family="Verdana" font-size="13" lengthAdjust="spacing" textLength="94.7261" x="528" y="1260.8325">Lihat diagram:</text><text fill="#000000" font-family="Verdana" font-size="13" font-weight="bold" lengthAdjust="spacing" textLength="171.9263" x="528" y="1275.9653">mail-notif-archive.puml</text><g class="message" data-entity-1="part2" data-entity-2="part4" id="msg20"><polygon fill="#000000" points="624.187,1336.4297,634.187,1340.4297,624.187,1344.4297,628.187,1340.4297" style="stroke:#000000;stroke-width:1;"/><line style="stroke:#000000;stroke-width:1;" x1="321.75" x2="630.187" y1="1340.4297" y2="1340.4297"/><text fill="#000000" font-family="Verdana" font-size="13" lengthAdjust="spacing" textLength="222.1934" x="328.75" y="1305.0981">set_user_notif(user_id, archive_id)</text><text fill="#000000" font-family="Verdana" font-size="13" lengthAdjust="spacing" textLength="195.7808" x="328.75" y="1320.231">INSERT mail_archive_notif_log</text><text fill="#000000" font-family="Verdana" font-size="13" lengthAdjust="spacing" textLength="239.4019" x="328.75" y="1335.3638">(mail_archive_id, user_id, notif_date)</text></g><line style="stroke:#000000;stroke-width:1;stroke-dasharray:2,2;" x1="233.1685" x2="730.1328" y1="1349.4297" y2="1349.4297"/><text fill="#000000" font-family="Verdana" font-size="11" font-weight="bold" lengthAdjust="spacing" textLength="175.5703" x="238.1685" y="1359.6401">[user sudah pernah di-notif]</text><g class="message" data-entity-1="part2" data-entity-2="part2" id="msg21"><line style="stroke:#000000;stroke-width:1;" x1="321.75" x2="363.75" y1="1384.3672" y2="1384.3672"/><line style="stroke:#000000;stroke-width:1;" x1="363.75" x2="363.75" y1="1384.3672" y2="1397.3672"/><line style="stroke:#000000;stroke-width:1;" x1="322.75" x2="363.75" y1="1397.3672" y2="1397.3672"/><polygon fill="#000000" points="332.75,1393.3672,322.75,1397.3672,332.75,1401.3672,328.75,1397.3672" style="stroke:#000000;stroke-width:1;"/><text fill="#000000" font-family="Verdana" font-size="13" lengthAdjust="spacing" textLength="26.165" x="328.75" y="1379.3013">skip</text></g><g class="message" data-entity-1="part2" data-entity-2="part4" id="msg22"><polygon fill="#000000" points="624.187,1466.7656,634.187,1470.7656,624.187,1474.7656,628.187,1470.7656" style="stroke:#000000;stroke-width:1;"/><line style="stroke:#000000;stroke-width:1;" x1="321.75" x2="630.187" y1="1470.7656" y2="1470.7656"/><text fill="#000000" font-family="Verdana" font-size="13" lengthAdjust="spacing" textLength="165.8516" x="328.75" y="1435.4341">mark_notified(archive_id)</text><text fill="#000000" font-family="Verdana" font-size="13" lengthAdjust="spacing" textLength="174.8779" x="328.75" y="1450.5669">UPDATE mail_archive_notif</text><text fill="#000000" font-family="Verdana" font-size="13" lengthAdjust="spacing" textLength="266.519" x="328.75" y="1465.6997">SET notif_flag=1, processed_date=now()</text></g><rect fill="#FFFFFF" height="3" style="stroke:#FFFFFF;stroke-width:1;" width="935.8735" x="5" y="1506.332"/><line style="stroke:#000000;stroke-width:0.5;" x1="5" x2="940.8735" y1="1506.332" y2="1506.332"/><line style="stroke:#000000;stroke-width:0.5;" x1="5" x2="940.8735" y1="1509.332" y2="1509.332"/><rect fill="#FFFFFF" height="23.1328" style="stroke:#000000;stroke-width:1;" width="272.0894" x="336.8921" y="1495.7656"/><text fill="#000000" font-family="Verdana" font-size="13" font-weight="bold" lengthAdjust="spacing" textLength="253.5635" x="342.8921" y="1511.8325">Part 4: Search with Access Control</text><rect fill="#FFFFFF" height="3" style="stroke:#FFFFFF;stroke-width:1;" width="935.8735" x="5" y="1549.4648"/><line style="stroke:#000000;stroke-width:0.5;" x1="5" x2="940.8735" y1="1549.4648" y2="1549.4648"/><line style="stroke:#000000;stroke-width:0.5;" x1="5" x2="940.8735" y1="1552.4648" y2="1552.4648"/><rect fill="#FFFFFF" height="23.1328" style="stroke:#000000;stroke-width:1;" width="246.375" x="349.7493" y="1538.8984"/><text fill="#000000" font-family="Verdana" font-size="13" font-weight="bold" lengthAdjust="spacing" textLength="227.8491" x="355.7493" y="1554.9653">mailarchivemodel.php:123-261</text><path d="M33,1577.0313 L33,1647.0313 L690,1647.0313 L690,1587.0313 L680,1577.0313 L33,1577.0313" fill="#FFFFFF" style="stroke:#000000;stroke-width:1;"/><path d="M680,1577.0313 L680,1587.0313 L690,1587.0313 L680,1577.0313" fill="#FFFFFF" style="stroke:#000000;stroke-width:1;"/><text fill="#000000" font-family="Verdana" font-size="13" lengthAdjust="spacing" textLength="225.4561" x="239.5732" y="1594.0981">Saat user melakukan search arsip,</text><text fill="#000000" font-family="Verdana" font-size="13" lengthAdjust="spacing" textLength="206.0767" x="239.5732" y="1609.231">query JOIN mail_archive_access</text><text fill="#000000" font-family="Verdana" font-size="13" lengthAdjust="spacing" textLength="235.4409" x="239.5732" y="1624.3638">untuk filter berdasarkan pos_id user</text><text fill="#000000" font-family="Verdana" font-size="13" lengthAdjust="spacing" textLength="120.0977" x="239.5732" y="1639.4966">dan flag access=1</text><g class="message" data-entity-1="part1" data-entity-2="part2" id="msg23"><polygon fill="#000000" points="309.75,1669.6953,319.75,1673.6953,309.75,1677.6953,313.75,1673.6953" style="stroke:#000000;stroke-width:1;"/><line style="stroke:#000000;stroke-width:1;" x1="88.855" x2="315.75" y1="1673.6953" y2="1673.6953"/><text fill="#000000" font-family="Verdana" font-size="13" lengthAdjust="spacing" textLength="102.5781" x="95.855" y="1668.6294">search(params)</text></g><g class="message" data-entity-1="part2" data-entity-2="part4" id="msg24"><polygon fill="#000000" points="624.187,1774.4922,634.187,1778.4922,624.187,1782.4922,628.187,1778.4922" style="stroke:#000000;stroke-width:1;"/><line style="stroke:#000000;stroke-width:1;" x1="321.75" x2="630.187" y1="1778.4922" y2="1778.4922"/><text fill="#000000" font-family="Verdana" font-size="13" lengthAdjust="spacing" textLength="218.8101" x="328.75" y="1697.7622">SELECT ... FROM mail_archive ma</text><text fill="#000000" font-family="Verdana" font-size="13" lengthAdjust="spacing" textLength="197.1455" x="328.75" y="1712.895">JOIN mail_archive_access maa</text><text fill="#000000" font-family="Verdana" font-size="13" lengthAdjust="spacing" textLength="232.1846" x="328.75" y="1728.0278">ON maa.mail_archive_id=ma.ma_id</text><text fill="#000000" font-family="Verdana" font-size="13" lengthAdjust="spacing" textLength="219.2798" x="328.75" y="1743.1606">WHERE maa.pos_id = user.pos_id</text><text fill="#000000" font-family="Verdana" font-size="13" lengthAdjust="spacing" textLength="136.7222" x="328.75" y="1758.2935">AND maa.access = 1</text><text fill="#000000" font-family="Verdana" font-size="13" lengthAdjust="spacing" textLength="127.2642" x="328.75" y="1773.4263">AND ma_status = 2</text></g><g class="message" data-entity-1="part4" data-entity-2="part2" id="msg25"><polygon fill="#000000" points="332.75,1803.625,322.75,1807.625,332.75,1811.625,328.75,1807.625" style="stroke:#000000;stroke-width:1;"/><line style="stroke:#000000;stroke-width:1;stroke-dasharray:2,2;" x1="326.75" x2="635.187" y1="1807.625" y2="1807.625"/><text fill="#000000" font-family="Verdana" font-size="13" lengthAdjust="spacing" textLength="105.3965" x="338.75" y="1802.5591">filtered archives</text></g><?plantuml-src XLRhRY8t5Fu_Jt4sbIeO0GaaQLMagPG4TfljvjAGrVue5JAC0ruyzjJs949LfJv4dx1FqkFB33D0ilnXR1-VwtU-utTcHJCAEITCH8OPJk52BLRi6VyN2werN4bXbEJmtp__mZrL6TEQIG7Vmwqqx8ajYB7BBrAjdxXycOgCC4wyYaocbFVoLJuyE-btptywYQASACCMB2V2m55GpQcQYbRjdhtIFWA2netYpJitA1OylB7gdPZxsfUh2PIhA2M6p8ccS3GANqvWTDcy_YlDwPAy44O4NDnVet-6g2KraB6b8ffvz_0aYf84xl4gz8SmGO6GjfQcPaRSTnkIn4gzcfcp_haLYMoqqFtPXmD3sAfe-R_V_-X0q31ZQJkAl2HU6LsY_6ZyQVmuXlSFTpVEsAoKzRUduiiluuTnyuYba01B8o4D1SMMAnC1Z2YdXdQ9IBkACg4fXfSJOwWIFJoUqAmWa6_1a3AKGs-14rwW0Ax3hO8JiOIKA0PCv8NfHLIaO8r54PSoXqAOOcqZPIG7xoTGXCK6rH2EPgMsFhvBu0Ht09eHNzzEnW-FXuDjxSJP2RewK-55afFZVWTI-IAu9AbVhPWsKctiektiDV9YVwVrm3bzfbmFmr4NujYhZkCXp9acmDcA6AoPPdbDgBHPYPKRcC0iPug8cd1mQKUbOYzaGxnJLKhnaoEqGywIlPnLm5gp75fCF1EESYxTDbhKOykpXVHW2ByLjA3DNdVG5dRdRMJtV-oU3GQl8jjfQDNX_EtQkZk7IkiEPa-SB9CJBB17tmoRdIP2lhJQxIR0twCWd23ovvGN6U8rLr9JRS5ziIOEq3bRh8iS9AShq8iLJGjEK_WgvtK8buaw7JPJTA-aXG53xBScrUMFSlvcnixFJorBkemvT-KpLO7S02wfOki2mPGIJbPWsHOshhlOLzmHQuUQVN_X61PAYc7DxMQYaTPcXN0PP3HjjQTYWaHozGZn0Ie95V1CKizwXBgwjH9lDI9YjJdKxZMHe3xQRN3hMsbwli5IDm03i6Cq78ASVwKBj7bG7SVCqNHM84JgsggmxO435Stowb-GZFPwlQbudLq_tbtVMbakDvH2Qxu9ZTZU7iqGPq-CqmxeZNOUE5PY5ZHbKfrvROWfTDAFwWm4tzqXDIofQ-eull6ZQ1Z7q3HTMUuvoH63IQui5Y-bD9wiFemVuJYCkEE_KFew_VkuzCH9D2eL62Lb9KMxaZQOPxSIFiik6fnRjXG7-BucT83T5tJjShH75PsoHjkYNTrzldry3QypBfUHCs17YhqR6X-fN60lORixkS2wMxuidmtM6KMHJIgzpeZtQofy8SDHEsZPcnm0dnnrfunWuR9XjHt7LfjteLkzWOgCnt6GsRRkZeSkJvPDQtcgyDi0zwjqQfDpY58hDLxASgaFpSqObqHTf9YzRoMnDdJASHM6pLv_PaIjPnKJDVp_V3-wU1mV9AC9Whb6HJZ6Sy-_sENR4T0SRMVsjMRrm0ipgzt7xXiatH-STWS_z7T8sWwuZdr5ukk8a82nZ7AoBkmyqTwKUmTqKERFWggDxze3L1ALtOTKOHnMLKeqfWOrXKuC7PFYZeqvj2NonHOf-pFNMcdXCvTaUdVOXYv2Xjll8Lm41ZlWA-xXwPqz8xqT32MPtSAFxSkJzCh7YGiXhARYudRaJeFI1FhbNg12t1hiZXYVdktqqD7_?></g></svg>