<?plantuml 1.2026.2?><svg xmlns="http://www.w3.org/2000/svg" xmlns:xlink="http://www.w3.org/1999/xlink" contentStyleType="text/css" data-diagram-type="SEQUENCE" height="1726px" preserveAspectRatio="none" style="width:909px;height:1726px;background:#FFFFFF;" version="1.1" viewBox="0 0 909 1726" width="909px" zoomAndPan="magnify"><title>create_archive_mail_notif() &#8212; Notifikasi Hak Akses Arsip
mailmodel.php:1617-1711</title><defs/><g><text fill="#000000" font-family="Verdana" font-size="22" font-weight="bold" lengthAdjust="spacing" textLength="698.6826" x="103.7556" y="35.4209">create_archive_mail_notif() &#8212; Notifikasi Hak Akses Arsip</text><text fill="#000000" font-family="Verdana" font-size="22" font-weight="bold" lengthAdjust="spacing" textLength="325.0049" x="290.5945" y="61.0303">mailmodel.php:1617-1711</text><rect fill="#FFFFFF" height="306.9375" style="stroke:#000000;stroke-width:1;" width="592.7944" x="299.3994" y="280.1797"/><rect fill="#FFFFFF" height="233.6719" style="stroke:#000000;stroke-width:1;" width="572.7944" x="309.3994" y="304.3125"/><rect fill="#FFFFFF" height="56.9375" style="stroke:none;stroke-width:1;" width="572.7944" x="309.3994" y="393.8438"/><rect fill="#FFFFFF" height="87.2031" style="stroke:none;stroke-width:1;" width="572.7944" x="309.3994" y="450.7813"/><g class="participant-lifeline" data-entity-uid="part1" data-qualified-name="Caller" id="part1-lifeline"><g><title>Caller</title><rect fill="#000000" fill-opacity="0.00000" height="1509.1797" width="8" x="82.4863" y="139.5156"/><line style="stroke:#000000;stroke-width:1;stroke-dasharray:5,5;" x1="86" x2="86" y1="139.5156" y2="1648.6953"/></g></g><g class="participant-lifeline" data-entity-uid="part2" data-qualified-name="Model" id="part2-lifeline"><g><title>MailModel</title><rect fill="#000000" fill-opacity="0.00000" height="1509.1797" width="8" x="367.6353" y="139.5156"/><line style="stroke:#000000;stroke-width:1;stroke-dasharray:5,5;" x1="371.3994" x2="371.3994" y1="139.5156" y2="1648.6953"/></g></g><g class="participant-lifeline" data-entity-uid="part3" data-qualified-name="DB" id="part3-lifeline"><g><title>Database</title><rect fill="#000000" fill-opacity="0.00000" height="1509.1797" width="8" x="762.2407" y="139.5156"/><line style="stroke:#000000;stroke-width:1;stroke-dasharray:5,5;" x1="765.8403" x2="765.8403" y1="139.5156" y2="1648.6953"/></g></g><g class="participant participant-head" data-entity-uid="part1" data-qualified-name="Caller" id="part1-head"><rect fill="#FFFFFF" height="46.5938" rx="2.5" ry="2.5" style="stroke:#000000;stroke-width:1;" width="132.9727" x="20" y="91.9219"/><text fill="#000000" font-family="Verdana" font-size="14" lengthAdjust="spacing" textLength="40.5029" x="66.2349" y="111.917">Caller</text><text fill="#000000" font-family="Verdana" font-size="14" lengthAdjust="spacing" textLength="118.9727" x="27" y="128.2139">(Archive Module)</text></g><g class="participant participant-tail" data-entity-uid="part1" data-qualified-name="Caller" id="part1-tail"><rect fill="#FFFFFF" height="46.5938" rx="2.5" ry="2.5" style="stroke:#000000;stroke-width:1;" width="132.9727" x="20" y="1647.6953"/><text fill="#000000" font-family="Verdana" font-size="14" lengthAdjust="spacing" textLength="40.5029" x="66.2349" y="1667.6904">Caller</text><text fill="#000000" font-family="Verdana" font-size="14" lengthAdjust="spacing" textLength="118.9727" x="27" y="1683.9873">(Archive Module)</text></g><g class="participant participant-head" data-entity-uid="part2" data-qualified-name="Model" id="part2-head"><rect fill="#FFFFFF" height="30.2969" rx="2.5" ry="2.5" style="stroke:#000000;stroke-width:1;" width="84.4717" x="329.3994" y="108.2188"/><text fill="#000000" font-family="Verdana" font-size="14" lengthAdjust="spacing" textLength="70.4717" x="336.3994" y="128.2139">MailModel</text></g><g class="participant participant-tail" data-entity-uid="part2" data-qualified-name="Model" id="part2-tail"><rect fill="#FFFFFF" height="30.2969" rx="2.5" ry="2.5" style="stroke:#000000;stroke-width:1;" width="84.4717" x="329.3994" y="1647.6953"/><text fill="#000000" font-family="Verdana" font-size="14" lengthAdjust="spacing" textLength="70.4717" x="336.3994" y="1667.6904">MailModel</text></g><g class="participant participant-head" data-entity-uid="part3" data-qualified-name="DB" id="part3-head"><text fill="#000000" font-family="Verdana" font-size="14" lengthAdjust="spacing" textLength="66.8008" x="729.8403" y="136.2139">Database</text><path d="M748.2407,87.2188 C748.2407,77.2188 766.2407,77.2188 766.2407,77.2188 C766.2407,77.2188 784.2407,77.2188 784.2407,87.2188 L784.2407,113.2188 C784.2407,123.2188 766.2407,123.2188 766.2407,123.2188 C766.2407,123.2188 748.2407,123.2188 748.2407,113.2188 L748.2407,87.2188" fill="#FFFFFF" style="stroke:#000000;stroke-width:1;"/><path d="M748.2407,87.2188 C748.2407,97.2188 766.2407,97.2188 766.2407,97.2188 C766.2407,97.2188 784.2407,97.2188 784.2407,87.2188" fill="none" style="stroke:#000000;stroke-width:1;"/></g><g class="participant participant-tail" data-entity-uid="part3" data-qualified-name="DB" id="part3-tail"><text fill="#000000" font-family="Verdana" font-size="14" lengthAdjust="spacing" textLength="66.8008" x="729.8403" y="1660.6904">Database</text><path d="M748.2407,1673.9922 C748.2407,1663.9922 766.2407,1663.9922 766.2407,1663.9922 C766.2407,1663.9922 784.2407,1663.9922 784.2407,1673.9922 L784.2407,1699.9922 C784.2407,1709.9922 766.2407,1709.9922 766.2407,1709.9922 C766.2407,1709.9922 748.2407,1709.9922 748.2407,1699.9922 L748.2407,1673.9922" fill="#FFFFFF" style="stroke:#000000;stroke-width:1;"/><path d="M748.2407,1673.9922 C748.2407,1683.9922 766.2407,1683.9922 766.2407,1683.9922 C766.2407,1683.9922 784.2407,1683.9922 784.2407,1673.9922" fill="none" style="stroke:#000000;stroke-width:1;"/></g><g class="message" data-entity-1="part1" data-entity-2="part2" id="msg1"><polygon fill="#000000" points="359.6353,192.3477,369.6353,196.3477,359.6353,200.3477,363.6353,196.3477" style="stroke:#000000;stroke-width:1;"/><line style="stroke:#000000;stroke-width:1;" x1="86.4863" x2="365.6353" y1="196.3477" y2="196.3477"/><text fill="#000000" font-family="Verdana" font-size="13" lengthAdjust="spacing" textLength="261.1489" x="93.4863" y="191.2817">create_archive_mail_notif(user, archive)</text></g><path d="M376,154.5156 L376,224.5156 L656,224.5156 L656,164.5156 L646,154.5156 L376,154.5156" fill="#FFFFFF" style="stroke:#000000;stroke-width:1;"/><path d="M646,154.5156 L646,164.5156 L656,164.5156 L646,154.5156" fill="#FFFFFF" style="stroke:#000000;stroke-width:1;"/><text fill="#000000" font-family="Verdana" font-size="13" lengthAdjust="spacing" textLength="149.5889" x="382" y="171.5825">Berbeda dari notif lain:</text><text fill="#000000" font-family="Verdana" font-size="13" lengthAdjust="spacing" textLength="259.9937" x="382" y="186.7153">- Recipient sudah resolved (user object)</text><text fill="#000000" font-family="Verdana" font-size="13" lengthAdjust="spacing" textLength="191.6611" x="382" y="201.8481">- Tidak perlu query employee</text><text fill="#000000" font-family="Verdana" font-size="13" lengthAdjust="spacing" textLength="218.2705" x="382" y="216.981">- Template replace: archive fields</text><rect fill="#FFFFFF" height="3" style="stroke:#FFFFFF;stroke-width:1;" width="897.1938" x="5" y="250.6133"/><line style="stroke:#000000;stroke-width:0.5;" x1="5" x2="902.1938" y1="250.6133" y2="250.6133"/><line style="stroke:#000000;stroke-width:0.5;" x1="5" x2="902.1938" y1="253.6133" y2="253.6133"/><rect fill="#FFFFFF" height="23.1328" style="stroke:#000000;stroke-width:1;" width="287.0127" x="310.0906" y="240.0469"/><text fill="#000000" font-family="Verdana" font-size="13" font-weight="bold" lengthAdjust="spacing" textLength="268.4868" x="316.0906" y="256.1138">Step 1: Resolve CLIENT_CODE Config</text><path d="M299.3994,280.1797 L521.3022,280.1797 L521.3022,287.3125 L511.3022,297.3125 L299.3994,297.3125 L299.3994,280.1797" fill="#FFFFFF" style="stroke:#000000;stroke-width:1;"/><rect fill="none" height="306.9375" style="stroke:#000000;stroke-width:1;" width="592.7944" x="299.3994" y="280.1797"/><text fill="#000000" font-family="Verdana" font-size="13" font-weight="bold" lengthAdjust="spacing" textLength="176.9028" x="314.3994" y="293.2466">CLIENT_CODE Branching</text><path d="M309.3994,304.3125 L373.8423,304.3125 L373.8423,311.4453 L363.8423,321.4453 L309.3994,321.4453 L309.3994,304.3125" fill="#FFFFFF" style="stroke:#000000;stroke-width:1;"/><rect fill="none" height="233.6719" style="stroke:#000000;stroke-width:1;" width="572.7944" x="309.3994" y="304.3125"/><text fill="#000000" font-family="Verdana" font-size="13" font-weight="bold" lengthAdjust="spacing" textLength="19.4429" x="324.3994" y="317.3794">alt</text><text fill="#000000" font-family="Verdana" font-size="11" font-weight="bold" lengthAdjust="spacing" textLength="37.3076" x="388.8423" y="316.5229">[BMS]</text><g class="message" data-entity-1="part2" data-entity-2="part2" id="msg3"><line style="stroke:#000000;stroke-width:1;" x1="371.6353" x2="413.6353" y1="372.8438" y2="372.8438"/><line style="stroke:#000000;stroke-width:1;" x1="413.6353" x2="413.6353" y1="372.8438" y2="385.8438"/><line style="stroke:#000000;stroke-width:1;" x1="372.6353" x2="413.6353" y1="385.8438" y2="385.8438"/><polygon fill="#000000" points="382.6353,381.8438,372.6353,385.8438,382.6353,389.8438,378.6353,385.8438" style="stroke:#000000;stroke-width:1;"/><text fill="#000000" font-family="Verdana" font-size="13" lengthAdjust="spacing" textLength="227.1509" x="378.6353" y="337.5122">m_type=1, m_category=1 (UMUM)</text><text fill="#000000" font-family="Verdana" font-size="13" lengthAdjust="spacing" textLength="162.1318" x="378.6353" y="352.645">m_category_code="000"</text><text fill="#000000" font-family="Verdana" font-size="13" lengthAdjust="spacing" textLength="232.813" x="378.6353" y="367.7778">ref_code="m_number_format_bms"</text></g><line style="stroke:#000000;stroke-width:1;stroke-dasharray:2,2;" x1="309.3994" x2="882.1938" y1="394.8438" y2="394.8438"/><text fill="#000000" font-family="Verdana" font-size="11" font-weight="bold" lengthAdjust="spacing" textLength="38.0542" x="314.3994" y="405.0542">[SMD]</text><g class="message" data-entity-1="part2" data-entity-2="part2" id="msg4"><line style="stroke:#000000;stroke-width:1;" x1="371.6353" x2="413.6353" y1="429.7813" y2="429.7813"/><line style="stroke:#000000;stroke-width:1;" x1="413.6353" x2="413.6353" y1="429.7813" y2="442.7813"/><line style="stroke:#000000;stroke-width:1;" x1="372.6353" x2="413.6353" y1="442.7813" y2="442.7813"/><polygon fill="#000000" points="382.6353,438.7813,372.6353,442.7813,382.6353,446.7813,378.6353,442.7813" style="stroke:#000000;stroke-width:1;"/><text fill="#000000" font-family="Verdana" font-size="13" lengthAdjust="spacing" textLength="273.603" x="378.6353" y="424.7153">idem, ref_code="m_number_format_smd"</text></g><line style="stroke:#000000;stroke-width:1;stroke-dasharray:2,2;" x1="309.3994" x2="882.1938" y1="451.7813" y2="451.7813"/><text fill="#000000" font-family="Verdana" font-size="11" font-weight="bold" lengthAdjust="spacing" textLength="35.707" x="314.3994" y="461.9917">[BPN]</text><g class="message" data-entity-1="part2" data-entity-2="part2" id="msg5"><line style="stroke:#000000;stroke-width:1;" x1="371.6353" x2="413.6353" y1="516.9844" y2="516.9844"/><line style="stroke:#000000;stroke-width:1;" x1="413.6353" x2="413.6353" y1="516.9844" y2="529.9844"/><line style="stroke:#000000;stroke-width:1;" x1="372.6353" x2="413.6353" y1="529.9844" y2="529.9844"/><polygon fill="#000000" points="382.6353,525.9844,372.6353,529.9844,382.6353,533.9844,378.6353,529.9844" style="stroke:#000000;stroke-width:1;"/><text fill="#000000" font-family="Verdana" font-size="13" lengthAdjust="spacing" textLength="281.6201" x="378.6353" y="481.6528">m_type=1, m_category=3 (PENGUMUMAN)</text><text fill="#000000" font-family="Verdana" font-size="13" lengthAdjust="spacing" textLength="146.396" x="378.6353" y="496.7856">m_category_code="C"</text><text fill="#000000" font-family="Verdana" font-size="13" lengthAdjust="spacing" textLength="225.2402" x="378.6353" y="511.9185">ref_code="m_number_format_blp"</text></g><path d="M671.6201,481.6523 L671.6201,521.6523 L865.6201,521.6523 L865.6201,491.6523 L855.6201,481.6523 L671.6201,481.6523" fill="#FFFFFF" style="stroke:#000000;stroke-width:1;"/><path d="M855.6201,481.6523 L855.6201,491.6523 L865.6201,491.6523 L855.6201,481.6523" fill="#FFFFFF" style="stroke:#000000;stroke-width:1;"/><text fill="#000000" font-family="Verdana" font-size="13" lengthAdjust="spacing" textLength="173.9385" x="677.6201" y="498.7192">BPN berbeda: category=3,</text><text fill="#000000" font-family="Verdana" font-size="13" lengthAdjust="spacing" textLength="158.6851" x="677.6201" y="513.8521">code="C" (bukan "000")</text><g class="message" data-entity-1="part2" data-entity-2="part2" id="msg7"><line style="stroke:#000000;stroke-width:1;" x1="371.6353" x2="413.6353" y1="566.1172" y2="566.1172"/><line style="stroke:#000000;stroke-width:1;" x1="413.6353" x2="413.6353" y1="566.1172" y2="579.1172"/><line style="stroke:#000000;stroke-width:1;" x1="372.6353" x2="413.6353" y1="579.1172" y2="579.1172"/><polygon fill="#000000" points="382.6353,575.1172,372.6353,579.1172,382.6353,583.1172,378.6353,579.1172" style="stroke:#000000;stroke-width:1;"/><text fill="#000000" font-family="Verdana" font-size="13" lengthAdjust="spacing" textLength="169.0063" x="378.6353" y="561.0513">user_id=2 (Administrator)</text></g><rect fill="#FFFFFF" height="3" style="stroke:#FFFFFF;stroke-width:1;" width="897.1938" x="5" y="614.6836"/><line style="stroke:#000000;stroke-width:0.5;" x1="5" x2="902.1938" y1="614.6836" y2="614.6836"/><line style="stroke:#000000;stroke-width:0.5;" x1="5" x2="902.1938" y1="617.6836" y2="617.6836"/><rect fill="#FFFFFF" height="23.1328" style="stroke:#000000;stroke-width:1;" width="241.062" x="333.0659" y="604.1172"/><text fill="#000000" font-family="Verdana" font-size="13" font-weight="bold" lengthAdjust="spacing" textLength="222.5361" x="339.0659" y="620.1841">Step 2: Generate Nomor Surat</text><g class="message" data-entity-1="part2" data-entity-2="part3" id="msg8"><polygon fill="#000000" points="754.2407,669.5156,764.2407,673.5156,754.2407,677.5156,758.2407,673.5156" style="stroke:#000000;stroke-width:1;"/><line style="stroke:#000000;stroke-width:1;" x1="371.6353" x2="760.2407" y1="673.5156" y2="673.5156"/><text fill="#000000" font-family="Verdana" font-size="13" lengthAdjust="spacing" textLength="215.5664" x="378.6353" y="653.3169">SELECT text FROM sys_reference</text><text fill="#000000" font-family="Verdana" font-size="13" lengthAdjust="spacing" textLength="150.2363" x="378.6353" y="668.4497">WHERE code=ref_code</text></g><g class="message" data-entity-1="part3" data-entity-2="part2" id="msg9"><polygon fill="#000000" points="382.6353,698.6484,372.6353,702.6484,382.6353,706.6484,378.6353,702.6484" style="stroke:#000000;stroke-width:1;"/><line style="stroke:#000000;stroke-width:1;stroke-dasharray:2,2;" x1="376.6353" x2="765.2407" y1="702.6484" y2="702.6484"/><text fill="#000000" font-family="Verdana" font-size="13" lengthAdjust="spacing" textLength="81.377" x="388.6353" y="697.5825">no_template</text></g><g class="message" data-entity-1="part2" data-entity-2="part2" id="msg10"><line style="stroke:#000000;stroke-width:1;" x1="371.6353" x2="413.6353" y1="746.9141" y2="746.9141"/><line style="stroke:#000000;stroke-width:1;" x1="413.6353" x2="413.6353" y1="746.9141" y2="759.9141"/><line style="stroke:#000000;stroke-width:1;" x1="372.6353" x2="413.6353" y1="759.9141" y2="759.9141"/><polygon fill="#000000" points="382.6353,755.9141,372.6353,759.9141,382.6353,763.9141,378.6353,759.9141" style="stroke:#000000;stroke-width:1;"/><text fill="#000000" font-family="Verdana" font-size="13" lengthAdjust="spacing" textLength="139.2866" x="378.6353" y="726.7153">Replace placeholders</text><text fill="#000000" font-family="Verdana" font-size="13" lengthAdjust="spacing" textLength="162.7856" x="378.6353" y="741.8481">org_code="00", type="I"</text></g><g class="message" data-entity-1="part2" data-entity-2="part3" id="msg11"><polygon fill="#000000" points="754.2407,800.1797,764.2407,804.1797,754.2407,808.1797,758.2407,804.1797" style="stroke:#000000;stroke-width:1;"/><line style="stroke:#000000;stroke-width:1;" x1="371.6353" x2="760.2407" y1="804.1797" y2="804.1797"/><text fill="#000000" font-family="Verdana" font-size="13" lengthAdjust="spacing" textLength="135.4844" x="378.6353" y="783.981">get_trans_sequence(</text><text fill="#000000" font-family="Verdana" font-size="13" lengthAdjust="spacing" textLength="259.7207" x="378.6353" y="799.1138">TASK_MAIL, "00-"+m_category_code, 3)</text></g><g class="message" data-entity-1="part3" data-entity-2="part2" id="msg12"><polygon fill="#000000" points="382.6353,829.3125,372.6353,833.3125,382.6353,837.3125,378.6353,833.3125" style="stroke:#000000;stroke-width:1;"/><line style="stroke:#000000;stroke-width:1;stroke-dasharray:2,2;" x1="376.6353" x2="765.2407" y1="833.3125" y2="833.3125"/><text fill="#000000" font-family="Verdana" font-size="13" lengthAdjust="spacing" textLength="62.645" x="388.6353" y="828.2466">sequence</text></g><g class="message" data-entity-1="part2" data-entity-2="part2" id="msg13"><line style="stroke:#000000;stroke-width:1;" x1="371.6353" x2="413.6353" y1="862.4453" y2="862.4453"/><line style="stroke:#000000;stroke-width:1;" x1="413.6353" x2="413.6353" y1="862.4453" y2="875.4453"/><line style="stroke:#000000;stroke-width:1;" x1="372.6353" x2="413.6353" y1="875.4453" y2="875.4453"/><polygon fill="#000000" points="382.6353,871.4453,372.6353,875.4453,382.6353,879.4453,378.6353,875.4453" style="stroke:#000000;stroke-width:1;"/><text fill="#000000" font-family="Verdana" font-size="13" lengthAdjust="spacing" textLength="116.4478" x="378.6353" y="857.3794">&#8594; kode surat final</text></g><rect fill="#FFFFFF" height="3" style="stroke:#FFFFFF;stroke-width:1;" width="897.1938" x="5" y="904.0117"/><line style="stroke:#000000;stroke-width:0.5;" x1="5" x2="902.1938" y1="904.0117" y2="904.0117"/><line style="stroke:#000000;stroke-width:0.5;" x1="5" x2="902.1938" y1="907.0117" y2="907.0117"/><rect fill="#FFFFFF" height="23.1328" style="stroke:#000000;stroke-width:1;" width="226.7734" x="340.2102" y="893.4453"/><text fill="#000000" font-family="Verdana" font-size="13" font-weight="bold" lengthAdjust="spacing" textLength="208.2476" x="346.2102" y="909.5122">Step 3: Load &amp; Fill Template</text><g class="message" data-entity-1="part2" data-entity-2="part3" id="msg14"><polygon fill="#000000" points="754.2407,958.8438,764.2407,962.8438,754.2407,966.8438,758.2407,962.8438" style="stroke:#000000;stroke-width:1;"/><line style="stroke:#000000;stroke-width:1;" x1="371.6353" x2="760.2407" y1="962.8438" y2="962.8438"/><text fill="#000000" font-family="Verdana" font-size="13" lengthAdjust="spacing" textLength="250.5928" x="378.6353" y="942.645">SELECT message FROM msg_template</text><text fill="#000000" font-family="Verdana" font-size="13" lengthAdjust="spacing" textLength="148.4336" x="378.6353" y="957.7778">WHERE template_id=3</text></g><g class="message" data-entity-1="part3" data-entity-2="part2" id="msg15"><polygon fill="#000000" points="382.6353,987.9766,372.6353,991.9766,382.6353,995.9766,378.6353,991.9766" style="stroke:#000000;stroke-width:1;"/><line style="stroke:#000000;stroke-width:1;stroke-dasharray:2,2;" x1="376.6353" x2="765.2407" y1="991.9766" y2="991.9766"/><text fill="#000000" font-family="Verdana" font-size="13" lengthAdjust="spacing" textLength="58.6841" x="388.6353" y="986.9106">template</text></g><g class="message" data-entity-1="part2" data-entity-2="part2" id="msg16"><line style="stroke:#000000;stroke-width:1;" x1="371.6353" x2="413.6353" y1="1081.6406" y2="1081.6406"/><line style="stroke:#000000;stroke-width:1;" x1="413.6353" x2="413.6353" y1="1081.6406" y2="1094.6406"/><line style="stroke:#000000;stroke-width:1;" x1="372.6353" x2="413.6353" y1="1094.6406" y2="1094.6406"/><polygon fill="#000000" points="382.6353,1090.6406,372.6353,1094.6406,382.6353,1098.6406,378.6353,1094.6406" style="stroke:#000000;stroke-width:1;"/><text fill="#000000" font-family="Verdana" font-size="13" lengthAdjust="spacing" textLength="163.7949" x="378.6353" y="1016.0435">Replace dalam template:</text><text fill="#000000" font-family="Verdana" font-size="13" lengthAdjust="spacing" textLength="12.4033" x="378.6353" y="1031.1763">1.</text><text fill="#000000" font-family="Verdana" font-size="13" lengthAdjust="spacing" textLength="168.8286" x="395.1709" y="1031.1763">ma_no# &#8594; archive.ma_no</text><text fill="#000000" font-family="Verdana" font-size="13" lengthAdjust="spacing" textLength="12.4033" x="378.6353" y="1046.3091">2.</text><text fill="#000000" font-family="Verdana" font-size="13" lengthAdjust="spacing" textLength="230.6802" x="395.1709" y="1046.3091">ma_subject# &#8594; archive.ma_subject</text><text fill="#000000" font-family="Verdana" font-size="13" lengthAdjust="spacing" textLength="12.4033" x="378.6353" y="1061.4419">3.</text><text fill="#000000" font-family="Verdana" font-size="13" lengthAdjust="spacing" textLength="364.0698" x="395.1709" y="1061.4419">ma_archive_by_name# &#8594; archive.ma_archive_by_name</text><text fill="#000000" font-family="Verdana" font-size="13" lengthAdjust="spacing" textLength="12.4033" x="378.6353" y="1076.5747">4.</text><text fill="#000000" font-family="Verdana" font-size="13" lengthAdjust="spacing" textLength="288.2407" x="395.1709" y="1076.5747">ma_secret_type# &#8594; archive.ma_secret_type</text></g><rect fill="#FFFFFF" height="3" style="stroke:#FFFFFF;stroke-width:1;" width="897.1938" x="5" y="1123.207"/><line style="stroke:#000000;stroke-width:0.5;" x1="5" x2="902.1938" y1="1123.207" y2="1123.207"/><line style="stroke:#000000;stroke-width:0.5;" x1="5" x2="902.1938" y1="1126.207" y2="1126.207"/><rect fill="#FFFFFF" height="23.1328" style="stroke:#000000;stroke-width:1;" width="153.9404" x="376.6267" y="1112.6406"/><text fill="#000000" font-family="Verdana" font-size="13" font-weight="bold" lengthAdjust="spacing" textLength="135.4146" x="382.6267" y="1128.7075">Step 4: Insert Mail</text><g class="message" data-entity-1="part2" data-entity-2="part3" id="msg17"><polygon fill="#000000" points="754.2407,1238.5703,764.2407,1242.5703,754.2407,1246.5703,758.2407,1242.5703" style="stroke:#000000;stroke-width:1;"/><line style="stroke:#000000;stroke-width:1;" x1="371.6353" x2="760.2407" y1="1242.5703" y2="1242.5703"/><text fill="#000000" font-family="Verdana" font-size="13" lengthAdjust="spacing" textLength="78.9839" x="378.6353" y="1161.8403">INSERT mail</text><text fill="#000000" font-family="Verdana" font-size="13" lengthAdjust="spacing" textLength="259.1812" x="378.6353" y="1176.9731">(m_subject="Pemberitahuan Hak Akses</text><text fill="#000000" font-family="Verdana" font-size="13" lengthAdjust="spacing" textLength="109.751" x="378.6353" y="1192.106">Dokumen Arsip",</text><text fill="#000000" font-family="Verdana" font-size="13" lengthAdjust="spacing" textLength="226.9351" x="378.6353" y="1207.2388">m_to_str=user.emp_name + " (" +</text><text fill="#000000" font-family="Verdana" font-size="13" lengthAdjust="spacing" textLength="139.1533" x="378.6353" y="1222.3716">user.pos_name + ")",</text><text fill="#000000" font-family="Verdana" font-size="13" lengthAdjust="spacing" textLength="129.8667" x="378.6353" y="1237.5044">m_status=SENT, ...)</text></g><g class="message" data-entity-1="part3" data-entity-2="part2" id="msg18"><polygon fill="#000000" points="382.6353,1267.7031,372.6353,1271.7031,382.6353,1275.7031,378.6353,1271.7031" style="stroke:#000000;stroke-width:1;"/><line style="stroke:#000000;stroke-width:1;stroke-dasharray:2,2;" x1="376.6353" x2="765.2407" y1="1271.7031" y2="1271.7031"/><text fill="#000000" font-family="Verdana" font-size="13" lengthAdjust="spacing" textLength="46.2173" x="388.6353" y="1266.6372">mail_id</text></g><g class="message" data-entity-1="part2" data-entity-2="part3" id="msg19"><polygon fill="#000000" points="754.2407,1311.9688,764.2407,1315.9688,754.2407,1319.9688,758.2407,1315.9688" style="stroke:#000000;stroke-width:1;"/><line style="stroke:#000000;stroke-width:1;" x1="371.6353" x2="760.2407" y1="1315.9688" y2="1315.9688"/><text fill="#000000" font-family="Verdana" font-size="13" lengthAdjust="spacing" textLength="112.9375" x="378.6353" y="1295.77">UPDATE mail SET</text><text fill="#000000" font-family="Verdana" font-size="13" lengthAdjust="spacing" textLength="228.8394" x="378.6353" y="1310.9028">m_root_id=mail_id, m_parent_id=0</text></g><rect fill="#FFFFFF" height="3" style="stroke:#FFFFFF;stroke-width:1;" width="897.1938" x="5" y="1344.5352"/><line style="stroke:#000000;stroke-width:0.5;" x1="5" x2="902.1938" y1="1344.5352" y2="1344.5352"/><line style="stroke:#000000;stroke-width:0.5;" x1="5" x2="902.1938" y1="1347.5352" y2="1347.5352"/><rect fill="#FFFFFF" height="23.1328" style="stroke:#000000;stroke-width:1;" width="210.1426" x="348.5256" y="1333.9688"/><text fill="#000000" font-family="Verdana" font-size="13" font-weight="bold" lengthAdjust="spacing" textLength="191.6167" x="354.5256" y="1350.0356">Step 5: Sent Item (Admin)</text><g class="message" data-entity-1="part2" data-entity-2="part3" id="msg20"><polygon fill="#000000" points="754.2407,1399.3672,764.2407,1403.3672,754.2407,1407.3672,758.2407,1403.3672" style="stroke:#000000;stroke-width:1;"/><line style="stroke:#000000;stroke-width:1;" x1="371.6353" x2="760.2407" y1="1403.3672" y2="1403.3672"/><text fill="#000000" font-family="Verdana" font-size="13" lengthAdjust="spacing" textLength="141.0894" x="378.6353" y="1383.1685">INSERT sys_user_task</text><text fill="#000000" font-family="Verdana" font-size="13" lengthAdjust="spacing" textLength="185.415" x="378.6353" y="1398.3013">(user_id=2, folder_id=SENT)</text></g><rect fill="#FFFFFF" height="3" style="stroke:#FFFFFF;stroke-width:1;" width="897.1938" x="5" y="1431.9336"/><line style="stroke:#000000;stroke-width:0.5;" x1="5" x2="902.1938" y1="1431.9336" y2="1431.9336"/><line style="stroke:#000000;stroke-width:0.5;" x1="5" x2="902.1938" y1="1434.9336" y2="1434.9336"/><rect fill="#FFFFFF" height="23.1328" style="stroke:#000000;stroke-width:1;" width="257.5024" x="324.8457" y="1421.3672"/><text fill="#000000" font-family="Verdana" font-size="13" font-weight="bold" lengthAdjust="spacing" textLength="238.9766" x="330.8457" y="1437.4341">Step 6: Inbox &#8212; Single Recipient</text><path d="M227,1459.5 L227,1514.5 L515,1514.5 L515,1469.5 L505,1459.5 L227,1459.5" fill="#FFFFFF" style="stroke:#000000;stroke-width:1;"/><path d="M505,1459.5 L505,1469.5 L515,1469.5 L505,1459.5" fill="#FFFFFF" style="stroke:#000000;stroke-width:1;"/><text fill="#000000" font-family="Verdana" font-size="13" lengthAdjust="spacing" textLength="186.9702" x="233" y="1476.5669">Tidak perlu query employee.</text><text fill="#000000" font-family="Verdana" font-size="13" lengthAdjust="spacing" textLength="242.5249" x="233" y="1491.6997">User object sudah lengkap dari caller</text><text fill="#000000" font-family="Verdana" font-size="13" lengthAdjust="spacing" textLength="267.2554" x="233" y="1506.8325">(via get_allowed_user di archive module)</text><g class="message" data-entity-1="part2" data-entity-2="part3" id="msg21"><polygon fill="#000000" points="754.2407,1567.2969,764.2407,1571.2969,754.2407,1575.2969,758.2407,1571.2969" style="stroke:#000000;stroke-width:1;"/><line style="stroke:#000000;stroke-width:1;" x1="371.6353" x2="760.2407" y1="1571.2969" y2="1571.2969"/><text fill="#000000" font-family="Verdana" font-size="13" lengthAdjust="spacing" textLength="142.7842" x="378.6353" y="1535.9653">INSERT mail_recipient</text><text fill="#000000" font-family="Verdana" font-size="13" lengthAdjust="spacing" textLength="192.0103" x="378.6353" y="1551.0981">(user_id, emp_id, emp_name,</text><text fill="#000000" font-family="Verdana" font-size="13" lengthAdjust="spacing" textLength="216.4233" x="378.6353" y="1566.231">pos_id, pos_name, circulation=4)</text></g><g class="message" data-entity-1="part2" data-entity-2="part3" id="msg22"><polygon fill="#000000" points="754.2407,1626.6953,764.2407,1630.6953,754.2407,1634.6953,758.2407,1630.6953" style="stroke:#000000;stroke-width:1;"/><line style="stroke:#000000;stroke-width:1;" x1="371.6353" x2="760.2407" y1="1630.6953" y2="1630.6953"/><text fill="#000000" font-family="Verdana" font-size="13" lengthAdjust="spacing" textLength="141.0894" x="378.6353" y="1595.3638">INSERT sys_user_task</text><text fill="#000000" font-family="Verdana" font-size="13" lengthAdjust="spacing" textLength="172.7959" x="378.6353" y="1610.4966">(user_id, folder_id=INBOX,</text><text fill="#000000" font-family="Verdana" font-size="13" lengthAdjust="spacing" textLength="147.3608" x="378.6353" y="1625.6294">read_status=UNREAD)</text></g><?plantuml-src bLNRRjiu47tNLyogmC9252DkkYrWG0lurjPex0IsWzq70m8jZMsk9L9BKjdwRP_w0SL-ORzaXvGi9tOIe7c8AGuvStZcSdunMymHYennuHbkCeH48JCOCvLi-GF6EUDPBAJXwrO0F_xz3wPspNTCS_ZCTj3RQTJGKveNIs4FvpB5h5riYsxdVUV3PUT3f-Dv1LE69xnWme0_O5c6QYbQlIe6J6HQPXZum3HKngSN9kHsOjsw4sxbfSom5TC8_h1UEUEmxtcL2xZylJeAtLVUL6fK8TI6mADD1CKtM-C1z56jC6MGCiN17GVBKvTCbp13GiUHuEaoPLjGg6NsW2aubo1NVs5Y0dTqmLCYga2LbV1tYMeFc1UPt2DMPll5R5oatmIx1pYmvfYbsaEHsl3eUL44SuC5TBeKtyM3mSruD5t4WzlX20PIhFa6eiZpDagMnHDZNp51RiM6WhBCG7yofnNK73qYAu_Dli2e4z8g8LmRgVPH1rhta_j9G3bkDkE4RaJ-rTMLlnGAr_Lt7eioNw6ArrBbpCIhNFiK2JDArdmoV3ueJp4FuMKdEayR9_sxwKyWluRMtMZwoQBlJP_3FtWTVLRuBjgJqh1_10DMLObGXJNXmjfyS0wjLRbZ0XnFWJCs2NLBxvcNs1gAUHgzXLOlpRdWsYXcf0fiCHphu6qNFg50PQjdAdEfO5xIXwk0nkUmJmxdevlHO046lnhuEBkTWDxhc5wD2aM2I_77vz5iL64-SE7HnSj7c8ICJLsgtXdWMLMxuFvlPPQYqaiXrQOf4Zy4bnr_x9zWsw29wNb2nngfFmXFQoaMlVcNUD8RtuIMkKl_uYHl8Lm7fmWFry_X_VZs7NQqfcQr_AovODcHnkikt4YMmg_maMVPiI5Vf357hTa6AoPplMc8EH1v-BOvl3w5sR3uCeqforZU7EmknPkSqSHwunvIZuUsswfCkdJpvinUxrU73kDljOy5o_7iy8czzemqF8rhh7FlHzkHp7TT60igNmDsR3_3uNWw7ys8GxAI1kG7Z95_XxRnk67Ralgb4PUb6CfTcQEeLCOFRGyR6LDBHBPFsiII0mmNGDtcmyLIkFr2wcO_gAvfmqofepbDnH3QxVPP2JbfuEafvlkxOMynSbQgWOLrfQGqDhtr3JjpIBH84EpcrP6FtwXgh4oCAPjrDmSlisBRqZM_ONf7z3I388IrwohxOU47nmZlBUCh-TN9yvmcFAduKPviA3Uxv0FfKYMUy8ecjSbwVvImMjuo59iTAoejJ2gD1cWzSERQbpRaFvWww93oHi7oIjaVITYBjK3Jg8PyV7PeKJM_DfUKHPjMktL8RmW9Lqb9ZSAbYDu5FyViOrx7q_xjdw5L0vOUIkL-EXlrXe7tFm00?></g></svg>