<?plantuml 1.2026.1?><svg xmlns="http://www.w3.org/2000/svg" xmlns:xlink="http://www.w3.org/1999/xlink" contentStyleType="text/css" data-diagram-type="ACTIVITY" height="1519px" preserveAspectRatio="none" style="width:1663px;height:1519px;background:#FFFFFF;" version="1.1" viewBox="0 0 1663 1519" width="1663px" zoomAndPan="magnify"><title>archive() + create() + update() &#8212; Archive Workflow
mailarchivemodel.php:263-399</title><defs/><g><g class="title" data-source-line="2"><text fill="#000000" font-family="Verdana" font-size="22" font-weight="bold" lengthAdjust="spacing" textLength="641.3408" x="509.5846" y="35.4209">archive() + create() + update() &#8212; Archive Workflow</text><text fill="#000000" font-family="Verdana" font-size="22" font-weight="bold" lengthAdjust="spacing" textLength="385.5908" x="637.4596" y="61.0303">mailarchivemodel.php:263-399</text></g><path d="M856.755,77.2188 L856.755,108.4844 L836.755,112.4844 L856.755,116.4844 L856.755,147.75 A0,0 0 0 0 856.755,147.75 L1159.8512,147.75 A0,0 0 0 0 1159.8512,147.75 L1159.8512,87.2188 L1149.8512,77.2188 L856.755,77.2188 A0,0 0 0 0 856.755,77.2188" fill="#FFFFFF" style="stroke:#000000;stroke-width:1;"/><path d="M1149.8512,77.2188 L1149.8512,87.2188 L1159.8512,87.2188 L1149.8512,77.2188" fill="#FFFFFF" style="stroke:#000000;stroke-width:1;"/><text fill="#000000" font-family="Verdana" font-size="13" lengthAdjust="spacing" textLength="83.0273" x="862.755" y="94.2856">Entry points:</text><text fill="#000000" font-family="Verdana" font-size="13" lengthAdjust="spacing" textLength="282.0962" x="862.755" y="109.4185">- Controller save() &#8594; create() atau update()</text><text fill="#000000" font-family="Verdana" font-size="13" lengthAdjust="spacing" textLength="253.062" x="862.755" y="124.5513">- Controller archive() &#8594; finalize archive</text><text fill="#000000" font-family="Verdana" font-size="13" lengthAdjust="spacing" textLength="195.8379" x="862.755" y="139.6841">- Controller del() &#8594; soft delete</text><ellipse cx="826.755" cy="112.4844" fill="#FFFFFF" rx="10" ry="10" style="stroke:#000000;stroke-width:1;"/><polygon fill="#FFFFFF" points="151.593,167.75,192.075,167.75,204.075,179.75,192.075,191.75,151.593,191.75,139.593,179.75,151.593,167.75" style="stroke:#000000;stroke-width:1;"/><text fill="#000000" font-family="Verdana" font-size="11" lengthAdjust="spacing" textLength="61.9287" x="175.834" y="201.9604">save - baru</text><text fill="#000000" font-family="Verdana" font-size="11" lengthAdjust="spacing" textLength="40.4819" x="151.593" y="183.5581">Action?</text><rect fill="#ADD8E6" height="317.0352" style="stroke:#000000;stroke-width:1;" width="258.4258" x="42.6211" y="224.5547"/><path d="M185.7168,224.5547 L185.7168,233.8516 L175.7168,243.8516 L42.6211,243.8516" fill="none" style="stroke:#000000;stroke-width:1;"/><text fill="#000000" font-family="Verdana" font-size="14" lengthAdjust="spacing" textLength="133.0957" x="45.6211" y="238.5498">Validasi Organisasi</text><rect fill="#FFFFFF" height="47.9375" rx="12.5" ry="12.5" style="stroke:#000000;stroke-width:1;" width="238.4258" x="52.6211" y="260.8516"/><text fill="#000000" font-family="Verdana" font-size="12" lengthAdjust="spacing" textLength="218.4258" x="62.6211" y="281.9902">Query mail_code FROM organization</text><text fill="#000000" font-family="Verdana" font-size="12" lengthAdjust="spacing" textLength="164.6191" x="62.6211" y="295.959">WHERE org_id = ma_org_id</text><rect fill="#FFFFFF" height="47.9375" rx="12.5" ry="12.5" style="stroke:#000000;stroke-width:1;" width="171.3184" x="86.1748" y="392.1914"/><text fill="#000000" font-family="Verdana" font-size="12" lengthAdjust="spacing" textLength="90.4688" x="96.1748" y="413.3301">Return ERROR:</text><text fill="#000000" font-family="Verdana" font-size="12" lengthAdjust="spacing" textLength="151.3184" x="96.1748" y="427.2988">"Unit Kerja tidak dikenal"</text><ellipse cx="171.834" cy="480.1875" fill="none" rx="11" ry="11" style="stroke:#000000;stroke-width:1;"/><ellipse cx="171.834" cy="480.1875" fill="#FFFFFF" rx="6" ry="6" style="stroke:#000000;stroke-width:1;"/><polygon fill="#FFFFFF" points="87.9482,343.7891,255.7197,343.7891,267.7197,355.7891,255.7197,367.7891,87.9482,367.7891,75.9482,355.7891,87.9482,343.7891" style="stroke:#000000;stroke-width:1;"/><text fill="#000000" font-family="Verdana" font-size="11" lengthAdjust="spacing" textLength="19.0083" x="175.834" y="377.9995">yes</text><text fill="#000000" font-family="Verdana" font-size="11" lengthAdjust="spacing" textLength="167.7715" x="87.9482" y="359.5972">organization tidak ditemukan?</text><text fill="#000000" font-family="Verdana" font-size="11" lengthAdjust="spacing" textLength="13.7017" x="267.7197" y="353.1948">no</text><rect fill="#ADD8E6" height="201.0391" style="stroke:#000000;stroke-width:1;" width="304.9805" x="25.3438" y="576.5898"/><path d="M199.0234,576.5898 L199.0234,585.8867 L189.0234,595.8867 L25.3438,595.8867" fill="none" style="stroke:#000000;stroke-width:1;"/><text fill="#000000" font-family="Verdana" font-size="14" lengthAdjust="spacing" textLength="163.6797" x="28.3438" y="590.585">Resolve Category Code</text><rect fill="#FFFFFF" height="47.9375" rx="12.5" ry="12.5" style="stroke:#000000;stroke-width:1;" width="252.9805" x="45.3438" y="661.2891"/><text fill="#000000" font-family="Verdana" font-size="12" lengthAdjust="spacing" textLength="232.9805" x="55.3438" y="682.4277">Query mcat_code FROM mail_category</text><text fill="#000000" font-family="Verdana" font-size="12" lengthAdjust="spacing" textLength="185.5254" x="55.3438" y="696.3965">WHERE mcat_id = ma_mcat_id</text><polygon fill="#FFFFFF" points="106.0085,612.8867,237.6594,612.8867,249.6594,624.8867,237.6594,636.8867,106.0085,636.8867,94.0085,624.8867,106.0085,612.8867" style="stroke:#000000;stroke-width:1;"/><text fill="#000000" font-family="Verdana" font-size="11" lengthAdjust="spacing" textLength="19.0083" x="175.834" y="647.0972">yes</text><text fill="#000000" font-family="Verdana" font-size="11" lengthAdjust="spacing" textLength="131.6509" x="106.0085" y="628.6948">ma_mcat_code kosong?</text><text fill="#000000" font-family="Verdana" font-size="11" lengthAdjust="spacing" textLength="13.7017" x="249.6594" y="622.2925">no</text><polygon fill="#FFFFFF" points="171.834,733.6289,183.834,745.6289,171.834,757.6289,159.834,745.6289,171.834,733.6289" style="stroke:#000000;stroke-width:1;"/><path d="M266.6006,812.6289 L266.6006,828.7617 L246.6006,832.7617 L266.6006,836.7617 L266.6006,852.8945 A0,0 0 0 0 266.6006,852.8945 L494.9531,852.8945 A0,0 0 0 0 494.9531,852.8945 L494.9531,822.6289 L484.9531,812.6289 L266.6006,812.6289 A0,0 0 0 0 266.6006,812.6289" fill="#FFFFFF" style="stroke:#000000;stroke-width:1;"/><path d="M484.9531,812.6289 L484.9531,822.6289 L494.9531,822.6289 L484.9531,812.6289" fill="#FFFFFF" style="stroke:#000000;stroke-width:1;"/><text fill="#000000" font-family="Verdana" font-size="13" lengthAdjust="spacing" textLength="94.7261" x="272.6006" y="829.6958">Lihat diagram:</text><text fill="#000000" font-family="Verdana" font-size="13" font-weight="bold" lengthAdjust="spacing" textLength="207.3525" x="272.6006" y="844.8286">archive-generate-code.puml</text><rect fill="#FFFFFF" height="33.9688" rx="12.5" ry="12.5" style="stroke:#000000;stroke-width:1;" width="149.5332" x="97.0674" y="815.7773"/><text fill="#000000" font-family="Verdana" font-size="12" lengthAdjust="spacing" textLength="129.5332" x="107.0674" y="836.916">generate_code(input)</text><rect fill="#ADD8E6" height="303.8594" style="stroke:#000000;stroke-width:1;" width="331.668" x="6" y="887.8945"/><path d="M113.2959,887.8945 L113.2959,897.1914 L103.2959,907.1914 L6,907.1914" fill="none" style="stroke:#000000;stroke-width:1;"/><text fill="#000000" font-family="Verdana" font-size="14" lengthAdjust="spacing" textLength="97.2959" x="9" y="901.8896">Insert Archive</text><rect fill="#FFFFFF" height="201.5938" rx="12.5" ry="12.5" style="stroke:#000000;stroke-width:1;" width="311.668" x="16" y="924.1914"/><text fill="#000000" font-family="Verdana" font-size="12" lengthAdjust="spacing" textLength="127.2598" x="26" y="945.3301">INSERT mail_archive:</text><text fill="#000000" font-family="Verdana" font-size="12" lengthAdjust="spacing" textLength="160.5527" x="26" y="959.2988">- ma_no = generated code</text><text fill="#000000" font-family="Verdana" font-size="12" lengthAdjust="spacing" textLength="285.7383" x="26" y="973.2676">- ma_mail_date, ma_mcat_type, ma_mcat_code</text><text fill="#000000" font-family="Verdana" font-size="12" lengthAdjust="spacing" textLength="237.5039" x="26" y="987.2363">- ma_mcat_id, ma_org_code, ma_org_id</text><text fill="#000000" font-family="Verdana" font-size="12" lengthAdjust="spacing" textLength="136.8398" x="26" y="1001.2051">- ma_ref_id, ma_ref_no</text><text fill="#000000" font-family="Verdana" font-size="12" lengthAdjust="spacing" textLength="291.668" x="26" y="1015.1738">- ma_sent_to, ma_subject, ma_content, ma_note</text><text fill="#000000" font-family="Verdana" font-size="12" lengthAdjust="spacing" textLength="141.1582" x="26" y="1029.1426">- ma_status (dari input)</text><text fill="#000000" font-family="Verdana" font-size="12" lengthAdjust="spacing" textLength="103.248" x="26" y="1043.1113">- ma_secret_type</text><text fill="#000000" font-family="Verdana" font-size="12" lengthAdjust="spacing" textLength="288.5801" x="26" y="1057.0801">- ma_loc_* (building, floor, room, rack, tier, box)</text><text fill="#000000" font-family="Verdana" font-size="12" lengthAdjust="spacing" textLength="253.4004" x="26" y="1071.0488">- ma_keyword, ma_keyword_index_flag=0</text><text fill="#000000" font-family="Verdana" font-size="12" lengthAdjust="spacing" textLength="154.7344" x="26" y="1085.0176">- ma_archive_date=now()</text><text fill="#000000" font-family="Verdana" font-size="12" lengthAdjust="spacing" textLength="174.4746" x="26" y="1098.9863">- ma_archive_by_name=user</text><text fill="#000000" font-family="Verdana" font-size="12" lengthAdjust="spacing" textLength="76.1895" x="26" y="1112.9551">- office_code</text><rect fill="#FFFFFF" height="33.9688" rx="12.5" ry="12.5" style="stroke:#000000;stroke-width:1;" width="109.1621" x="117.2529" y="1145.7852"/><text fill="#000000" font-family="Verdana" font-size="12" lengthAdjust="spacing" textLength="89.1621" x="127.2529" y="1166.9238">id = insert_id()</text><rect fill="#ADD8E6" height="196.0977" style="stroke:#000000;stroke-width:1;" width="506.1543" x="21.4883" y="1201.7539"/><path d="M190.9639,1201.7539 L190.9639,1211.0508 L180.9639,1221.0508 L21.4883,1221.0508" fill="none" style="stroke:#000000;stroke-width:1;"/><text fill="#000000" font-family="Verdana" font-size="14" lengthAdjust="spacing" textLength="159.4756" x="24.4883" y="1215.749">Update Mail Reference</text><path d="M322.1797,1286.4531 L322.1797,1310.1523 L302.1797,1314.1523 L322.1797,1318.1523 L322.1797,1341.8516 A0,0 0 0 0 322.1797,1341.8516 L501.6426,1341.8516 A0,0 0 0 0 501.6426,1341.8516 L501.6426,1296.4531 L491.6426,1286.4531 L322.1797,1286.4531 A0,0 0 0 0 322.1797,1286.4531" fill="#FFFFFF" style="stroke:#000000;stroke-width:1;"/><path d="M491.6426,1286.4531 L491.6426,1296.4531 L501.6426,1296.4531 L491.6426,1286.4531" fill="#FFFFFF" style="stroke:#000000;stroke-width:1;"/><text fill="#000000" font-family="Verdana" font-size="13" lengthAdjust="spacing" textLength="124.0459" x="328.1797" y="1303.52">Link surat ke arsip.</text><text fill="#000000" font-family="Verdana" font-size="13" lengthAdjust="spacing" textLength="158.4629" x="328.1797" y="1318.6528">Surat yang sudah di-link</text><text fill="#000000" font-family="Verdana" font-size="13" lengthAdjust="spacing" textLength="147.5322" x="328.1797" y="1333.7856">tidak bisa di-arsip lagi.</text><rect fill="#FFFFFF" height="47.9375" rx="12.5" ry="12.5" style="stroke:#000000;stroke-width:1;" width="260.6914" x="41.4883" y="1290.1836"/><text fill="#000000" font-family="Verdana" font-size="12" lengthAdjust="spacing" textLength="240.6914" x="51.4883" y="1311.3223">UPDATE mail SET m_ma_id = archive_id</text><text fill="#000000" font-family="Verdana" font-size="12" lengthAdjust="spacing" textLength="153.0645" x="51.4883" y="1325.291">WHERE m_id = ma_ref_id</text><polygon fill="#FFFFFF" points="128.2771,1238.0508,215.3909,1238.0508,227.3909,1250.0508,215.3909,1262.0508,128.2771,1262.0508,116.2771,1250.0508,128.2771,1238.0508" style="stroke:#000000;stroke-width:1;"/><text fill="#000000" font-family="Verdana" font-size="11" lengthAdjust="spacing" textLength="19.0083" x="175.834" y="1272.2612">yes</text><text fill="#000000" font-family="Verdana" font-size="11" lengthAdjust="spacing" textLength="87.1138" x="128.2771" y="1253.8589">ma_ref_id != 0?</text><text fill="#000000" font-family="Verdana" font-size="11" lengthAdjust="spacing" textLength="13.7017" x="227.3909" y="1247.4565">no</text><polygon fill="#FFFFFF" points="171.834,1361.8516,183.834,1373.8516,171.834,1385.8516,159.834,1373.8516,171.834,1361.8516" style="stroke:#000000;stroke-width:1;"/><rect fill="#FFFFFF" height="33.9688" rx="12.5" ry="12.5" style="stroke:#000000;stroke-width:1;" width="186.582" x="78.543" y="1417.8516"/><text fill="#000000" font-family="Verdana" font-size="12" lengthAdjust="spacing" textLength="166.582" x="88.543" y="1438.9902">Return success + id + code</text><polygon fill="#FFFFFF" points="636.1243,167.75,716.2234,167.75,728.2234,179.75,716.2234,191.75,636.1243,191.75,624.1243,179.75,636.1243,167.75" style="stroke:#000000;stroke-width:1;"/><text fill="#000000" font-family="Verdana" font-size="11" lengthAdjust="spacing" textLength="80.0991" x="636.1243" y="183.5581">save - existing</text><rect fill="#ADD8E6" height="104.2344" style="stroke:#000000;stroke-width:1;" width="213.6777" x="569.335" y="211.75"/><path d="M710.9473,211.75 L710.9473,221.0469 L700.9473,231.0469 L569.335,231.0469" fill="none" style="stroke:#000000;stroke-width:1;"/><text fill="#000000" font-family="Verdana" font-size="14" lengthAdjust="spacing" textLength="131.6123" x="572.335" y="225.7451">Load Existing Data</text><rect fill="#FFFFFF" height="47.9375" rx="12.5" ry="12.5" style="stroke:#000000;stroke-width:1;" width="193.6777" x="579.335" y="248.0469"/><text fill="#000000" font-family="Verdana" font-size="12" lengthAdjust="spacing" textLength="173.6777" x="589.335" y="269.1855">SELECT * FROM mail_archive</text><text fill="#000000" font-family="Verdana" font-size="12" lengthAdjust="spacing" textLength="172.5586" x="589.335" y="283.1543">WHERE ma_id = input.ma_id</text><rect fill="#ADD8E6" height="112.2617" style="stroke:#000000;stroke-width:1;" width="243.4082" x="554.4697" y="350.9844"/><path d="M672.3135,350.9844 L672.3135,360.2813 L662.3135,370.2813 L554.4697,370.2813" fill="none" style="stroke:#000000;stroke-width:1;"/><text fill="#000000" font-family="Verdana" font-size="14" lengthAdjust="spacing" textLength="107.8438" x="557.4697" y="364.9795">Update Archive</text><rect fill="#FFFFFF" height="61.9063" rx="12.5" ry="12.5" style="stroke:#000000;stroke-width:1;" width="223.4082" x="564.4697" y="387.2813"/><text fill="#000000" font-family="Verdana" font-size="12" lengthAdjust="spacing" textLength="154.5586" x="574.4697" y="408.4199">UPDATE mail_archive SET</text><text fill="#000000" font-family="Verdana" font-size="12" lengthAdjust="spacing" textLength="203.4082" x="574.4697" y="422.3887">semua field (sama seperti create)</text><text fill="#000000" font-family="Verdana" font-size="12" lengthAdjust="spacing" textLength="172.5586" x="574.4697" y="436.3574">WHERE ma_id = input.ma_id</text><rect fill="#ADD8E6" height="505.5234" style="stroke:#000000;stroke-width:1;" width="399.7629" x="537.6426" y="498.2461"/><path d="M763.8359,498.2461 L763.8359,507.543 L753.8359,517.543 L537.6426,517.543" fill="none" style="stroke:#000000;stroke-width:1;"/><text fill="#000000" font-family="Verdana" font-size="14" lengthAdjust="spacing" textLength="216.1934" x="540.6426" y="512.2412">Handle Mail Reference Change</text><rect fill="#FFFFFF" height="61.9063" rx="12.5" ry="12.5" style="stroke:#000000;stroke-width:1;" width="222.9336" x="564.707" y="631.3477"/><text fill="#000000" font-family="Verdana" font-size="12" lengthAdjust="spacing" textLength="164.7422" x="574.707" y="652.4863">Release old mail reference:</text><text fill="#000000" font-family="Verdana" font-size="12" lengthAdjust="spacing" textLength="202.9336" x="574.707" y="666.4551">UPDATE mail SET m_ma_id=NULL</text><text fill="#000000" font-family="Verdana" font-size="12" lengthAdjust="spacing" textLength="175.1719" x="574.707" y="680.4238">WHERE m_id = old.ma_ref_id</text><polygon fill="#FFFFFF" points="622.4844,582.9453,729.8633,582.9453,741.8633,594.9453,729.8633,606.9453,622.4844,606.9453,610.4844,594.9453,622.4844,582.9453" style="stroke:#000000;stroke-width:1;"/><text fill="#000000" font-family="Verdana" font-size="11" lengthAdjust="spacing" textLength="19.0083" x="680.1738" y="617.1558">yes</text><text fill="#000000" font-family="Verdana" font-size="11" lengthAdjust="spacing" textLength="107.3789" x="622.4844" y="598.7534">old.ma_ref_id != 0?</text><text fill="#000000" font-family="Verdana" font-size="11" lengthAdjust="spacing" textLength="13.7017" x="741.8633" y="592.3511">no</text><polygon fill="#FFFFFF" points="676.1738,717.6563,688.1738,729.6563,676.1738,741.6563,664.1738,729.6563,676.1738,717.6563" style="stroke:#000000;stroke-width:1;"/><rect fill="#FFFFFF" height="61.9063" rx="12.5" ry="12.5" style="stroke:#000000;stroke-width:1;" width="253.0625" x="549.6426" y="825.0586"/><text fill="#000000" font-family="Verdana" font-size="12" lengthAdjust="spacing" textLength="153.6914" x="559.6426" y="846.1973">Book new mail reference:</text><text fill="#000000" font-family="Verdana" font-size="12" lengthAdjust="spacing" textLength="233.0625" x="559.6426" y="860.166">UPDATE mail SET m_ma_id=archive_id</text><text fill="#000000" font-family="Verdana" font-size="12" lengthAdjust="spacing" textLength="181.6816" x="559.6426" y="874.1348">WHERE m_id = new.ma_ref_id</text><polygon fill="#FFFFFF" points="619.5007,776.6563,732.8469,776.6563,744.8469,788.6563,732.8469,800.6563,619.5007,800.6563,607.5007,788.6563,619.5007,776.6563" style="stroke:#000000;stroke-width:1;"/><text fill="#000000" font-family="Verdana" font-size="11" lengthAdjust="spacing" textLength="19.0083" x="680.1738" y="810.8667">yes</text><text fill="#000000" font-family="Verdana" font-size="11" lengthAdjust="spacing" textLength="113.3462" x="619.5007" y="792.4644">new.ma_ref_id != 0?</text><text fill="#000000" font-family="Verdana" font-size="11" lengthAdjust="spacing" textLength="13.7017" x="744.8469" y="786.062">no</text><polygon fill="#FFFFFF" points="676.1738,911.3672,688.1738,923.3672,676.1738,935.3672,664.1738,923.3672,676.1738,911.3672" style="stroke:#000000;stroke-width:1;"/><polygon fill="#FFFFFF" points="586.0388,534.543,766.3088,534.543,778.3088,546.543,766.3088,558.543,586.0388,558.543,574.0388,546.543,586.0388,534.543" style="stroke:#000000;stroke-width:1;"/><text fill="#000000" font-family="Verdana" font-size="11" lengthAdjust="spacing" textLength="19.0083" x="680.1738" y="568.7534">yes</text><text fill="#000000" font-family="Verdana" font-size="11" lengthAdjust="spacing" textLength="180.27" x="586.0388" y="550.3511">old.ma_ref_id != new.ma_ref_id?</text><text fill="#000000" font-family="Verdana" font-size="11" lengthAdjust="spacing" textLength="154.0967" x="778.3088" y="543.9487">no, reference tidak berubah</text><polygon fill="#FFFFFF" points="676.1738,959.7695,688.1738,971.7695,676.1738,983.7695,664.1738,971.7695,676.1738,959.7695" style="stroke:#000000;stroke-width:1;"/><rect fill="#FFFFFF" height="33.9688" rx="12.5" ry="12.5" style="stroke:#000000;stroke-width:1;" width="111.3242" x="620.5117" y="1038.7695"/><text fill="#000000" font-family="Verdana" font-size="12" lengthAdjust="spacing" textLength="91.3242" x="630.5117" y="1059.9082">Return success</text><polygon fill="#FFFFFF" points="1026.6487,167.75,1110.2659,167.75,1122.2659,179.75,1110.2659,191.75,1026.6487,191.75,1014.6487,179.75,1026.6487,167.75" style="stroke:#000000;stroke-width:1;"/><text fill="#000000" font-family="Verdana" font-size="11" lengthAdjust="spacing" textLength="83.6172" x="1026.6487" y="183.5581">archive/finalize</text><text fill="#000000" font-family="Verdana" font-size="11" lengthAdjust="spacing" textLength="34.6543" x="1122.2659" y="177.1558">delete</text><rect fill="#ADD8E6" height="146.1406" style="stroke:#000000;stroke-width:1;" width="222.1035" x="957.4055" y="211.75"/><path d="M1020.5413,211.75 L1020.5413,221.0469 L1010.5413,231.0469 L957.4055,231.0469" fill="none" style="stroke:#000000;stroke-width:1;"/><text fill="#000000" font-family="Verdana" font-size="14" lengthAdjust="spacing" textLength="53.1357" x="960.4055" y="225.7451">Finalize</text><rect fill="#FFFFFF" height="89.8438" rx="12.5" ry="12.5" style="stroke:#000000;stroke-width:1;" width="202.1035" x="967.4055" y="248.0469"/><text fill="#000000" font-family="Verdana" font-size="12" lengthAdjust="spacing" textLength="154.5586" x="977.4055" y="269.1855">UPDATE mail_archive SET</text><text fill="#000000" font-family="Verdana" font-size="12" lengthAdjust="spacing" textLength="171.4512" x="977.4055" y="283.1543">- ma_status = 2 (FINALIZED)</text><text fill="#000000" font-family="Verdana" font-size="12" lengthAdjust="spacing" textLength="162.3633" x="977.4055" y="297.123">- ma_archive_date = now()</text><text fill="#000000" font-family="Verdana" font-size="12" lengthAdjust="spacing" textLength="182.1035" x="977.4055" y="311.0918">- ma_archive_by_name = user</text><text fill="#000000" font-family="Verdana" font-size="12" lengthAdjust="spacing" textLength="112.834" x="977.4055" y="325.0605">WHERE ma_id = id</text><rect fill="#FFFFFF" height="33.9688" rx="12.5" ry="12.5" style="stroke:#000000;stroke-width:1;" width="111.3242" x="1012.7952" y="392.8906"/><text fill="#000000" font-family="Verdana" font-size="12" lengthAdjust="spacing" textLength="91.3242" x="1022.7952" y="414.0293">Return success</text><rect fill="#ADD8E6" height="394.8516" style="stroke:#000000;stroke-width:1;" width="468.001" x="1189.509" y="637.6055"/><path d="M1277.8284,637.6055 L1277.8284,646.9023 L1267.8284,656.9023 L1189.509,656.9023" fill="none" style="stroke:#000000;stroke-width:1;"/><text fill="#000000" font-family="Verdana" font-size="14" lengthAdjust="spacing" textLength="78.3193" x="1192.509" y="651.6006">Soft Delete</text><rect fill="#FFFFFF" height="47.9375" rx="12.5" ry="12.5" style="stroke:#000000;stroke-width:1;" width="193.6777" x="1216.137" y="673.9023"/><text fill="#000000" font-family="Verdana" font-size="12" lengthAdjust="spacing" textLength="173.6777" x="1226.137" y="695.041">SELECT * FROM mail_archive</text><text fill="#000000" font-family="Verdana" font-size="12" lengthAdjust="spacing" textLength="112.834" x="1226.137" y="709.0098">WHERE ma_id = id</text><rect fill="#FFFFFF" height="61.9063" rx="12.5" ry="12.5" style="stroke:#000000;stroke-width:1;" width="175.6543" x="1225.1487" y="756.8398"/><text fill="#000000" font-family="Verdana" font-size="12" lengthAdjust="spacing" textLength="154.5586" x="1235.1487" y="777.9785">UPDATE mail_archive SET</text><text fill="#000000" font-family="Verdana" font-size="12" lengthAdjust="spacing" textLength="155.6543" x="1235.1487" y="791.9473">ma_status = 3 (DELETED)</text><text fill="#000000" font-family="Verdana" font-size="12" lengthAdjust="spacing" textLength="112.834" x="1235.1487" y="805.916">WHERE ma_id = id</text><path d="M1444.4426,912.9688 L1444.4426,929.1016 L1424.4426,933.1016 L1444.4426,937.1016 L1444.4426,953.2344 A0,0 0 0 0 1444.4426,953.2344 L1631.51,953.2344 A0,0 0 0 0 1631.51,953.2344 L1631.51,922.9688 L1621.51,912.9688 L1444.4426,912.9688 A0,0 0 0 0 1444.4426,912.9688" fill="#FFFFFF" style="stroke:#000000;stroke-width:1;"/><path d="M1621.51,912.9688 L1621.51,922.9688 L1631.51,922.9688 L1621.51,912.9688" fill="#FFFFFF" style="stroke:#000000;stroke-width:1;"/><text fill="#000000" font-family="Verdana" font-size="13" lengthAdjust="spacing" textLength="166.0674" x="1450.4426" y="930.0356">Membebaskan surat agar</text><text fill="#000000" font-family="Verdana" font-size="13" lengthAdjust="spacing" textLength="119.6787" x="1450.4426" y="945.1685">bisa di-arsip ulang</text><rect fill="#FFFFFF" height="61.9063" rx="12.5" ry="12.5" style="stroke:#000000;stroke-width:1;" width="222.9336" x="1201.509" y="902.1484"/><text fill="#000000" font-family="Verdana" font-size="12" lengthAdjust="spacing" textLength="142.6348" x="1211.509" y="923.2871">Release mail reference:</text><text fill="#000000" font-family="Verdana" font-size="12" lengthAdjust="spacing" textLength="202.9336" x="1211.509" y="937.2559">UPDATE mail SET m_ma_id=NULL</text><text fill="#000000" font-family="Verdana" font-size="12" lengthAdjust="spacing" textLength="153.0645" x="1211.509" y="951.2246">WHERE m_id = ma_ref_id</text><polygon fill="#FFFFFF" points="1269.4189,853.7461,1356.5327,853.7461,1368.5327,865.7461,1356.5327,877.7461,1269.4189,877.7461,1257.4189,865.7461,1269.4189,853.7461" style="stroke:#000000;stroke-width:1;"/><text fill="#000000" font-family="Verdana" font-size="11" lengthAdjust="spacing" textLength="19.0083" x="1316.9758" y="887.9565">yes</text><text fill="#000000" font-family="Verdana" font-size="11" lengthAdjust="spacing" textLength="87.1138" x="1269.4189" y="869.5542">ma_ref_id != 0?</text><text fill="#000000" font-family="Verdana" font-size="11" lengthAdjust="spacing" textLength="13.7017" x="1368.5327" y="863.1519">no</text><polygon fill="#FFFFFF" points="1312.9758,988.457,1324.9758,1000.457,1312.9758,1012.457,1300.9758,1000.457,1312.9758,988.457" style="stroke:#000000;stroke-width:1;"/><rect fill="#FFFFFF" height="33.9688" rx="12.5" ry="12.5" style="stroke:#000000;stroke-width:1;" width="111.3242" x="1257.3137" y="1067.457"/><text fill="#000000" font-family="Verdana" font-size="12" lengthAdjust="spacing" textLength="91.3242" x="1267.3137" y="1088.5957">Return success</text><ellipse cx="826.755" cy="1502.8203" fill="none" rx="11" ry="11" style="stroke:#000000;stroke-width:1;"/><ellipse cx="826.755" cy="1502.8203" fill="#FFFFFF" rx="6" ry="6" style="stroke:#000000;stroke-width:1;"/><line style="stroke:#000000;stroke-width:1;" x1="171.834" x2="171.834" y1="440.1289" y2="469.1875"/><polygon fill="#000000" points="167.834,459.1875,171.834,469.1875,175.834,459.1875,171.834,463.1875" style="stroke:#000000;stroke-width:1;"/><line style="stroke:#000000;stroke-width:1;" x1="171.834" x2="171.834" y1="367.7891" y2="392.1914"/><polygon fill="#000000" points="167.834,382.1914,171.834,392.1914,175.834,382.1914,171.834,386.1914" style="stroke:#000000;stroke-width:1;"/><line style="stroke:#000000;stroke-width:1;" x1="267.7197" x2="279.7197" y1="355.7891" y2="355.7891"/><polygon fill="#000000" points="275.7197,431.6602,279.7197,441.6602,283.7197,431.6602,279.7197,435.6602" style="stroke:#000000;stroke-width:1;"/><line style="stroke:#000000;stroke-width:1;" x1="279.7197" x2="279.7197" y1="355.7891" y2="521.5898"/><line style="stroke:#000000;stroke-width:1;" x1="279.7197" x2="171.834" y1="521.5898" y2="521.5898"/><line style="stroke:#000000;stroke-width:1;" x1="171.834" x2="171.834" y1="521.5898" y2="612.8867"/><polygon fill="#000000" points="167.834,602.8867,171.834,612.8867,175.834,602.8867,171.834,606.8867" style="stroke:#000000;stroke-width:1;"/><line style="stroke:#000000;stroke-width:1;" x1="171.834" x2="171.834" y1="308.7891" y2="343.7891"/><polygon fill="#000000" points="167.834,333.7891,171.834,343.7891,175.834,333.7891,171.834,337.7891" style="stroke:#000000;stroke-width:1;"/><line style="stroke:#000000;stroke-width:1;" x1="171.834" x2="171.834" y1="636.8867" y2="661.2891"/><polygon fill="#000000" points="167.834,651.2891,171.834,661.2891,175.834,651.2891,171.834,655.2891" style="stroke:#000000;stroke-width:1;"/><line style="stroke:#000000;stroke-width:1;" x1="249.6594" x2="308.3242" y1="624.8867" y2="624.8867"/><polygon fill="#000000" points="304.3242,675.2578,308.3242,685.2578,312.3242,675.2578,308.3242,679.2578" style="stroke:#000000;stroke-width:1;"/><line style="stroke:#000000;stroke-width:1;" x1="308.3242" x2="308.3242" y1="624.8867" y2="745.6289"/><line style="stroke:#000000;stroke-width:1;" x1="308.3242" x2="183.834" y1="745.6289" y2="745.6289"/><polygon fill="#000000" points="193.834,741.6289,183.834,745.6289,193.834,749.6289,189.834,745.6289" style="stroke:#000000;stroke-width:1;"/><line style="stroke:#000000;stroke-width:1;" x1="171.834" x2="171.834" y1="709.2266" y2="733.6289"/><polygon fill="#000000" points="167.834,723.6289,171.834,733.6289,175.834,723.6289,171.834,727.6289" style="stroke:#000000;stroke-width:1;"/><line style="stroke:#000000;stroke-width:1;" x1="171.834" x2="171.834" y1="757.6289" y2="815.7773"/><polygon fill="#000000" points="167.834,805.7773,171.834,815.7773,175.834,805.7773,171.834,809.7773" style="stroke:#000000;stroke-width:1;"/><line style="stroke:#000000;stroke-width:1;" x1="171.834" x2="171.834" y1="1125.7852" y2="1145.7852"/><polygon fill="#000000" points="167.834,1135.7852,171.834,1145.7852,175.834,1135.7852,171.834,1139.7852" style="stroke:#000000;stroke-width:1;"/><line style="stroke:#000000;stroke-width:1;" x1="171.834" x2="171.834" y1="849.7461" y2="924.1914"/><polygon fill="#000000" points="167.834,914.1914,171.834,924.1914,175.834,914.1914,171.834,918.1914" style="stroke:#000000;stroke-width:1;"/><line style="stroke:#000000;stroke-width:1;" x1="171.834" x2="171.834" y1="1262.0508" y2="1290.1836"/><polygon fill="#000000" points="167.834,1280.1836,171.834,1290.1836,175.834,1280.1836,171.834,1284.1836" style="stroke:#000000;stroke-width:1;"/><line style="stroke:#000000;stroke-width:1;" x1="227.3909" x2="511.6426" y1="1250.0508" y2="1250.0508"/><polygon fill="#000000" points="507.6426,1304.1523,511.6426,1314.1523,515.6426,1304.1523,511.6426,1308.1523" style="stroke:#000000;stroke-width:1;"/><line style="stroke:#000000;stroke-width:1;" x1="511.6426" x2="511.6426" y1="1250.0508" y2="1373.8516"/><line style="stroke:#000000;stroke-width:1;" x1="511.6426" x2="183.834" y1="1373.8516" y2="1373.8516"/><polygon fill="#000000" points="193.834,1369.8516,183.834,1373.8516,193.834,1377.8516,189.834,1373.8516" style="stroke:#000000;stroke-width:1;"/><line style="stroke:#000000;stroke-width:1;" x1="171.834" x2="171.834" y1="1338.1211" y2="1361.8516"/><polygon fill="#000000" points="167.834,1351.8516,171.834,1361.8516,175.834,1351.8516,171.834,1355.8516" style="stroke:#000000;stroke-width:1;"/><line style="stroke:#000000;stroke-width:1;" x1="171.834" x2="171.834" y1="1179.7539" y2="1238.0508"/><polygon fill="#000000" points="167.834,1228.0508,171.834,1238.0508,175.834,1228.0508,171.834,1232.0508" style="stroke:#000000;stroke-width:1;"/><line style="stroke:#000000;stroke-width:1;" x1="171.834" x2="171.834" y1="1385.8516" y2="1417.8516"/><polygon fill="#000000" points="167.834,1407.8516,171.834,1417.8516,175.834,1407.8516,171.834,1411.8516" style="stroke:#000000;stroke-width:1;"/><line style="stroke:#000000;stroke-width:1;" x1="676.1738" x2="676.1738" y1="295.9844" y2="387.2813"/><polygon fill="#000000" points="672.1738,377.2813,676.1738,387.2813,680.1738,377.2813,676.1738,381.2813" style="stroke:#000000;stroke-width:1;"/><line style="stroke:#000000;stroke-width:1;" x1="676.1738" x2="676.1738" y1="606.9453" y2="631.3477"/><polygon fill="#000000" points="672.1738,621.3477,676.1738,631.3477,680.1738,621.3477,676.1738,625.3477" style="stroke:#000000;stroke-width:1;"/><line style="stroke:#000000;stroke-width:1;" x1="741.8633" x2="797.6406" y1="594.9453" y2="594.9453"/><polygon fill="#000000" points="793.6406,652.3008,797.6406,662.3008,801.6406,652.3008,797.6406,656.3008" style="stroke:#000000;stroke-width:1;"/><line style="stroke:#000000;stroke-width:1;" x1="797.6406" x2="797.6406" y1="594.9453" y2="729.6563"/><line style="stroke:#000000;stroke-width:1;" x1="797.6406" x2="688.1738" y1="729.6563" y2="729.6563"/><polygon fill="#000000" points="698.1738,725.6563,688.1738,729.6563,698.1738,733.6563,694.1738,729.6563" style="stroke:#000000;stroke-width:1;"/><line style="stroke:#000000;stroke-width:1;" x1="676.1738" x2="676.1738" y1="693.2539" y2="717.6563"/><polygon fill="#000000" points="672.1738,707.6563,676.1738,717.6563,680.1738,707.6563,676.1738,711.6563" style="stroke:#000000;stroke-width:1;"/><line style="stroke:#000000;stroke-width:1;" x1="676.1738" x2="676.1738" y1="800.6563" y2="825.0586"/><polygon fill="#000000" points="672.1738,815.0586,676.1738,825.0586,680.1738,815.0586,676.1738,819.0586" style="stroke:#000000;stroke-width:1;"/><line style="stroke:#000000;stroke-width:1;" x1="744.8469" x2="812.7051" y1="788.6563" y2="788.6563"/><polygon fill="#000000" points="808.7051,846.0117,812.7051,856.0117,816.7051,846.0117,812.7051,850.0117" style="stroke:#000000;stroke-width:1;"/><line style="stroke:#000000;stroke-width:1;" x1="812.7051" x2="812.7051" y1="788.6563" y2="923.3672"/><line style="stroke:#000000;stroke-width:1;" x1="812.7051" x2="688.1738" y1="923.3672" y2="923.3672"/><polygon fill="#000000" points="698.1738,919.3672,688.1738,923.3672,698.1738,927.3672,694.1738,923.3672" style="stroke:#000000;stroke-width:1;"/><line style="stroke:#000000;stroke-width:1;" x1="676.1738" x2="676.1738" y1="886.9648" y2="911.3672"/><polygon fill="#000000" points="672.1738,901.3672,676.1738,911.3672,680.1738,901.3672,676.1738,905.3672" style="stroke:#000000;stroke-width:1;"/><line style="stroke:#000000;stroke-width:1;" x1="676.1738" x2="676.1738" y1="741.6563" y2="776.6563"/><polygon fill="#000000" points="672.1738,766.6563,676.1738,776.6563,680.1738,766.6563,676.1738,770.6563" style="stroke:#000000;stroke-width:1;"/><line style="stroke:#000000;stroke-width:1;" x1="676.1738" x2="676.1738" y1="558.543" y2="582.9453"/><polygon fill="#000000" points="672.1738,572.9453,676.1738,582.9453,680.1738,572.9453,676.1738,576.9453" style="stroke:#000000;stroke-width:1;"/><line style="stroke:#000000;stroke-width:1;" x1="778.3088" x2="834.7051" y1="546.543" y2="546.543"/><polygon fill="#000000" points="830.7051,749.1563,834.7051,759.1563,838.7051,749.1563,834.7051,753.1563" style="stroke:#000000;stroke-width:1;"/><line style="stroke:#000000;stroke-width:1;" x1="834.7051" x2="834.7051" y1="546.543" y2="971.7695"/><line style="stroke:#000000;stroke-width:1;" x1="834.7051" x2="688.1738" y1="971.7695" y2="971.7695"/><polygon fill="#000000" points="698.1738,967.7695,688.1738,971.7695,698.1738,975.7695,694.1738,971.7695" style="stroke:#000000;stroke-width:1;"/><line style="stroke:#000000;stroke-width:1;" x1="676.1738" x2="676.1738" y1="935.3672" y2="959.7695"/><polygon fill="#000000" points="672.1738,949.7695,676.1738,959.7695,680.1738,949.7695,676.1738,953.7695" style="stroke:#000000;stroke-width:1;"/><line style="stroke:#000000;stroke-width:1;" x1="676.1738" x2="676.1738" y1="449.1875" y2="534.543"/><polygon fill="#000000" points="672.1738,524.543,676.1738,534.543,680.1738,524.543,676.1738,528.543" style="stroke:#000000;stroke-width:1;"/><line style="stroke:#000000;stroke-width:1;" x1="676.1738" x2="676.1738" y1="983.7695" y2="1038.7695"/><polygon fill="#000000" points="672.1738,1028.7695,676.1738,1038.7695,680.1738,1028.7695,676.1738,1032.7695" style="stroke:#000000;stroke-width:1;"/><line style="stroke:#000000;stroke-width:1;" x1="1068.4573" x2="1068.4573" y1="337.8906" y2="392.8906"/><polygon fill="#000000" points="1064.4573,382.8906,1068.4573,392.8906,1072.4573,382.8906,1068.4573,386.8906" style="stroke:#000000;stroke-width:1;"/><line style="stroke:#000000;stroke-width:1;" x1="1312.9758" x2="1312.9758" y1="721.8398" y2="756.8398"/><polygon fill="#000000" points="1308.9758,746.8398,1312.9758,756.8398,1316.9758,746.8398,1312.9758,750.8398" style="stroke:#000000;stroke-width:1;"/><line style="stroke:#000000;stroke-width:1;" x1="1312.9758" x2="1312.9758" y1="877.7461" y2="902.1484"/><polygon fill="#000000" points="1308.9758,892.1484,1312.9758,902.1484,1316.9758,892.1484,1312.9758,896.1484" style="stroke:#000000;stroke-width:1;"/><line style="stroke:#000000;stroke-width:1;" x1="1368.5327" x2="1641.51" y1="865.7461" y2="865.7461"/><polygon fill="#000000" points="1637.51,923.1016,1641.51,933.1016,1645.51,923.1016,1641.51,927.1016" style="stroke:#000000;stroke-width:1;"/><line style="stroke:#000000;stroke-width:1;" x1="1641.51" x2="1641.51" y1="865.7461" y2="1000.457"/><line style="stroke:#000000;stroke-width:1;" x1="1641.51" x2="1324.9758" y1="1000.457" y2="1000.457"/><polygon fill="#000000" points="1334.9758,996.457,1324.9758,1000.457,1334.9758,1004.457,1330.9758,1000.457" style="stroke:#000000;stroke-width:1;"/><line style="stroke:#000000;stroke-width:1;" x1="1312.9758" x2="1312.9758" y1="964.0547" y2="988.457"/><polygon fill="#000000" points="1308.9758,978.457,1312.9758,988.457,1316.9758,978.457,1312.9758,982.457" style="stroke:#000000;stroke-width:1;"/><line style="stroke:#000000;stroke-width:1;" x1="1312.9758" x2="1312.9758" y1="818.7461" y2="853.7461"/><polygon fill="#000000" points="1308.9758,843.7461,1312.9758,853.7461,1316.9758,843.7461,1312.9758,847.7461" style="stroke:#000000;stroke-width:1;"/><line style="stroke:#000000;stroke-width:1;" x1="1312.9758" x2="1312.9758" y1="1012.457" y2="1067.457"/><polygon fill="#000000" points="1308.9758,1057.457,1312.9758,1067.457,1316.9758,1057.457,1312.9758,1061.457" style="stroke:#000000;stroke-width:1;"/><line style="stroke:#000000;stroke-width:1;" x1="171.834" x2="171.834" y1="191.75" y2="260.8516"/><polygon fill="#000000" points="167.834,250.8516,171.834,260.8516,175.834,250.8516,171.834,254.8516" style="stroke:#000000;stroke-width:1;"/><line style="stroke:#000000;stroke-width:1;" x1="171.834" x2="171.834" y1="1451.8203" y2="1471.8203"/><polygon fill="#000000" points="167.834,1461.8203,171.834,1471.8203,175.834,1461.8203,171.834,1465.8203" style="stroke:#000000;stroke-width:1;"/><line style="stroke:#000000;stroke-width:1;" x1="676.1738" x2="676.1738" y1="191.75" y2="248.0469"/><polygon fill="#000000" points="672.1738,238.0469,676.1738,248.0469,680.1738,238.0469,676.1738,242.0469" style="stroke:#000000;stroke-width:1;"/><line style="stroke:#000000;stroke-width:1;" x1="676.1738" x2="676.1738" y1="1072.7383" y2="1471.8203"/><polygon fill="#000000" points="672.1738,1461.8203,676.1738,1471.8203,680.1738,1461.8203,676.1738,1465.8203" style="stroke:#000000;stroke-width:1;"/><line style="stroke:#000000;stroke-width:1;" x1="1068.4573" x2="1068.4573" y1="191.75" y2="248.0469"/><polygon fill="#000000" points="1064.4573,238.0469,1068.4573,248.0469,1072.4573,238.0469,1068.4573,242.0469" style="stroke:#000000;stroke-width:1;"/><line style="stroke:#000000;stroke-width:1;" x1="1068.4573" x2="1068.4573" y1="426.8594" y2="1471.8203"/><polygon fill="#000000" points="1064.4573,1461.8203,1068.4573,1471.8203,1072.4573,1461.8203,1068.4573,1465.8203" style="stroke:#000000;stroke-width:1;"/><line style="stroke:#000000;stroke-width:1;" x1="204.075" x2="624.1243" y1="179.75" y2="179.75"/><polygon fill="#000000" points="614.1243,175.75,624.1243,179.75,614.1243,183.75,618.1243,179.75" style="stroke:#000000;stroke-width:1;"/><line style="stroke:#000000;stroke-width:1;" x1="728.2234" x2="1014.6487" y1="179.75" y2="179.75"/><polygon fill="#000000" points="1004.6487,175.75,1014.6487,179.75,1004.6487,183.75,1008.6487,179.75" style="stroke:#000000;stroke-width:1;"/><line style="stroke:#000000;stroke-width:1;" x1="826.755" x2="826.755" y1="122.4844" y2="152.75"/><line style="stroke:#000000;stroke-width:1;" x1="826.755" x2="171.834" y1="152.75" y2="152.75"/><line style="stroke:#000000;stroke-width:1;" x1="171.834" x2="171.834" y1="152.75" y2="167.75"/><polygon fill="#000000" points="167.834,157.75,171.834,167.75,175.834,157.75,171.834,161.75" style="stroke:#000000;stroke-width:1;"/><line style="stroke:#000000;stroke-width:1;" x1="1122.2659" x2="1312.9758" y1="179.75" y2="179.75"/><line style="stroke:#000000;stroke-width:1;" x1="1312.9758" x2="1312.9758" y1="179.75" y2="673.9023"/><polygon fill="#000000" points="1308.9758,663.9023,1312.9758,673.9023,1316.9758,663.9023,1312.9758,667.9023" style="stroke:#000000;stroke-width:1;"/><line style="stroke:#000000;stroke-width:1;" x1="1312.9758" x2="1312.9758" y1="1101.4258" y2="1471.8203"/><polygon fill="#000000" points="1308.9758,1461.8203,1312.9758,1471.8203,1316.9758,1461.8203,1312.9758,1465.8203" style="stroke:#000000;stroke-width:1;"/><line style="stroke:#000000;stroke-width:1;" x1="171.834" x2="1312.9758" y1="1471.8203" y2="1471.8203"/><line style="stroke:#000000;stroke-width:1;" x1="826.755" x2="826.755" y1="1471.8203" y2="1491.8203"/><polygon fill="#000000" points="822.755,1481.8203,826.755,1491.8203,830.755,1481.8203,826.755,1485.8203" style="stroke:#000000;stroke-width:1;"/><?plantuml-src fLRRRkCs47tNLyocBxBNTXSReC0wC8fiec23Eabh9rsWA63G4crpBP42IJNn5WNwr0ye-eNx9HrUTB5MSHBiYq1nXdCvSsR8Ltf3CmfvIXWFDDCf1IBZ3Vk3XZru3R6aHBjbaITk-UNl_-3KwS178RUhLDp_pZF2Kdyo4mbDH_ac7x_zuNXu_EvT42XDf0u2BZG5oTOR7G14NCiTv89nhSRuFuGpWLiYJQa4HMm4N_xvjuw1Q59KORGFr56RCol6ISe-LycqjJ50hwd4IfjVgcb0UG8cn21WAmXFOyq4_x472167q4I4HfP45hq0xUMO4JCQSFGh-ag8Od0ZruGpXSiZ-6vgydoV5XJ-H7M0yIy5nOGDK8iO8OABsSqL27laCp6MhDh73z4iCjiBbi04rHTkVH9OiOciUGOqkjv2mZJDYYsfuzrHrRCdqFECwa9oY6QpczdORnxTSQRX9oe_aSh6bY9iHoTUGscHsoLD5OMG2sSFKM8hNFtLGc56bKWHepEiprfWfcUOP0SE9WFCAek9TZXiXH9ytHcuXwnIjP0v1BqNh-bGiuebRFxdvAaKnclAgKHpraN8U5xedZcrnrQ0ATiGf0eZQqaoXsA_x_arB6qCZOrHNcHflnzOHvvHUr1TSaMbBhkeYokNr_DeTkjIzJwSow59ZGjCiNIPWF5P2-qPqoI32WMzonj_BNK7qw1acf4EQjhLYfAkIZspvA8MAShHYR0oLIm_qLZRTOmTXwA1YratlE90q8M2C26IWOEyQGvxtaLTRwOYNlGXN1OiJHXV3m3dZf03a49a-2NnTe0yfhYp50yDOrkwknVInUtN2yOJ-h1OfMGzULDhUfmjTXCkxiFUrxBbRi59HYS55j1BnMh5OaSUnxMnPI2pDKR4GakcThVSsJa6LrWicD4LbPJ71xh5WG-l9l2cir7kVZu_lOqiNs0U8N6G1guJoiXzAQjMgVh4cIwRlaLwHto-1LKWrs1h9gfY-QWIpkt-Zl0rgYHaWmqoJF50fU1conAdeX7Pqu30iz94rI9FjQaVOgg8OweKtaYOm6jmi0Vce87AJsdwm9H6bZYeMj1F1KaWyXfmZjTALmVEesbqTWlzniofBvCAHG-oPV38_Xqeze5-RzIlT6FgQ8KA9pl1AuscYKam8xYJ8xUOlnfxBm_e0-59scOVd6smZ8-HKAJ9Q8-8dDxN6_kazANjFDR9NrlUb1AiFXvmD9PbNEDAwH6MJwxlfjDAQO_VU-vBZk-phEHP8-Yzr0u5_Lw8hG7YnH5_rPMjkFSYU4RSfMXG1r5s7fN5acoUxgX65_delY-VKPrjTE65BwLpS_vFu2s45vVNfzFBtwBpNlSiDd0SdCQeKCtZLXlKxE_E5cyW-_PhF-dcvbbuRaNVFXpAjzj1M9gW74DuZXvkIqWUiVVCkw7ih6wEFgEdNdnZND5iIPT4uNlKNnnaJMGbthyCYXIdphTT1gQOhXVic_L_?></g></svg>