<?plantuml 1.2026.1?><svg xmlns="http://www.w3.org/2000/svg" xmlns:xlink="http://www.w3.org/1999/xlink" contentStyleType="text/css" data-diagram-type="STATE" height="1047px" preserveAspectRatio="none" style="width:3609px;height:1047px;background:#FFFFFF;" version="1.1" viewBox="0 0 3609 1047" width="3609px" zoomAndPan="magnify"><title>Mail Folder Lifecycle &#8212; move() + restore() + empty_trash()
mailmodel.php:1018-1029, 1268-1300</title><defs/><g><g class="title" data-source-line="2"><text fill="#000000" font-family="Verdana" font-size="22" font-weight="bold" lengthAdjust="spacing" textLength="732.4131" x="1434.21" y="35.4209">Mail Folder Lifecycle &#8212; move() + restore() + empty_trash()</text><text fill="#000000" font-family="Verdana" font-size="22" font-weight="bold" lengthAdjust="spacing" textLength="472.6133" x="1564.1099" y="61.0303">mailmodel.php:1018-1029, 1268-1300</text></g><path d="M849.15,84.2188 L1621.8655,84.2188 A12.5,12.5 0 0 1 1634.3655,96.7188 L1634.3655,110.5156 L836.65,110.5156 L836.65,96.7188 A12.5,12.5 0 0 1 849.15,84.2188" fill="#FFFFFF"/><path d="M836.65,110.5156 L1634.3655,110.5156 L1634.3655,296.4766 A12.5,12.5 0 0 1 1621.8655,308.9766 L849.15,308.9766 A12.5,12.5 0 0 1 836.65,296.4766 L836.65,110.5156" fill="#FFFFFF"/><rect fill="none" height="224.7578" rx="12.5" ry="12.5" style="stroke:#000000;stroke-width:1;" width="797.7155" x="836.65" y="84.2188"/><line style="stroke:#000000;stroke-width:1;" x1="836.65" x2="1634.3655" y1="110.5156" y2="110.5156"/><text fill="#000000" font-family="Verdana" font-size="14" lengthAdjust="spacing" textLength="87.7461" x="1191.6347" y="102.2139">User Actions</text><g><rect fill="#FFFFFF" height="50" rx="12.5" ry="12.5" style="stroke:#000000;stroke-width:1;" width="70.0254" x="848.65" y="184.7456"/><line style="stroke:#000000;stroke-width:1;" x1="848.65" x2="918.6754" y1="211.0425" y2="211.0425"/><text fill="#000000" font-family="Verdana" font-size="14" lengthAdjust="spacing" textLength="50.0254" x="858.65" y="202.7407">move()</text></g><g><rect fill="#FFFFFF" height="50" rx="12.5" ry="12.5" style="stroke:#000000;stroke-width:1;" width="75.0293" x="1237.15" y="184.7456"/><line style="stroke:#000000;stroke-width:1;" x1="1237.15" x2="1312.1793" y1="211.0425" y2="211.0425"/><text fill="#000000" font-family="Verdana" font-size="14" lengthAdjust="spacing" textLength="55.0293" x="1247.15" y="202.7407">delete()</text></g><g class="entity" data-qualified-name="actions.GMN2" data-source-line="16" id="ent0003"><path d="M936.6,121.5156 L936.6,205.7456 L918.9,209.7456 L936.6,213.7456 L936.6,297.9766 A0,0 0 0 0 936.6,297.9766 L1218.7172,297.9766 A0,0 0 0 0 1218.7172,297.9766 L1218.7172,131.5156 L1208.7172,121.5156 L936.6,121.5156 A0,0 0 0 0 936.6,121.5156" fill="#FFFFFF" style="stroke:#000000;stroke-width:1;"/><path d="M1208.7172,121.5156 L1208.7172,131.5156 L1218.7172,131.5156 L1208.7172,121.5156" fill="#FFFFFF" style="stroke:#000000;stroke-width:1;"/><text fill="#000000" font-family="Verdana" font-size="13" font-weight="bold" lengthAdjust="spacing" textLength="261.1172" x="942.6" y="138.5825">move(m_id, folder_id, origin_folder)</text><text fill="#000000" font-family="Verdana" font-size="13" lengthAdjust="spacing" textLength="172.4468" x="942.6" y="153.7153">mailmodel.php:1268-1274</text><text fill="#000000" font-family="Verdana" font-size="13" lengthAdjust="spacing" textLength="4.1323" x="942.6" y="168.8481">&#160;</text><text fill="#000000" font-family="Verdana" font-size="13" lengthAdjust="spacing" textLength="175.043" x="942.6" y="183.981">UPDATE sys_user_task SET</text><text fill="#000000" font-family="Verdana" font-size="13" lengthAdjust="spacing" textLength="159.25" x="942.6" y="199.1138">folder_id = target_folder</text><text fill="#000000" font-family="Verdana" font-size="13" lengthAdjust="spacing" textLength="200.3638" x="942.6" y="214.2466">WHERE user_id = current_user</text><text fill="#000000" font-family="Verdana" font-size="13" lengthAdjust="spacing" textLength="119.0693" x="942.6" y="229.3794">AND tm_id = m_id</text><text fill="#000000" font-family="Verdana" font-size="13" lengthAdjust="spacing" textLength="189.2681" x="942.6" y="244.5122">AND folder_id = origin_folder</text><text fill="#000000" font-family="Verdana" font-size="13" lengthAdjust="spacing" textLength="4.1323" x="942.6" y="259.645">&#160;</text><text fill="#000000" font-family="Verdana" font-size="13" lengthAdjust="spacing" textLength="203.1885" x="942.6" y="274.7778">Bisa pindah ke folder manapun</text><text fill="#000000" font-family="Verdana" font-size="13" lengthAdjust="spacing" textLength="205.4609" x="942.6" y="289.9106">termasuk folder personal (&gt;10)</text></g><g class="entity" data-qualified-name="actions.GMN5" data-source-line="31" id="ent0006"><path d="M1329.95,136.6456 L1329.95,205.7456 L1312.33,209.7456 L1329.95,213.7456 L1329.95,282.8409 A0,0 0 0 0 1329.95,282.8409 L1625.3655,282.8409 A0,0 0 0 0 1625.3655,282.8409 L1625.3655,146.6456 L1615.3655,136.6456 L1329.95,136.6456 A0,0 0 0 0 1329.95,136.6456" fill="#FFFFFF" style="stroke:#000000;stroke-width:1;"/><path d="M1615.3655,136.6456 L1615.3655,146.6456 L1625.3655,146.6456 L1615.3655,136.6456" fill="#FFFFFF" style="stroke:#000000;stroke-width:1;"/><text fill="#000000" font-family="Verdana" font-size="13" font-weight="bold" lengthAdjust="spacing" textLength="225.2593" x="1335.95" y="153.7125">delete(m_id, restore_folder_id)</text><text fill="#000000" font-family="Verdana" font-size="13" lengthAdjust="spacing" textLength="172.4468" x="1335.95" y="168.8453">mailmodel.php:1018-1029</text><text fill="#000000" font-family="Verdana" font-size="13" lengthAdjust="spacing" textLength="4.1323" x="1335.95" y="183.9781">&#160;</text><text fill="#000000" font-family="Verdana" font-size="13" lengthAdjust="spacing" textLength="274.4155" x="1335.95" y="199.111">if restore_folder_id == FOLDER_DELETED:</text><text fill="#000000" font-family="Verdana" font-size="13" lengthAdjust="spacing" textLength="234.4063" x="1344.2146" y="214.2438">&#8594; folder_id = -1 (permanent delete)</text><text fill="#000000" font-family="Verdana" font-size="13" lengthAdjust="spacing" textLength="30.7607" x="1335.95" y="229.3766">else:</text><text fill="#000000" font-family="Verdana" font-size="13" lengthAdjust="spacing" textLength="208.8379" x="1344.2146" y="244.5094">&#8594; folder_id = FOLDER_DELETED</text><text fill="#000000" font-family="Verdana" font-size="13" lengthAdjust="spacing" textLength="175.7729" x="1344.2146" y="259.6422">&#8594; simpan restore_folder_id</text><text fill="#000000" font-family="Verdana" font-size="13" lengthAdjust="spacing" textLength="32.6777" x="1335.95" y="274.775">endif</text></g><g><rect fill="#FFFFFF" height="50" rx="12.5" ry="12.5" style="stroke:#000000;stroke-width:1;" width="81.0107" x="12" y="171.5988"/><line style="stroke:#000000;stroke-width:1;" x1="12" x2="93.0107" y1="197.8956" y2="197.8956"/><text fill="#000000" font-family="Verdana" font-size="14" lengthAdjust="spacing" textLength="61.0107" x="22" y="189.5939">restore()</text></g><g><rect fill="#FFFFFF" height="50" rx="12.5" ry="12.5" style="stroke:#000000;stroke-width:1;" width="118.8271" x="380.09" y="171.5988"/><line style="stroke:#000000;stroke-width:1;" x1="380.09" x2="498.9171" y1="197.8956" y2="197.8956"/><text fill="#000000" font-family="Verdana" font-size="14" lengthAdjust="spacing" textLength="98.8271" x="390.09" y="189.5939">empty_trash()</text></g><g><rect fill="#FFFFFF" height="52.5938" rx="12.5" ry="12.5" style="stroke:#000000;stroke-width:1;" width="125.9297" x="3263.54" y="557.9788"/><line style="stroke:#000000;stroke-width:1;" x1="3263.54" x2="3389.4697" y1="600.5725" y2="600.5725"/><text fill="#000000" font-family="Verdana" font-size="14" lengthAdjust="spacing" textLength="87.0146" x="3273.54" y="575.9739">PERMANENT</text><text fill="#000000" font-family="Verdana" font-size="14" lengthAdjust="spacing" textLength="105.9297" x="3273.54" y="592.2707">(folder_id = -1)</text></g><ellipse cx="1679.51" cy="196.5988" fill="#FFFFFF" rx="10" ry="10" style="stroke:#000000;stroke-width:1;"/><g><rect fill="#FFFFFF" height="50" rx="12.5" ry="12.5" style="stroke:#000000;stroke-width:1;" width="66.6895" x="1646.16" y="400.9788"/><line style="stroke:#000000;stroke-width:1;" x1="1646.16" x2="1712.8495" y1="427.2756" y2="427.2756"/><text fill="#000000" font-family="Verdana" font-size="14" lengthAdjust="spacing" textLength="46.6895" x="1656.16" y="418.9739">DRAFT</text></g><g><rect fill="#FFFFFF" height="50" rx="12.5" ry="12.5" style="stroke:#000000;stroke-width:1;" width="56.7568" x="1915.13" y="559.2688"/><line style="stroke:#000000;stroke-width:1;" x1="1915.13" x2="1971.8868" y1="585.5656" y2="585.5656"/><text fill="#000000" font-family="Verdana" font-size="14" lengthAdjust="spacing" textLength="36.7568" x="1925.13" y="577.2639">SENT</text></g><g><rect fill="#FFFFFF" height="50" rx="12.5" ry="12.5" style="stroke:#000000;stroke-width:1;" width="64.8164" x="2319.1" y="720.2688"/><line style="stroke:#000000;stroke-width:1;" x1="2319.1" x2="2383.9164" y1="746.5656" y2="746.5656"/><text fill="#000000" font-family="Verdana" font-size="14" lengthAdjust="spacing" textLength="44.8164" x="2329.1" y="738.2639">INBOX</text></g><g><rect fill="#FFFFFF" height="50" rx="12.5" ry="12.5" style="stroke:#000000;stroke-width:1;" width="58.9307" x="2559.04" y="864.9688"/><line style="stroke:#000000;stroke-width:1;" x1="2559.04" x2="2617.9707" y1="891.2656" y2="891.2656"/><text fill="#000000" font-family="Verdana" font-size="14" lengthAdjust="spacing" textLength="38.9307" x="2569.04" y="882.9639">READ</text></g><g><rect fill="#FFFFFF" height="50" rx="12.5" ry="12.5" style="stroke:#000000;stroke-width:1;" width="94.7715" x="2541.12" y="991.9688"/><line style="stroke:#000000;stroke-width:1;" x1="2541.12" x2="2635.8915" y1="1018.2656" y2="1018.2656"/><text fill="#000000" font-family="Verdana" font-size="14" lengthAdjust="spacing" textLength="74.7715" x="2551.12" y="1009.9639">PERSONAL</text></g><g><rect fill="#FFFFFF" height="50" rx="12.5" ry="12.5" style="stroke:#000000;stroke-width:1;" width="84.4492" x="2620.28" y="400.9788"/><line style="stroke:#000000;stroke-width:1;" x1="2620.28" x2="2704.7292" y1="427.2756" y2="427.2756"/><text fill="#000000" font-family="Verdana" font-size="14" lengthAdjust="spacing" textLength="64.4492" x="2630.28" y="418.9739">DELETED</text></g><ellipse cx="3326.51" cy="745.2688" fill="none" rx="11" ry="11" style="stroke:#000000;stroke-width:1;"/><ellipse cx="3326.51" cy="745.2688" fill="#FFFFFF" rx="6" ry="6" style="stroke:#000000;stroke-width:1;"/><g class="entity" data-qualified-name="GMN8" data-source-line="54" id="ent0009"><path d="M128.25,108.3687 L128.25,192.5988 L93.47,196.5988 L128.25,200.5988 L128.25,284.8297 A0,0 0 0 0 128.25,284.8297 L344.7705,284.8297 A0,0 0 0 0 344.7705,284.8297 L344.7705,118.3687 L334.7705,108.3687 L128.25,108.3687 A0,0 0 0 0 128.25,108.3687" fill="#FFFFFF" style="stroke:#000000;stroke-width:1;"/><path d="M334.7705,108.3687 L334.7705,118.3687 L344.7705,118.3687 L334.7705,108.3687" fill="#FFFFFF" style="stroke:#000000;stroke-width:1;"/><text fill="#000000" font-family="Verdana" font-size="13" font-weight="bold" lengthAdjust="spacing" textLength="99.0298" x="134.25" y="125.4356">restore(m_id)</text><text fill="#000000" font-family="Verdana" font-size="13" lengthAdjust="spacing" textLength="172.4468" x="134.25" y="140.5685">mailmodel.php:1277-1291</text><text fill="#000000" font-family="Verdana" font-size="13" lengthAdjust="spacing" textLength="4.1323" x="134.25" y="155.7013">&#160;</text><text fill="#000000" font-family="Verdana" font-size="13" lengthAdjust="spacing" textLength="176.9473" x="134.25" y="170.8341">1. Lookup restore_folder_id</text><text fill="#000000" font-family="Verdana" font-size="13" lengthAdjust="spacing" textLength="171.4883" x="146.647" y="185.9669">dari sys_user_task WHERE</text><text fill="#000000" font-family="Verdana" font-size="13" lengthAdjust="spacing" textLength="126.8389" x="146.647" y="201.0997">folder_id=DELETED</text><text fill="#000000" font-family="Verdana" font-size="13" lengthAdjust="spacing" textLength="121.4751" x="134.25" y="216.2325">2. Call move(m_id,</text><text fill="#000000" font-family="Verdana" font-size="13" lengthAdjust="spacing" textLength="182.292" x="146.647" y="231.3653">restore_folder_id, DELETED)</text><text fill="#000000" font-family="Verdana" font-size="13" lengthAdjust="spacing" textLength="4.1323" x="134.25" y="246.4981">&#160;</text><text fill="#000000" font-family="Verdana" font-size="13" lengthAdjust="spacing" textLength="195.5205" x="134.25" y="261.631">Mengembalikan ke folder asal</text><text fill="#000000" font-family="Verdana" font-size="13" lengthAdjust="spacing" textLength="111.0015" x="134.25" y="276.7638">sebelum dihapus</text></g><g class="entity" data-qualified-name="GMN11" data-source-line="74" id="ent0012"><path d="M533.59,108.3687 L533.59,192.5988 L499.18,196.5988 L533.59,200.5988 L533.59,284.8297 A0,0 0 0 0 533.59,284.8297 L801.4123,284.8297 A0,0 0 0 0 801.4123,284.8297 L801.4123,118.3687 L791.4123,108.3687 L533.59,108.3687 A0,0 0 0 0 533.59,108.3687" fill="#FFFFFF" style="stroke:#000000;stroke-width:1;"/><path d="M791.4123,108.3687 L791.4123,118.3687 L801.4123,118.3687 L791.4123,108.3687" fill="#FFFFFF" style="stroke:#000000;stroke-width:1;"/><text fill="#000000" font-family="Verdana" font-size="13" font-weight="bold" lengthAdjust="spacing" textLength="103.1304" x="539.59" y="125.4356">empty_trash()</text><text fill="#000000" font-family="Verdana" font-size="13" lengthAdjust="spacing" textLength="172.4468" x="539.59" y="140.5685">mailmodel.php:1293-1300</text><text fill="#000000" font-family="Verdana" font-size="13" lengthAdjust="spacing" textLength="4.1323" x="539.59" y="155.7013">&#160;</text><text fill="#000000" font-family="Verdana" font-size="13" lengthAdjust="spacing" textLength="175.043" x="539.59" y="170.8341">UPDATE sys_user_task SET</text><text fill="#000000" font-family="Verdana" font-size="13" lengthAdjust="spacing" textLength="88.2197" x="539.59" y="185.9669">folder_id = -1</text><text fill="#000000" font-family="Verdana" font-size="13" lengthAdjust="spacing" textLength="246.8223" x="539.59" y="201.0997">restore_folder_id = FOLDER_DELETED</text><text fill="#000000" font-family="Verdana" font-size="13" lengthAdjust="spacing" textLength="200.3638" x="539.59" y="216.2325">WHERE user_id = current_user</text><text fill="#000000" font-family="Verdana" font-size="13" lengthAdjust="spacing" textLength="226.5732" x="539.59" y="231.3653">AND folder_id = FOLDER_DELETED</text><text fill="#000000" font-family="Verdana" font-size="13" lengthAdjust="spacing" textLength="4.1323" x="539.59" y="246.4981">&#160;</text><text fill="#000000" font-family="Verdana" font-size="13" lengthAdjust="spacing" textLength="136.2207" x="539.59" y="261.631">Semua surat di trash</text><text fill="#000000" font-family="Verdana" font-size="13" lengthAdjust="spacing" textLength="226.1416" x="539.59" y="276.7638">&#8594; permanent delete (folder_id=-1)</text></g><g class="entity" data-qualified-name="GMN14" data-source-line="94" id="ent0015"><path d="M3372.17,717.5688 L3372.17,772.9672 L3602.8331,772.9672 L3602.8331,727.5688 L3592.8331,717.5688 L3372.17,717.5688" fill="#FFFFFF" style="stroke:#000000;stroke-width:1;"/><path d="M3592.8331,717.5688 L3592.8331,727.5688 L3602.8331,727.5688 L3592.8331,717.5688" fill="#FFFFFF" style="stroke:#000000;stroke-width:1;"/><text fill="#000000" font-family="Verdana" font-size="13" lengthAdjust="spacing" textLength="186.3418" x="3378.17" y="734.6356">Data TIDAK dihapus dari DB.</text><text fill="#000000" font-family="Verdana" font-size="13" lengthAdjust="spacing" textLength="138.125" x="3378.17" y="749.7685">Hanya folder_id = -1.</text><text fill="#000000" font-family="Verdana" font-size="13" lengthAdjust="spacing" textLength="209.6631" x="3378.17" y="764.9013">Masih bisa di-query untuk audit.</text></g><!--link *start* to DRAFT--><g class="link" data-entity-1="ent0002" data-entity-2="ent0003" data-link-type="dependency" data-source-line="4" id="lnk4"><path d="M1679.51,207.0788 C1679.51,240.1088 1679.51,344.8088 1679.51,394.4888" fill="none" id="*start*-to-DRAFT" style="stroke:#000000;stroke-width:1;"/><polygon fill="#000000" points="1679.51,400.4888,1683.51,391.4888,1679.51,395.4888,1675.51,391.4888,1679.51,400.4888" style="stroke:#000000;stroke-width:1;"/><text fill="#000000" font-family="Verdana" font-size="13" lengthAdjust="spacing" textLength="128.4004" x="1680.51" y="352.0456">save() creates draft</text><text fill="#000000" font-family="Verdana" font-size="13" lengthAdjust="spacing" textLength="120.4912" x="1684.4646" y="367.1785">(folder_id=DRAFT)</text></g><!--link DRAFT to SENT--><g class="link" data-entity-1="ent0003" data-entity-2="ent0005" data-link-type="dependency" data-source-line="6" id="lnk6"><path d="M1670.58,451.4588 C1664.12,473.8887 1659.23,506.7587 1676.51,527.9788 C1706.39,564.6888 1846.5521,577.4085 1909.0721,581.3785" fill="none" id="DRAFT-to-SENT" style="stroke:#000000;stroke-width:1;"/><polygon fill="#000000" points="1915.06,581.7588,1906.3316,577.1964,1910.0701,581.4419,1905.8246,585.1804,1915.06,581.7588" style="stroke:#000000;stroke-width:1;"/><text fill="#000000" font-family="Verdana" font-size="13" lengthAdjust="spacing" textLength="41.4058" x="1737.4097" y="501.5456">send()</text><text fill="#000000" font-family="Verdana" font-size="13" lengthAdjust="spacing" textLength="161.2051" x="1677.51" y="516.6785">(update folder_id=SENT)</text></g><!--link SENT to INBOX--><g class="link" data-entity-1="ent0005" data-entity-2="ent0007" data-link-type="dependency" data-source-line="8" id="lnk8"><path d="M1953.64,609.7488 C1965.33,636.7688 1984.7,677.7488 1998.51,687.5688 C2049.78,724.0487 2235.2695,737.9714 2312.6995,742.3314" fill="none" id="SENT-to-INBOX" style="stroke:#000000;stroke-width:1;"/><polygon fill="#000000" points="2318.69,742.6688,2309.9291,738.1691,2313.6979,742.3877,2309.4794,746.1564,2318.69,742.6688" style="stroke:#000000;stroke-width:1;"/><text fill="#000000" font-family="Verdana" font-size="13" lengthAdjust="spacing" textLength="93.8628" x="2041.1379" y="653.6356">send() creates</text><text fill="#000000" font-family="Verdana" font-size="13" lengthAdjust="spacing" textLength="177.1187" x="1999.51" y="668.7685">sys_user_task per recipient</text><text fill="#000000" font-family="Verdana" font-size="13" lengthAdjust="spacing" textLength="118.752" x="2028.6933" y="683.9013">(folder_id=INBOX)</text></g><!--link INBOX to READ--><g class="link" data-entity-1="ent0007" data-entity-2="ent0009" data-link-type="dependency" data-source-line="10" id="lnk10"><path d="M2360.7,770.4188 C2369.53,790.4888 2384.76,818.3688 2406.51,834.9688 C2452.22,869.8688 2514.208,881.6045 2552.848,885.9745" fill="none" id="INBOX-to-READ" style="stroke:#000000;stroke-width:1;"/><polygon fill="#000000" points="2558.81,886.6488,2550.3165,881.6627,2553.8417,886.0869,2549.4175,889.612,2558.81,886.6488" style="stroke:#000000;stroke-width:1;"/><text fill="#000000" font-family="Verdana" font-size="13" lengthAdjust="spacing" textLength="154.3433" x="2407.51" y="816.0356">setRead() / send() reply</text><text fill="#000000" font-family="Verdana" font-size="13" lengthAdjust="spacing" textLength="113.2866" x="2428.0383" y="831.1685">(folder_id=READ)</text></g><!--link INBOX to PERSONAL--><g class="link" data-entity-1="ent0007" data-entity-2="ent0011" data-link-type="dependency" data-source-line="43" id="lnk12"><path d="M2354.6,770.6088 C2357.62,789.0188 2363.31,814.5288 2373.51,834.9688 C2409.77,907.6688 2484.5968,959.3985 2536.1268,988.7585" fill="none" id="INBOX-to-PERSONAL" style="stroke:#000000;stroke-width:1;"/><polygon fill="#000000" points="2541.34,991.7288,2535.5004,983.7978,2536.9957,989.2535,2531.54,990.7488,2541.34,991.7288" style="stroke:#000000;stroke-width:1;"/><text fill="#000000" font-family="Verdana" font-size="13" lengthAdjust="spacing" textLength="46.4521" x="2463.2556" y="887.0356">move()</text><text fill="#000000" font-family="Verdana" font-size="13" lengthAdjust="spacing" textLength="101.9434" x="2435.51" y="902.1685">(folder_id &gt; 10)</text></g><!--link READ to PERSONAL--><g class="link" data-entity-1="ent0009" data-entity-2="ent0011" data-link-type="dependency" data-source-line="44" id="lnk13"><path d="M2588.51,915.3688 C2588.51,937.3888 2588.51,963.6288 2588.51,985.6288" fill="none" id="READ-to-PERSONAL" style="stroke:#000000;stroke-width:1;"/><polygon fill="#000000" points="2588.51,991.6288,2592.51,982.6288,2588.51,986.6288,2584.51,982.6288,2588.51,991.6288" style="stroke:#000000;stroke-width:1;"/><text fill="#000000" font-family="Verdana" font-size="13" lengthAdjust="spacing" textLength="46.4521" x="2589.51" y="958.0356">move()</text></g><!--link SENT to PERSONAL--><g class="link" data-entity-1="ent0005" data-entity-2="ent0011" data-link-type="dependency" data-source-line="45" id="lnk14"><path d="M1943.21,609.4988 C1944.12,631.8288 1948.58,664.8388 1965.51,687.5688 C2114.63,887.8888 2416.5421,976.2233 2534.8621,1004.3033" fill="none" id="SENT-to-PERSONAL" style="stroke:#000000;stroke-width:1;"/><polygon fill="#000000" points="2540.7,1005.6888,2532.8669,999.7187,2535.8351,1004.5342,2531.0196,1007.5025,2540.7,1005.6888" style="stroke:#000000;stroke-width:1;"/><text fill="#000000" font-family="Verdana" font-size="13" lengthAdjust="spacing" textLength="46.4521" x="2127.51" y="823.5356">move()</text></g><!--link INBOX to DELETED--><g class="link" data-entity-1="ent0007" data-entity-2="ent0015" data-link-type="dependency" data-source-line="47" id="lnk16"><path d="M2353.47,720.0088 C2357.76,681.5088 2371.09,605.8988 2411.51,557.9788 C2467.12,492.0388 2558.7058,456.672 2614.4158,439.862" fill="none" id="INBOX-to-DELETED" style="stroke:#000000;stroke-width:1;"/><polygon fill="#000000" points="2620.16,438.1287,2610.3882,436.8992,2615.3732,439.5731,2612.6992,444.5581,2620.16,438.1287" style="stroke:#000000;stroke-width:1;"/><text fill="#000000" font-family="Verdana" font-size="13" lengthAdjust="spacing" textLength="51.0986" x="2498.6604" y="581.3356">delete()</text><text fill="#000000" font-family="Verdana" font-size="13" lengthAdjust="spacing" textLength="223.3994" x="2412.51" y="596.4685">(simpan restore_folder_id=INBOX)</text></g><!--link DELETED to INBOX--><g class="link" data-entity-1="ent0015" data-entity-2="ent0007" data-link-type="dependency" data-source-line="67" id="lnk20"><path d="M2619.79,434.1088 C2524.88,450.9588 2301.63,496.4888 2261.51,557.9788 C2225.88,612.5788 2281.6874,679.2376 2319.6974,715.8276" fill="none" id="DELETED-to-INBOX" style="stroke:#000000;stroke-width:1;"/><polygon fill="#000000" points="2324.02,719.9888,2320.3102,710.8653,2320.4178,716.5211,2314.762,716.6288,2324.02,719.9888" style="stroke:#000000;stroke-width:1;"/><text fill="#000000" font-family="Verdana" font-size="13" lengthAdjust="spacing" textLength="56.6528" x="2288.7131" y="581.3356">restore()</text><text fill="#000000" font-family="Verdana" font-size="13" lengthAdjust="spacing" textLength="109.0591" x="2262.51" y="596.4685">(jika asal INBOX)</text></g><!--link READ to DELETED--><g class="link" data-entity-1="ent0009" data-entity-2="ent0015" data-link-type="dependency" data-source-line="48" id="lnk17"><path d="M2606.47,864.5088 C2631.97,828.1388 2677.44,756.6188 2694.51,687.5688 C2716.54,598.3988 2710.62,570.1288 2688.51,480.9788 C2686,470.8787 2684.2013,465.7761 2679.6313,456.7961" fill="none" id="READ-to-DELETED" style="stroke:#000000;stroke-width:1;"/><polygon fill="#000000" points="2676.91,451.4488,2677.4271,461.284,2679.1778,455.9049,2684.5569,457.6556,2676.91,451.4488" style="stroke:#000000;stroke-width:1;"/><text fill="#000000" font-family="Verdana" font-size="13" lengthAdjust="spacing" textLength="51.0986" x="2787.9277" y="661.1356">delete()</text><text fill="#000000" font-family="Verdana" font-size="13" lengthAdjust="spacing" textLength="217.9341" x="2704.51" y="676.2685">(simpan restore_folder_id=READ)</text></g><!--link DELETED to READ--><g class="link" data-entity-1="ent0015" data-entity-2="ent0009" data-link-type="dependency" data-source-line="68" id="lnk21"><path d="M2666.33,451.1888 C2670.92,488.8887 2674.24,562.2788 2640.51,610.5688 C2623.66,634.6888 2596.89,615.4988 2581.51,640.5688 C2570.58,658.3788 2581.14,666.6888 2581.51,687.5688 C2582.61,751.4088 2585.4344,820.5846 2587.1144,858.4946" fill="none" id="DELETED-to-READ" style="stroke:#000000;stroke-width:1;"/><polygon fill="#000000" points="2587.38,864.4888,2590.9776,855.3205,2587.1586,859.4937,2582.9855,855.6747,2587.38,864.4888" style="stroke:#000000;stroke-width:1;"/><text fill="#000000" font-family="Verdana" font-size="13" lengthAdjust="spacing" textLength="56.6528" x="2605.9805" y="661.1356">restore()</text><text fill="#000000" font-family="Verdana" font-size="13" lengthAdjust="spacing" textLength="103.5938" x="2582.51" y="676.2685">(jika asal READ)</text></g><!--link SENT to DELETED--><g class="link" data-entity-1="ent0005" data-entity-2="ent0015" data-link-type="dependency" data-source-line="49" id="lnk18"><path d="M1962.59,558.8087 C1970.07,549.2088 1978.7,538.0888 1986.51,527.9788 C2002.58,507.1487 1999.42,493.6088 2022.51,480.9788 C2074.78,452.3787 2479.9447,434.1263 2614.2347,428.8063" fill="none" id="SENT-to-DELETED" style="stroke:#000000;stroke-width:1;"/><polygon fill="#000000" points="2620.23,428.5688,2611.0787,424.9281,2615.2339,428.7667,2611.3954,432.9219,2620.23,428.5688" style="stroke:#000000;stroke-width:1;"/><text fill="#000000" font-family="Verdana" font-size="13" lengthAdjust="spacing" textLength="51.0986" x="2105.9184" y="501.5456">delete()</text><text fill="#000000" font-family="Verdana" font-size="13" lengthAdjust="spacing" textLength="215.9155" x="2023.51" y="516.6785">(simpan restore_folder_id=SENT)</text></g><!--link DELETED to SENT--><g class="link" data-entity-1="ent0015" data-entity-2="ent0005" data-link-type="dependency" data-source-line="69" id="lnk22"><path d="M2619.81,426.5888 C2463.17,425.6188 1926.53,426.3288 1875.51,480.9788 C1861.25,496.2488 1866.53,509.1088 1875.51,527.9788 C1883.68,545.1488 1895.0317,555.4961 1909.6817,564.9061" fill="none" id="DELETED-to-SENT" style="stroke:#000000;stroke-width:1;"/><polygon fill="#000000" points="1914.73,568.1488,1909.3193,559.9193,1910.5231,565.4466,1904.9958,566.6503,1914.73,568.1488" style="stroke:#000000;stroke-width:1;"/><text fill="#000000" font-family="Verdana" font-size="13" lengthAdjust="spacing" textLength="56.6528" x="1898.9712" y="501.5456">restore()</text><text fill="#000000" font-family="Verdana" font-size="13" lengthAdjust="spacing" textLength="101.5752" x="1876.51" y="516.6785">(jika asal SENT)</text></g><!--link PERSONAL to DELETED--><g class="link" data-entity-1="ent0011" data-entity-2="ent0015" data-link-type="dependency" data-source-line="50" id="lnk19"><path d="M2636.03,1014.6388 C2764.4,1009.7488 3108.51,987.6488 3108.51,890.9688 C3108.51,583.2688 3108.51,583.2688 3108.51,583.2688 C3108.51,517.4788 3060.45,510.2088 3001.51,480.9788 C2950.05,455.4588 2789.8753,438.2929 2710.9153,431.1029" fill="none" id="PERSONAL-to-DELETED" style="stroke:#000000;stroke-width:1;"/><polygon fill="#000000" points="2704.94,430.5588,2713.5402,435.3584,2709.9194,431.0122,2714.2657,427.3914,2704.94,430.5588" style="stroke:#000000;stroke-width:1;"/><text fill="#000000" font-family="Verdana" font-size="13" lengthAdjust="spacing" textLength="51.0986" x="3169.4065" y="742.3356">delete()</text><text fill="#000000" font-family="Verdana" font-size="13" lengthAdjust="spacing" textLength="170.8916" x="3109.51" y="757.4685">(simpan restore_folder_id)</text></g><!--link DELETED to PERSONAL--><g class="link" data-entity-1="ent0015" data-entity-2="ent0011" data-link-type="dependency" data-source-line="70" id="lnk23"><path d="M2704.97,442.7088 C2792.54,477.8887 2980.94,569.2088 2930.51,687.5688 C2868.71,832.5888 2713.1083,941.2777 2636.0483,988.4177" fill="none" id="DELETED-to-PERSONAL" style="stroke:#000000;stroke-width:1;"/><polygon fill="#000000" points="2630.93,991.5488,2640.6948,990.2644,2635.1952,988.9396,2636.5201,983.44,2630.93,991.5488" style="stroke:#000000;stroke-width:1;"/><text fill="#000000" font-family="Verdana" font-size="13" lengthAdjust="spacing" textLength="56.6528" x="2949.9748" y="742.3356">restore()</text><text fill="#000000" font-family="Verdana" font-size="13" lengthAdjust="spacing" textLength="123.5825" x="2916.51" y="757.4685">(jika asal personal)</text></g><!--link DELETED to PERMANENT--><g class="link" data-entity-1="ent0015" data-entity-2="ent0007" data-link-type="dependency" data-source-line="87" id="lnk24"><path d="M2704.94,426.5788 C2788.95,426.9188 2981.53,433.3688 3134.51,480.9788 C3191.49,498.7088 3246.2232,530.2738 3283.6432,554.3338" fill="none" id="DELETED-to-PERMANENT" style="stroke:#000000;stroke-width:1;"/><polygon fill="#000000" points="3288.69,557.5788,3283.2831,549.3468,3284.4843,554.8746,3278.9565,556.0759,3288.69,557.5788" style="stroke:#000000;stroke-width:1;"/><text fill="#000000" font-family="Verdana" font-size="13" lengthAdjust="spacing" textLength="117.9585" x="3273.5266" y="494.0456">delete() dari trash</text><text fill="#000000" font-family="Verdana" font-size="13" lengthAdjust="spacing" textLength="189.9917" x="3237.51" y="509.1785">(restore_folder_id=DELETED)</text><text fill="#000000" font-family="Verdana" font-size="13" lengthAdjust="spacing" textLength="125.1694" x="3269.9211" y="524.3113">atau empty_trash()</text></g><!--link PERMANENT to *end*--><g class="link" data-entity-1="ent0007" data-entity-2="ent0025" data-link-type="dependency" data-source-line="91" id="lnk26"><path d="M3326.51,610.8188 C3326.51,646.4588 3326.51,703.4888 3326.51,728.0587" fill="none" id="PERMANENT-to-*end*" style="stroke:#000000;stroke-width:1;"/><polygon fill="#000000" points="3326.51,734.0587,3330.51,725.0587,3326.51,729.0587,3322.51,725.0587,3326.51,734.0587" style="stroke:#000000;stroke-width:1;"/><text fill="#000000" font-family="Verdana" font-size="13" lengthAdjust="spacing" textLength="133.231" x="3327.51" y="668.6356">Tidak bisa di-restore</text></g><!--link PERMANENT to GMN14--><g class="link" data-entity-1="ent0007" data-entity-2="ent0015" data-link-type="association" data-source-line="94" id="lnk16"><path d="M3389.74,596.5487 C3416.77,604.4988 3446.42,617.9388 3465.51,640.5688 C3483.54,661.9588 3487.91,694.4988 3488.49,717.4188" fill="none" id="PERMANENT-GMN14" style="stroke:#000000;stroke-width:1;stroke-dasharray:7,7;"/></g><?plantuml-src bLRRRjD047ttLmnzIa8IuXPHMgcLNEog5KbQ9Qb0eYZQnfjcYRqstZLIX91uuWCGNzWlONRNzoIWFjNTEMTsvinbyqAkQ4WX3WZZbcGoe30YB83BAF1f0aEsf8lD0a-VVlw1CFf6Msru2GaLCahCDmrZkPdBX8XLgttFGsI7aK-3VhoAJ-s1_RPd3mvFkc0Vli7Fey70iZvrFaElTmxknBcSmIa8elqk4aea5U0dP2dlUMkfOvWp_qm3svPb28ewzSQQIRclRcsbiOzSA2aAW0oDKuJhySNDnuAHttNFnKRCKu4SISGQOimveGiMCyhh8MW-EZH-bCU9vxZQePnGedo-ofqdD0usDRR28bb85UJ17Tu7paAoY8i380A8-ORlbWMGWOpOsgm-vmQ3TXwXEM6FAmdHic43w7GqCSHRkwKSNOYGmVZSdBGx7Grk54jNwF3ujQMDTxUkC_EWBj3KcsbZuHdEG9BaaShCjRP-kF8c7cYMHYpI9451jHyDSCOkoD0OrP_YiEgt5hA9wO890Z7ZFbd1EYytfi59d9hy9Kr28j9rRiEAYeYJ05hdzg2D42oHbh0YDGf0PIws-MUVt4sh4ZoZ6ycpqPWNYUpHEXyCanTRRXFXx0mkRuQkDvcxtj2RUUwfnW8y_VfT4wfdGojMUNCKEGknhR4q47GVg-wx0X8iZ0dV3iXuv3vRLcNyKPs9MsyolHaxGvmBqx_LAO1pK2NGSxCJN4xhjgboIHOnslB2uItxWiu7jxZrUMmpk4LSpoER7LJaycm7vSOe5gvkqHoOTM6zGnj6rQ0vEopQiJdunySu-2UsQaQx3yCeMgVndWO0doIiiHNql1jhPMaNZNNOXtSa2A3SJ0QxTK4trwUj8XbH_aZ31nAmDQfJZZiH9533Inzea8RWinLElx3AmSv5hkxzGa7K-miwr5uWQuug8Llhk_6c7Qhmx27Q3JSDK8LN6dit9TzNPUrh3woklpdPMVsQITM-njvP-vEZx5d-vyglxniBTkshxPNoduUWkV4RV4HCQPWI46b2SB4nq7bOPaqrDnvKtjkUtTxJ3rY0aJCsHSj7qBIqzesrs9xZl2dlEP4ahV_YASfKEAwjF2MMALfXjwmo1XMH-ZLq2ZFcapKygFVDPxqi1ijKzo6ICWfLUKid02u60xDhrtcVZu39mxtee_MAy0rfL4sTZuXWg-AUhobDDf1oYGycINqc-wLiVm40?></g></svg>