<?plantuml 1.2026.1?><svg xmlns="http://www.w3.org/2000/svg" xmlns:xlink="http://www.w3.org/1999/xlink" contentStyleType="text/css" data-diagram-type="ACTIVITY" height="1091px" preserveAspectRatio="none" style="width:724px;height:1091px;background:#FFFFFF;" version="1.1" viewBox="0 0 724 1091" width="724px" zoomAndPan="magnify"><title>directArsip() - Arsip Langsung dari Surat
direct/mail.php:364-390</title><defs/><g><g class="title" data-source-line="2"><text fill="#000000" font-family="Verdana" font-size="22" font-weight="bold" lengthAdjust="spacing" textLength="505.8174" x="107.9409" y="35.4209">directArsip() - Arsip Langsung dari Surat</text><text fill="#000000" font-family="Verdana" font-size="22" font-weight="bold" lengthAdjust="spacing" textLength="298.7939" x="211.4526" y="61.0303">direct/mail.php:364-390</text></g><ellipse cx="390.123" cy="87.2188" fill="#FFFFFF" rx="10" ry="10" style="stroke:#000000;stroke-width:1;"/><rect fill="#FFFFFF" height="33.9688" rx="12.5" ry="12.5" style="stroke:#000000;stroke-width:1;" width="200.3047" x="289.9707" y="117.2188"/><text fill="#000000" font-family="Verdana" font-size="12" lengthAdjust="spacing" textLength="180.3047" x="299.9707" y="138.3574">Gate 1 Role Permission Check</text><rect fill="#ADD8E6" height="82.2656" style="stroke:#000000;stroke-width:1;" width="179.3652" x="300.4404" y="161.1875"/><path d="M413.9365,161.1875 L413.9365,170.4844 L403.9365,180.4844 L300.4404,180.4844" fill="none" style="stroke:#000000;stroke-width:1;"/><text fill="#000000" font-family="Verdana" font-size="14" lengthAdjust="spacing" textLength="103.4961" x="303.4404" y="175.1826">Cek Hak Akses</text><rect fill="#FFFFFF" height="33.9688" rx="12.5" ry="12.5" style="stroke:#000000;stroke-width:1;" width="159.3652" x="310.4404" y="197.4844"/><text fill="#000000" font-family="Verdana" font-size="12" lengthAdjust="spacing" textLength="139.3652" x="320.4404" y="218.623">Query role menu event</text><rect fill="#FFFFFF" height="33.9688" rx="12.5" ry="12.5" style="stroke:#000000;stroke-width:1;" width="244.3672" x="267.9395" y="311.8555"/><text fill="#000000" font-family="Verdana" font-size="12" lengthAdjust="spacing" textLength="224.3672" x="277.9395" y="332.9941">Return ERROR: tidak punya hak arsip</text><ellipse cx="390.123" cy="385.3398" fill="none" rx="11" ry="11" style="stroke:#000000;stroke-width:1;"/><ellipse cx="390.123" cy="385.3398" fill="#FFFFFF" rx="6" ry="6" style="stroke:#000000;stroke-width:1;"/><polygon fill="#FFFFFF" points="338.4155,263.4531,441.8306,263.4531,453.8306,275.4531,441.8306,287.4531,338.4155,287.4531,326.4155,275.4531,338.4155,263.4531" style="stroke:#000000;stroke-width:1;"/><text fill="#000000" font-family="Verdana" font-size="11" lengthAdjust="spacing" textLength="13.7017" x="394.123" y="297.6636">no</text><text fill="#000000" font-family="Verdana" font-size="11" lengthAdjust="spacing" textLength="103.415" x="338.4155" y="279.2612">Akses menu arsip?</text><text fill="#000000" font-family="Verdana" font-size="11" lengthAdjust="spacing" textLength="19.0083" x="453.8306" y="272.8589">yes</text><rect fill="#FFFFFF" height="33.9688" rx="12.5" ry="12.5" style="stroke:#000000;stroke-width:1;" width="161.9023" x="309.1719" y="438.3398"/><text fill="#000000" font-family="Verdana" font-size="12" lengthAdjust="spacing" textLength="141.9023" x="319.1719" y="459.4785">Gate 2 Duplicate Check</text><rect fill="#ADD8E6" height="136.2344" style="stroke:#000000;stroke-width:1;" width="200.3594" x="289.9434" y="482.3086"/><path d="M429.2383,482.3086 L429.2383,491.6055 L419.2383,501.6055 L289.9434,501.6055" fill="none" style="stroke:#000000;stroke-width:1;"/><text fill="#000000" font-family="Verdana" font-size="14" lengthAdjust="spacing" textLength="129.2949" x="292.9434" y="496.3037">Cek Duplikat Arsip</text><rect fill="#FFFFFF" height="33.9688" rx="12.5" ry="12.5" style="stroke:#000000;stroke-width:1;" width="135.9219" x="322.1621" y="518.6055"/><text fill="#000000" font-family="Verdana" font-size="12" lengthAdjust="spacing" textLength="115.9219" x="332.1621" y="539.7441">Get mail by id_mail</text><rect fill="#FFFFFF" height="33.9688" rx="12.5" ry="12.5" style="stroke:#000000;stroke-width:1;" width="180.3594" x="299.9434" y="572.5742"/><text fill="#000000" font-family="Verdana" font-size="12" lengthAdjust="spacing" textLength="160.3594" x="309.9434" y="593.7129">Get root mail by m_root_id</text><rect fill="#FFFFFF" height="33.9688" rx="12.5" ry="12.5" style="stroke:#000000;stroke-width:1;" width="251.5449" x="264.3506" y="686.9453"/><text fill="#000000" font-family="Verdana" font-size="12" lengthAdjust="spacing" textLength="231.5449" x="274.3506" y="708.084">Return ERROR: surat sudah diarsipkan</text><ellipse cx="390.123" cy="760.4297" fill="none" rx="11" ry="11" style="stroke:#000000;stroke-width:1;"/><ellipse cx="390.123" cy="760.4297" fill="#FFFFFF" rx="6" ry="6" style="stroke:#000000;stroke-width:1;"/><polygon fill="#FFFFFF" points="297.3267,638.543,482.9194,638.543,494.9194,650.543,482.9194,662.543,297.3267,662.543,285.3267,650.543,297.3267,638.543" style="stroke:#000000;stroke-width:1;"/><text fill="#000000" font-family="Verdana" font-size="11" lengthAdjust="spacing" textLength="19.0083" x="394.123" y="672.7534">yes</text><text fill="#000000" font-family="Verdana" font-size="11" lengthAdjust="spacing" textLength="185.5928" x="297.3267" y="654.3511">Root mail sudah punya m_ma_id?</text><text fill="#000000" font-family="Verdana" font-size="11" lengthAdjust="spacing" textLength="13.7017" x="494.9194" y="647.9487">no</text><rect fill="#FFFFFF" height="33.9688" rx="12.5" ry="12.5" style="stroke:#000000;stroke-width:1;" width="175.291" x="302.4775" y="813.4297"/><text fill="#000000" font-family="Verdana" font-size="12" lengthAdjust="spacing" textLength="155.291" x="312.4775" y="834.5684">Gate 3 Attachment Check</text><polygon fill="#FFFFFF" points="323.8921,867.3984,456.354,867.3984,468.354,879.3984,456.354,891.3984,323.8921,891.3984,311.8921,879.3984,323.8921,867.3984" style="stroke:#000000;stroke-width:1;"/><text fill="#000000" font-family="Verdana" font-size="11" lengthAdjust="spacing" textLength="132.4619" x="323.8921" y="883.2065">m_attachment_qty &gt; 0?</text><text fill="#000000" font-family="Verdana" font-size="11" lengthAdjust="spacing" textLength="19.0083" x="292.8838" y="876.8042">yes</text><text fill="#000000" font-family="Verdana" font-size="11" lengthAdjust="spacing" textLength="13.7017" x="468.354" y="876.8042">no</text><rect fill="#FFFFFF" height="33.9688" rx="12.5" ry="12.5" style="stroke:#000000;stroke-width:1;" width="212.5684" x="100.6641" y="901.3984"/><text fill="#000000" font-family="Verdana" font-size="12" lengthAdjust="spacing" textLength="192.5684" x="110.6641" y="922.5371">temp_id = get_temp_id(user_id)</text><rect fill="#FFFFFF" height="33.9688" rx="12.5" ry="12.5" style="stroke:#000000;stroke-width:1;" width="401.8965" x="6" y="955.3672"/><text fill="#000000" font-family="Verdana" font-size="12" lengthAdjust="spacing" textLength="381.8965" x="16" y="976.5059">copy_attachments REF_TYPE_MAIL -&gt; REF_TYPE_MAIL_ARCHIVE</text><rect fill="#FFFFFF" height="33.9688" rx="12.5" ry="12.5" style="stroke:#000000;stroke-width:1;" width="316.6895" x="48.6035" y="1009.3359"/><text fill="#000000" font-family="Verdana" font-size="12" lengthAdjust="spacing" textLength="296.6895" x="58.6035" y="1030.4746">Return SUCCESS with temp_id and root mail data</text><rect fill="#FFFFFF" height="33.9688" rx="12.5" ry="12.5" style="stroke:#000000;stroke-width:1;" width="290.8027" x="427.8965" y="901.3984"/><text fill="#000000" font-family="Verdana" font-size="12" lengthAdjust="spacing" textLength="270.8027" x="437.8965" y="922.5371">Return ERROR: surat tidak memiliki lampiran</text><ellipse cx="573.2979" cy="966.3672" fill="none" rx="11" ry="11" style="stroke:#000000;stroke-width:1;"/><ellipse cx="573.2979" cy="966.3672" fill="#FFFFFF" rx="6" ry="6" style="stroke:#000000;stroke-width:1;"/><ellipse cx="390.123" cy="1074.3047" fill="none" rx="11" ry="11" style="stroke:#000000;stroke-width:1;"/><ellipse cx="390.123" cy="1074.3047" fill="#FFFFFF" rx="6" ry="6" style="stroke:#000000;stroke-width:1;"/><line style="stroke:#000000;stroke-width:1;" x1="390.123" x2="390.123" y1="97.2188" y2="117.2188"/><polygon fill="#000000" points="386.123,107.2188,390.123,117.2188,394.123,107.2188,390.123,111.2188" style="stroke:#000000;stroke-width:1;"/><line style="stroke:#000000;stroke-width:1;" x1="390.123" x2="390.123" y1="151.1875" y2="197.4844"/><polygon fill="#000000" points="386.123,187.4844,390.123,197.4844,394.123,187.4844,390.123,191.4844" style="stroke:#000000;stroke-width:1;"/><line style="stroke:#000000;stroke-width:1;" x1="390.123" x2="390.123" y1="345.8242" y2="374.3398"/><polygon fill="#000000" points="386.123,364.3398,390.123,374.3398,394.123,364.3398,390.123,368.3398" style="stroke:#000000;stroke-width:1;"/><line style="stroke:#000000;stroke-width:1;" x1="390.123" x2="390.123" y1="287.4531" y2="311.8555"/><polygon fill="#000000" points="386.123,301.8555,390.123,311.8555,394.123,301.8555,390.123,305.8555" style="stroke:#000000;stroke-width:1;"/><line style="stroke:#000000;stroke-width:1;" x1="453.8306" x2="522.3066" y1="275.4531" y2="275.4531"/><polygon fill="#000000" points="518.3066,344.3398,522.3066,354.3398,526.3066,344.3398,522.3066,348.3398" style="stroke:#000000;stroke-width:1;"/><line style="stroke:#000000;stroke-width:1;" x1="522.3066" x2="522.3066" y1="275.4531" y2="418.3398"/><line style="stroke:#000000;stroke-width:1;" x1="522.3066" x2="390.123" y1="418.3398" y2="418.3398"/><line style="stroke:#000000;stroke-width:1;" x1="390.123" x2="390.123" y1="418.3398" y2="438.3398"/><polygon fill="#000000" points="386.123,428.3398,390.123,438.3398,394.123,428.3398,390.123,432.3398" style="stroke:#000000;stroke-width:1;"/><line style="stroke:#000000;stroke-width:1;" x1="390.123" x2="390.123" y1="231.4531" y2="263.4531"/><polygon fill="#000000" points="386.123,253.4531,390.123,263.4531,394.123,253.4531,390.123,257.4531" style="stroke:#000000;stroke-width:1;"/><line style="stroke:#000000;stroke-width:1;" x1="390.123" x2="390.123" y1="552.5742" y2="572.5742"/><polygon fill="#000000" points="386.123,562.5742,390.123,572.5742,394.123,562.5742,390.123,566.5742" style="stroke:#000000;stroke-width:1;"/><line style="stroke:#000000;stroke-width:1;" x1="390.123" x2="390.123" y1="472.3086" y2="518.6055"/><polygon fill="#000000" points="386.123,508.6055,390.123,518.6055,394.123,508.6055,390.123,512.6055" style="stroke:#000000;stroke-width:1;"/><line style="stroke:#000000;stroke-width:1;" x1="390.123" x2="390.123" y1="720.9141" y2="749.4297"/><polygon fill="#000000" points="386.123,739.4297,390.123,749.4297,394.123,739.4297,390.123,743.4297" style="stroke:#000000;stroke-width:1;"/><line style="stroke:#000000;stroke-width:1;" x1="390.123" x2="390.123" y1="662.543" y2="686.9453"/><polygon fill="#000000" points="386.123,676.9453,390.123,686.9453,394.123,676.9453,390.123,680.9453" style="stroke:#000000;stroke-width:1;"/><line style="stroke:#000000;stroke-width:1;" x1="494.9194" x2="525.8955" y1="650.543" y2="650.543"/><polygon fill="#000000" points="521.8955,719.4297,525.8955,729.4297,529.8955,719.4297,525.8955,723.4297" style="stroke:#000000;stroke-width:1;"/><line style="stroke:#000000;stroke-width:1;" x1="525.8955" x2="525.8955" y1="650.543" y2="793.4297"/><line style="stroke:#000000;stroke-width:1;" x1="525.8955" x2="390.123" y1="793.4297" y2="793.4297"/><line style="stroke:#000000;stroke-width:1;" x1="390.123" x2="390.123" y1="793.4297" y2="813.4297"/><polygon fill="#000000" points="386.123,803.4297,390.123,813.4297,394.123,803.4297,390.123,807.4297" style="stroke:#000000;stroke-width:1;"/><line style="stroke:#000000;stroke-width:1;" x1="390.123" x2="390.123" y1="606.543" y2="638.543"/><polygon fill="#000000" points="386.123,628.543,390.123,638.543,394.123,628.543,390.123,632.543" style="stroke:#000000;stroke-width:1;"/><line style="stroke:#000000;stroke-width:1;" x1="206.9482" x2="206.9482" y1="935.3672" y2="955.3672"/><polygon fill="#000000" points="202.9482,945.3672,206.9482,955.3672,210.9482,945.3672,206.9482,949.3672" style="stroke:#000000;stroke-width:1;"/><line style="stroke:#000000;stroke-width:1;" x1="206.9482" x2="206.9482" y1="989.3359" y2="1009.3359"/><polygon fill="#000000" points="202.9482,999.3359,206.9482,1009.3359,210.9482,999.3359,206.9482,1003.3359" style="stroke:#000000;stroke-width:1;"/><line style="stroke:#000000;stroke-width:1;" x1="573.2979" x2="573.2979" y1="935.3672" y2="955.3672"/><polygon fill="#000000" points="569.2979,945.3672,573.2979,955.3672,577.2979,945.3672,573.2979,949.3672" style="stroke:#000000;stroke-width:1;"/><line style="stroke:#000000;stroke-width:1;" x1="311.8921" x2="206.9482" y1="879.3984" y2="879.3984"/><line style="stroke:#000000;stroke-width:1;" x1="206.9482" x2="206.9482" y1="879.3984" y2="901.3984"/><polygon fill="#000000" points="202.9482,891.3984,206.9482,901.3984,210.9482,891.3984,206.9482,895.3984" style="stroke:#000000;stroke-width:1;"/><line style="stroke:#000000;stroke-width:1;" x1="468.354" x2="573.2979" y1="879.3984" y2="879.3984"/><line style="stroke:#000000;stroke-width:1;" x1="573.2979" x2="573.2979" y1="879.3984" y2="901.3984"/><polygon fill="#000000" points="569.2979,891.3984,573.2979,901.3984,577.2979,891.3984,573.2979,895.3984" style="stroke:#000000;stroke-width:1;"/><line style="stroke:#000000;stroke-width:1;" x1="206.9482" x2="206.9482" y1="1043.3047" y2="1048.3047"/><line style="stroke:#000000;stroke-width:1;" x1="206.9482" x2="390.123" y1="1048.3047" y2="1048.3047"/><line style="stroke:#000000;stroke-width:1;" x1="390.123" x2="390.123" y1="1048.3047" y2="1063.3047"/><polygon fill="#000000" points="386.123,1053.3047,390.123,1063.3047,394.123,1053.3047,390.123,1057.3047" style="stroke:#000000;stroke-width:1;"/><line style="stroke:#000000;stroke-width:1;" x1="390.123" x2="390.123" y1="847.3984" y2="867.3984"/><polygon fill="#000000" points="386.123,857.3984,390.123,867.3984,394.123,857.3984,390.123,861.3984" style="stroke:#000000;stroke-width:1;"/><?plantuml-src TP9TZvGm58Rl-okEwmrSZAwECN68Qn1nTvCnheoQc9YG2cU71bfgUxg66F-xBGmZw-WLf-Uhx_EM1zIWHD0T5ugHe0wX5WOhIeqLEefX1MC4MwxsrgazrDm8s3d3wQkQMXzBBhf7kj6RzVDdg_MBSyOiSKECRIuv8Jo1elTxRz18OQte5MGDLct2j6yI519d6RPmnLj8Muls31vknRwXrvr3-Ca0DXyScW5CM2DHES0xL9ImNqpSGZJEJ7aUjBwAmLCfY5GVX-42oHa5UL6yBpP0elRtQAS63esFnf74zrdgDSFE8aG3sfYXnxkT6Px26wSxKONut-h7UijfykiKuH89Wb7mRG1Hbo5Cvhpf-pz5MOPZAUgPhpXMhQjvSz0k_GhVT8GTDP_Gsl1GXxbQZAmjLt_X1f_kqQuX9U9Lupsb6JSeaIK_villDC05d9y889JQ2uENi4Sg3wV8MJJ-6u_CLQ-7nIeBHVws_FZb9Y_VfTTRM5tSJvHfaLrTVywJ1T_kKvRbknty4DJ0V2LNzSBBcXDF5eZ_CMVw8IHAuTzFGCUb5cRfqUHCY7y3?></g></svg>