<?plantuml 1.2026.1?><svg xmlns="http://www.w3.org/2000/svg" xmlns:xlink="http://www.w3.org/1999/xlink" contentStyleType="text/css" data-diagram-type="ACTIVITY" height="1819px" preserveAspectRatio="none" style="width:635px;height:1819px;background:#FFFFFF;" version="1.1" viewBox="0 0 635 1819" width="635px" zoomAndPan="magnify"><title>find() / find_mail() &#8212; Pencarian Surat
direct/mail.php:294 + mailmodel.php:1219-1266</title><defs/><g><g class="title" data-source-line="2"><text fill="#000000" font-family="Verdana" font-size="22" font-weight="bold" lengthAdjust="spacing" textLength="460.6572" x="85.9199" y="35.4209">find() / find_mail() &#8212; Pencarian Surat</text><text fill="#000000" font-family="Verdana" font-size="22" font-weight="bold" lengthAdjust="spacing" textLength="602.4971" x="15" y="61.0303">direct/mail.php:294 + mailmodel.php:1219-1266</text></g><ellipse cx="221.178" cy="87.2188" fill="#FFFFFF" rx="10" ry="10" style="stroke:#000000;stroke-width:1;"/><rect fill="#FFFFFF" height="47.9375" rx="12.5" ry="12.5" style="stroke:#000000;stroke-width:1;" width="236.457" x="102.9495" y="117.2188"/><text fill="#000000" font-family="Verdana" font-size="12" lengthAdjust="spacing" textLength="123.4922" x="112.9495" y="138.3574">Input dari controller:</text><text fill="#000000" font-family="Verdana" font-size="12" lengthAdjust="spacing" textLength="216.457" x="112.9495" y="152.3262">find(input) &#8594; find_mail((array)input)</text><rect fill="#FFFFFF" height="33.9688" rx="12.5" ry="12.5" style="stroke:#000000;stroke-width:1;" width="90.4063" x="175.9749" y="185.1563"/><text fill="#000000" font-family="Verdana" font-size="12" lengthAdjust="spacing" textLength="70.4063" x="185.9749" y="206.2949">Build Query</text><rect fill="#ADD8E6" height="244.7031" style="stroke:#000000;stroke-width:1;" width="458.9844" x="104.5657" y="229.125"/><path d="M195.6536,229.125 L195.6536,238.4219 L185.6536,248.4219 L104.5657,248.4219" fill="none" style="stroke:#000000;stroke-width:1;"/><text fill="#000000" font-family="Verdana" font-size="14" lengthAdjust="spacing" textLength="81.0879" x="107.5657" y="243.1201">Base Query</text><rect fill="#FFFFFF" height="61.9063" rx="12.5" ry="12.5" style="stroke:#000000;stroke-width:1;" width="213.2246" x="114.5657" y="265.4219"/><text fill="#000000" font-family="Verdana" font-size="12" lengthAdjust="spacing" textLength="174.0879" x="124.5657" y="286.5605">SELECT m_id, m_no, m_date,</text><text fill="#000000" font-family="Verdana" font-size="12" lengthAdjust="spacing" textLength="193.2246" x="124.5657" y="300.5293">m_created_by_name, m_subject</text><text fill="#000000" font-family="Verdana" font-size="12" lengthAdjust="spacing" textLength="80.0684" x="124.5657" y="314.498">FROM mail m</text><rect fill="#FFFFFF" height="33.9688" rx="12.5" ry="12.5" style="stroke:#000000;stroke-width:1;" width="192.7695" x="124.7932" y="347.3281"/><text fill="#000000" font-family="Verdana" font-size="12" lengthAdjust="spacing" textLength="172.7695" x="134.7932" y="368.4668">WHERE m_status = 1 (SENT)</text><path d="M343.428,391.2969 L343.428,422.5625 L323.428,426.5625 L343.428,430.5625 L343.428,461.8281 A0,0 0 0 0 343.428,461.8281 L553.55,461.8281 A0,0 0 0 0 553.55,461.8281 L553.55,401.2969 L543.55,391.2969 L343.428,391.2969 A0,0 0 0 0 343.428,391.2969" fill="#FFFFFF" style="stroke:#000000;stroke-width:1;"/><path d="M543.55,391.2969 L543.55,401.2969 L553.55,401.2969 L543.55,391.2969" fill="#FFFFFF" style="stroke:#000000;stroke-width:1;"/><text fill="#000000" font-family="Verdana" font-size="13" lengthAdjust="spacing" textLength="173.1768" x="349.428" y="408.3638">Hanya tampilkan root mail</text><text fill="#000000" font-family="Verdana" font-size="13" lengthAdjust="spacing" textLength="188.7603" x="349.428" y="423.4966">(thread utama, bukan reply).</text><text fill="#000000" font-family="Verdana" font-size="13" lengthAdjust="spacing" textLength="189.1221" x="349.428" y="438.6294">Ini memastikan search result</text><text fill="#000000" font-family="Verdana" font-size="13" lengthAdjust="spacing" textLength="166.0356" x="349.428" y="453.7622">tidak duplikat per thread.</text><rect fill="#FFFFFF" height="33.9688" rx="12.5" ry="12.5" style="stroke:#000000;stroke-width:1;" width="204.5" x="118.928" y="409.5781"/><text fill="#000000" font-family="Verdana" font-size="12" lengthAdjust="spacing" textLength="184.5" x="128.928" y="430.7168">WHERE m.m_id = m.m_root_id</text><rect fill="#ADD8E6" height="246.1211" style="stroke:#000000;stroke-width:1;" width="271.248" x="91.554" y="483.8281"/><path d="M202.4319,483.8281 L202.4319,493.125 L192.4319,503.125 L91.554,503.125" fill="none" style="stroke:#000000;stroke-width:1;"/><text fill="#000000" font-family="Verdana" font-size="14" lengthAdjust="spacing" textLength="100.8779" x="94.554" y="497.8232">Keyword Filter</text><rect fill="#FFFFFF" height="103.8125" rx="12.5" ry="12.5" style="stroke:#000000;stroke-width:1;" width="219.248" x="111.554" y="570.1367"/><text fill="#000000" font-family="Verdana" font-size="12" lengthAdjust="spacing" textLength="147.6445" x="121.554" y="591.2754">WHERE LIKE keyword di:</text><text fill="#000000" font-family="Verdana" font-size="12" lengthAdjust="spacing" textLength="127.5352" x="121.554" y="605.2441">- m_no (nomor surat)</text><text fill="#000000" font-family="Verdana" font-size="12" lengthAdjust="spacing" textLength="124.0664" x="121.554" y="619.2129">- m_subject (perihal)</text><text fill="#000000" font-family="Verdana" font-size="12" lengthAdjust="spacing" textLength="132.5391" x="121.554" y="633.1816">- m_content (isi surat)</text><text fill="#000000" font-family="Verdana" font-size="12" lengthAdjust="spacing" textLength="111.7207" x="121.554" y="647.1504">- m_note (catatan)</text><text fill="#000000" font-family="Verdana" font-size="12" lengthAdjust="spacing" textLength="199.248" x="121.554" y="661.1191">- m_created_by_name (pengirim)</text><polygon fill="#FFFFFF" points="173.5981,520.125,268.7578,520.125,280.7578,532.9297,268.7578,545.7344,173.5981,545.7344,161.5981,532.9297,173.5981,520.125" style="stroke:#000000;stroke-width:1;"/><text fill="#000000" font-family="Verdana" font-size="11" lengthAdjust="spacing" textLength="19.0083" x="225.178" y="555.9448">yes</text><text fill="#000000" font-family="Verdana" font-size="11" lengthAdjust="spacing" textLength="77.8218" x="173.5981" y="530.3354">keyword terisi</text><text fill="#000000" font-family="Verdana" font-size="11" lengthAdjust="spacing" textLength="95.1597" x="173.5981" y="543.1401">DAN bukan "%" ?</text><text fill="#000000" font-family="Verdana" font-size="11" lengthAdjust="spacing" textLength="13.7017" x="280.7578" y="530.3354">no</text><polygon fill="#FFFFFF" points="221.178,693.9492,233.178,705.9492,221.178,717.9492,209.178,705.9492,221.178,693.9492" style="stroke:#000000;stroke-width:1;"/><rect fill="#ADD8E6" height="321.0391" style="stroke:#000000;stroke-width:1;" width="273.5977" x="90.3792" y="739.9492"/><path d="M258.6243,739.9492 L258.6243,749.2461 L248.6243,759.2461 L90.3792,759.2461" fill="none" style="stroke:#000000;stroke-width:1;"/><text fill="#000000" font-family="Verdana" font-size="14" lengthAdjust="spacing" textLength="158.2451" x="93.3792" y="753.9443">Type &amp; Category Filter</text><rect fill="#FFFFFF" height="33.9688" rx="12.5" ry="12.5" style="stroke:#000000;stroke-width:1;" width="211.2266" x="115.5647" y="824.6484"/><text fill="#000000" font-family="Verdana" font-size="12" lengthAdjust="spacing" textLength="191.2266" x="125.5647" y="845.7871">WHERE m_type = m_mcat_type</text><polygon fill="#FFFFFF" points="165.7349,776.2461,276.6211,776.2461,288.6211,788.2461,276.6211,800.2461,165.7349,800.2461,153.7349,788.2461,165.7349,776.2461" style="stroke:#000000;stroke-width:1;"/><text fill="#000000" font-family="Verdana" font-size="11" lengthAdjust="spacing" textLength="19.0083" x="225.178" y="810.4565">yes</text><text fill="#000000" font-family="Verdana" font-size="11" lengthAdjust="spacing" textLength="110.8862" x="165.7349" y="792.0542">m_mcat_type terisi?</text><text fill="#000000" font-family="Verdana" font-size="11" lengthAdjust="spacing" textLength="13.7017" x="288.6211" y="785.6519">no</text><polygon fill="#FFFFFF" points="221.178,878.6172,233.178,890.6172,221.178,902.6172,209.178,890.6172,221.178,878.6172" style="stroke:#000000;stroke-width:1;"/><rect fill="#FFFFFF" height="33.9688" rx="12.5" ry="12.5" style="stroke:#000000;stroke-width:1;" width="221.5977" x="110.3792" y="971.0195"/><text fill="#000000" font-family="Verdana" font-size="12" lengthAdjust="spacing" textLength="201.5977" x="120.3792" y="992.1582">WHERE m_category = m_mcat_id</text><polygon fill="#FFFFFF" points="173.002,922.6172,269.354,922.6172,281.354,934.6172,269.354,946.6172,173.002,946.6172,161.002,934.6172,173.002,922.6172" style="stroke:#000000;stroke-width:1;"/><text fill="#000000" font-family="Verdana" font-size="11" lengthAdjust="spacing" textLength="19.0083" x="225.178" y="956.8276">yes</text><text fill="#000000" font-family="Verdana" font-size="11" lengthAdjust="spacing" textLength="96.3521" x="173.002" y="938.4253">m_mcat_id terisi?</text><text fill="#000000" font-family="Verdana" font-size="11" lengthAdjust="spacing" textLength="13.7017" x="281.354" y="932.0229">no</text><polygon fill="#FFFFFF" points="221.178,1024.9883,233.178,1036.9883,221.178,1048.9883,209.178,1036.9883,221.178,1024.9883" style="stroke:#000000;stroke-width:1;"/><rect fill="#ADD8E6" height="339.7769" style="stroke:#000000;stroke-width:1;" width="475.6641" x="114.845" y="1070.9883"/><path d="M249.2864,1070.9883 L249.2864,1080.2852 L239.2864,1090.2852 L114.845,1090.2852" fill="none" style="stroke:#000000;stroke-width:1;"/><text fill="#000000" font-family="Verdana" font-size="14" lengthAdjust="spacing" textLength="124.4414" x="117.845" y="1084.9834">Special Flag Filter</text><path d="M327.511,1160.1055 L327.511,1168.6719 L307.511,1172.6719 L327.511,1176.6719 L327.511,1185.2383 A0,0 0 0 0 327.511,1185.2383 L558.9041,1185.2383 A0,0 0 0 0 558.9041,1185.2383 L558.9041,1170.1055 L548.9041,1160.1055 L327.511,1160.1055 A0,0 0 0 0 327.511,1160.1055" fill="#FFFFFF" style="stroke:#000000;stroke-width:1;"/><path d="M548.9041,1160.1055 L548.9041,1170.1055 L558.9041,1170.1055 L548.9041,1160.1055" fill="#FFFFFF" style="stroke:#000000;stroke-width:1;"/><text fill="#000000" font-family="Verdana" font-size="13" lengthAdjust="spacing" textLength="210.3931" x="333.511" y="1177.1724">Surat yang belum di-link ke RAB</text><rect fill="#FFFFFF" height="33.9688" rx="12.5" ry="12.5" style="stroke:#000000;stroke-width:1;" width="172.666" x="134.845" y="1155.6875"/><text fill="#000000" font-family="Verdana" font-size="12" lengthAdjust="spacing" textLength="152.666" x="144.845" y="1176.8262">WHERE m_rab_id IS NULL</text><polygon fill="#FFFFFF" points="181.0371,1107.2852,261.3188,1107.2852,273.3188,1119.2852,261.3188,1131.2852,181.0371,1131.2852,169.0371,1119.2852,181.0371,1107.2852" style="stroke:#000000;stroke-width:1;"/><text fill="#000000" font-family="Verdana" font-size="11" lengthAdjust="spacing" textLength="19.0083" x="225.178" y="1141.4956">yes</text><text fill="#000000" font-family="Verdana" font-size="11" lengthAdjust="spacing" textLength="80.2817" x="181.0371" y="1123.0933">flag == "rab"?</text><text fill="#000000" font-family="Verdana" font-size="11" lengthAdjust="spacing" textLength="13.7017" x="273.3188" y="1116.6909">no</text><polygon fill="#FFFFFF" points="221.178,1209.6563,233.178,1221.6563,221.178,1233.6563,209.178,1221.6563,221.178,1209.6563" style="stroke:#000000;stroke-width:1;"/><path d="M327.0803,1299.3667 L327.0803,1323.0659 L307.0803,1327.0659 L327.0803,1331.0659 L327.0803,1354.7651 A0,0 0 0 0 327.0803,1354.7651 L520.927,1354.7651 A0,0 0 0 0 520.927,1354.7651 L520.927,1309.3667 L510.927,1299.3667 L327.0803,1299.3667 A0,0 0 0 0 327.0803,1299.3667" fill="#FFFFFF" style="stroke:#000000;stroke-width:1;"/><path d="M510.927,1299.3667 L510.927,1309.3667 L520.927,1309.3667 L510.927,1299.3667" fill="#FFFFFF" style="stroke:#000000;stroke-width:1;"/><text fill="#000000" font-family="Verdana" font-size="13" lengthAdjust="spacing" textLength="172.8467" x="333.0803" y="1316.4336">Surat yang belum di-arsip.</text><text fill="#000000" font-family="Verdana" font-size="13" lengthAdjust="spacing" textLength="172.7388" x="333.0803" y="1331.5664">Digunakan oleh form arsip</text><text fill="#000000" font-family="Verdana" font-size="13" lengthAdjust="spacing" textLength="172.5039" x="333.0803" y="1346.6992">untuk pilih referensi surat.</text><rect fill="#FFFFFF" height="33.9688" rx="12.5" ry="12.5" style="stroke:#000000;stroke-width:1;" width="171.8047" x="135.2756" y="1310.0815"/><text fill="#000000" font-family="Verdana" font-size="12" lengthAdjust="spacing" textLength="151.8047" x="145.2756" y="1331.2202">WHERE m_ma_id IS NULL</text><polygon fill="#FFFFFF" points="155.3176,1253.6563,287.0383,1253.6563,299.0383,1265.6563,287.0383,1277.6563,155.3176,1277.6563,143.3176,1265.6563,155.3176,1253.6563" style="stroke:#000000;stroke-width:1;"/><text fill="#000000" font-family="Verdana" font-size="11" lengthAdjust="spacing" textLength="19.0083" x="225.178" y="1287.8667">yes</text><text fill="#000000" font-family="Verdana" font-size="11" lengthAdjust="spacing" textLength="131.7207" x="155.3176" y="1269.4644">flag == "mail_archive"?</text><text fill="#000000" font-family="Verdana" font-size="11" lengthAdjust="spacing" textLength="13.7017" x="299.0383" y="1263.062">no</text><polygon fill="#FFFFFF" points="221.178,1374.7651,233.178,1386.7651,221.178,1398.7651,209.178,1386.7651,221.178,1374.7651" style="stroke:#000000;stroke-width:1;"/><rect fill="#ADD8E6" height="226.7969" style="stroke:#000000;stroke-width:1;" width="533.521" x="44.988" y="1420.7651"/><path d="M159.9197,1420.7651 L159.9197,1430.062 L149.9197,1440.062 L44.988,1440.062" fill="none" style="stroke:#000000;stroke-width:1;"/><text fill="#000000" font-family="Verdana" font-size="14" lengthAdjust="spacing" textLength="104.9316" x="47.988" y="1434.7603">Sort &amp; Execute</text><polygon fill="#FFFFFF" points="185.6079,1457.062,256.748,1457.062,268.748,1469.062,256.748,1481.062,185.6079,1481.062,173.6079,1469.062,185.6079,1457.062" style="stroke:#000000;stroke-width:1;"/><text fill="#000000" font-family="Verdana" font-size="11" lengthAdjust="spacing" textLength="71.1401" x="185.6079" y="1472.8701">custom sort?</text><text fill="#000000" font-family="Verdana" font-size="11" lengthAdjust="spacing" textLength="19.0083" x="154.5996" y="1466.4678">yes</text><text fill="#000000" font-family="Verdana" font-size="11" lengthAdjust="spacing" textLength="13.7017" x="268.748" y="1466.4678">no</text><rect fill="#FFFFFF" height="33.9688" rx="12.5" ry="12.5" style="stroke:#000000;stroke-width:1;" width="135.2949" x="56.988" y="1491.062"/><text fill="#000000" font-family="Verdana" font-size="12" lengthAdjust="spacing" textLength="115.2949" x="66.988" y="1512.2007">Apply sort dari grid</text><rect fill="#FFFFFF" height="33.9688" rx="12.5" ry="12.5" style="stroke:#000000;stroke-width:1;" width="210.875" x="212.283" y="1491.062"/><text fill="#000000" font-family="Verdana" font-size="12" lengthAdjust="spacing" textLength="190.875" x="222.283" y="1512.2007">ORDER BY m_created_date ASC</text><polygon fill="#FFFFFF" points="221.178,1531.0308,233.178,1543.0308,221.178,1555.0308,209.178,1543.0308,221.178,1531.0308" style="stroke:#000000;stroke-width:1;"/><path d="M352.3313,1565.0308 L352.3313,1596.2964 L332.3313,1600.2964 L352.3313,1604.2964 L352.3313,1635.562 A0,0 0 0 0 352.3313,1635.562 L568.509,1635.562 A0,0 0 0 0 568.509,1635.562 L568.509,1575.0308 L558.509,1565.0308 L352.3313,1565.0308 A0,0 0 0 0 352.3313,1565.0308" fill="#FFFFFF" style="stroke:#000000;stroke-width:1;"/><path d="M558.509,1565.0308 L558.509,1575.0308 L568.509,1575.0308 L558.509,1565.0308" fill="#FFFFFF" style="stroke:#000000;stroke-width:1;"/><text fill="#000000" font-family="Verdana" font-size="13" lengthAdjust="spacing" textLength="175.7095" x="358.3313" y="1582.0977">&#9888;&#65039; Tidak ada LIMIT/OFFSET.</text><text fill="#000000" font-family="Verdana" font-size="13" lengthAdjust="spacing" textLength="195.1777" x="358.3313" y="1597.2305">Search ini return semua hasil.</text><text fill="#000000" font-family="Verdana" font-size="13" lengthAdjust="spacing" textLength="176.1919" x="358.3313" y="1612.3633">Di Spring Boot: tambahkan</text><text fill="#000000" font-family="Verdana" font-size="13" lengthAdjust="spacing" textLength="123.1953" x="358.3313" y="1627.4961">pagination default.</text><rect fill="#FFFFFF" height="33.9688" rx="12.5" ry="12.5" style="stroke:#000000;stroke-width:1;" width="222.3066" x="110.0247" y="1583.312"/><text fill="#000000" font-family="Verdana" font-size="12" lengthAdjust="spacing" textLength="202.3066" x="120.0247" y="1604.4507">Execute query (tanpa pagination)</text><rect fill="#FFFFFF" height="33.9688" rx="12.5" ry="12.5" style="stroke:#000000;stroke-width:1;" width="229.25" x="106.553" y="1667.562"/><text fill="#000000" font-family="Verdana" font-size="12" lengthAdjust="spacing" textLength="209.25" x="116.553" y="1688.7007">Return success + data + total_row</text><ellipse cx="221.178" cy="1732.5308" fill="none" rx="11" ry="11" style="stroke:#000000;stroke-width:1;"/><ellipse cx="221.178" cy="1732.5308" fill="#FFFFFF" rx="6" ry="6" style="stroke:#000000;stroke-width:1;"/><line style="stroke:#000000;stroke-width:1;" x1="221.178" x2="221.178" y1="97.2188" y2="117.2188"/><polygon fill="#000000" points="217.178,107.2188,221.178,117.2188,225.178,107.2188,221.178,111.2188" style="stroke:#000000;stroke-width:1;"/><line style="stroke:#000000;stroke-width:1;" x1="221.178" x2="221.178" y1="165.1563" y2="185.1563"/><polygon fill="#000000" points="217.178,175.1563,221.178,185.1563,225.178,175.1563,221.178,179.1563" style="stroke:#000000;stroke-width:1;"/><line style="stroke:#000000;stroke-width:1;" x1="221.178" x2="221.178" y1="327.3281" y2="347.3281"/><polygon fill="#000000" points="217.178,337.3281,221.178,347.3281,225.178,337.3281,221.178,341.3281" style="stroke:#000000;stroke-width:1;"/><line style="stroke:#000000;stroke-width:1;" x1="221.178" x2="221.178" y1="381.2969" y2="409.5781"/><polygon fill="#000000" points="217.178,399.5781,221.178,409.5781,225.178,399.5781,221.178,403.5781" style="stroke:#000000;stroke-width:1;"/><line style="stroke:#000000;stroke-width:1;" x1="221.178" x2="221.178" y1="219.125" y2="265.4219"/><polygon fill="#000000" points="217.178,255.4219,221.178,265.4219,225.178,255.4219,221.178,259.4219" style="stroke:#000000;stroke-width:1;"/><line style="stroke:#000000;stroke-width:1;" x1="221.178" x2="221.178" y1="545.7344" y2="570.1367"/><polygon fill="#000000" points="217.178,560.1367,221.178,570.1367,225.178,560.1367,221.178,564.1367" style="stroke:#000000;stroke-width:1;"/><line style="stroke:#000000;stroke-width:1;" x1="280.7578" x2="340.802" y1="532.9297" y2="532.9297"/><polygon fill="#000000" points="336.802,611.6406,340.802,621.6406,344.802,611.6406,340.802,615.6406" style="stroke:#000000;stroke-width:1;"/><line style="stroke:#000000;stroke-width:1;" x1="340.802" x2="340.802" y1="532.9297" y2="705.9492"/><line style="stroke:#000000;stroke-width:1;" x1="340.802" x2="233.178" y1="705.9492" y2="705.9492"/><polygon fill="#000000" points="243.178,701.9492,233.178,705.9492,243.178,709.9492,239.178,705.9492" style="stroke:#000000;stroke-width:1;"/><line style="stroke:#000000;stroke-width:1;" x1="221.178" x2="221.178" y1="673.9492" y2="693.9492"/><polygon fill="#000000" points="217.178,683.9492,221.178,693.9492,225.178,683.9492,221.178,687.9492" style="stroke:#000000;stroke-width:1;"/><line style="stroke:#000000;stroke-width:1;" x1="221.178" x2="221.178" y1="443.5469" y2="520.125"/><polygon fill="#000000" points="217.178,510.125,221.178,520.125,225.178,510.125,221.178,514.125" style="stroke:#000000;stroke-width:1;"/><line style="stroke:#000000;stroke-width:1;" x1="221.178" x2="221.178" y1="800.2461" y2="824.6484"/><polygon fill="#000000" points="217.178,814.6484,221.178,824.6484,225.178,814.6484,221.178,818.6484" style="stroke:#000000;stroke-width:1;"/><line style="stroke:#000000;stroke-width:1;" x1="288.6211" x2="336.7913" y1="788.2461" y2="788.2461"/><polygon fill="#000000" points="332.7913,831.6328,336.7913,841.6328,340.7913,831.6328,336.7913,835.6328" style="stroke:#000000;stroke-width:1;"/><line style="stroke:#000000;stroke-width:1;" x1="336.7913" x2="336.7913" y1="788.2461" y2="890.6172"/><line style="stroke:#000000;stroke-width:1;" x1="336.7913" x2="233.178" y1="890.6172" y2="890.6172"/><polygon fill="#000000" points="243.178,886.6172,233.178,890.6172,243.178,894.6172,239.178,890.6172" style="stroke:#000000;stroke-width:1;"/><line style="stroke:#000000;stroke-width:1;" x1="221.178" x2="221.178" y1="858.6172" y2="878.6172"/><polygon fill="#000000" points="217.178,868.6172,221.178,878.6172,225.178,868.6172,221.178,872.6172" style="stroke:#000000;stroke-width:1;"/><line style="stroke:#000000;stroke-width:1;" x1="221.178" x2="221.178" y1="946.6172" y2="971.0195"/><polygon fill="#000000" points="217.178,961.0195,221.178,971.0195,225.178,961.0195,221.178,965.0195" style="stroke:#000000;stroke-width:1;"/><line style="stroke:#000000;stroke-width:1;" x1="281.354" x2="341.9768" y1="934.6172" y2="934.6172"/><polygon fill="#000000" points="337.9768,978.0039,341.9768,988.0039,345.9768,978.0039,341.9768,982.0039" style="stroke:#000000;stroke-width:1;"/><line style="stroke:#000000;stroke-width:1;" x1="341.9768" x2="341.9768" y1="934.6172" y2="1036.9883"/><line style="stroke:#000000;stroke-width:1;" x1="341.9768" x2="233.178" y1="1036.9883" y2="1036.9883"/><polygon fill="#000000" points="243.178,1032.9883,233.178,1036.9883,243.178,1040.9883,239.178,1036.9883" style="stroke:#000000;stroke-width:1;"/><line style="stroke:#000000;stroke-width:1;" x1="221.178" x2="221.178" y1="1004.9883" y2="1024.9883"/><polygon fill="#000000" points="217.178,1014.9883,221.178,1024.9883,225.178,1014.9883,221.178,1018.9883" style="stroke:#000000;stroke-width:1;"/><line style="stroke:#000000;stroke-width:1;" x1="221.178" x2="221.178" y1="902.6172" y2="922.6172"/><polygon fill="#000000" points="217.178,912.6172,221.178,922.6172,225.178,912.6172,221.178,916.6172" style="stroke:#000000;stroke-width:1;"/><line style="stroke:#000000;stroke-width:1;" x1="221.178" x2="221.178" y1="717.9492" y2="776.2461"/><polygon fill="#000000" points="217.178,766.2461,221.178,776.2461,225.178,766.2461,221.178,770.2461" style="stroke:#000000;stroke-width:1;"/><line style="stroke:#000000;stroke-width:1;" x1="221.178" x2="221.178" y1="1131.2852" y2="1155.6875"/><polygon fill="#000000" points="217.178,1145.6875,221.178,1155.6875,225.178,1145.6875,221.178,1149.6875" style="stroke:#000000;stroke-width:1;"/><line style="stroke:#000000;stroke-width:1;" x1="273.3188" x2="568.9041" y1="1119.2852" y2="1119.2852"/><polygon fill="#000000" points="564.9041,1162.6719,568.9041,1172.6719,572.9041,1162.6719,568.9041,1166.6719" style="stroke:#000000;stroke-width:1;"/><line style="stroke:#000000;stroke-width:1;" x1="568.9041" x2="568.9041" y1="1119.2852" y2="1221.6563"/><line style="stroke:#000000;stroke-width:1;" x1="568.9041" x2="233.178" y1="1221.6563" y2="1221.6563"/><polygon fill="#000000" points="243.178,1217.6563,233.178,1221.6563,243.178,1225.6563,239.178,1221.6563" style="stroke:#000000;stroke-width:1;"/><line style="stroke:#000000;stroke-width:1;" x1="221.178" x2="221.178" y1="1189.6563" y2="1209.6563"/><polygon fill="#000000" points="217.178,1199.6563,221.178,1209.6563,225.178,1199.6563,221.178,1203.6563" style="stroke:#000000;stroke-width:1;"/><line style="stroke:#000000;stroke-width:1;" x1="221.178" x2="221.178" y1="1277.6563" y2="1310.0815"/><polygon fill="#000000" points="217.178,1300.0815,221.178,1310.0815,225.178,1300.0815,221.178,1304.0815" style="stroke:#000000;stroke-width:1;"/><line style="stroke:#000000;stroke-width:1;" x1="299.0383" x2="530.927" y1="1265.6563" y2="1265.6563"/><polygon fill="#000000" points="526.927,1317.0659,530.927,1327.0659,534.927,1317.0659,530.927,1321.0659" style="stroke:#000000;stroke-width:1;"/><line style="stroke:#000000;stroke-width:1;" x1="530.927" x2="530.927" y1="1265.6563" y2="1386.7651"/><line style="stroke:#000000;stroke-width:1;" x1="530.927" x2="233.178" y1="1386.7651" y2="1386.7651"/><polygon fill="#000000" points="243.178,1382.7651,233.178,1386.7651,243.178,1390.7651,239.178,1386.7651" style="stroke:#000000;stroke-width:1;"/><line style="stroke:#000000;stroke-width:1;" x1="221.178" x2="221.178" y1="1344.0503" y2="1374.7651"/><polygon fill="#000000" points="217.178,1364.7651,221.178,1374.7651,225.178,1364.7651,221.178,1368.7651" style="stroke:#000000;stroke-width:1;"/><line style="stroke:#000000;stroke-width:1;" x1="221.178" x2="221.178" y1="1233.6563" y2="1253.6563"/><polygon fill="#000000" points="217.178,1243.6563,221.178,1253.6563,225.178,1243.6563,221.178,1247.6563" style="stroke:#000000;stroke-width:1;"/><line style="stroke:#000000;stroke-width:1;" x1="221.178" x2="221.178" y1="1048.9883" y2="1107.2852"/><polygon fill="#000000" points="217.178,1097.2852,221.178,1107.2852,225.178,1097.2852,221.178,1101.2852" style="stroke:#000000;stroke-width:1;"/><line style="stroke:#000000;stroke-width:1;" x1="173.6079" x2="124.6355" y1="1469.062" y2="1469.062"/><line style="stroke:#000000;stroke-width:1;" x1="124.6355" x2="124.6355" y1="1469.062" y2="1491.062"/><polygon fill="#000000" points="120.6355,1481.062,124.6355,1491.062,128.6355,1481.062,124.6355,1485.062" style="stroke:#000000;stroke-width:1;"/><line style="stroke:#000000;stroke-width:1;" x1="268.748" x2="317.7205" y1="1469.062" y2="1469.062"/><line style="stroke:#000000;stroke-width:1;" x1="317.7205" x2="317.7205" y1="1469.062" y2="1491.062"/><polygon fill="#000000" points="313.7205,1481.062,317.7205,1491.062,321.7205,1481.062,317.7205,1485.062" style="stroke:#000000;stroke-width:1;"/><line style="stroke:#000000;stroke-width:1;" x1="124.6355" x2="124.6355" y1="1525.0308" y2="1543.0308"/><line style="stroke:#000000;stroke-width:1;" x1="124.6355" x2="209.178" y1="1543.0308" y2="1543.0308"/><polygon fill="#000000" points="199.178,1539.0308,209.178,1543.0308,199.178,1547.0308,203.178,1543.0308" style="stroke:#000000;stroke-width:1;"/><line style="stroke:#000000;stroke-width:1;" x1="317.7205" x2="317.7205" y1="1525.0308" y2="1543.0308"/><line style="stroke:#000000;stroke-width:1;" x1="317.7205" x2="233.178" y1="1543.0308" y2="1543.0308"/><polygon fill="#000000" points="243.178,1539.0308,233.178,1543.0308,243.178,1547.0308,239.178,1543.0308" style="stroke:#000000;stroke-width:1;"/><line style="stroke:#000000;stroke-width:1;" x1="221.178" x2="221.178" y1="1555.0308" y2="1583.312"/><polygon fill="#000000" points="217.178,1573.312,221.178,1583.312,225.178,1573.312,221.178,1577.312" style="stroke:#000000;stroke-width:1;"/><line style="stroke:#000000;stroke-width:1;" x1="221.178" x2="221.178" y1="1398.7651" y2="1457.062"/><polygon fill="#000000" points="217.178,1447.062,221.178,1457.062,225.178,1447.062,221.178,1451.062" style="stroke:#000000;stroke-width:1;"/><line style="stroke:#000000;stroke-width:1;" x1="221.178" x2="221.178" y1="1617.2808" y2="1667.562"/><polygon fill="#000000" points="217.178,1657.562,221.178,1667.562,225.178,1657.562,221.178,1661.562" style="stroke:#000000;stroke-width:1;"/><line style="stroke:#000000;stroke-width:1;" x1="221.178" x2="221.178" y1="1701.5308" y2="1721.5308"/><polygon fill="#000000" points="217.178,1711.5308,221.178,1721.5308,225.178,1711.5308,221.178,1715.5308" style="stroke:#000000;stroke-width:1;"/><g class="legend" data-source-line="83"><rect fill="none" height="58.8906" rx="7.5" ry="7.5" style="stroke:#000000;stroke-width:1;" width="519.0244" x="64.4846" y="1747.5308"/><text fill="#000000" font-family="Verdana" font-size="14" font-weight="bold" lengthAdjust="spacing" textLength="285.5918" x="69.4846" y="1765.5259">search_mail() (mailmodel.php:1713)</text><text fill="#000000" font-family="Verdana" font-size="14" lengthAdjust="spacing" textLength="218.9824" x="359.5266" y="1765.5259">adalah fungsi search TERPISAH</text><text fill="#000000" font-family="Verdana" font-size="14" lengthAdjust="spacing" textLength="309.4834" x="69.4846" y="1781.8228">yang tidak dipanggil oleh controller `find()`.</text><text fill="#000000" font-family="Verdana" font-size="14" lengthAdjust="spacing" textLength="292.8174" x="69.4846" y="1798.1196">Fungsi itu digunakan oleh archive search.</text></g><?plantuml-src dLNDRkCs4BxhAQOkMaXfui3POekr4HHs8YF6UfEjvQ8eOC0xbcYP3KbfAR9ROL6WfruB53trrCVey-mBz1Kw5EKazgOEq8ijSZxEVFF3Zv-O3PCCIe5S1OORmM3DLHP6SDfyB2LoGQiFl_m1hvbAKNDKa5YDPg4ohbbgJXsaMsxA_jcBB-4BS4jPPCplzSvwBqvwPy-V1q5bK9iWw4zKQGrav0hIGXbT2C5qVw6QmDmPATwllp-87wBMM4VUDY0N8yj51jzOfcjQbkIN6ruew8omOdw_0vzEURun8s4Pl0y0-aayZI_c89SyEwPVLRZV30qxNYYvJ3MZpsovgfSA9NEsogv-e0GNQZoxUTNa1PB2aQllhk9Px106ZQtW77eG9l7rFDenTrqeCheFNHI6LWCogy8mq8uRBG2kKDK81cN9nIqLro6RO8qrD1iYbe4b01x3oZOGLeewwZQ0YU8WcSJAS6Ug6EfqGuZA2k_Vy0nl8REb8821acdmFjrvfhA6J_3pJXbVilfTeJCOSs6O_gYKV0tXRGiXEw_uGbqEhrjsdSywy7L4GPY2i6PLrD1eYpATl8nXUpRZrFQJfXSGga8M6YetMf7VRUiF8N7c6nJjjXiQfcYRukxWcyA6AL9JK6t1ksrrlbJEDPUHQmKJD2uKEVAbuEkzEiphai7dS44kyaBNX-eXbv8YBuqxuMlodpMG7aM3SN_cSJQxlddsjETqI_NEkn-wfp9DIfPo530Mc1zAS-tiv-VGqRZg7E11PiTtai3rjzFfe37k3Jvu7O4QLGuh9goaWJWHNDtIWC1iE6fGTnDwe3vtfDorMReBm7zaXzX9_7_aK5UyxBQ0IvvRXMxY2y4si2wqX0RGsgqozXReLdDt7zTCCxKTsExJgUsrfz261Z7-YQNMi4SxazhA518gGZwI-R0aoMYCNdbp_V5S4EncTXdFOFJzWvlZ51A6oSNWOTNxBHDuwxIML0fLYL1YpXKwnj4ZGlVXpx_--Vitc3TwX1cI5hoQp4zlnkCadlkA95wzE6cQPiPgfsVI8comeZScy5M7fDISkZ8YeUmxuLpXXhhGMEyPGCRMI1guhtBzMUlOfYchAdgmA46aFrCO5AJJxmRkgIhA810iToTz1aT7NbgtBsAuzyvzrNiM7Hsvl0JIC5YLksRxVERnxFKa6Lu5pJIrWinBMkJqfZJJS_yImXl_0h_f1cFlXHjBy9rXQsUy3T0DYATd6_mB?></g></svg>