<?plantuml 1.2026.1?><svg xmlns="http://www.w3.org/2000/svg" xmlns:xlink="http://www.w3.org/1999/xlink" contentStyleType="text/css" data-diagram-type="ACTIVITY" height="1125px" preserveAspectRatio="none" style="width:1252px;height:1125px;background:#FFFFFF;" version="1.1" viewBox="0 0 1252 1125" width="1252px" zoomAndPan="magnify"><title>generate_code() &#8212; Auto Numbering Surat
mailmodel.php:1564-1615</title><defs/><g><g class="title" data-source-line="2"><text fill="#000000" font-family="Verdana" font-size="22" font-weight="bold" lengthAdjust="spacing" textLength="518.4609" x="365.5531" y="35.4209">generate_code() &#8212; Auto Numbering Surat</text><text fill="#000000" font-family="Verdana" font-size="22" font-weight="bold" lengthAdjust="spacing" textLength="325.0049" x="462.2811" y="61.0303">mailmodel.php:1564-1615</text></g><ellipse cx="623.6262" cy="87.2188" fill="#FFFFFF" rx="10" ry="10" style="stroke:#000000;stroke-width:1;"/><path d="M742.0764,165.6211 L742.0764,181.7539 L722.0764,185.7539 L742.0764,189.7539 L742.0764,205.8867 A0,0 0 0 0 742.0764,205.8867 L977.0242,205.8867 A0,0 0 0 0 977.0242,205.8867 L977.0242,175.6211 L967.0242,165.6211 L742.0764,165.6211 A0,0 0 0 0 742.0764,165.6211" fill="#FFFFFF" style="stroke:#000000;stroke-width:1;"/><path d="M967.0242,165.6211 L967.0242,175.6211 L977.0242,175.6211 L967.0242,165.6211" fill="#FFFFFF" style="stroke:#000000;stroke-width:1;"/><text fill="#000000" font-family="Verdana" font-size="13" lengthAdjust="spacing" textLength="213.9478" x="748.0764" y="182.688">Jika user mengisi nomor manual,</text><text fill="#000000" font-family="Verdana" font-size="13" lengthAdjust="spacing" textLength="123.1382" x="748.0764" y="197.8208">skip auto-generate</text><rect fill="#FFFFFF" height="33.9688" rx="12.5" ry="12.5" style="stroke:#000000;stroke-width:1;" width="196.9004" x="525.176" y="168.7695"/><text fill="#000000" font-family="Verdana" font-size="12" lengthAdjust="spacing" textLength="176.9004" x="535.176" y="189.9082">Return m_no yang sudah ada</text><ellipse cx="623.6262" cy="242.2539" fill="none" rx="11" ry="11" style="stroke:#000000;stroke-width:1;"/><ellipse cx="623.6262" cy="242.2539" fill="#FFFFFF" rx="6" ry="6" style="stroke:#000000;stroke-width:1;"/><polygon fill="#FFFFFF" points="571.8301,117.2188,675.4224,117.2188,687.4224,129.2188,675.4224,141.2188,571.8301,141.2188,559.8301,129.2188,571.8301,117.2188" style="stroke:#000000;stroke-width:1;"/><text fill="#000000" font-family="Verdana" font-size="11" lengthAdjust="spacing" textLength="19.0083" x="627.6262" y="151.4292">yes</text><text fill="#000000" font-family="Verdana" font-size="11" lengthAdjust="spacing" textLength="103.5923" x="571.8301" y="133.0269">m_no sudah terisi?</text><text fill="#000000" font-family="Verdana" font-size="11" lengthAdjust="spacing" textLength="13.7017" x="687.4224" y="126.6245">no</text><rect fill="#ADD8E6" height="272.9453" style="stroke:#000000;stroke-width:1;" width="1240.5671" x="6" y="285.2539"/><path d="M221.8027,285.2539 L221.8027,294.5508 L211.8027,304.5508 L6,304.5508" fill="none" style="stroke:#000000;stroke-width:1;"/><text fill="#000000" font-family="Verdana" font-size="14" lengthAdjust="spacing" textLength="205.8027" x="9" y="299.249">Resolve CLIENT_CODE Config</text><polygon fill="#FFFFFF" points="96.2422,324.5508,178.291,324.5508,190.291,336.5508,178.291,348.5508,96.2422,348.5508,84.2422,336.5508,96.2422,324.5508" style="stroke:#000000;stroke-width:1;"/><text fill="#000000" font-family="Verdana" font-size="11" lengthAdjust="spacing" textLength="24.0195" x="141.2666" y="358.7612">BMS</text><text fill="#000000" font-family="Verdana" font-size="11" lengthAdjust="spacing" textLength="82.0488" x="96.2422" y="340.3589">CLIENT_CODE?</text><rect fill="#FFFFFF" height="33.9688" rx="12.5" ry="12.5" style="stroke:#000000;stroke-width:1;" width="242.5332" x="16" y="381.3555"/><text fill="#000000" font-family="Verdana" font-size="12" lengthAdjust="spacing" textLength="222.5332" x="26" y="402.4941">ref_code = "m_number_format_bms"</text><rect fill="#FFFFFF" height="75.875" rx="12.5" ry="12.5" style="stroke:#000000;stroke-width:1;" width="114.5469" x="79.9932" y="450.3242"/><text fill="#000000" font-family="Verdana" font-size="12" lengthAdjust="spacing" textLength="90.123" x="89.9932" y="471.4629">Type mapping:</text><text fill="#000000" font-family="Verdana" font-size="12" lengthAdjust="spacing" textLength="80.8652" x="89.9932" y="485.4316">1&#8594;I (Internal)</text><text fill="#000000" font-family="Verdana" font-size="12" lengthAdjust="spacing" textLength="77.9883" x="89.9932" y="499.4004">2&#8594;M (Memo)</text><text fill="#000000" font-family="Verdana" font-size="12" lengthAdjust="spacing" textLength="94.5469" x="89.9932" y="513.3691">3&#8594;E (Eksternal)</text><polygon fill="#FFFFFF" points="377.3281,324.5508,402.2715,324.5508,414.2715,336.5508,402.2715,348.5508,377.3281,348.5508,365.3281,336.5508,377.3281,324.5508" style="stroke:#000000;stroke-width:1;"/><text fill="#000000" font-family="Verdana" font-size="11" lengthAdjust="spacing" textLength="24.9434" x="377.3281" y="340.3589">SMD</text><rect fill="#FFFFFF" height="33.9688" rx="12.5" ry="12.5" style="stroke:#000000;stroke-width:1;" width="242.5332" x="268.5332" y="368.5508"/><text fill="#000000" font-family="Verdana" font-size="12" lengthAdjust="spacing" textLength="222.5332" x="278.5332" y="389.6895">ref_code = "m_number_format_smd"</text><path d="M467.0732,447.7578 L467.0732,471.457 L447.0732,475.457 L467.0732,479.457 L467.0732,503.1563 A0,0 0 0 0 467.0732,503.1563 L730.1665,503.1563 A0,0 0 0 0 730.1665,503.1563 L730.1665,457.7578 L720.1665,447.7578 L467.0732,447.7578 A0,0 0 0 0 467.0732,447.7578" fill="#FFFFFF" style="stroke:#000000;stroke-width:1;"/><path d="M720.1665,447.7578 L720.1665,457.7578 L730.1665,457.7578 L720.1665,447.7578" fill="#FFFFFF" style="stroke:#000000;stroke-width:1;"/><text fill="#000000" font-family="Verdana" font-size="13" lengthAdjust="spacing" textLength="238.4053" x="473.0732" y="464.8247">&#9888;&#65039; Bug: code uses "if" bukan "else if"</text><text fill="#000000" font-family="Verdana" font-size="13" lengthAdjust="spacing" textLength="242.0933" x="473.0732" y="479.9575">sehingga SMD selalu di-override oleh</text><text fill="#000000" font-family="Verdana" font-size="13" lengthAdjust="spacing" textLength="241.8774" x="473.0732" y="495.0903">blok BPN/default. Perlu fix di migrasi.</text><rect fill="#FFFFFF" height="75.875" rx="12.5" ry="12.5" style="stroke:#000000;stroke-width:1;" width="114.5469" x="332.5264" y="437.5195"/><text fill="#000000" font-family="Verdana" font-size="12" lengthAdjust="spacing" textLength="90.123" x="342.5264" y="458.6582">Type mapping:</text><text fill="#000000" font-family="Verdana" font-size="12" lengthAdjust="spacing" textLength="80.8652" x="342.5264" y="472.627">1&#8594;I (Internal)</text><text fill="#000000" font-family="Verdana" font-size="12" lengthAdjust="spacing" textLength="77.9883" x="342.5264" y="486.5957">2&#8594;M (Memo)</text><text fill="#000000" font-family="Verdana" font-size="12" lengthAdjust="spacing" textLength="94.5469" x="342.5264" y="500.5645">3&#8594;E (Eksternal)</text><polygon fill="#FFFFFF" points="855.938,324.5508,879.938,324.5508,891.938,336.5508,879.938,348.5508,855.938,348.5508,843.938,336.5508,855.938,324.5508" style="stroke:#000000;stroke-width:1;"/><text fill="#000000" font-family="Verdana" font-size="11" lengthAdjust="spacing" textLength="22.4082" x="856.7339" y="340.3589">BPN</text><text fill="#000000" font-family="Verdana" font-size="11" lengthAdjust="spacing" textLength="38.7041" x="891.938" y="333.9565">default</text><rect fill="#FFFFFF" height="33.9688" rx="12.5" ry="12.5" style="stroke:#000000;stroke-width:1;" width="235.543" x="750.1665" y="368.5508"/><text fill="#000000" font-family="Verdana" font-size="12" lengthAdjust="spacing" textLength="215.543" x="760.1665" y="389.6895">ref_code = "m_number_format_blp"</text><rect fill="#FFFFFF" height="75.875" rx="12.5" ry="12.5" style="stroke:#000000;stroke-width:1;" width="110.123" x="812.8765" y="437.5195"/><text fill="#000000" font-family="Verdana" font-size="12" lengthAdjust="spacing" textLength="90.123" x="822.8765" y="458.6582">Type mapping:</text><text fill="#000000" font-family="Verdana" font-size="12" lengthAdjust="spacing" textLength="80.8652" x="822.8765" y="472.627">1&#8594;I (Internal)</text><text fill="#000000" font-family="Verdana" font-size="12" lengthAdjust="spacing" textLength="77.9883" x="822.8765" y="486.5957">2&#8594;M (Memo)</text><text fill="#000000" font-family="Verdana" font-size="12" lengthAdjust="spacing" textLength="77.2148" x="822.8765" y="500.5645">3&#8594;K (Keluar)</text><rect fill="#FFFFFF" height="33.9688" rx="12.5" ry="12.5" style="stroke:#000000;stroke-width:1;" width="235.543" x="1001.0242" y="391.9219"/><text fill="#000000" font-family="Verdana" font-size="12" lengthAdjust="spacing" textLength="215.543" x="1011.0242" y="413.0605">ref_code = "m_number_format_blp"</text><rect fill="#FFFFFF" height="47.9375" rx="12.5" ry="12.5" style="stroke:#000000;stroke-width:1;" width="110.123" x="1063.7341" y="460.8906"/><text fill="#000000" font-family="Verdana" font-size="12" lengthAdjust="spacing" textLength="90.123" x="1073.7341" y="482.0293">Type mapping:</text><text fill="#000000" font-family="Verdana" font-size="12" lengthAdjust="spacing" textLength="90.0879" x="1073.7341" y="495.998">1&#8594;I, 2&#8594;M, 3&#8594;K</text><rect fill="#ADD8E6" height="220.0469" style="stroke:#000000;stroke-width:1;" width="279.209" x="484.0217" y="568.1992"/><path d="M653.5247,568.1992 L653.5247,577.4961 L643.5247,587.4961 L484.0217,587.4961" fill="none" style="stroke:#000000;stroke-width:1;"/><text fill="#000000" font-family="Verdana" font-size="14" lengthAdjust="spacing" textLength="159.5029" x="487.0217" y="582.1943">Load &amp; Build Template</text><rect fill="#FFFFFF" height="47.9375" rx="12.5" ry="12.5" style="stroke:#000000;stroke-width:1;" width="255.8691" x="495.6917" y="604.4961"/><text fill="#000000" font-family="Verdana" font-size="12" lengthAdjust="spacing" textLength="134.9824" x="505.6917" y="625.6348">Load no_template dari</text><text fill="#000000" font-family="Verdana" font-size="12" font-weight="bold" lengthAdjust="spacing" textLength="93.375" x="505.6917" y="639.6035">sys_reference</text><text fill="#000000" font-family="Verdana" font-size="12" lengthAdjust="spacing" textLength="138.6797" x="602.8811" y="639.6035">WHERE code=ref_code</text><rect fill="#FFFFFF" height="103.8125" rx="12.5" ry="12.5" style="stroke:#000000;stroke-width:1;" width="259.209" x="494.0217" y="672.4336"/><text fill="#000000" font-family="Verdana" font-size="12" lengthAdjust="spacing" textLength="132.6152" x="504.0217" y="693.5723">Replace placeholders:</text><text fill="#000000" font-family="Verdana" font-size="12" lengthAdjust="spacing" textLength="218.4375" x="504.0217" y="707.541">- #org_code# &#8594; userdata.mail_code</text><text fill="#000000" font-family="Verdana" font-size="12" lengthAdjust="spacing" textLength="143.7891" x="504.0217" y="721.5098">- #type# &#8594; mt (I/M/E/K)</text><text fill="#000000" font-family="Verdana" font-size="12" lengthAdjust="spacing" textLength="239.209" x="504.0217" y="735.4785">- #MR# &#8594; Bulan Romawi (get_month_r)</text><text fill="#000000" font-family="Verdana" font-size="12" lengthAdjust="spacing" textLength="172.0195" x="504.0217" y="749.4473">- #YYYY# &#8594; Tahun sekarang</text><text fill="#000000" font-family="Verdana" font-size="12" lengthAdjust="spacing" textLength="228.0527" x="504.0217" y="763.416">- #m_cat# &#8594; mcat_code dari kategori</text><rect fill="#ADD8E6" height="221.8711" style="stroke:#000000;stroke-width:1;" width="486.8442" x="482.9055" y="798.2461"/><path d="M631.7981,798.2461 L631.7981,807.543 L621.7981,817.543 L482.9055,817.543" fill="none" style="stroke:#000000;stroke-width:1;"/><text fill="#000000" font-family="Verdana" font-size="14" lengthAdjust="spacing" textLength="138.8926" x="485.9055" y="812.2412">Generate Sequence</text><rect fill="#FFFFFF" height="47.9375" rx="12.5" ry="12.5" style="stroke:#000000;stroke-width:1;" width="229.8066" x="508.7229" y="834.543"/><text fill="#000000" font-family="Verdana" font-size="12" lengthAdjust="spacing" textLength="209.8066" x="518.7229" y="855.6816">prefix_sequence = mail_code + "-"</text><text fill="#000000" font-family="Verdana" font-size="12" lengthAdjust="spacing" textLength="199.5879" x="518.7229" y="869.6504">+ m_category_code + "-" + YYYY</text><path d="M753.9124,898.75 L753.9124,922.4492 L733.9124,926.4492 L753.9124,930.4492 L753.9124,954.1484 A0,0 0 0 0 753.9124,954.1484 L959.7498,954.1484 A0,0 0 0 0 959.7498,954.1484 L959.7498,908.75 L949.7498,898.75 L753.9124,898.75 A0,0 0 0 0 753.9124,898.75" fill="#FFFFFF" style="stroke:#000000;stroke-width:1;"/><path d="M949.7498,898.75 L949.7498,908.75 L959.7498,908.75 L949.7498,898.75" fill="#FFFFFF" style="stroke:#000000;stroke-width:1;"/><text fill="#000000" font-family="Verdana" font-size="13" lengthAdjust="spacing" textLength="172.6816" x="759.9124" y="915.8169">Auto-increment per prefix.</text><text fill="#000000" font-family="Verdana" font-size="13" lengthAdjust="spacing" textLength="184.8374" x="759.9124" y="930.9497">Padding 3 digit: 001, 002, ...</text><text fill="#000000" font-family="Verdana" font-size="13" lengthAdjust="spacing" textLength="174.5859" x="759.9124" y="946.0825">Tabel: sys_trans_sequence</text><rect fill="#FFFFFF" height="47.9375" rx="12.5" ry="12.5" style="stroke:#000000;stroke-width:1;" width="220.5723" x="513.3401" y="902.4805"/><text fill="#000000" font-family="Verdana" font-size="12" lengthAdjust="spacing" textLength="200.5723" x="523.3401" y="923.6191">sequence = get_trans_sequence(</text><text fill="#000000" font-family="Verdana" font-size="12" lengthAdjust="spacing" textLength="191.8066" x="530.969" y="937.5879">TASK_MAIL, prefix_sequence, 3)</text><rect fill="#FFFFFF" height="33.9688" rx="12.5" ry="12.5" style="stroke:#000000;stroke-width:1;" width="261.4414" x="492.9055" y="974.1484"/><text fill="#000000" font-family="Verdana" font-size="12" lengthAdjust="spacing" textLength="241.4414" x="502.9055" y="995.2871">Replace #seq# &#8594; sequence di template</text><path d="M722.6292,1036.9688 L722.6292,1053.1016 L702.6292,1057.1016 L722.6292,1061.1016 L722.6292,1077.2344 A0,0 0 0 0 722.6292,1077.2344 L943.0154,1077.2344 A0,0 0 0 0 943.0154,1077.2344 L943.0154,1046.9688 L933.0154,1036.9688 L722.6292,1036.9688 A0,0 0 0 0 722.6292,1036.9688" fill="#FFFFFF" style="stroke:#000000;stroke-width:1;"/><path d="M933.0154,1036.9688 L933.0154,1046.9688 L943.0154,1046.9688 L933.0154,1036.9688" fill="#FFFFFF" style="stroke:#000000;stroke-width:1;"/><text fill="#000000" font-family="Verdana" font-size="13" lengthAdjust="spacing" textLength="97.9507" x="728.6292" y="1054.0356">Contoh output:</text><text fill="#000000" font-family="Verdana" font-size="13" lengthAdjust="spacing" textLength="199.3862" x="728.6292" y="1069.1685">001/1421002/01-I/III/2026-000</text><rect fill="#FFFFFF" height="33.9688" rx="12.5" ry="12.5" style="stroke:#000000;stroke-width:1;" width="158.0059" x="544.6233" y="1040.1172"/><text fill="#000000" font-family="Verdana" font-size="12" lengthAdjust="spacing" textLength="138.0059" x="554.6233" y="1061.2559">Return kode surat final</text><ellipse cx="623.6262" cy="1108.2344" fill="none" rx="11" ry="11" style="stroke:#000000;stroke-width:1;"/><ellipse cx="623.6262" cy="1108.2344" fill="#FFFFFF" rx="6" ry="6" style="stroke:#000000;stroke-width:1;"/><line style="stroke:#000000;stroke-width:1;" x1="623.6262" x2="623.6262" y1="202.7383" y2="231.2539"/><polygon fill="#000000" points="619.6262,221.2539,623.6262,231.2539,627.6262,221.2539,623.6262,225.2539" style="stroke:#000000;stroke-width:1;"/><line style="stroke:#000000;stroke-width:1;" x1="623.6262" x2="623.6262" y1="141.2188" y2="168.7695"/><polygon fill="#000000" points="619.6262,158.7695,623.6262,168.7695,627.6262,158.7695,623.6262,162.7695" style="stroke:#000000;stroke-width:1;"/><line style="stroke:#000000;stroke-width:1;" x1="687.4224" x2="987.0242" y1="129.2188" y2="129.2188"/><polygon fill="#000000" points="983.0242,201.2539,987.0242,211.2539,991.0242,201.2539,987.0242,205.2539" style="stroke:#000000;stroke-width:1;"/><line style="stroke:#000000;stroke-width:1;" x1="987.0242" x2="987.0242" y1="129.2188" y2="275.2539"/><line style="stroke:#000000;stroke-width:1;" x1="987.0242" x2="623.6262" y1="275.2539" y2="275.2539"/><line style="stroke:#000000;stroke-width:1;" x1="623.6262" x2="623.6262" y1="275.2539" y2="309.5508"/><line style="stroke:#000000;stroke-width:1;" x1="623.6262" x2="623.6262" y1="97.2188" y2="117.2188"/><polygon fill="#000000" points="619.6262,107.2188,623.6262,117.2188,627.6262,107.2188,623.6262,111.2188" style="stroke:#000000;stroke-width:1;"/><line style="stroke:#000000;stroke-width:1;" x1="137.2666" x2="137.2666" y1="415.3242" y2="450.3242"/><polygon fill="#000000" points="133.2666,440.3242,137.2666,450.3242,141.2666,440.3242,137.2666,444.3242" style="stroke:#000000;stroke-width:1;"/><line style="stroke:#000000;stroke-width:1;" x1="389.7998" x2="389.7998" y1="402.5195" y2="437.5195"/><polygon fill="#000000" points="385.7998,427.5195,389.7998,437.5195,393.7998,427.5195,389.7998,431.5195" style="stroke:#000000;stroke-width:1;"/><line style="stroke:#000000;stroke-width:1;" x1="867.938" x2="867.938" y1="402.5195" y2="437.5195"/><polygon fill="#000000" points="863.938,427.5195,867.938,437.5195,871.938,427.5195,867.938,431.5195" style="stroke:#000000;stroke-width:1;"/><line style="stroke:#000000;stroke-width:1;" x1="1118.7957" x2="1118.7957" y1="425.8906" y2="460.8906"/><polygon fill="#000000" points="1114.7957,450.8906,1118.7957,460.8906,1122.7957,450.8906,1118.7957,454.8906" style="stroke:#000000;stroke-width:1;"/><line style="stroke:#000000;stroke-width:1;" x1="137.2666" x2="137.2666" y1="348.5508" y2="381.3555"/><polygon fill="#000000" points="133.2666,371.3555,137.2666,381.3555,141.2666,371.3555,137.2666,375.3555" style="stroke:#000000;stroke-width:1;"/><line style="stroke:#000000;stroke-width:1;" x1="137.2666" x2="137.2666" y1="526.1992" y2="546.1992"/><polygon fill="#000000" points="133.2666,536.1992,137.2666,546.1992,141.2666,536.1992,137.2666,540.1992" style="stroke:#000000;stroke-width:1;"/><line style="stroke:#000000;stroke-width:1;" x1="389.7998" x2="389.7998" y1="348.5508" y2="368.5508"/><polygon fill="#000000" points="385.7998,358.5508,389.7998,368.5508,393.7998,358.5508,389.7998,362.5508" style="stroke:#000000;stroke-width:1;"/><line style="stroke:#000000;stroke-width:1;" x1="389.7998" x2="389.7998" y1="513.3945" y2="546.1992"/><polygon fill="#000000" points="385.7998,536.1992,389.7998,546.1992,393.7998,536.1992,389.7998,540.1992" style="stroke:#000000;stroke-width:1;"/><line style="stroke:#000000;stroke-width:1;" x1="867.938" x2="867.938" y1="348.5508" y2="368.5508"/><polygon fill="#000000" points="863.938,358.5508,867.938,368.5508,871.938,358.5508,867.938,362.5508" style="stroke:#000000;stroke-width:1;"/><line style="stroke:#000000;stroke-width:1;" x1="867.938" x2="867.938" y1="513.3945" y2="546.1992"/><polygon fill="#000000" points="863.938,536.1992,867.938,546.1992,871.938,536.1992,867.938,540.1992" style="stroke:#000000;stroke-width:1;"/><line style="stroke:#000000;stroke-width:1;" x1="190.291" x2="365.3281" y1="336.5508" y2="336.5508"/><polygon fill="#000000" points="355.3281,332.5508,365.3281,336.5508,355.3281,340.5508,359.3281,336.5508" style="stroke:#000000;stroke-width:1;"/><line style="stroke:#000000;stroke-width:1;" x1="414.2715" x2="843.938" y1="336.5508" y2="336.5508"/><polygon fill="#000000" points="833.938,332.5508,843.938,336.5508,833.938,340.5508,837.938,336.5508" style="stroke:#000000;stroke-width:1;"/><line style="stroke:#000000;stroke-width:1;" x1="623.6262" x2="137.2666" y1="309.5508" y2="309.5508"/><line style="stroke:#000000;stroke-width:1;" x1="137.2666" x2="137.2666" y1="309.5508" y2="324.5508"/><polygon fill="#000000" points="133.2666,314.5508,137.2666,324.5508,141.2666,314.5508,137.2666,318.5508" style="stroke:#000000;stroke-width:1;"/><line style="stroke:#000000;stroke-width:1;" x1="891.938" x2="1118.7957" y1="336.5508" y2="336.5508"/><line style="stroke:#000000;stroke-width:1;" x1="1118.7957" x2="1118.7957" y1="336.5508" y2="391.9219"/><polygon fill="#000000" points="1114.7957,381.9219,1118.7957,391.9219,1122.7957,381.9219,1118.7957,385.9219" style="stroke:#000000;stroke-width:1;"/><line style="stroke:#000000;stroke-width:1;" x1="1118.7957" x2="1118.7957" y1="508.8281" y2="546.1992"/><polygon fill="#000000" points="1114.7957,536.1992,1118.7957,546.1992,1122.7957,536.1992,1118.7957,540.1992" style="stroke:#000000;stroke-width:1;"/><line style="stroke:#000000;stroke-width:1;" x1="137.2666" x2="1118.7957" y1="546.1992" y2="546.1992"/><line style="stroke:#000000;stroke-width:1;" x1="623.6262" x2="623.6262" y1="652.4336" y2="672.4336"/><polygon fill="#000000" points="619.6262,662.4336,623.6262,672.4336,627.6262,662.4336,623.6262,666.4336" style="stroke:#000000;stroke-width:1;"/><line style="stroke:#000000;stroke-width:1;" x1="623.6262" x2="623.6262" y1="546.1992" y2="604.4961"/><polygon fill="#000000" points="619.6262,594.4961,623.6262,604.4961,627.6262,594.4961,623.6262,598.4961" style="stroke:#000000;stroke-width:1;"/><line style="stroke:#000000;stroke-width:1;" x1="623.6262" x2="623.6262" y1="882.4805" y2="902.4805"/><polygon fill="#000000" points="619.6262,892.4805,623.6262,902.4805,627.6262,892.4805,623.6262,896.4805" style="stroke:#000000;stroke-width:1;"/><line style="stroke:#000000;stroke-width:1;" x1="623.6262" x2="623.6262" y1="950.418" y2="974.1484"/><polygon fill="#000000" points="619.6262,964.1484,623.6262,974.1484,627.6262,964.1484,623.6262,968.1484" style="stroke:#000000;stroke-width:1;"/><line style="stroke:#000000;stroke-width:1;" x1="623.6262" x2="623.6262" y1="776.2461" y2="834.543"/><polygon fill="#000000" points="619.6262,824.543,623.6262,834.543,627.6262,824.543,623.6262,828.543" style="stroke:#000000;stroke-width:1;"/><line style="stroke:#000000;stroke-width:1;" x1="623.6262" x2="623.6262" y1="1008.1172" y2="1040.1172"/><polygon fill="#000000" points="619.6262,1030.1172,623.6262,1040.1172,627.6262,1030.1172,623.6262,1034.1172" style="stroke:#000000;stroke-width:1;"/><line style="stroke:#000000;stroke-width:1;" x1="623.6262" x2="623.6262" y1="1074.0859" y2="1097.2344"/><polygon fill="#000000" points="619.6262,1087.2344,623.6262,1097.2344,627.6262,1087.2344,623.6262,1091.2344" style="stroke:#000000;stroke-width:1;"/><?plantuml-src jLNDYXj74BxFKrIq44Ph_TlUWuG9gxM8bLrj5aaG0e6XfIdDDEhfdlIFOs4CEULgC3dbbCVmy-mB-1LItIqfMcyWEJWw3Ehkhwg_-kgdlx8bLWYrO5mcbbk1KA14pIncQvLZseJxNt-7IsSLtBfgXPhB0XQE03_9Yd5H4KXqwh8UzfzVF6ltB_hFayHOfcsIy0saLIOL69Up4YmP6_vD4-XE2UaEJJC16CxHEYqX07UCl4Sqozc8ZgMo29eNfQK5m7Tyoy0Pr52XBCWT0If5AoOT4ws0CLjU0oF6xKCej8qo3xxehx6gJb0OX5IgPa8dV9CaDL7cbYi9ZJaQ9LuZNDrC9xVBxEhxbnEuKdB3YmQStNWkO-4Gtf8l7-89x1ZSUBPe1Z93ZPkW9Bo01iKODCmsIbVCPglAD4OHjjpLI57KDUax35lz-zy-J26TIj9DCX7T3MXp1kaCAnKtdjB61DB9rknXtfyFpZDRp5v6GlzEnLJv_qBbKGO1xl_uyzF7zp1snH027SgdWGRVD63bjemI4993wxs1mPAe50me7be89XpalArUezQSx9N0SWzT2RM5yTrjDySDSy9su0urmJVy3Pb0nGlD3Ey4z4b970GZo_ygs4hKNqAmQqYlKJYcZuc3TC-z-IL8jEArhNZPA7O2rVkx1nL_erWENrDAkCXXYHND0ukFYdqOO59bTe-0d6bE1-VdPcSo8eeQvHhFp-67LvFv96JtnO7_A8dTJfRhC77MM2gHepQURXlEb2u2y0o8QcZod5dMyLCcx4UKfJWZehAaS7VMdNIlc_5iDeydOoUeZEQgOhzmI0kqMQMaBJEzn_r8luXSij99ggajqpHwuccLhPdTNq7_elW-KjXIp8NIVFIPVD_kvmmiy6Vd5NWiNKqoy3UPsGCecSUuu0aqshxMdq2usb-nEpcXhoSSzJjnuEEoHDiSlQOXxylBnNKskvpUjE2pMwaAclymLFrqRtEvrlGKI0irJTTe6FlaZkMvd_fFgOCAReVGw_LRz1cqeDE9a2LReHY2huA7Z4udxsdwpmWG9Ju6HErvgAkWx-5Xs7eXZ7zng8kfcKR90_eqcAqgGJbRE-ihYTXr-yy6VIBOxVNRq-vqEkqEUeEBTg_NI_vc4vw1lm00?></g></svg>