<?plantuml 1.2026.1?><svg xmlns="http://www.w3.org/2000/svg" xmlns:xlink="http://www.w3.org/1999/xlink" contentStyleType="text/css" data-diagram-type="ACTIVITY" height="2478px" preserveAspectRatio="none" style="width:1079px;height:2478px;background:#FFFFFF;" version="1.1" viewBox="0 0 1079 2478" width="1079px" zoomAndPan="magnify"><title>readFolder() &#8212; Baca Surat per Folder
direct/mail.php:49-69 + mailmodel.php:83-201</title><defs/><g><g class="title" data-source-line="2"><text fill="#000000" font-family="Verdana" font-size="22" font-weight="bold" lengthAdjust="spacing" textLength="463.9121" x="306.4395" y="35.4209">readFolder() &#8212; Baca Surat per Folder</text><text fill="#000000" font-family="Verdana" font-size="22" font-weight="bold" lengthAdjust="spacing" textLength="581.0127" x="247.8892" y="61.0303">direct/mail.php:49-69 + mailmodel.php:83-201</text></g><ellipse cx="568.6382" cy="87.2188" fill="#FFFFFF" rx="10" ry="10" style="stroke:#000000;stroke-width:1;"/><rect fill="#FFFFFF" height="33.9688" rx="12.5" ry="12.5" style="stroke:#000000;stroke-width:1;" width="358.2617" x="389.5073" y="117.2188"/><text fill="#000000" font-family="Verdana" font-size="12" lengthAdjust="spacing" textLength="338.2617" x="399.5073" y="138.3574">Controller: Parameter Extraction (direct/mail.php:49-69)</text><rect fill="#FFFFFF" height="117.7813" rx="12.5" ry="12.5" style="stroke:#000000;stroke-width:1;" width="202.1738" x="467.5513" y="171.1875"/><text fill="#000000" font-family="Verdana" font-size="12" lengthAdjust="spacing" textLength="182.1738" x="477.5513" y="192.3262">Extract parameters dari input:</text><text fill="#000000" font-family="Verdana" font-size="12" lengthAdjust="spacing" textLength="147.1641" x="477.5513" y="206.2949">- start, limit (pagination)</text><text fill="#000000" font-family="Verdana" font-size="12" lengthAdjust="spacing" textLength="137.959" x="477.5513" y="220.2637">- sort, filter (ExtJS grid)</text><text fill="#000000" font-family="Verdana" font-size="12" lengthAdjust="spacing" textLength="59.9297" x="477.5513" y="234.2324">- folder_id</text><text fill="#000000" font-family="Verdana" font-size="12" lengthAdjust="spacing" textLength="133.1367" x="477.5513" y="248.2012">- threaded (true/false)</text><text fill="#000000" font-family="Verdana" font-size="12" lengthAdjust="spacing" textLength="162.4688" x="477.5513" y="262.1699">- sdate, edate (date range)</text><text fill="#000000" font-family="Verdana" font-size="12" lengthAdjust="spacing" textLength="112.5879" x="477.5513" y="276.1387">- keyword (search)</text><rect fill="#FFFFFF" height="33.9688" rx="12.5" ry="12.5" style="stroke:#000000;stroke-width:1;" width="210.0781" x="463.5991" y="308.9688"/><text fill="#000000" font-family="Verdana" font-size="12" lengthAdjust="spacing" textLength="190.0781" x="473.5991" y="330.1074">Call model.read_folder(params)</text><rect fill="#FFFFFF" height="33.9688" rx="12.5" ry="12.5" style="stroke:#000000;stroke-width:1;" width="302.3047" x="417.4858" y="362.9375"/><text fill="#000000" font-family="Verdana" font-size="12" lengthAdjust="spacing" textLength="282.3047" x="427.4858" y="384.0762">Model: Query Building (mailmodel.php:83-201)</text><rect fill="#ADD8E6" height="280.1641" style="stroke:#000000;stroke-width:1;" width="456.6309" x="437.8579" y="406.9063"/><path d="M617.7925,406.9063 L617.7925,416.2031 L607.7925,426.2031 L437.8579,426.2031" fill="none" style="stroke:#000000;stroke-width:1;"/><text fill="#000000" font-family="Verdana" font-size="14" lengthAdjust="spacing" textLength="169.9346" x="440.8579" y="420.9014">Build WHERE Conditions</text><path d="M709.4185,443.0547 L709.4185,459.1875 L689.4185,463.1875 L709.4185,467.1875 L709.4185,483.3203 A0,0 0 0 0 709.4185,483.3203 L884.4888,483.3203 A0,0 0 0 0 884.4888,483.3203 L884.4888,453.0547 L874.4888,443.0547 L709.4185,443.0547 A0,0 0 0 0 709.4185,443.0547" fill="#FFFFFF" style="stroke:#000000;stroke-width:1;"/><path d="M874.4888,443.0547 L874.4888,453.0547 L884.4888,453.0547 L874.4888,443.0547" fill="#FFFFFF" style="stroke:#000000;stroke-width:1;"/><text fill="#000000" font-family="Verdana" font-size="13" lengthAdjust="spacing" textLength="154.0703" x="715.4185" y="460.1216">Helper CI untuk parsing</text><text fill="#000000" font-family="Verdana" font-size="13" lengthAdjust="spacing" textLength="144.7456" x="715.4185" y="475.2544">ExtJS sort/filter format</text><rect fill="#FFFFFF" height="33.9688" rx="12.5" ry="12.5" style="stroke:#000000;stroke-width:1;" width="241.5605" x="447.8579" y="446.2031"/><text fill="#000000" font-family="Verdana" font-size="12" lengthAdjust="spacing" textLength="221.5605" x="457.8579" y="467.3418">build_where_condition(in, field_alias)</text><rect fill="#FFFFFF" height="103.8125" rx="12.5" ry="12.5" style="stroke:#000000;stroke-width:1;" width="173.5391" x="481.8687" y="503.3203"/><text fill="#000000" font-family="Verdana" font-size="12" lengthAdjust="spacing" textLength="62.5781" x="491.8687" y="524.459">Base JOIN:</text><text fill="#000000" font-family="Verdana" font-size="12" lengthAdjust="spacing" textLength="99.1641" x="491.8687" y="538.4277">sys_user_task ut</text><text fill="#000000" font-family="Verdana" font-size="12" lengthAdjust="spacing" textLength="55.084" x="491.8687" y="552.3965">&#8594; mail m</text><text fill="#000000" font-family="Verdana" font-size="12" lengthAdjust="spacing" textLength="153.5391" x="491.8687" y="566.3652">&#8594; mail_category mc (left)</text><text fill="#000000" font-family="Verdana" font-size="12" lengthAdjust="spacing" textLength="125.4199" x="491.8687" y="580.334">&#8594; mail_type mt (left)</text><text fill="#000000" font-family="Verdana" font-size="12" lengthAdjust="spacing" textLength="109.8926" x="491.8687" y="594.3027">&#8594; sys_user u (left)</text><rect fill="#FFFFFF" height="47.9375" rx="12.5" ry="12.5" style="stroke:#000000;stroke-width:1;" width="221.0762" x="458.1001" y="627.1328"/><text fill="#000000" font-family="Verdana" font-size="12" lengthAdjust="spacing" textLength="201.0762" x="468.1001" y="648.2715">WHERE ut.user_id = current_user</text><text fill="#000000" font-family="Verdana" font-size="12" lengthAdjust="spacing" textLength="167.6191" x="468.1001" y="662.2402">AND ut.folder_id = folder_id</text><rect fill="#ADD8E6" height="364.5547" style="stroke:#000000;stroke-width:1;" width="539.6284" x="433.0112" y="697.0703"/><path d="M587.8101,697.0703 L587.8101,706.3672 L577.8101,716.3672 L433.0112,716.3672" fill="none" style="stroke:#000000;stroke-width:1;"/><text fill="#000000" font-family="Verdana" font-size="14" lengthAdjust="spacing" textLength="144.7988" x="436.0112" y="711.0654">Folder-Specific JOINs</text><path d="M704.2651,786.6328 L704.2651,810.332 L684.2651,814.332 L704.2651,818.332 L704.2651,842.0313 A0,0 0 0 0 704.2651,842.0313 L888.5967,842.0313 A0,0 0 0 0 888.5967,842.0313 L888.5967,796.6328 L878.5967,786.6328 L704.2651,786.6328 A0,0 0 0 0 704.2651,786.6328" fill="#FFFFFF" style="stroke:#000000;stroke-width:1;"/><path d="M878.5967,786.6328 L878.5967,796.6328 L888.5967,796.6328 L878.5967,786.6328" fill="#FFFFFF" style="stroke:#000000;stroke-width:1;"/><text fill="#000000" font-family="Verdana" font-size="13" lengthAdjust="spacing" textLength="123.7158" x="710.2651" y="803.6997">Ambil tipe sirkulasi</text><text fill="#000000" font-family="Verdana" font-size="13" lengthAdjust="spacing" textLength="162.9888" x="710.2651" y="818.8325">(tembusan, disposisi, dll)</text><text fill="#000000" font-family="Verdana" font-size="13" lengthAdjust="spacing" textLength="163.3315" x="710.2651" y="833.9653">hanya untuk folder inbox</text><rect fill="#FFFFFF" height="61.9063" rx="12.5" ry="12.5" style="stroke:#000000;stroke-width:1;" width="231.2539" x="453.0112" y="783.3789"/><text fill="#000000" font-family="Verdana" font-size="12" lengthAdjust="spacing" textLength="94.6406" x="463.0112" y="804.5176">JOIN tambahan:</text><text fill="#000000" font-family="Verdana" font-size="12" lengthAdjust="spacing" textLength="211.2539" x="463.0112" y="818.4863">- mail_recipient mr (user_id match)</text><text fill="#000000" font-family="Verdana" font-size="12" lengthAdjust="spacing" textLength="144.7383" x="463.0112" y="832.4551">- sys_reference sirkulasi</text><polygon fill="#FFFFFF" points="498.1077,733.3672,639.1687,733.3672,651.1687,746.1719,639.1687,758.9766,498.1077,758.9766,486.1077,746.1719,498.1077,733.3672" style="stroke:#000000;stroke-width:1;"/><text fill="#000000" font-family="Verdana" font-size="11" lengthAdjust="spacing" textLength="19.0083" x="572.6382" y="769.187">yes</text><text fill="#000000" font-family="Verdana" font-size="11" lengthAdjust="spacing" textLength="141.061" x="498.1077" y="743.5776">folder == INBOX / READ /</text><text fill="#000000" font-family="Verdana" font-size="11" lengthAdjust="spacing" textLength="125.9253" x="498.1077" y="756.3823">DELETED / PERSONAL?</text><text fill="#000000" font-family="Verdana" font-size="11" lengthAdjust="spacing" textLength="13.7017" x="651.1687" y="743.5776">no</text><polygon fill="#FFFFFF" points="568.6382,865.2852,580.6382,877.2852,568.6382,889.2852,556.6382,877.2852,568.6382,865.2852" style="stroke:#000000;stroke-width:1;"/><path d="M679.6792,961.5234 L679.6792,977.6563 L659.6792,981.6563 L679.6792,985.6563 L679.6792,1001.7891 A0,0 0 0 0 679.6792,1001.7891 L940.6396,1001.7891 A0,0 0 0 0 940.6396,1001.7891 L940.6396,971.5234 L930.6396,961.5234 L679.6792,961.5234 A0,0 0 0 0 679.6792,961.5234" fill="#FFFFFF" style="stroke:#000000;stroke-width:1;"/><path d="M930.6396,961.5234 L930.6396,971.5234 L940.6396,971.5234 L930.6396,961.5234" fill="#FFFFFF" style="stroke:#000000;stroke-width:1;"/><text fill="#000000" font-family="Verdana" font-size="13" lengthAdjust="spacing" textLength="181.0669" x="685.6792" y="978.5903">Tampilkan nama folder asal</text><text fill="#000000" font-family="Verdana" font-size="13" lengthAdjust="spacing" textLength="239.9604" x="685.6792" y="993.7231">agar user tahu mau restore ke mana</text><rect fill="#FFFFFF" height="47.9375" rx="12.5" ry="12.5" style="stroke:#000000;stroke-width:1;" width="182.082" x="477.5972" y="957.6875"/><text fill="#000000" font-family="Verdana" font-size="12" lengthAdjust="spacing" textLength="115.5879" x="487.5972" y="978.8262">JOIN mail_folder mf</text><text fill="#000000" font-family="Verdana" font-size="12" lengthAdjust="spacing" textLength="162.082" x="487.5972" y="992.7949">untuk restore_folder_name</text><polygon fill="#FFFFFF" points="511.7207,909.2852,625.5557,909.2852,637.5557,921.2852,625.5557,933.2852,511.7207,933.2852,499.7207,921.2852,511.7207,909.2852" style="stroke:#000000;stroke-width:1;"/><text fill="#000000" font-family="Verdana" font-size="11" lengthAdjust="spacing" textLength="19.0083" x="572.6382" y="943.4956">yes</text><text fill="#000000" font-family="Verdana" font-size="11" lengthAdjust="spacing" textLength="113.835" x="511.7207" y="925.0933">folder == DELETED?</text><text fill="#000000" font-family="Verdana" font-size="11" lengthAdjust="spacing" textLength="13.7017" x="637.5557" y="918.6909">no</text><polygon fill="#FFFFFF" points="568.6382,1025.625,580.6382,1037.625,568.6382,1049.625,556.6382,1037.625,568.6382,1025.625" style="stroke:#000000;stroke-width:1;"/><rect fill="#ADD8E6" height="376.9141" style="stroke:#000000;stroke-width:1;" width="578.5845" x="407.8687" y="1071.625"/><path d="M572.0259,1071.625 L572.0259,1080.9219 L562.0259,1090.9219 L407.8687,1090.9219" fill="none" style="stroke:#000000;stroke-width:1;"/><text fill="#000000" font-family="Verdana" font-size="14" lengthAdjust="spacing" textLength="154.1572" x="410.8687" y="1085.6201">Date &amp; Keyword Filter</text><path d="M729.4077,1160.1602 L729.4077,1176.293 L709.4077,1180.293 L729.4077,1184.293 L729.4077,1200.4258 A0,0 0 0 0 729.4077,1200.4258 L954.4531,1200.4258 A0,0 0 0 0 954.4531,1200.4258 L954.4531,1170.1602 L944.4531,1160.1602 L729.4077,1160.1602 A0,0 0 0 0 729.4077,1160.1602" fill="#FFFFFF" style="stroke:#000000;stroke-width:1;"/><path d="M944.4531,1160.1602 L944.4531,1170.1602 L954.4531,1170.1602 L944.4531,1160.1602" fill="#FFFFFF" style="stroke:#000000;stroke-width:1;"/><text fill="#000000" font-family="Verdana" font-size="13" lengthAdjust="spacing" textLength="172.7388" x="735.4077" y="1177.2271">Surat unread selalu tampil</text><text fill="#000000" font-family="Verdana" font-size="13" lengthAdjust="spacing" textLength="204.0454" x="735.4077" y="1192.3599">meskipun di luar range tanggal</text><rect fill="#FFFFFF" height="47.9375" rx="12.5" ry="12.5" style="stroke:#000000;stroke-width:1;" width="281.5391" x="427.8687" y="1156.3242"/><text fill="#000000" font-family="Verdana" font-size="12" lengthAdjust="spacing" textLength="261.5391" x="437.8687" y="1177.4629">WHERE m_date BETWEEN sdate AND edate</text><text fill="#000000" font-family="Verdana" font-size="12" lengthAdjust="spacing" textLength="160.5703" x="437.8687" y="1191.4316">OR read_status = UNREAD</text><polygon fill="#FFFFFF" points="511.4092,1107.9219,625.8672,1107.9219,637.8672,1119.9219,625.8672,1131.9219,511.4092,1131.9219,499.4092,1119.9219,511.4092,1107.9219" style="stroke:#000000;stroke-width:1;"/><text fill="#000000" font-family="Verdana" font-size="11" lengthAdjust="spacing" textLength="19.0083" x="572.6382" y="1142.1323">yes</text><text fill="#000000" font-family="Verdana" font-size="11" lengthAdjust="spacing" textLength="114.458" x="511.4092" y="1123.73">sdate &amp; edate terisi?</text><text fill="#000000" font-family="Verdana" font-size="11" lengthAdjust="spacing" textLength="13.7017" x="637.8672" y="1117.3276">no</text><polygon fill="#FFFFFF" points="568.6382,1224.2617,580.6382,1236.2617,568.6382,1248.2617,556.6382,1236.2617,568.6382,1224.2617" style="stroke:#000000;stroke-width:1;"/><rect fill="#FFFFFF" height="75.875" rx="12.5" ry="12.5" style="stroke:#000000;stroke-width:1;" width="257.3047" x="439.9858" y="1316.6641"/><text fill="#000000" font-family="Verdana" font-size="12" lengthAdjust="spacing" textLength="147.6445" x="449.9858" y="1337.8027">WHERE LIKE keyword di:</text><text fill="#000000" font-family="Verdana" font-size="12" lengthAdjust="spacing" textLength="237.3047" x="449.9858" y="1351.7715">m_created_by_name, m_subject, m_no,</text><text fill="#000000" font-family="Verdana" font-size="12" lengthAdjust="spacing" textLength="179.0566" x="449.9858" y="1365.7402">m_to_str, m_content, m_note,</text><text fill="#000000" font-family="Verdana" font-size="12" lengthAdjust="spacing" textLength="136.5234" x="449.9858" y="1379.709">mcat_name, mail_type</text><polygon fill="#FFFFFF" points="526.8081,1268.2617,610.4683,1268.2617,622.4683,1280.2617,610.4683,1292.2617,526.8081,1292.2617,514.8081,1280.2617,526.8081,1268.2617" style="stroke:#000000;stroke-width:1;"/><text fill="#000000" font-family="Verdana" font-size="11" lengthAdjust="spacing" textLength="19.0083" x="572.6382" y="1302.4722">yes</text><text fill="#000000" font-family="Verdana" font-size="11" lengthAdjust="spacing" textLength="83.6602" x="526.8081" y="1284.0698">keyword terisi?</text><text fill="#000000" font-family="Verdana" font-size="11" lengthAdjust="spacing" textLength="13.7017" x="622.4683" y="1277.6675">no</text><polygon fill="#FFFFFF" points="568.6382,1412.5391,580.6382,1424.5391,568.6382,1436.5391,556.6382,1424.5391,568.6382,1412.5391" style="stroke:#000000;stroke-width:1;"/><rect fill="#ADD8E6" height="96.2344" style="stroke:#000000;stroke-width:1;" width="241.9961" x="447.6401" y="1458.5391"/><path d="M580.229,1458.5391 L580.229,1467.8359 L570.229,1477.8359 L447.6401,1477.8359" fill="none" style="stroke:#000000;stroke-width:1;"/><text fill="#000000" font-family="Verdana" font-size="14" lengthAdjust="spacing" textLength="122.5889" x="450.6401" y="1472.5342">Count Total Rows</text><rect fill="#FFFFFF" height="47.9375" rx="12.5" ry="12.5" style="stroke:#000000;stroke-width:1;" width="221.9961" x="457.6401" y="1494.8359"/><text fill="#000000" font-family="Verdana" font-size="12" lengthAdjust="spacing" textLength="201.9961" x="467.6401" y="1515.9746">SELECT COUNT(1) dengan semua</text><text fill="#000000" font-family="Verdana" font-size="12" lengthAdjust="spacing" textLength="86.6777" x="467.6401" y="1529.9434">kondisi di atas</text><rect fill="#ADD8E6" height="299.9453" style="stroke:#000000;stroke-width:1;" width="1067.791" x="6" y="1564.7734"/><path d="M85.9863,1564.7734 L85.9863,1574.0703 L75.9863,1584.0703 L6,1584.0703" fill="none" style="stroke:#000000;stroke-width:1;"/><text fill="#000000" font-family="Verdana" font-size="14" lengthAdjust="spacing" textLength="69.9863" x="9" y="1578.7686">Sort Logic</text><polygon fill="#FFFFFF" points="508.1489,1601.0703,629.1274,1601.0703,641.1274,1613.0703,629.1274,1625.0703,508.1489,1625.0703,496.1489,1613.0703,508.1489,1601.0703" style="stroke:#000000;stroke-width:1;"/><text fill="#000000" font-family="Verdana" font-size="11" lengthAdjust="spacing" textLength="120.9785" x="508.1489" y="1616.8784">custom sort dari grid?</text><text fill="#000000" font-family="Verdana" font-size="11" lengthAdjust="spacing" textLength="19.0083" x="477.1406" y="1610.4761">yes</text><text fill="#000000" font-family="Verdana" font-size="11" lengthAdjust="spacing" textLength="84.1919" x="641.1274" y="1610.4761">no, default sort</text><rect fill="#FFFFFF" height="33.9688" rx="12.5" ry="12.5" style="stroke:#000000;stroke-width:1;" width="150.2363" x="227.7021" y="1635.0703"/><text fill="#000000" font-family="Verdana" font-size="12" lengthAdjust="spacing" textLength="130.2363" x="237.7021" y="1656.209">Apply sort sesuai grid</text><polygon fill="#FFFFFF" points="244.3076,1704.0391,361.333,1704.0391,373.333,1723.2461,361.333,1742.4531,244.3076,1742.4531,232.3076,1723.2461,244.3076,1704.0391" style="stroke:#000000;stroke-width:1;"/><text fill="#000000" font-family="Verdana" font-size="11" lengthAdjust="spacing" textLength="95.7559" x="244.3076" y="1714.2495">sort by m_id AND</text><text fill="#000000" font-family="Verdana" font-size="11" lengthAdjust="spacing" textLength="117.0254" x="244.3076" y="1727.0542">(BMS atau SMD) AND</text><text fill="#000000" font-family="Verdana" font-size="11" lengthAdjust="spacing" textLength="98.4092" x="244.3076" y="1739.8589">folder == INBOX?</text><text fill="#000000" font-family="Verdana" font-size="11" lengthAdjust="spacing" textLength="19.0083" x="213.2993" y="1720.6519">yes</text><text fill="#000000" font-family="Verdana" font-size="11" lengthAdjust="spacing" textLength="13.7017" x="373.333" y="1720.6519">no</text><path d="M217.7676,1752.4531 L217.7676,1768.5859 L197.7676,1772.5859 L217.7676,1776.5859 L217.7676,1792.7188 A0,0 0 0 0 217.7676,1792.7188 L404.0859,1792.7188 A0,0 0 0 0 404.0859,1792.7188 L404.0859,1762.4531 L394.0859,1752.4531 L217.7676,1752.4531 A0,0 0 0 0 217.7676,1752.4531" fill="#FFFFFF" style="stroke:#000000;stroke-width:1;"/><path d="M394.0859,1752.4531 L394.0859,1762.4531 L404.0859,1762.4531 L394.0859,1752.4531" fill="#FFFFFF" style="stroke:#000000;stroke-width:1;"/><text fill="#000000" font-family="Verdana" font-size="13" lengthAdjust="spacing" textLength="165.3184" x="223.7676" y="1769.52">CR 13 Maret: BMS &amp; SMD</text><text fill="#000000" font-family="Verdana" font-size="13" lengthAdjust="spacing" textLength="117.9014" x="223.7676" y="1784.6528">mau FIFO di inbox</text><rect fill="#FFFFFF" height="33.9688" rx="12.5" ry="12.5" style="stroke:#000000;stroke-width:1;" width="179.7676" x="18" y="1755.6016"/><text fill="#000000" font-family="Verdana" font-size="12" lengthAdjust="spacing" textLength="159.7676" x="28" y="1776.7402">Force ORDER BY m_id ASC</text><rect fill="#FFFFFF" height="33.9688" rx="12.5" ry="12.5" style="stroke:#000000;stroke-width:1;" width="147.3418" x="424.0859" y="1752.4531"/><text fill="#000000" font-family="Verdana" font-size="12" lengthAdjust="spacing" textLength="127.3418" x="434.0859" y="1773.5918">Normal sort direction</text><polygon fill="#FFFFFF" points="302.8203,1798.7188,314.8203,1810.7188,302.8203,1822.7188,290.8203,1810.7188,302.8203,1798.7188" style="stroke:#000000;stroke-width:1;"/><polygon fill="#FFFFFF" points="757.303,1635.0703,911.6091,1635.0703,923.6091,1647.875,911.6091,1660.6797,757.303,1660.6797,745.303,1647.875,757.303,1635.0703" style="stroke:#000000;stroke-width:1;"/><text fill="#000000" font-family="Verdana" font-size="11" lengthAdjust="spacing" textLength="154.3062" x="757.303" y="1645.2808">CLIENT_CODE == BMS/SMD</text><text fill="#000000" font-family="Verdana" font-size="11" lengthAdjust="spacing" textLength="126.1294" x="757.303" y="1658.0854">AND folder == INBOX?</text><text fill="#000000" font-family="Verdana" font-size="11" lengthAdjust="spacing" textLength="19.0083" x="726.2947" y="1645.2808">yes</text><text fill="#000000" font-family="Verdana" font-size="11" lengthAdjust="spacing" textLength="13.7017" x="923.6091" y="1645.2808">no</text><rect fill="#FFFFFF" height="33.9688" rx="12.5" ry="12.5" style="stroke:#000000;stroke-width:1;" width="210.875" x="611.4277" y="1670.6797"/><text fill="#000000" font-family="Verdana" font-size="12" lengthAdjust="spacing" textLength="190.875" x="621.4277" y="1691.8184">ORDER BY m_created_date ASC</text><rect fill="#FFFFFF" height="33.9688" rx="12.5" ry="12.5" style="stroke:#000000;stroke-width:1;" width="219.4883" x="842.3027" y="1670.6797"/><text fill="#000000" font-family="Verdana" font-size="12" lengthAdjust="spacing" textLength="199.4883" x="852.3027" y="1691.8184">ORDER BY m_created_date DESC</text><polygon fill="#FFFFFF" points="834.4561,1710.6484,846.4561,1722.6484,834.4561,1734.6484,822.4561,1722.6484,834.4561,1710.6484" style="stroke:#000000;stroke-width:1;"/><polygon fill="#FFFFFF" points="568.6382,1828.7188,580.6382,1840.7188,568.6382,1852.7188,556.6382,1840.7188,568.6382,1828.7188" style="stroke:#000000;stroke-width:1;"/><rect fill="#ADD8E6" height="96.2344" style="stroke:#000000;stroke-width:1;" width="273.9766" x="431.6499" y="1874.7188"/><path d="M639.7622,1874.7188 L639.7622,1884.0156 L629.7622,1894.0156 L431.6499,1894.0156" fill="none" style="stroke:#000000;stroke-width:1;"/><text fill="#000000" font-family="Verdana" font-size="14" lengthAdjust="spacing" textLength="198.1123" x="434.6499" y="1888.7139">Execute Query + Pagination</text><rect fill="#FFFFFF" height="47.9375" rx="12.5" ry="12.5" style="stroke:#000000;stroke-width:1;" width="253.9766" x="441.6499" y="1911.0156"/><text fill="#000000" font-family="Verdana" font-size="12" lengthAdjust="spacing" textLength="233.9766" x="451.6499" y="1932.1543">SELECT m.*, mc.*, mt.*, ut.read_status</text><text fill="#000000" font-family="Verdana" font-size="12" lengthAdjust="spacing" textLength="150.4746" x="451.6499" y="1946.123">LIMIT count OFFSET start</text><rect fill="#ADD8E6" height="196.0977" style="stroke:#000000;stroke-width:1;" width="584.7319" x="446.9243" y="1980.9531"/><path d="M606.9663,1980.9531 L606.9663,1990.25 L596.9663,2000.25 L446.9243,2000.25" fill="none" style="stroke:#000000;stroke-width:1;"/><text fill="#000000" font-family="Verdana" font-size="14" lengthAdjust="spacing" textLength="150.042" x="449.9243" y="1994.9482">Keyword Highlighting</text><path d="M690.3521,2065.6523 L690.3521,2089.3516 L670.3521,2093.3516 L690.3521,2097.3516 L690.3521,2121.0508 A0,0 0 0 0 690.3521,2121.0508 L999.6563,2121.0508 A0,0 0 0 0 999.6563,2121.0508 L999.6563,2075.6523 L989.6563,2065.6523 L690.3521,2065.6523 A0,0 0 0 0 690.3521,2065.6523" fill="#FFFFFF" style="stroke:#000000;stroke-width:1;"/><path d="M989.6563,2065.6523 L989.6563,2075.6523 L999.6563,2075.6523 L989.6563,2065.6523" fill="#FFFFFF" style="stroke:#000000;stroke-width:1;"/><text fill="#000000" font-family="Verdana" font-size="13" lengthAdjust="spacing" textLength="179.0103" x="696.3521" y="2082.7192">Wrap matched text dengan</text><text fill="#000000" font-family="Verdana" font-size="13" lengthAdjust="spacing" textLength="288.3042" x="696.3521" y="2097.8521">&lt;span style="background-color:#F9E79F"&gt;</text><text fill="#000000" font-family="Verdana" font-size="13" lengthAdjust="spacing" textLength="174.459" x="696.3521" y="2112.9849">untuk highlight di frontend</text><rect fill="#FFFFFF" height="47.9375" rx="12.5" ry="12.5" style="stroke:#000000;stroke-width:1;" width="203.4277" x="466.9243" y="2069.3828"/><text fill="#000000" font-family="Verdana" font-size="12" lengthAdjust="spacing" textLength="183.4277" x="476.9243" y="2090.5215">Loop setiap row &#8594; setiap field:</text><text fill="#000000" font-family="Verdana" font-size="12" lengthAdjust="spacing" textLength="158.9355" x="476.9243" y="2104.4902">markMe(value, [keyword])</text><polygon fill="#FFFFFF" points="526.8081,2017.25,610.4683,2017.25,622.4683,2029.25,610.4683,2041.25,526.8081,2041.25,514.8081,2029.25,526.8081,2017.25" style="stroke:#000000;stroke-width:1;"/><text fill="#000000" font-family="Verdana" font-size="11" lengthAdjust="spacing" textLength="19.0083" x="572.6382" y="2051.4604">yes</text><text fill="#000000" font-family="Verdana" font-size="11" lengthAdjust="spacing" textLength="83.6602" x="526.8081" y="2033.0581">keyword terisi?</text><text fill="#000000" font-family="Verdana" font-size="11" lengthAdjust="spacing" textLength="13.7017" x="622.4683" y="2026.6558">no</text><polygon fill="#FFFFFF" points="568.6382,2141.0508,580.6382,2153.0508,568.6382,2165.0508,556.6382,2153.0508,568.6382,2141.0508" style="stroke:#000000;stroke-width:1;"/><rect fill="#FFFFFF" height="33.9688" rx="12.5" ry="12.5" style="stroke:#000000;stroke-width:1;" width="345.8984" x="395.689" y="2197.0508"/><text fill="#000000" font-family="Verdana" font-size="12" lengthAdjust="spacing" textLength="325.8984" x="405.689" y="2218.1895">Controller: Threading Decision (direct/mail.php:63-68)</text><polygon fill="#FFFFFF" points="516.6943,2251.0195,620.582,2251.0195,632.582,2263.0195,620.582,2275.0195,516.6943,2275.0195,504.6943,2263.0195,516.6943,2251.0195" style="stroke:#000000;stroke-width:1;"/><text fill="#000000" font-family="Verdana" font-size="11" lengthAdjust="spacing" textLength="103.8877" x="516.6943" y="2266.8276">threaded == true?</text><text fill="#000000" font-family="Verdana" font-size="11" lengthAdjust="spacing" textLength="19.0083" x="485.686" y="2260.4253">yes</text><text fill="#000000" font-family="Verdana" font-size="11" lengthAdjust="spacing" textLength="13.7017" x="632.582" y="2260.4253">no</text><path d="M498.9038,2285.0195 L498.9038,2301.1523 L478.9038,2305.1523 L498.9038,2309.1523 L498.9038,2325.2852 A0,0 0 0 0 498.9038,2325.2852 L669.8228,2325.2852 A0,0 0 0 0 669.8228,2325.2852 L669.8228,2295.0195 L659.8228,2285.0195 L498.9038,2285.0195 A0,0 0 0 0 498.9038,2285.0195" fill="#FFFFFF" style="stroke:#000000;stroke-width:1;"/><path d="M659.8228,2285.0195 L659.8228,2295.0195 L669.8228,2295.0195 L659.8228,2285.0195" fill="#FFFFFF" style="stroke:#000000;stroke-width:1;"/><text fill="#000000" font-family="Verdana" font-size="13" lengthAdjust="spacing" textLength="94.7261" x="504.9038" y="2302.0864">Lihat diagram:</text><text fill="#000000" font-family="Verdana" font-size="13" font-weight="bold" lengthAdjust="spacing" textLength="149.9189" x="504.9038" y="2317.2192">mail-threading.puml</text><rect fill="#FFFFFF" height="33.9688" rx="12.5" ry="12.5" style="stroke:#000000;stroke-width:1;" width="192.5059" x="286.3979" y="2288.168"/><text fill="#000000" font-family="Verdana" font-size="12" lengthAdjust="spacing" textLength="172.5059" x="296.3979" y="2309.3066">make_nlevel_threaded(data)</text><rect fill="#FFFFFF" height="47.9375" rx="12.5" ry="12.5" style="stroke:#000000;stroke-width:1;" width="132.8516" x="316.2251" y="2352.957"/><text fill="#000000" font-family="Verdana" font-size="12" lengthAdjust="spacing" textLength="112.8516" x="326.2251" y="2374.0957">Return tree format</text><text fill="#000000" font-family="Verdana" font-size="12" lengthAdjust="spacing" textLength="102.5332" x="326.2251" y="2388.0645">(children nested)</text><rect fill="#FFFFFF" height="47.9375" rx="12.5" ry="12.5" style="stroke:#000000;stroke-width:1;" width="129.6055" x="689.8228" y="2285.0195"/><text fill="#000000" font-family="Verdana" font-size="12" lengthAdjust="spacing" textLength="99.4922" x="699.8228" y="2306.1582">Return flat array</text><text fill="#000000" font-family="Verdana" font-size="12" lengthAdjust="spacing" textLength="109.6055" x="699.8228" y="2320.127">(data + total_row)</text><polygon fill="#FFFFFF" points="568.6382,2406.8945,580.6382,2418.8945,568.6382,2430.8945,556.6382,2418.8945,568.6382,2406.8945" style="stroke:#000000;stroke-width:1;"/><ellipse cx="568.6382" cy="2461.8945" fill="none" rx="11" ry="11" style="stroke:#000000;stroke-width:1;"/><ellipse cx="568.6382" cy="2461.8945" fill="#FFFFFF" rx="6" ry="6" style="stroke:#000000;stroke-width:1;"/><line style="stroke:#000000;stroke-width:1;" x1="568.6382" x2="568.6382" y1="97.2188" y2="117.2188"/><polygon fill="#000000" points="564.6382,107.2188,568.6382,117.2188,572.6382,107.2188,568.6382,111.2188" style="stroke:#000000;stroke-width:1;"/><line style="stroke:#000000;stroke-width:1;" x1="568.6382" x2="568.6382" y1="151.1875" y2="171.1875"/><polygon fill="#000000" points="564.6382,161.1875,568.6382,171.1875,572.6382,161.1875,568.6382,165.1875" style="stroke:#000000;stroke-width:1;"/><line style="stroke:#000000;stroke-width:1;" x1="568.6382" x2="568.6382" y1="288.9688" y2="308.9688"/><polygon fill="#000000" points="564.6382,298.9688,568.6382,308.9688,572.6382,298.9688,568.6382,302.9688" style="stroke:#000000;stroke-width:1;"/><line style="stroke:#000000;stroke-width:1;" x1="568.6382" x2="568.6382" y1="342.9375" y2="362.9375"/><polygon fill="#000000" points="564.6382,352.9375,568.6382,362.9375,572.6382,352.9375,568.6382,356.9375" style="stroke:#000000;stroke-width:1;"/><line style="stroke:#000000;stroke-width:1;" x1="568.6382" x2="568.6382" y1="480.1719" y2="503.3203"/><polygon fill="#000000" points="564.6382,493.3203,568.6382,503.3203,572.6382,493.3203,568.6382,497.3203" style="stroke:#000000;stroke-width:1;"/><line style="stroke:#000000;stroke-width:1;" x1="568.6382" x2="568.6382" y1="607.1328" y2="627.1328"/><polygon fill="#000000" points="564.6382,617.1328,568.6382,627.1328,572.6382,617.1328,568.6382,621.1328" style="stroke:#000000;stroke-width:1;"/><line style="stroke:#000000;stroke-width:1;" x1="568.6382" x2="568.6382" y1="396.9063" y2="446.2031"/><polygon fill="#000000" points="564.6382,436.2031,568.6382,446.2031,572.6382,436.2031,568.6382,440.2031" style="stroke:#000000;stroke-width:1;"/><line style="stroke:#000000;stroke-width:1;" x1="568.6382" x2="568.6382" y1="758.9766" y2="783.3789"/><polygon fill="#000000" points="564.6382,773.3789,568.6382,783.3789,572.6382,773.3789,568.6382,777.3789" style="stroke:#000000;stroke-width:1;"/><line style="stroke:#000000;stroke-width:1;" x1="651.1687" x2="898.5967" y1="746.1719" y2="746.1719"/><polygon fill="#000000" points="894.5967,803.9297,898.5967,813.9297,902.5967,803.9297,898.5967,807.9297" style="stroke:#000000;stroke-width:1;"/><line style="stroke:#000000;stroke-width:1;" x1="898.5967" x2="898.5967" y1="746.1719" y2="877.2852"/><line style="stroke:#000000;stroke-width:1;" x1="898.5967" x2="580.6382" y1="877.2852" y2="877.2852"/><polygon fill="#000000" points="590.6382,873.2852,580.6382,877.2852,590.6382,881.2852,586.6382,877.2852" style="stroke:#000000;stroke-width:1;"/><line style="stroke:#000000;stroke-width:1;" x1="568.6382" x2="568.6382" y1="845.2852" y2="865.2852"/><polygon fill="#000000" points="564.6382,855.2852,568.6382,865.2852,572.6382,855.2852,568.6382,859.2852" style="stroke:#000000;stroke-width:1;"/><line style="stroke:#000000;stroke-width:1;" x1="568.6382" x2="568.6382" y1="933.2852" y2="957.6875"/><polygon fill="#000000" points="564.6382,947.6875,568.6382,957.6875,572.6382,947.6875,568.6382,951.6875" style="stroke:#000000;stroke-width:1;"/><line style="stroke:#000000;stroke-width:1;" x1="637.5557" x2="950.6396" y1="921.2852" y2="921.2852"/><polygon fill="#000000" points="946.6396,971.6563,950.6396,981.6563,954.6396,971.6563,950.6396,975.6563" style="stroke:#000000;stroke-width:1;"/><line style="stroke:#000000;stroke-width:1;" x1="950.6396" x2="950.6396" y1="921.2852" y2="1037.625"/><line style="stroke:#000000;stroke-width:1;" x1="950.6396" x2="580.6382" y1="1037.625" y2="1037.625"/><polygon fill="#000000" points="590.6382,1033.625,580.6382,1037.625,590.6382,1041.625,586.6382,1037.625" style="stroke:#000000;stroke-width:1;"/><line style="stroke:#000000;stroke-width:1;" x1="568.6382" x2="568.6382" y1="1005.625" y2="1025.625"/><polygon fill="#000000" points="564.6382,1015.625,568.6382,1025.625,572.6382,1015.625,568.6382,1019.625" style="stroke:#000000;stroke-width:1;"/><line style="stroke:#000000;stroke-width:1;" x1="568.6382" x2="568.6382" y1="889.2852" y2="909.2852"/><polygon fill="#000000" points="564.6382,899.2852,568.6382,909.2852,572.6382,899.2852,568.6382,903.2852" style="stroke:#000000;stroke-width:1;"/><line style="stroke:#000000;stroke-width:1;" x1="568.6382" x2="568.6382" y1="675.0703" y2="733.3672"/><polygon fill="#000000" points="564.6382,723.3672,568.6382,733.3672,572.6382,723.3672,568.6382,727.3672" style="stroke:#000000;stroke-width:1;"/><line style="stroke:#000000;stroke-width:1;" x1="568.6382" x2="568.6382" y1="1131.9219" y2="1156.3242"/><polygon fill="#000000" points="564.6382,1146.3242,568.6382,1156.3242,572.6382,1146.3242,568.6382,1150.3242" style="stroke:#000000;stroke-width:1;"/><line style="stroke:#000000;stroke-width:1;" x1="637.8672" x2="964.4531" y1="1119.9219" y2="1119.9219"/><polygon fill="#000000" points="960.4531,1170.293,964.4531,1180.293,968.4531,1170.293,964.4531,1174.293" style="stroke:#000000;stroke-width:1;"/><line style="stroke:#000000;stroke-width:1;" x1="964.4531" x2="964.4531" y1="1119.9219" y2="1236.2617"/><line style="stroke:#000000;stroke-width:1;" x1="964.4531" x2="580.6382" y1="1236.2617" y2="1236.2617"/><polygon fill="#000000" points="590.6382,1232.2617,580.6382,1236.2617,590.6382,1240.2617,586.6382,1236.2617" style="stroke:#000000;stroke-width:1;"/><line style="stroke:#000000;stroke-width:1;" x1="568.6382" x2="568.6382" y1="1204.2617" y2="1224.2617"/><polygon fill="#000000" points="564.6382,1214.2617,568.6382,1224.2617,572.6382,1214.2617,568.6382,1218.2617" style="stroke:#000000;stroke-width:1;"/><line style="stroke:#000000;stroke-width:1;" x1="568.6382" x2="568.6382" y1="1292.2617" y2="1316.6641"/><polygon fill="#000000" points="564.6382,1306.6641,568.6382,1316.6641,572.6382,1306.6641,568.6382,1310.6641" style="stroke:#000000;stroke-width:1;"/><line style="stroke:#000000;stroke-width:1;" x1="622.4683" x2="707.2905" y1="1280.2617" y2="1280.2617"/><polygon fill="#000000" points="703.2905,1344.6016,707.2905,1354.6016,711.2905,1344.6016,707.2905,1348.6016" style="stroke:#000000;stroke-width:1;"/><line style="stroke:#000000;stroke-width:1;" x1="707.2905" x2="707.2905" y1="1280.2617" y2="1424.5391"/><line style="stroke:#000000;stroke-width:1;" x1="707.2905" x2="580.6382" y1="1424.5391" y2="1424.5391"/><polygon fill="#000000" points="590.6382,1420.5391,580.6382,1424.5391,590.6382,1428.5391,586.6382,1424.5391" style="stroke:#000000;stroke-width:1;"/><line style="stroke:#000000;stroke-width:1;" x1="568.6382" x2="568.6382" y1="1392.5391" y2="1412.5391"/><polygon fill="#000000" points="564.6382,1402.5391,568.6382,1412.5391,572.6382,1402.5391,568.6382,1406.5391" style="stroke:#000000;stroke-width:1;"/><line style="stroke:#000000;stroke-width:1;" x1="568.6382" x2="568.6382" y1="1248.2617" y2="1268.2617"/><polygon fill="#000000" points="564.6382,1258.2617,568.6382,1268.2617,572.6382,1258.2617,568.6382,1262.2617" style="stroke:#000000;stroke-width:1;"/><line style="stroke:#000000;stroke-width:1;" x1="568.6382" x2="568.6382" y1="1049.625" y2="1107.9219"/><polygon fill="#000000" points="564.6382,1097.9219,568.6382,1107.9219,572.6382,1097.9219,568.6382,1101.9219" style="stroke:#000000;stroke-width:1;"/><line style="stroke:#000000;stroke-width:1;" x1="568.6382" x2="568.6382" y1="1436.5391" y2="1494.8359"/><polygon fill="#000000" points="564.6382,1484.8359,568.6382,1494.8359,572.6382,1484.8359,568.6382,1488.8359" style="stroke:#000000;stroke-width:1;"/><line style="stroke:#000000;stroke-width:1;" x1="232.3076" x2="107.8838" y1="1723.2461" y2="1723.2461"/><line style="stroke:#000000;stroke-width:1;" x1="107.8838" x2="107.8838" y1="1723.2461" y2="1755.6016"/><polygon fill="#000000" points="103.8838,1745.6016,107.8838,1755.6016,111.8838,1745.6016,107.8838,1749.6016" style="stroke:#000000;stroke-width:1;"/><line style="stroke:#000000;stroke-width:1;" x1="373.333" x2="497.7568" y1="1723.2461" y2="1723.2461"/><line style="stroke:#000000;stroke-width:1;" x1="497.7568" x2="497.7568" y1="1723.2461" y2="1752.4531"/><polygon fill="#000000" points="493.7568,1742.4531,497.7568,1752.4531,501.7568,1742.4531,497.7568,1746.4531" style="stroke:#000000;stroke-width:1;"/><line style="stroke:#000000;stroke-width:1;" x1="107.8838" x2="107.8838" y1="1789.5703" y2="1810.7188"/><line style="stroke:#000000;stroke-width:1;" x1="107.8838" x2="290.8203" y1="1810.7188" y2="1810.7188"/><polygon fill="#000000" points="280.8203,1806.7188,290.8203,1810.7188,280.8203,1814.7188,284.8203,1810.7188" style="stroke:#000000;stroke-width:1;"/><line style="stroke:#000000;stroke-width:1;" x1="497.7568" x2="497.7568" y1="1786.4219" y2="1810.7188"/><line style="stroke:#000000;stroke-width:1;" x1="497.7568" x2="314.8203" y1="1810.7188" y2="1810.7188"/><polygon fill="#000000" points="324.8203,1806.7188,314.8203,1810.7188,324.8203,1814.7188,320.8203,1810.7188" style="stroke:#000000;stroke-width:1;"/><line style="stroke:#000000;stroke-width:1;" x1="302.8203" x2="302.8203" y1="1669.0391" y2="1704.0391"/><polygon fill="#000000" points="298.8203,1694.0391,302.8203,1704.0391,306.8203,1694.0391,302.8203,1698.0391" style="stroke:#000000;stroke-width:1;"/><line style="stroke:#000000;stroke-width:1;" x1="745.303" x2="716.8652" y1="1647.875" y2="1647.875"/><line style="stroke:#000000;stroke-width:1;" x1="716.8652" x2="716.8652" y1="1647.875" y2="1670.6797"/><polygon fill="#000000" points="712.8652,1660.6797,716.8652,1670.6797,720.8652,1660.6797,716.8652,1664.6797" style="stroke:#000000;stroke-width:1;"/><line style="stroke:#000000;stroke-width:1;" x1="923.6091" x2="952.0469" y1="1647.875" y2="1647.875"/><line style="stroke:#000000;stroke-width:1;" x1="952.0469" x2="952.0469" y1="1647.875" y2="1670.6797"/><polygon fill="#000000" points="948.0469,1660.6797,952.0469,1670.6797,956.0469,1660.6797,952.0469,1664.6797" style="stroke:#000000;stroke-width:1;"/><line style="stroke:#000000;stroke-width:1;" x1="716.8652" x2="716.8652" y1="1704.6484" y2="1722.6484"/><line style="stroke:#000000;stroke-width:1;" x1="716.8652" x2="822.4561" y1="1722.6484" y2="1722.6484"/><polygon fill="#000000" points="812.4561,1718.6484,822.4561,1722.6484,812.4561,1726.6484,816.4561,1722.6484" style="stroke:#000000;stroke-width:1;"/><line style="stroke:#000000;stroke-width:1;" x1="952.0469" x2="952.0469" y1="1704.6484" y2="1722.6484"/><line style="stroke:#000000;stroke-width:1;" x1="952.0469" x2="846.4561" y1="1722.6484" y2="1722.6484"/><polygon fill="#000000" points="856.4561,1718.6484,846.4561,1722.6484,856.4561,1726.6484,852.4561,1722.6484" style="stroke:#000000;stroke-width:1;"/><line style="stroke:#000000;stroke-width:1;" x1="496.1489" x2="302.8203" y1="1613.0703" y2="1613.0703"/><line style="stroke:#000000;stroke-width:1;" x1="302.8203" x2="302.8203" y1="1613.0703" y2="1635.0703"/><polygon fill="#000000" points="298.8203,1625.0703,302.8203,1635.0703,306.8203,1625.0703,302.8203,1629.0703" style="stroke:#000000;stroke-width:1;"/><line style="stroke:#000000;stroke-width:1;" x1="641.1274" x2="834.4561" y1="1613.0703" y2="1613.0703"/><line style="stroke:#000000;stroke-width:1;" x1="834.4561" x2="834.4561" y1="1613.0703" y2="1635.0703"/><polygon fill="#000000" points="830.4561,1625.0703,834.4561,1635.0703,838.4561,1625.0703,834.4561,1629.0703" style="stroke:#000000;stroke-width:1;"/><line style="stroke:#000000;stroke-width:1;" x1="302.8203" x2="302.8203" y1="1822.7188" y2="1840.7188"/><line style="stroke:#000000;stroke-width:1;" x1="302.8203" x2="556.6382" y1="1840.7188" y2="1840.7188"/><polygon fill="#000000" points="546.6382,1836.7188,556.6382,1840.7188,546.6382,1844.7188,550.6382,1840.7188" style="stroke:#000000;stroke-width:1;"/><line style="stroke:#000000;stroke-width:1;" x1="834.4561" x2="834.4561" y1="1734.6484" y2="1840.7188"/><line style="stroke:#000000;stroke-width:1;" x1="834.4561" x2="580.6382" y1="1840.7188" y2="1840.7188"/><polygon fill="#000000" points="590.6382,1836.7188,580.6382,1840.7188,590.6382,1844.7188,586.6382,1840.7188" style="stroke:#000000;stroke-width:1;"/><line style="stroke:#000000;stroke-width:1;" x1="568.6382" x2="568.6382" y1="1542.7734" y2="1601.0703"/><polygon fill="#000000" points="564.6382,1591.0703,568.6382,1601.0703,572.6382,1591.0703,568.6382,1595.0703" style="stroke:#000000;stroke-width:1;"/><line style="stroke:#000000;stroke-width:1;" x1="568.6382" x2="568.6382" y1="1852.7188" y2="1911.0156"/><polygon fill="#000000" points="564.6382,1901.0156,568.6382,1911.0156,572.6382,1901.0156,568.6382,1905.0156" style="stroke:#000000;stroke-width:1;"/><line style="stroke:#000000;stroke-width:1;" x1="568.6382" x2="568.6382" y1="2041.25" y2="2069.3828"/><polygon fill="#000000" points="564.6382,2059.3828,568.6382,2069.3828,572.6382,2059.3828,568.6382,2063.3828" style="stroke:#000000;stroke-width:1;"/><line style="stroke:#000000;stroke-width:1;" x1="622.4683" x2="1009.6563" y1="2029.25" y2="2029.25"/><polygon fill="#000000" points="1005.6563,2083.3516,1009.6563,2093.3516,1013.6563,2083.3516,1009.6563,2087.3516" style="stroke:#000000;stroke-width:1;"/><line style="stroke:#000000;stroke-width:1;" x1="1009.6563" x2="1009.6563" y1="2029.25" y2="2153.0508"/><line style="stroke:#000000;stroke-width:1;" x1="1009.6563" x2="580.6382" y1="2153.0508" y2="2153.0508"/><polygon fill="#000000" points="590.6382,2149.0508,580.6382,2153.0508,590.6382,2157.0508,586.6382,2153.0508" style="stroke:#000000;stroke-width:1;"/><line style="stroke:#000000;stroke-width:1;" x1="568.6382" x2="568.6382" y1="2117.3203" y2="2141.0508"/><polygon fill="#000000" points="564.6382,2131.0508,568.6382,2141.0508,572.6382,2131.0508,568.6382,2135.0508" style="stroke:#000000;stroke-width:1;"/><line style="stroke:#000000;stroke-width:1;" x1="568.6382" x2="568.6382" y1="1958.9531" y2="2017.25"/><polygon fill="#000000" points="564.6382,2007.25,568.6382,2017.25,572.6382,2007.25,568.6382,2011.25" style="stroke:#000000;stroke-width:1;"/><line style="stroke:#000000;stroke-width:1;" x1="568.6382" x2="568.6382" y1="2165.0508" y2="2197.0508"/><polygon fill="#000000" points="564.6382,2187.0508,568.6382,2197.0508,572.6382,2187.0508,568.6382,2191.0508" style="stroke:#000000;stroke-width:1;"/><line style="stroke:#000000;stroke-width:1;" x1="382.6509" x2="382.6509" y1="2322.1367" y2="2352.957"/><polygon fill="#000000" points="378.6509,2342.957,382.6509,2352.957,386.6509,2342.957,382.6509,2346.957" style="stroke:#000000;stroke-width:1;"/><line style="stroke:#000000;stroke-width:1;" x1="504.6943" x2="382.6509" y1="2263.0195" y2="2263.0195"/><line style="stroke:#000000;stroke-width:1;" x1="382.6509" x2="382.6509" y1="2263.0195" y2="2288.168"/><polygon fill="#000000" points="378.6509,2278.168,382.6509,2288.168,386.6509,2278.168,382.6509,2282.168" style="stroke:#000000;stroke-width:1;"/><line style="stroke:#000000;stroke-width:1;" x1="632.582" x2="754.6255" y1="2263.0195" y2="2263.0195"/><line style="stroke:#000000;stroke-width:1;" x1="754.6255" x2="754.6255" y1="2263.0195" y2="2285.0195"/><polygon fill="#000000" points="750.6255,2275.0195,754.6255,2285.0195,758.6255,2275.0195,754.6255,2279.0195" style="stroke:#000000;stroke-width:1;"/><line style="stroke:#000000;stroke-width:1;" x1="382.6509" x2="382.6509" y1="2400.8945" y2="2418.8945"/><line style="stroke:#000000;stroke-width:1;" x1="382.6509" x2="556.6382" y1="2418.8945" y2="2418.8945"/><polygon fill="#000000" points="546.6382,2414.8945,556.6382,2418.8945,546.6382,2422.8945,550.6382,2418.8945" style="stroke:#000000;stroke-width:1;"/><line style="stroke:#000000;stroke-width:1;" x1="754.6255" x2="754.6255" y1="2332.957" y2="2418.8945"/><line style="stroke:#000000;stroke-width:1;" x1="754.6255" x2="580.6382" y1="2418.8945" y2="2418.8945"/><polygon fill="#000000" points="590.6382,2414.8945,580.6382,2418.8945,590.6382,2422.8945,586.6382,2418.8945" style="stroke:#000000;stroke-width:1;"/><line style="stroke:#000000;stroke-width:1;" x1="568.6382" x2="568.6382" y1="2231.0195" y2="2251.0195"/><polygon fill="#000000" points="564.6382,2241.0195,568.6382,2251.0195,572.6382,2241.0195,568.6382,2245.0195" style="stroke:#000000;stroke-width:1;"/><line style="stroke:#000000;stroke-width:1;" x1="568.6382" x2="568.6382" y1="2430.8945" y2="2450.8945"/><polygon fill="#000000" points="564.6382,2440.8945,568.6382,2450.8945,572.6382,2440.8945,568.6382,2444.8945" style="stroke:#000000;stroke-width:1;"/><?plantuml-src ZLPjRnf74FxEhvWwKdGuncwQAesXRcNWK4Wmf42KLgL2ozq26_RsJliI6rML-ga_eEelp2_fpEuTCJPM_0NkRcPsPfvzzjdvngvvng6GJAYQ5LPoq9oblLocN4Tr-FptVz1c2OE9qyn2mJK4sqobGlF4dcLCoDDYNJI_Fs-yF8TdG1-oFENXwwiNZU--VLwh6SkqhTMQdLnPdKl9THFUCSqoRd7D-CPgbbYHAuWEhbjlOMpf1KKLPo1bMe1GXRFDcMg0pt82KcJ2GbImbL2CLgrxOqwsfP2KCSB5tanWfKNgZKlVrLoaz6BN109F8RBQyRCbauQ79L9c-Gbm-iDAwLSpjGh63TzUvng336SwMVkIEqnA26ZGalEG9l8T6EznHSOc_EAutaBR2PaAjOBe48haZv6uJGJKaNU63w_ZSGm8Q-e_coDuCX2hjMrBn-7F6a1pGNxpwpNNV9vKVf5GX0L72vE2KIq0AgU6A1fV05vpIHlUwODJrcq8TuF5ULk0Zo0zAn5TvZfZ5CXLwbUgKV8sCnpUZFf3t1-pDNDd46NBp0QSdQdF__ph-GBPb-TvWh2kSaGZIo2IV6dhjunsMt38x9wXMXTS-RdbKmTad3trEKKA5v0uhRcotdkcBeTTCk-s7XrspwtQNtjW1zOt9WLFn58algNxM8ibH649kBY0_h0z-XNEO1nVTk5ifhhn89x6-0Zlul5aDBmS_5n7hd4a_PQRkiUrIGk3PTc2hPdofFPzuvaGXS3Q8KFoLXqXu4Wqpqp4GFCbxh5AE1YXDquo8rf-qJlx2d2PBH1qAufRhgKfiZnRECEG7gamHMw44VWePRrqmBAsh6H4sQjGY_p6ctTxZuzuQ21IUJrGGYnhzm0g0Na81TzuwPqjPoharDpO7AbSRfL2ANYWoodB2Y4tJ04wiQfOPfWi7TYA8Mc8EPQj7UPprUfucF5LiQytjK-JBad2KtXRIa7F7us3DF5IWgv1Iz0BSJu0H21nDlTUxNZw8Ow7GOQ0wEkZPseqzh8zH_sppY2Ftm-9T0_W4hJSAGe1moMJZXY7M9KE6JSRKJY5303f42ClSkYZLgiIlCTiT2M8Nsbkq7yRxyGp5SZvR9vWRPQdyyNMR_098c3SuYDU3FIeyXDoiZashEa3ofh5in5igD1eHHMfGYlTQ3rY0piviWockMKInldr0JcT86axK-YCtW-dqVCwf5oja6A6PuxDr8O4rWX2Zg7CtPMH2Gec3FALI0wI8d78lipBQhZQw7uw0DnbKSXjS3FSE1OSmtPxSf5bWGfA8e4ycQceVJMXYXnChhhryEsEKjtFWvbwkKOz6OsxyHZQlvKBJZgjqdwFMm2TCJn_0LTCSzi4olgKKkxCTCXw_Tw84FgY6tk4sjybNyQGBXTP0kC718IpLJ4HT_5B38eLNp8dhVUkxp3f3FhnS3hlZBenjOoLdM5TuHPu31AtCAZO6OvXXSQzeX-AwCQxaAhs0qoCRtZYq3jC1izmMggccGSvcPqU8zqJ_slf5s-tMxemKuF-LNyAYUVugDURnDCmCjsbQQLVhp6Df5HuxHyax5UF-23F2-Ie5Qm0dL-3lw_3gvy-wBGplRdYqIUK8JojlvTB_b5_GBq-Q8pr5n-dl3UsF86b-KTJq6cqMyalZXOisQmqjfisabpcklcaTnx_SDux-gdq3bVAkcgJIBdKNapIHqd_tZmxzMCZZMzTlAtDmMdsvOl6orSqe11wkpaJYKUJvbtycXdRyBcI_1D71IkTQUnaXyQrWLWpwe2jSBXi-a_7nvIuOQl2JWkNoUFZsbvZpJ6tJYkiWFDoYaEzIDOuDU8q0GflH9vYmji0L35BYIcPrcoB8LGO4jMIUCvnioact0UeQaNjVm00?></g></svg>