<?plantuml 1.2026.1?><svg xmlns="http://www.w3.org/2000/svg" xmlns:xlink="http://www.w3.org/1999/xlink" contentStyleType="text/css" data-diagram-type="ACTIVITY" height="1249px" preserveAspectRatio="none" style="width:828px;height:1249px;background:#FFFFFF;" version="1.1" viewBox="0 0 828 1249" width="828px" zoomAndPan="magnify"><title>trackMail() / track_mail() &#8212; Pelacakan Sirkulasi Surat
direct/mail.php:286 + mailmodel.php:1174-1217</title><defs/><g><g class="title" data-source-line="2"><text fill="#000000" font-family="Verdana" font-size="22" font-weight="bold" lengthAdjust="spacing" textLength="661.375" x="81.8159" y="35.4209">trackMail() / track_mail() &#8212; Pelacakan Sirkulasi Surat</text><text fill="#000000" font-family="Verdana" font-size="22" font-weight="bold" lengthAdjust="spacing" textLength="602.4971" x="111.2549" y="61.0303">direct/mail.php:286 + mailmodel.php:1174-1217</text></g><ellipse cx="288.6328" cy="87.2188" fill="#FFFFFF" rx="10" ry="10" style="stroke:#000000;stroke-width:1;"/><rect fill="#FFFFFF" height="33.9688" rx="12.5" ry="12.5" style="stroke:#000000;stroke-width:1;" width="159.3125" x="208.9766" y="117.2188"/><text fill="#000000" font-family="Verdana" font-size="12" lengthAdjust="spacing" textLength="139.3125" x="218.9766" y="138.3574">Input: root_id, ref_code</text><rect fill="#FFFFFF" height="33.9688" rx="12.5" ry="12.5" style="stroke:#000000;stroke-width:1;" width="115.2676" x="230.999" y="171.1875"/><text fill="#000000" font-family="Verdana" font-size="12" lengthAdjust="spacing" textLength="95.2676" x="240.999" y="192.3262">Resolve Root ID</text><polygon fill="#FFFFFF" points="232.5613,225.1563,344.7043,225.1563,356.7043,237.1563,344.7043,249.1563,232.5613,249.1563,220.5613,237.1563,232.5613,225.1563" style="stroke:#000000;stroke-width:1;"/><text fill="#000000" font-family="Verdana" font-size="11" lengthAdjust="spacing" textLength="112.1431" x="232.5613" y="240.9644">ref_code == "mail"?</text><text fill="#000000" font-family="Verdana" font-size="11" lengthAdjust="spacing" textLength="19.0083" x="201.553" y="234.562">yes</text><text fill="#000000" font-family="Verdana" font-size="11" lengthAdjust="spacing" textLength="110.4673" x="356.7043" y="234.562">no, dari context lain</text><path d="M180.9121,259.1563 L180.9121,275.2891 L160.9121,279.2891 L180.9121,283.2891 L180.9121,299.4219 A0,0 0 0 0 180.9121,299.4219 L365.6436,299.4219 A0,0 0 0 0 365.6436,299.4219 L365.6436,269.1563 L355.6436,259.1563 L180.9121,259.1563 A0,0 0 0 0 180.9121,259.1563" fill="#FFFFFF" style="stroke:#000000;stroke-width:1;"/><path d="M355.6436,259.1563 L355.6436,269.1563 L365.6436,269.1563 L355.6436,259.1563" fill="#FFFFFF" style="stroke:#000000;stroke-width:1;"/><text fill="#000000" font-family="Verdana" font-size="13" lengthAdjust="spacing" textLength="163.7314" x="186.9121" y="276.2231">Caller sudah tahu root_id</text><text fill="#000000" font-family="Verdana" font-size="13" lengthAdjust="spacing" textLength="120.6626" x="186.9121" y="291.356">(dari mail context)</text><rect fill="#FFFFFF" height="33.9688" rx="12.5" ry="12.5" style="stroke:#000000;stroke-width:1;" width="154.9121" x="6" y="262.3047"/><text fill="#000000" font-family="Verdana" font-size="12" lengthAdjust="spacing" textLength="134.9121" x="16" y="283.4434">root_id = input.root_id</text><rect fill="#ADD8E6" height="153.3516" style="stroke:#000000;stroke-width:1;" width="436.3633" x="385.6436" y="259.1563"/><path d="M483.2393,259.1563 L483.2393,268.4531 L473.2393,278.4531 L385.6436,278.4531" fill="none" style="stroke:#000000;stroke-width:1;"/><text fill="#000000" font-family="Verdana" font-size="14" lengthAdjust="spacing" textLength="87.5957" x="388.6436" y="273.1514">Lookup Root</text><rect fill="#FFFFFF" height="47.9375" rx="12.5" ry="12.5" style="stroke:#000000;stroke-width:1;" width="196.332" x="395.6436" y="295.4531"/><text fill="#000000" font-family="Verdana" font-size="12" lengthAdjust="spacing" textLength="176.332" x="405.6436" y="316.5918">SELECT m_root_id FROM mail</text><text fill="#000000" font-family="Verdana" font-size="12" lengthAdjust="spacing" textLength="170.4844" x="405.6436" y="330.5605">WHERE m_id = input.root_id</text><path d="M601.7832,360.2422 L601.7832,376.375 L581.7832,380.375 L601.7832,384.375 L601.7832,400.5078 A0,0 0 0 0 601.7832,400.5078 L812.0068,400.5078 A0,0 0 0 0 812.0068,400.5078 L812.0068,370.2422 L802.0068,360.2422 L601.7832,360.2422 A0,0 0 0 0 601.7832,360.2422" fill="#FFFFFF" style="stroke:#000000;stroke-width:1;"/><path d="M802.0068,360.2422 L802.0068,370.2422 L812.0068,370.2422 L802.0068,360.2422" fill="#FFFFFF" style="stroke:#000000;stroke-width:1;"/><text fill="#000000" font-family="Verdana" font-size="13" lengthAdjust="spacing" textLength="189.2236" x="607.7832" y="377.3091">Input mungkin ID surat child.</text><text fill="#000000" font-family="Verdana" font-size="13" lengthAdjust="spacing" textLength="185.8403" x="607.7832" y="392.4419">Perlu resolve ke root thread.</text><rect fill="#FFFFFF" height="33.9688" rx="12.5" ry="12.5" style="stroke:#000000;stroke-width:1;" width="175.9473" x="405.8359" y="363.3906"/><text fill="#000000" font-family="Verdana" font-size="12" lengthAdjust="spacing" textLength="155.9473" x="415.8359" y="384.5293">root_id = result.m_root_id</text><polygon fill="#FFFFFF" points="288.6328,418.5078,300.6328,430.5078,288.6328,442.5078,276.6328,430.5078,288.6328,418.5078" style="stroke:#000000;stroke-width:1;"/><rect fill="#FFFFFF" height="33.9688" rx="12.5" ry="12.5" style="stroke:#000000;stroke-width:1;" width="170.3926" x="203.4365" y="462.5078"/><text fill="#000000" font-family="Verdana" font-size="12" lengthAdjust="spacing" textLength="150.3926" x="213.4365" y="483.6465">Query All Mails in Thread</text><rect fill="#ADD8E6" height="234.0156" style="stroke:#000000;stroke-width:1;" width="636.9014" x="133.917" y="506.4766"/><path d="M262.7598,506.4766 L262.7598,515.7734 L252.7598,525.7734 L133.917,525.7734" fill="none" style="stroke:#000000;stroke-width:1;"/><text fill="#000000" font-family="Verdana" font-size="14" lengthAdjust="spacing" textLength="118.8428" x="136.917" y="520.4717">Get Thread Mails</text><rect fill="#FFFFFF" height="33.9688" rx="12.5" ry="12.5" style="stroke:#000000;stroke-width:1;" width="241.5605" x="167.8525" y="542.7734"/><text fill="#000000" font-family="Verdana" font-size="12" lengthAdjust="spacing" textLength="221.5605" x="177.8525" y="563.9121">build_where_condition(in, field_alias)</text><path d="M453.3486,642.4844 L453.3486,658.6172 L433.3486,662.6172 L453.3486,666.6172 L453.3486,682.75 A0,0 0 0 0 453.3486,682.75 L760.8184,682.75 A0,0 0 0 0 760.8184,682.75 L760.8184,652.4844 L750.8184,642.4844 L453.3486,642.4844 A0,0 0 0 0 453.3486,642.4844" fill="#FFFFFF" style="stroke:#000000;stroke-width:1;"/><path d="M750.8184,642.4844 L750.8184,652.4844 L760.8184,652.4844 L750.8184,642.4844" fill="#FFFFFF" style="stroke:#000000;stroke-width:1;"/><text fill="#000000" font-family="Verdana" font-size="13" lengthAdjust="spacing" textLength="286.4697" x="459.3486" y="659.5513">status &gt; 0 = hanya surat yang sudah SENT.</text><text fill="#000000" font-family="Verdana" font-size="13" lengthAdjust="spacing" textLength="228.0332" x="459.3486" y="674.6841">Draft (status=0) tidak ditampilkan.</text><rect fill="#FFFFFF" height="131.75" rx="12.5" ry="12.5" style="stroke:#000000;stroke-width:1;" width="289.4316" x="143.917" y="596.7422"/><text fill="#000000" font-family="Verdana" font-size="12" lengthAdjust="spacing" textLength="269.4316" x="153.917" y="617.8809">SELECT m.*, mc.mcat_code, mc.mcat_name,</text><text fill="#000000" font-family="Verdana" font-size="12" lengthAdjust="spacing" textLength="191.4844" x="153.917" y="631.8496">mt.mail_type (as m_type_desc),</text><text fill="#000000" font-family="Verdana" font-size="12" lengthAdjust="spacing" textLength="252.5215" x="153.917" y="645.8184">date_format(m_created_date) (formatted)</text><text fill="#000000" font-family="Verdana" font-size="12" lengthAdjust="spacing" textLength="80.0684" x="153.917" y="659.7871">FROM mail m</text><text fill="#000000" font-family="Verdana" font-size="12" lengthAdjust="spacing" textLength="136.1602" x="153.917" y="673.7559">JOIN mail_category mc</text><text fill="#000000" font-family="Verdana" font-size="12" lengthAdjust="spacing" textLength="140.3555" x="153.917" y="687.7246">LEFT JOIN mail_type mt</text><text fill="#000000" font-family="Verdana" font-size="12" lengthAdjust="spacing" textLength="181.6289" x="153.917" y="701.6934">WHERE m.m_root_id = root_id</text><text fill="#000000" font-family="Verdana" font-size="12" lengthAdjust="spacing" textLength="125.625" x="153.917" y="715.6621">AND m.m_status &gt; 0</text><rect fill="#ADD8E6" height="152.5625" style="stroke:#000000;stroke-width:1;" width="587.9419" x="104.4429" y="750.4922"/><path d="M143.1401,750.4922 L143.1401,759.7891 L133.1401,769.7891 L104.4429,769.7891" fill="none" style="stroke:#000000;stroke-width:1;"/><text fill="#000000" font-family="Verdana" font-size="14" lengthAdjust="spacing" textLength="28.6973" x="107.4429" y="764.4873">Sort</text><polygon fill="#FFFFFF" points="253.0627,786.7891,324.2029,786.7891,336.2029,798.7891,324.2029,810.7891,253.0627,810.7891,241.0627,798.7891,253.0627,786.7891" style="stroke:#000000;stroke-width:1;"/><text fill="#000000" font-family="Verdana" font-size="11" lengthAdjust="spacing" textLength="71.1401" x="253.0627" y="802.5972">custom sort?</text><text fill="#000000" font-family="Verdana" font-size="11" lengthAdjust="spacing" textLength="19.0083" x="222.0544" y="796.1948">yes</text><text fill="#000000" font-family="Verdana" font-size="11" lengthAdjust="spacing" textLength="13.7017" x="336.2029" y="796.1948">no</text><rect fill="#FFFFFF" height="33.9688" rx="12.5" ry="12.5" style="stroke:#000000;stroke-width:1;" width="135.2949" x="124.4429" y="820.7891"/><text fill="#000000" font-family="Verdana" font-size="12" lengthAdjust="spacing" textLength="115.2949" x="134.4429" y="841.9277">Apply sort dari grid</text><path d="M510.6128,820.7891 L510.6128,836.9219 L490.6128,840.9219 L510.6128,844.9219 L510.6128,861.0547 A0,0 0 0 0 510.6128,861.0547 L672.3848,861.0547 A0,0 0 0 0 672.3848,861.0547 L672.3848,830.7891 L662.3848,820.7891 L510.6128,820.7891 A0,0 0 0 0 510.6128,820.7891" fill="#FFFFFF" style="stroke:#000000;stroke-width:1;"/><path d="M662.3848,820.7891 L662.3848,830.7891 L672.3848,830.7891 L662.3848,820.7891" fill="#FFFFFF" style="stroke:#000000;stroke-width:1;"/><text fill="#000000" font-family="Verdana" font-size="13" lengthAdjust="spacing" textLength="132.3677" x="516.6128" y="837.856">Chronological order:</text><text fill="#000000" font-family="Verdana" font-size="13" lengthAdjust="spacing" textLength="140.772" x="516.6128" y="852.9888">surat pertama di atas</text><rect fill="#FFFFFF" height="33.9688" rx="12.5" ry="12.5" style="stroke:#000000;stroke-width:1;" width="210.875" x="279.7378" y="823.9375"/><text fill="#000000" font-family="Verdana" font-size="12" lengthAdjust="spacing" textLength="190.875" x="289.7378" y="845.0762">ORDER BY m_created_date ASC</text><polygon fill="#FFFFFF" points="288.6328,867.0547,300.6328,879.0547,288.6328,891.0547,276.6328,879.0547,288.6328,867.0547" style="stroke:#000000;stroke-width:1;"/><rect fill="#FFFFFF" height="33.9688" rx="12.5" ry="12.5" style="stroke:#000000;stroke-width:1;" width="95.8613" x="240.7021" y="923.0547"/><text fill="#000000" font-family="Verdana" font-size="12" lengthAdjust="spacing" textLength="75.8613" x="250.7021" y="944.1934">Post-Process</text><rect fill="#FFFFFF" height="163.1245" style="stroke:#000000;stroke-width:1;" width="455.7266" x="180.0244" y="967.0234"/><path d="M281.9883,967.0234 L281.9883,976.3203 L271.9883,986.3203 L180.0244,986.3203" fill="none" style="stroke:#000000;stroke-width:1;"/><text fill="#000000" font-family="Verdana" font-size="14" lengthAdjust="spacing" textLength="91.9639" x="183.0244" y="981.0186">Trim Content</text><path d="M383.2412,1055.8823 L383.2412,1072.0151 L363.2412,1076.0151 L383.2412,1080.0151 L383.2412,1096.1479 A0,0 0 0 0 383.2412,1096.1479 L604.751,1096.1479 A0,0 0 0 0 604.751,1096.1479 L604.751,1065.8823 L594.751,1055.8823 L383.2412,1055.8823 A0,0 0 0 0 383.2412,1055.8823" fill="#FFFFFF" style="stroke:#000000;stroke-width:1;"/><path d="M594.751,1055.8823 L594.751,1065.8823 L604.751,1065.8823 L594.751,1055.8823" fill="#FFFFFF" style="stroke:#000000;stroke-width:1;"/><text fill="#000000" font-family="Verdana" font-size="13" lengthAdjust="spacing" textLength="200.5098" x="389.2412" y="1072.9492">Potong content untuk preview.</text><text fill="#000000" font-family="Verdana" font-size="13" lengthAdjust="spacing" textLength="159.0913" x="389.2412" y="1088.082">Hapus HTML berlebihan.</text><rect fill="#FFFFFF" height="33.9688" rx="12.5" ry="12.5" style="stroke:#000000;stroke-width:1;" width="149.2168" x="214.0244" y="1059.0308"/><text fill="#000000" font-family="Verdana" font-size="12" lengthAdjust="spacing" textLength="129.2168" x="224.0244" y="1080.1694">trim_msg(m_content)</text><polygon fill="#FFFFFF" points="240.7576,1003.3203,336.5081,1003.3203,348.5081,1015.3203,336.5081,1027.3203,240.7576,1027.3203,228.7576,1015.3203,240.7576,1003.3203" style="stroke:#000000;stroke-width:1;"/><text fill="#000000" font-family="Verdana" font-size="11" lengthAdjust="spacing" textLength="24.562" x="292.6328" y="1037.5308">next</text><text fill="#000000" font-family="Verdana" font-size="11" lengthAdjust="spacing" textLength="95.7505" x="240.7576" y="1019.1284">untuk setiap mail</text><text fill="#000000" font-family="Verdana" font-size="11" lengthAdjust="spacing" textLength="27.4517" x="201.3059" y="1012.7261">done</text><path d="M381.0234,1146.4175 L381.0234,1170.1167 L361.0234,1174.1167 L381.0234,1178.1167 L381.0234,1201.8159 A0,0 0 0 0 381.0234,1201.8159 L589.7808,1201.8159 A0,0 0 0 0 589.7808,1201.8159 L589.7808,1156.4175 L579.7808,1146.4175 L381.0234,1146.4175 A0,0 0 0 0 381.0234,1146.4175" fill="#FFFFFF" style="stroke:#000000;stroke-width:1;"/><path d="M579.7808,1146.4175 L579.7808,1156.4175 L589.7808,1156.4175 L579.7808,1146.4175" fill="#FFFFFF" style="stroke:#000000;stroke-width:1;"/><text fill="#000000" font-family="Verdana" font-size="13" lengthAdjust="spacing" textLength="187.7573" x="387.0234" y="1163.4844">Frontend yang menampilkan</text><text fill="#000000" font-family="Verdana" font-size="13" lengthAdjust="spacing" textLength="142.7334" x="387.0234" y="1178.6172">sebagai tree/timeline.</text><text fill="#000000" font-family="Verdana" font-size="13" lengthAdjust="spacing" textLength="153.188" x="387.0234" y="1193.75">Backend return flat list.</text><rect fill="#FFFFFF" height="47.9375" rx="12.5" ry="12.5" style="stroke:#000000;stroke-width:1;" width="144.7813" x="216.2422" y="1150.1479"/><text fill="#000000" font-family="Verdana" font-size="12" lengthAdjust="spacing" textLength="124.7813" x="226.2422" y="1171.2866">Return data (flat list,</text><text fill="#000000" font-family="Verdana" font-size="12" lengthAdjust="spacing" textLength="121.043" x="226.2422" y="1185.2554">chronological order)</text><ellipse cx="288.6328" cy="1232.8159" fill="none" rx="11" ry="11" style="stroke:#000000;stroke-width:1;"/><ellipse cx="288.6328" cy="1232.8159" fill="#FFFFFF" rx="6" ry="6" style="stroke:#000000;stroke-width:1;"/><line style="stroke:#000000;stroke-width:1;" x1="288.6328" x2="288.6328" y1="97.2188" y2="117.2188"/><polygon fill="#000000" points="284.6328,107.2188,288.6328,117.2188,292.6328,107.2188,288.6328,111.2188" style="stroke:#000000;stroke-width:1;"/><line style="stroke:#000000;stroke-width:1;" x1="288.6328" x2="288.6328" y1="151.1875" y2="171.1875"/><polygon fill="#000000" points="284.6328,161.1875,288.6328,171.1875,292.6328,161.1875,288.6328,165.1875" style="stroke:#000000;stroke-width:1;"/><line style="stroke:#000000;stroke-width:1;" x1="493.8096" x2="493.8096" y1="343.3906" y2="363.3906"/><polygon fill="#000000" points="489.8096,353.3906,493.8096,363.3906,497.8096,353.3906,493.8096,357.3906" style="stroke:#000000;stroke-width:1;"/><line style="stroke:#000000;stroke-width:1;" x1="220.5613" x2="83.4561" y1="237.1563" y2="237.1563"/><line style="stroke:#000000;stroke-width:1;" x1="83.4561" x2="83.4561" y1="237.1563" y2="262.3047"/><polygon fill="#000000" points="79.4561,252.3047,83.4561,262.3047,87.4561,252.3047,83.4561,256.3047" style="stroke:#000000;stroke-width:1;"/><line style="stroke:#000000;stroke-width:1;" x1="356.7043" x2="493.8096" y1="237.1563" y2="237.1563"/><line style="stroke:#000000;stroke-width:1;" x1="493.8096" x2="493.8096" y1="237.1563" y2="295.4531"/><polygon fill="#000000" points="489.8096,285.4531,493.8096,295.4531,497.8096,285.4531,493.8096,289.4531" style="stroke:#000000;stroke-width:1;"/><line style="stroke:#000000;stroke-width:1;" x1="83.4561" x2="83.4561" y1="296.2734" y2="430.5078"/><line style="stroke:#000000;stroke-width:1;" x1="83.4561" x2="276.6328" y1="430.5078" y2="430.5078"/><polygon fill="#000000" points="266.6328,426.5078,276.6328,430.5078,266.6328,434.5078,270.6328,430.5078" style="stroke:#000000;stroke-width:1;"/><line style="stroke:#000000;stroke-width:1;" x1="493.8096" x2="493.8096" y1="397.3594" y2="430.5078"/><line style="stroke:#000000;stroke-width:1;" x1="493.8096" x2="300.6328" y1="430.5078" y2="430.5078"/><polygon fill="#000000" points="310.6328,426.5078,300.6328,430.5078,310.6328,434.5078,306.6328,430.5078" style="stroke:#000000;stroke-width:1;"/><line style="stroke:#000000;stroke-width:1;" x1="288.6328" x2="288.6328" y1="205.1563" y2="225.1563"/><polygon fill="#000000" points="284.6328,215.1563,288.6328,225.1563,292.6328,215.1563,288.6328,219.1563" style="stroke:#000000;stroke-width:1;"/><line style="stroke:#000000;stroke-width:1;" x1="288.6328" x2="288.6328" y1="442.5078" y2="462.5078"/><polygon fill="#000000" points="284.6328,452.5078,288.6328,462.5078,292.6328,452.5078,288.6328,456.5078" style="stroke:#000000;stroke-width:1;"/><line style="stroke:#000000;stroke-width:1;" x1="288.6328" x2="288.6328" y1="576.7422" y2="596.7422"/><polygon fill="#000000" points="284.6328,586.7422,288.6328,596.7422,292.6328,586.7422,288.6328,590.7422" style="stroke:#000000;stroke-width:1;"/><line style="stroke:#000000;stroke-width:1;" x1="288.6328" x2="288.6328" y1="496.4766" y2="542.7734"/><polygon fill="#000000" points="284.6328,532.7734,288.6328,542.7734,292.6328,532.7734,288.6328,536.7734" style="stroke:#000000;stroke-width:1;"/><line style="stroke:#000000;stroke-width:1;" x1="241.0627" x2="192.0903" y1="798.7891" y2="798.7891"/><line style="stroke:#000000;stroke-width:1;" x1="192.0903" x2="192.0903" y1="798.7891" y2="820.7891"/><polygon fill="#000000" points="188.0903,810.7891,192.0903,820.7891,196.0903,810.7891,192.0903,814.7891" style="stroke:#000000;stroke-width:1;"/><line style="stroke:#000000;stroke-width:1;" x1="336.2029" x2="385.1753" y1="798.7891" y2="798.7891"/><line style="stroke:#000000;stroke-width:1;" x1="385.1753" x2="385.1753" y1="798.7891" y2="823.9375"/><polygon fill="#000000" points="381.1753,813.9375,385.1753,823.9375,389.1753,813.9375,385.1753,817.9375" style="stroke:#000000;stroke-width:1;"/><line style="stroke:#000000;stroke-width:1;" x1="192.0903" x2="192.0903" y1="854.7578" y2="879.0547"/><line style="stroke:#000000;stroke-width:1;" x1="192.0903" x2="276.6328" y1="879.0547" y2="879.0547"/><polygon fill="#000000" points="266.6328,875.0547,276.6328,879.0547,266.6328,883.0547,270.6328,879.0547" style="stroke:#000000;stroke-width:1;"/><line style="stroke:#000000;stroke-width:1;" x1="385.1753" x2="385.1753" y1="857.9063" y2="879.0547"/><line style="stroke:#000000;stroke-width:1;" x1="385.1753" x2="300.6328" y1="879.0547" y2="879.0547"/><polygon fill="#000000" points="310.6328,875.0547,300.6328,879.0547,310.6328,883.0547,306.6328,879.0547" style="stroke:#000000;stroke-width:1;"/><line style="stroke:#000000;stroke-width:1;" x1="288.6328" x2="288.6328" y1="728.4922" y2="786.7891"/><polygon fill="#000000" points="284.6328,776.7891,288.6328,786.7891,292.6328,776.7891,288.6328,780.7891" style="stroke:#000000;stroke-width:1;"/><line style="stroke:#000000;stroke-width:1;" x1="288.6328" x2="288.6328" y1="891.0547" y2="923.0547"/><polygon fill="#000000" points="284.6328,913.0547,288.6328,923.0547,292.6328,913.0547,288.6328,917.0547" style="stroke:#000000;stroke-width:1;"/><line style="stroke:#000000;stroke-width:1;" x1="288.6328" x2="288.6328" y1="1027.3203" y2="1059.0308"/><polygon fill="#000000" points="284.6328,1049.0308,288.6328,1059.0308,292.6328,1049.0308,288.6328,1053.0308" style="stroke:#000000;stroke-width:1;"/><line style="stroke:#000000;stroke-width:1;" x1="288.6328" x2="288.6328" y1="1092.9995" y2="1106.1479"/><line style="stroke:#000000;stroke-width:1;" x1="288.6328" x2="616.751" y1="1106.1479" y2="1106.1479"/><polygon fill="#000000" points="612.751,1067.6128,616.751,1057.6128,620.751,1067.6128,616.751,1063.6128" style="stroke:#000000;stroke-width:1;"/><line style="stroke:#000000;stroke-width:1;" x1="616.751" x2="616.751" y1="1015.3203" y2="1106.1479"/><line style="stroke:#000000;stroke-width:1;" x1="616.751" x2="348.5081" y1="1015.3203" y2="1015.3203"/><polygon fill="#000000" points="358.5081,1011.3203,348.5081,1015.3203,358.5081,1019.3203,354.5081,1015.3203" style="stroke:#000000;stroke-width:1;"/><line style="stroke:#000000;stroke-width:1;" x1="228.7576" x2="202.0244" y1="1015.3203" y2="1015.3203"/><polygon fill="#000000" points="198.0244,1053.6128,202.0244,1063.6128,206.0244,1053.6128,202.0244,1057.6128" style="stroke:#000000;stroke-width:1;"/><line style="stroke:#000000;stroke-width:1;" x1="202.0244" x2="202.0244" y1="1015.3203" y2="1118.1479"/><line style="stroke:#000000;stroke-width:1;" x1="202.0244" x2="288.6328" y1="1118.1479" y2="1118.1479"/><line style="stroke:#000000;stroke-width:1;" x1="288.6328" x2="288.6328" y1="1118.1479" y2="1150.1479"/><polygon fill="#000000" points="284.6328,1140.1479,288.6328,1150.1479,292.6328,1140.1479,288.6328,1144.1479" style="stroke:#000000;stroke-width:1;"/><line style="stroke:#000000;stroke-width:1;" x1="288.6328" x2="288.6328" y1="957.0234" y2="1003.3203"/><polygon fill="#000000" points="284.6328,993.3203,288.6328,1003.3203,292.6328,993.3203,288.6328,997.3203" style="stroke:#000000;stroke-width:1;"/><line style="stroke:#000000;stroke-width:1;" x1="288.6328" x2="288.6328" y1="1198.0854" y2="1221.8159"/><polygon fill="#000000" points="284.6328,1211.8159,288.6328,1221.8159,292.6328,1211.8159,288.6328,1215.8159" style="stroke:#000000;stroke-width:1;"/><?plantuml-src TLNRRjj647tdLqpT5x9Hv3Weca21MzYo7BkGRKKI41GeG8p9aRZGNeYzn1MA0Fs8Vc6_fBDBIhRiv4spCpixvpBY3xuXHT1A53hpmai2Rx7QtA2GUG77NLIgBlpldtzXHX8htA26XR2R8D49M0IB_azT2qkLFux5mxPfHs_V_mAl88RArDITdPoy-_droTkJTrdcF5gVPQDhtGO_0ckCBqKz04khik8B7pWt9sVa5u8v9-7wWe_42l9T1PoUmb7iV_HR0On4GxubLsG0exuRd8A8xOTz_85psdW2AzQDvm1WZ5AI1HTgRC1Z4tQJf6nUenK90rH6U_hBn_QawzGc8-a8Scq6aEhw4eXqnhgM4GelZ8QZgJ6Rq2OWH_3ZD3v_BWF1t-cPqM8odOoNeChTu9VpkvlqRif_lfhC9vpzDg83l9PSa7wuxzGLF0CDa5W75VHw8pHJomImY50rGjR3lcP6LeROC6cmeSGC4sq9-vez4G1VCmx4YaNx5CXkuKnAY3PoF2yiqnsMxmaZ7ydtvrtT2rf6zu67AHyQiiHwS_TuCHTw02j1d44fq1NSzGc1mvy6eAgXgj0dZpn66XKDk5GnEVnUwRSjQuUEQOq_ovfSLSI26ZsLAsCL-boL5K_egIxZQG5vTyu7KT-zIA0u-ltk-ZP59Jz7QyCag8hFfvFBvPDaUbT57NfL7xMAyktDTtPxaNAy9puu-1NUVCEzZqc-sw3UOY_a5lMwD_LYShlivBgmkFAGTvTEt_3IY1etmCIYQeNahHu-TVVN0xqMnhwqRbp7AZXl53ZEFzz35kQiRUKs9RiTMTlEaxlLwSlkvXUJEPp_0OUCmzbY_1q7Znjhj95cBIgKO6nDTjIdEWfQiemB6HwWH_VSi9rT6UDePfn_FREc8kSEFRgqGi4uRhLcx17m0oy8pnsq3njmv0MsITO2X6Cu_Hy40_9yjLHk7ItKDIY-0sHcl66n-YheMhUMlWXwsAtY5ROiyzNoPWhtl9LqBvfEhEUG-lbgewb8uERaWzNHrCZkbSoB5CuFikebVJpWmN2NDerKTsPIf7SkuPoZUroZu0y4qR4NYgJG50Swvmz6l6ExT_Sl3hFzeFpNRzhiVm00?></g></svg>