<?plantuml 1.2026.1?><svg xmlns="http://www.w3.org/2000/svg" xmlns:xlink="http://www.w3.org/1999/xlink" contentStyleType="text/css" data-diagram-type="ACTIVITY" height="717px" preserveAspectRatio="none" style="width:618px;height:717px;background:#FFFFFF;" version="1.1" viewBox="0 0 618 717" width="618px" zoomAndPan="magnify"><title>signMe() + checkSign() - Verifikasi Cetak Surat
direct/mail.php:395-419</title><defs/><g><g class="title" data-source-line="2"><text fill="#000000" font-family="Verdana" font-size="22" font-weight="bold" lengthAdjust="spacing" textLength="585.0303" x="15" y="35.4209">signMe() + checkSign() - Verifikasi Cetak Surat</text><text fill="#000000" font-family="Verdana" font-size="22" font-weight="bold" lengthAdjust="spacing" textLength="298.7939" x="158.1182" y="61.0303">direct/mail.php:395-419</text></g><ellipse cx="341.7954" cy="87.2188" fill="#FFFFFF" rx="10" ry="10" style="stroke:#000000;stroke-width:1;"/><rect fill="#FFFFFF" height="33.9688" rx="12.5" ry="12.5" style="stroke:#000000;stroke-width:1;" width="233.9023" x="224.8442" y="117.2188"/><text fill="#000000" font-family="Verdana" font-size="12" lengthAdjust="spacing" textLength="213.9023" x="234.8442" y="138.3574">signMe() generate verification code</text><rect fill="#ADD8E6" height="136.2344" style="stroke:#000000;stroke-width:1;" width="406.375" x="138.6079" y="161.1875"/><path d="M291.5474,161.1875 L291.5474,170.4844 L281.5474,180.4844 L138.6079,180.4844" fill="none" style="stroke:#000000;stroke-width:1;"/><text fill="#000000" font-family="Verdana" font-size="14" lengthAdjust="spacing" textLength="142.9395" x="141.6079" y="175.1826">Generate Auth Code</text><rect fill="#FFFFFF" height="33.9688" rx="12.5" ry="12.5" style="stroke:#000000;stroke-width:1;" width="146.3691" x="268.6108" y="197.4844"/><text fill="#000000" font-family="Verdana" font-size="12" lengthAdjust="spacing" textLength="126.3691" x="278.6108" y="218.623">auth_code = uniqid()</text><rect fill="#FFFFFF" height="33.9688" rx="12.5" ry="12.5" style="stroke:#000000;stroke-width:1;" width="386.375" x="148.6079" y="251.4531"/><text fill="#000000" font-family="Verdana" font-size="12" lengthAdjust="spacing" textLength="366.375" x="158.6079" y="272.5918">INSERT print_log with auth_code, date, mail_id, username, ip</text><rect fill="#FFFFFF" height="33.9688" rx="12.5" ry="12.5" style="stroke:#000000;stroke-width:1;" width="159.3477" x="262.1216" y="317.4219"/><text fill="#000000" font-family="Verdana" font-size="12" lengthAdjust="spacing" textLength="139.3477" x="272.1216" y="338.5605">Return code auth_code</text><rect fill="#FFFFFF" height="33.9688" rx="12.5" ry="12.5" style="stroke:#000000;stroke-width:1;" width="239.9316" x="221.8296" y="371.3906"/><text fill="#000000" font-family="Verdana" font-size="12" lengthAdjust="spacing" textLength="219.9316" x="231.8296" y="392.5293">checkSign() verify printed document</text><rect fill="#FFFFFF" height="33.9688" rx="12.5" ry="12.5" style="stroke:#000000;stroke-width:1;" width="142.3438" x="270.6235" y="425.3594"/><text fill="#000000" font-family="Verdana" font-size="12" lengthAdjust="spacing" textLength="122.3438" x="280.6235" y="446.498">Input key auth_code</text><rect fill="#ADD8E6" height="82.2656" style="stroke:#000000;stroke-width:1;" width="284.875" x="199.3579" y="469.3281"/><path d="M344.354,469.3281 L344.354,478.625 L334.354,488.625 L199.3579,488.625" fill="none" style="stroke:#000000;stroke-width:1;"/><text fill="#000000" font-family="Verdana" font-size="14" lengthAdjust="spacing" textLength="134.9961" x="202.3579" y="483.3232">Lookup Verification</text><rect fill="#FFFFFF" height="33.9688" rx="12.5" ry="12.5" style="stroke:#000000;stroke-width:1;" width="264.875" x="209.3579" y="505.625"/><text fill="#000000" font-family="Verdana" font-size="12" lengthAdjust="spacing" textLength="244.875" x="219.3579" y="526.7637">SELECT print_log JOIN mail by auth_code</text><polygon fill="#FFFFFF" points="288.3369,571.5938,395.2539,571.5938,407.2539,583.5938,395.2539,595.5938,288.3369,595.5938,276.3369,583.5938,288.3369,571.5938" style="stroke:#000000;stroke-width:1;"/><text fill="#000000" font-family="Verdana" font-size="11" lengthAdjust="spacing" textLength="106.917" x="288.3369" y="587.4019">Record ditemukan?</text><text fill="#000000" font-family="Verdana" font-size="11" lengthAdjust="spacing" textLength="19.0083" x="257.3286" y="580.9995">yes</text><text fill="#000000" font-family="Verdana" font-size="11" lengthAdjust="spacing" textLength="13.7017" x="407.2539" y="580.9995">no</text><rect fill="#FFFFFF" height="33.9688" rx="12.5" ry="12.5" style="stroke:#000000;stroke-width:1;" width="313.1211" x="51.4546" y="605.5938"/><text fill="#000000" font-family="Verdana" font-size="12" lengthAdjust="spacing" textLength="293.1211" x="61.4546" y="626.7324">Render cek_signature.html with verification data</text><rect fill="#FFFFFF" height="33.9688" rx="12.5" ry="12.5" style="stroke:#000000;stroke-width:1;" width="182" x="384.5757" y="605.5938"/><text fill="#000000" font-family="Verdana" font-size="12" lengthAdjust="spacing" textLength="162" x="394.5757" y="626.7324">Tampilkan kode tidak valid</text><polygon fill="#FFFFFF" points="341.7954,645.5625,353.7954,657.5625,341.7954,669.5625,329.7954,657.5625,341.7954,645.5625" style="stroke:#000000;stroke-width:1;"/><ellipse cx="341.7954" cy="700.5625" fill="none" rx="11" ry="11" style="stroke:#000000;stroke-width:1;"/><ellipse cx="341.7954" cy="700.5625" fill="#FFFFFF" rx="6" ry="6" style="stroke:#000000;stroke-width:1;"/><line style="stroke:#000000;stroke-width:1;" x1="341.7954" x2="341.7954" y1="97.2188" y2="117.2188"/><polygon fill="#000000" points="337.7954,107.2188,341.7954,117.2188,345.7954,107.2188,341.7954,111.2188" style="stroke:#000000;stroke-width:1;"/><line style="stroke:#000000;stroke-width:1;" x1="341.7954" x2="341.7954" y1="231.4531" y2="251.4531"/><polygon fill="#000000" points="337.7954,241.4531,341.7954,251.4531,345.7954,241.4531,341.7954,245.4531" style="stroke:#000000;stroke-width:1;"/><line style="stroke:#000000;stroke-width:1;" x1="341.7954" x2="341.7954" y1="151.1875" y2="197.4844"/><polygon fill="#000000" points="337.7954,187.4844,341.7954,197.4844,345.7954,187.4844,341.7954,191.4844" style="stroke:#000000;stroke-width:1;"/><line style="stroke:#000000;stroke-width:1;" x1="341.7954" x2="341.7954" y1="285.4219" y2="317.4219"/><polygon fill="#000000" points="337.7954,307.4219,341.7954,317.4219,345.7954,307.4219,341.7954,311.4219" style="stroke:#000000;stroke-width:1;"/><line style="stroke:#000000;stroke-width:1;" x1="341.7954" x2="341.7954" y1="351.3906" y2="371.3906"/><polygon fill="#000000" points="337.7954,361.3906,341.7954,371.3906,345.7954,361.3906,341.7954,365.3906" style="stroke:#000000;stroke-width:1;"/><line style="stroke:#000000;stroke-width:1;" x1="341.7954" x2="341.7954" y1="405.3594" y2="425.3594"/><polygon fill="#000000" points="337.7954,415.3594,341.7954,425.3594,345.7954,415.3594,341.7954,419.3594" style="stroke:#000000;stroke-width:1;"/><line style="stroke:#000000;stroke-width:1;" x1="341.7954" x2="341.7954" y1="459.3281" y2="505.625"/><polygon fill="#000000" points="337.7954,495.625,341.7954,505.625,345.7954,495.625,341.7954,499.625" style="stroke:#000000;stroke-width:1;"/><line style="stroke:#000000;stroke-width:1;" x1="276.3369" x2="208.0151" y1="583.5938" y2="583.5938"/><line style="stroke:#000000;stroke-width:1;" x1="208.0151" x2="208.0151" y1="583.5938" y2="605.5938"/><polygon fill="#000000" points="204.0151,595.5938,208.0151,605.5938,212.0151,595.5938,208.0151,599.5938" style="stroke:#000000;stroke-width:1;"/><line style="stroke:#000000;stroke-width:1;" x1="407.2539" x2="475.5757" y1="583.5938" y2="583.5938"/><line style="stroke:#000000;stroke-width:1;" x1="475.5757" x2="475.5757" y1="583.5938" y2="605.5938"/><polygon fill="#000000" points="471.5757,595.5938,475.5757,605.5938,479.5757,595.5938,475.5757,599.5938" style="stroke:#000000;stroke-width:1;"/><line style="stroke:#000000;stroke-width:1;" x1="208.0151" x2="208.0151" y1="639.5625" y2="657.5625"/><line style="stroke:#000000;stroke-width:1;" x1="208.0151" x2="329.7954" y1="657.5625" y2="657.5625"/><polygon fill="#000000" points="319.7954,653.5625,329.7954,657.5625,319.7954,661.5625,323.7954,657.5625" style="stroke:#000000;stroke-width:1;"/><line style="stroke:#000000;stroke-width:1;" x1="475.5757" x2="475.5757" y1="639.5625" y2="657.5625"/><line style="stroke:#000000;stroke-width:1;" x1="475.5757" x2="353.7954" y1="657.5625" y2="657.5625"/><polygon fill="#000000" points="363.7954,653.5625,353.7954,657.5625,363.7954,661.5625,359.7954,657.5625" style="stroke:#000000;stroke-width:1;"/><line style="stroke:#000000;stroke-width:1;" x1="341.7954" x2="341.7954" y1="539.5938" y2="571.5938"/><polygon fill="#000000" points="337.7954,561.5938,341.7954,571.5938,345.7954,561.5938,341.7954,565.5938" style="stroke:#000000;stroke-width:1;"/><line style="stroke:#000000;stroke-width:1;" x1="341.7954" x2="341.7954" y1="669.5625" y2="689.5625"/><polygon fill="#000000" points="337.7954,679.5625,341.7954,689.5625,345.7954,679.5625,341.7954,683.5625" style="stroke:#000000;stroke-width:1;"/><?plantuml-src PL9DJ-Cm4BtxLmpi9HMbAmGSccYrWgf2HGMajkAqKkMDfyqeZcsSCQX2_7ScwIuKSHpFl9VtaIEki448LfDJJ6mHMjgwEym6S09bXMMzb5ccKtZ4I1kgTKimGTOrB5FK_CSPYbZopqQJ7OKgvEVZozEBix5IBUl8IkKVZ5jqA124vvwgr4pUGUaD5Yh8BVNpySt_iwl45KnaVGm_vhIj-DecX5S5a6jPhJia_8Baw8bCDYYwnUn-ELsi84HolBP-2oya91_dGp32F8HExPhC45ABqUb6dYWKwatb2-GKzwe-OONOE4oZDx3RVmKD65-c1XqNAf-va1Xgt1s23ypDlQzJ-1VcFe7lxfRJ-NHoQEBsONRVQuQ_NuZVbA8DP0iiVHGPnDYaMhlV0v1Y7MGxR0STuGATmGWbrkkk3IqMSLHnO_VnVEb30jA5GjiYPCxty9Lk0baXXhgBXSb8_S_Qaf53-G4sNTa-l0C0?></g></svg>